<?xml version="1.0" encoding="UTF-8" standalone="no"?><svg xmlns="http://www.w3.org/2000/svg" xmlns:xlink="http://www.w3.org/1999/xlink" contentScriptType="application/ecmascript" contentStyleType="text/css" height="749px" preserveAspectRatio="none" style="width:531px;height:749px;" version="1.1" viewBox="0 0 531 749" width="531px" zoomAndPan="magnify"><defs><filter height="300%" id="f1j6o09z97svzu" width="300%" x="-1" y="-1"><feGaussianBlur result="blurOut" stdDeviation="2.0"/><feColorMatrix in="blurOut" result="blurOut2" type="matrix" values="0 0 0 0 0 0 0 0 0 0 0 0 0 0 0 0 0 0 .4 0"/><feOffset dx="4.0" dy="4.0" in="blurOut2" result="blurOut3"/><feBlend in="SourceGraphic" in2="blurOut3" mode="normal"/></filter></defs><g><!--MD5=[e2df68d2c74ecfe30899ae4af2812170]
class ADC--><rect fill="#FEFECE" filter="url(#f1j6o09z97svzu)" height="242.3262" id="ADC" style="stroke: #A80036; stroke-width: 1.5;" width="130" x="8.21" y="496"/><ellipse cx="56.46" cy="512" fill="#B4A7E5" rx="11" ry="11" style="stroke: #A80036; stroke-width: 1.0;"/><path d="M52.8877,508.2651 L52.8877,506.1069 L60.2671,506.1069 L60.2671,508.2651 L57.8018,508.2651 L57.8018,516.3418 L60.2671,516.3418 L60.2671,518.5 L52.8877,518.5 L52.8877,516.3418 L55.3531,516.3418 L55.3531,508.2651 Z "/><text fill="#000000" font-family="sans-serif" font-size="12" font-style="italic" lengthAdjust="spacingAndGlyphs" textLength="25" x="76.96" y="516.5352">ADC</text><line style="stroke: #A80036; stroke-width: 1.5;" x1="9.21" x2="137.21" y1="528" y2="528"/><line style="stroke: #A80036; stroke-width: 1.5;" x1="9.21" x2="137.21" y1="536" y2="536"/><text fill="#000000" font-family="sans-serif" font-size="11" lengthAdjust="spacingAndGlyphs" textLength="33" x="14.21" y="550.6348">start()</text><text fill="#000000" font-family="sans-serif" font-size="11" lengthAdjust="spacingAndGlyphs" textLength="32" x="14.21" y="563.5898">stop()</text><text fill="#000000" font-family="sans-serif" font-size="11" lengthAdjust="spacingAndGlyphs" textLength="60" x="14.21" y="576.5449">set_mode()</text><text fill="#000000" font-family="sans-serif" font-size="11" lengthAdjust="spacingAndGlyphs" textLength="87" x="14.21" y="589.5">select_channel()</text><text fill="#000000" font-family="sans-serif" font-size="11" lengthAdjust="spacingAndGlyphs" textLength="67" x="14.21" y="602.4551">set_trigger()</text><text fill="#000000" font-family="sans-serif" font-size="11" lengthAdjust="spacingAndGlyphs" textLength="104" x="14.21" y="615.4102">get_measurement()</text><text fill="#000000" font-family="sans-serif" font-size="11" lengthAdjust="spacingAndGlyphs" textLength="64" x="14.21" y="628.3652">enable_irq()</text><text fill="#000000" font-family="sans-serif" font-size="11" lengthAdjust="spacingAndGlyphs" textLength="67" x="14.21" y="641.3203">disable_irq()</text><text fill="#000000" font-family="sans-serif" font-size="11" lengthAdjust="spacingAndGlyphs" textLength="60" x="14.21" y="654.2754">get_event()</text><text fill="#000000" font-family="sans-serif" font-size="11" lengthAdjust="spacingAndGlyphs" textLength="69" x="14.21" y="667.2305">clear_event()</text><text fill="#000000" font-family="sans-serif" font-size="11" lengthAdjust="spacingAndGlyphs" textLength="49" x="14.21" y="680.1855">is_busy()</text><text fill="#000000" font-family="sans-serif" font-size="11" lengthAdjust="spacingAndGlyphs" textLength="79" x="14.21" y="693.1406">is_completed()</text><text fill="#000000" font-family="sans-serif" font-size="11" lengthAdjust="spacingAndGlyphs" textLength="118" x="14.21" y="706.0957">set_clock_frequency()</text><text fill="#000000" font-family="sans-serif" font-size="11" lengthAdjust="spacingAndGlyphs" textLength="97" x="14.21" y="719.0508">set_sample_time()</text><text fill="#000000" font-family="sans-serif" font-size="11" lengthAdjust="spacingAndGlyphs" textLength="54" x="14.21" y="732.0059">calibrate()</text><!--MD5=[b3c4cffaebeb1ca91d3860615de3212f]
class LL--><rect fill="#FEFECE" filter="url(#f1j6o09z97svzu)" height="281.1914" id="LL" style="stroke: #A80036; stroke-width: 1.5;" width="130" x="67.21" y="155"/><ellipse cx="121.96" cy="171" fill="#ADD1B2" rx="11" ry="11" style="stroke: #A80036; stroke-width: 1.0;"/><path d="M124.4331,177.1431 Q123.8521,177.4419 123.2129,177.5913 Q122.5738,177.7407 121.8682,177.7407 Q119.3614,177.7407 118.0415,176.0889 Q116.7217,174.437 116.7217,171.3159 Q116.7217,168.1865 118.0415,166.5347 Q119.3614,164.8828 121.8682,164.8828 Q122.5738,164.8828 123.2212,165.0322 Q123.8687,165.1816 124.4331,165.4805 L124.4331,168.2031 Q123.8023,167.6221 123.2088,167.3523 Q122.6153,167.0825 121.9844,167.0825 Q120.6397,167.0825 119.9549,168.1492 Q119.2701,169.2158 119.2701,171.3159 Q119.2701,173.4077 119.9549,174.4744 Q120.6397,175.541 121.9844,175.541 Q122.6153,175.541 123.2088,175.2712 Q123.8023,175.0015 124.4331,174.4204 Z "/><text fill="#000000" font-family="sans-serif" font-size="12" lengthAdjust="spacingAndGlyphs" textLength="12" x="142.46" y="175.5352">LL</text><line style="stroke: #A80036; stroke-width: 1.5;" x1="68.21" x2="196.21" y1="187" y2="187"/><line style="stroke: #A80036; stroke-width: 1.5;" x1="68.21" x2="196.21" y1="195" y2="195"/><text fill="#000000" font-family="sans-serif" font-size="11" lengthAdjust="spacingAndGlyphs" textLength="35" x="73.21" y="209.6348">reset()</text><text fill="#000000" font-family="sans-serif" font-size="11" lengthAdjust="spacingAndGlyphs" textLength="43" x="73.21" y="222.5898">enable()</text><text fill="#000000" font-family="sans-serif" font-size="11" lengthAdjust="spacingAndGlyphs" textLength="46" x="73.21" y="235.5449">disable()</text><text fill="#000000" font-family="sans-serif" font-size="11" lengthAdjust="spacingAndGlyphs" textLength="118" x="73.21" y="248.5">set_clock_frequency()</text><text fill="#000000" font-family="sans-serif" font-size="11" lengthAdjust="spacingAndGlyphs" textLength="60" x="73.21" y="261.4551">set_mode()</text><text fill="#000000" font-family="sans-serif" font-size="11" lengthAdjust="spacingAndGlyphs" textLength="33" x="73.21" y="274.4102">start()</text><text fill="#000000" font-family="sans-serif" font-size="11" lengthAdjust="spacingAndGlyphs" textLength="32" x="73.21" y="287.3652">stop()</text><text fill="#000000" font-family="sans-serif" font-size="11" lengthAdjust="spacingAndGlyphs" textLength="87" x="73.21" y="300.3203">select_channel()</text><text fill="#000000" font-family="sans-serif" font-size="11" lengthAdjust="spacingAndGlyphs" textLength="67" x="73.21" y="313.2754">set_trigger()</text><text fill="#000000" font-family="sans-serif" font-size="11" lengthAdjust="spacingAndGlyphs" textLength="104" x="73.21" y="326.2305">get_measurement()</text><text fill="#000000" font-family="sans-serif" font-size="11" lengthAdjust="spacingAndGlyphs" textLength="64" x="73.21" y="339.1855">enable_irq()</text><text fill="#000000" font-family="sans-serif" font-size="11" lengthAdjust="spacingAndGlyphs" textLength="67" x="73.21" y="352.1406">disable_irq()</text><text fill="#000000" font-family="sans-serif" font-size="11" lengthAdjust="spacingAndGlyphs" textLength="60" x="73.21" y="365.0957">get_event()</text><text fill="#000000" font-family="sans-serif" font-size="11" lengthAdjust="spacingAndGlyphs" textLength="69" x="73.21" y="378.0508">clear_event()</text><text fill="#000000" font-family="sans-serif" font-size="11" lengthAdjust="spacingAndGlyphs" textLength="49" x="73.21" y="391.0059">is_busy()</text><text fill="#000000" font-family="sans-serif" font-size="11" lengthAdjust="spacingAndGlyphs" textLength="79" x="73.21" y="403.9609">is_completed()</text><text fill="#000000" font-family="sans-serif" font-size="11" lengthAdjust="spacingAndGlyphs" textLength="97" x="73.21" y="416.916">set_sample_time()</text><text fill="#000000" font-family="sans-serif" font-size="11" lengthAdjust="spacingAndGlyphs" textLength="54" x="73.21" y="429.8711">calibrate()</text><!--MD5=[be3765a8ee426731c4981c30c0d20f09]
class HAL--><rect fill="#FEFECE" filter="url(#f1j6o09z97svzu)" height="86.8652" id="HAL" style="stroke: #A80036; stroke-width: 1.5;" width="58" x="246.21" y="8"/><ellipse cx="262.56" cy="24" fill="#ADD1B2" rx="11" ry="11" style="stroke: #A80036; stroke-width: 1.0;"/><path d="M265.0331,30.1431 Q264.4521,30.4419 263.8129,30.5913 Q263.1738,30.7407 262.4682,30.7407 Q259.9614,30.7407 258.6415,29.0889 Q257.3217,27.437 257.3217,24.3159 Q257.3217,21.1865 258.6415,19.5347 Q259.9614,17.8828 262.4682,17.8828 Q263.1738,17.8828 263.8212,18.0322 Q264.4687,18.1816 265.0331,18.4805 L265.0331,21.2031 Q264.4023,20.6221 263.8088,20.3523 Q263.2153,20.0825 262.5844,20.0825 Q261.2397,20.0825 260.5549,21.1492 Q259.8701,22.2158 259.8701,24.3159 Q259.8701,26.4077 260.5549,27.4744 Q261.2397,28.541 262.5844,28.541 Q263.2153,28.541 263.8088,28.2712 Q264.4023,28.0015 265.0331,27.4204 Z "/><text fill="#000000" font-family="sans-serif" font-size="12" lengthAdjust="spacingAndGlyphs" textLength="23" x="276.86" y="28.5352">HAL</text><line style="stroke: #A80036; stroke-width: 1.5;" x1="247.21" x2="303.21" y1="40" y2="40"/><line style="stroke: #A80036; stroke-width: 1.5;" x1="247.21" x2="303.21" y1="48" y2="48"/><text fill="#000000" font-family="sans-serif" font-size="11" lengthAdjust="spacingAndGlyphs" textLength="43" x="252.21" y="62.6348">enable()</text><text fill="#000000" font-family="sans-serif" font-size="11" lengthAdjust="spacingAndGlyphs" textLength="46" x="252.21" y="75.5898">disable()</text><text fill="#000000" font-family="sans-serif" font-size="11" lengthAdjust="spacingAndGlyphs" textLength="25" x="252.21" y="88.5449">init()</text><!--MD5=[eb672f161971a32a28c99da6c0336b3d]
class LL_power--><rect fill="#FEFECE" filter="url(#f1j6o09z97svzu)" height="48" id="LL_power" style="stroke: #A80036; stroke-width: 1.5;" width="86" x="232.21" y="271.5"/><ellipse cx="247.21" cy="287.5" fill="#ADD1B2" rx="11" ry="11" style="stroke: #A80036; stroke-width: 1.0;"/><path d="M249.6831,293.6431 Q249.1021,293.9419 248.4629,294.0913 Q247.8238,294.2407 247.1182,294.2407 Q244.6114,294.2407 243.2915,292.5889 Q241.9717,290.937 241.9717,287.8159 Q241.9717,284.6865 243.2915,283.0347 Q244.6114,281.3828 247.1182,281.3828 Q247.8238,281.3828 248.4712,281.5322 Q249.1187,281.6816 249.6831,281.9805 L249.6831,284.7031 Q249.0523,284.1221 248.4588,283.8523 Q247.8653,283.5825 247.2344,283.5825 Q245.8897,283.5825 245.2049,284.6492 Q244.5201,285.7158 244.5201,287.8159 Q244.5201,289.9077 245.2049,290.9744 Q245.8897,292.041 247.2344,292.041 Q247.8653,292.041 248.4588,291.7712 Q249.0523,291.5015 249.6831,290.9204 Z "/><text fill="#000000" font-family="sans-serif" font-size="12" lengthAdjust="spacingAndGlyphs" textLength="54" x="261.21" y="292.0352">LL_power</text><line style="stroke: #A80036; stroke-width: 1.5;" x1="233.21" x2="317.21" y1="303.5" y2="303.5"/><line style="stroke: #A80036; stroke-width: 1.5;" x1="233.21" x2="317.21" y1="311.5" y2="311.5"/><!--MD5=[8b0caf15fab33df914d6885d5506f67f]
class LL_clock--><rect fill="#FEFECE" filter="url(#f1j6o09z97svzu)" height="48" id="LL_clock" style="stroke: #A80036; stroke-width: 1.5;" width="79" x="353.71" y="271.5"/><ellipse cx="368.71" cy="287.5" fill="#ADD1B2" rx="11" ry="11" style="stroke: #A80036; stroke-width: 1.0;"/><path d="M371.1831,293.6431 Q370.6021,293.9419 369.9629,294.0913 Q369.3238,294.2407 368.6182,294.2407 Q366.1114,294.2407 364.7915,292.5889 Q363.4717,290.937 363.4717,287.8159 Q363.4717,284.6865 364.7915,283.0347 Q366.1114,281.3828 368.6182,281.3828 Q369.3238,281.3828 369.9712,281.5322 Q370.6187,281.6816 371.1831,281.9805 L371.1831,284.7031 Q370.5523,284.1221 369.9588,283.8523 Q369.3653,283.5825 368.7344,283.5825 Q367.3897,283.5825 366.7049,284.6492 Q366.0201,285.7158 366.0201,287.8159 Q366.0201,289.9077 366.7049,290.9744 Q367.3897,292.041 368.7344,292.041 Q369.3653,292.041 369.9588,291.7712 Q370.5523,291.5015 371.1831,290.9204 Z "/><text fill="#000000" font-family="sans-serif" font-size="12" lengthAdjust="spacingAndGlyphs" textLength="47" x="382.71" y="292.0352">LL_clock</text><line style="stroke: #A80036; stroke-width: 1.5;" x1="354.71" x2="431.71" y1="303.5" y2="303.5"/><line style="stroke: #A80036; stroke-width: 1.5;" x1="354.71" x2="431.71" y1="311.5" y2="311.5"/><!--MD5=[831aefa9ebd008f9dae82517425faefb]
class IRQ--><rect fill="#FEFECE" filter="url(#f1j6o09z97svzu)" height="48" id="IRQ" style="stroke: #A80036; stroke-width: 1.5;" width="52" x="468.21" y="271.5"/><ellipse cx="483.21" cy="287.5" fill="#ADD1B2" rx="11" ry="11" style="stroke: #A80036; stroke-width: 1.0;"/><path d="M485.6831,293.6431 Q485.1021,293.9419 484.4629,294.0913 Q483.8238,294.2407 483.1182,294.2407 Q480.6114,294.2407 479.2915,292.5889 Q477.9717,290.937 477.9717,287.8159 Q477.9717,284.6865 479.2915,283.0347 Q480.6114,281.3828 483.1182,281.3828 Q483.8238,281.3828 484.4712,281.5322 Q485.1187,281.6816 485.6831,281.9805 L485.6831,284.7031 Q485.0523,284.1221 484.4588,283.8523 Q483.8653,283.5825 483.2344,283.5825 Q481.8897,283.5825 481.2049,284.6492 Q480.5201,285.7158 480.5201,287.8159 Q480.5201,289.9077 481.2049,290.9744 Q481.8897,292.041 483.2344,292.041 Q483.8653,292.041 484.4588,291.7712 Q485.0523,291.5015 485.6831,290.9204 Z "/><text fill="#000000" font-family="sans-serif" font-size="12" lengthAdjust="spacingAndGlyphs" textLength="20" x="497.21" y="292.0352">IRQ</text><line style="stroke: #A80036; stroke-width: 1.5;" x1="469.21" x2="519.21" y1="303.5" y2="303.5"/><line style="stroke: #A80036; stroke-width: 1.5;" x1="469.21" x2="519.21" y1="311.5" y2="311.5"/><!--MD5=[6cd6398b61cbd3971cab7309b09912b2]
link HAL to ADC--><path d="M246.06,55.87 C195.82,63.42 94.1,86.77 50.21,155 C-10.59,249.51 2.12,378.83 26.06,476.45 " fill="none" id="HAL-&gt;ADC" style="stroke: #A80036; stroke-width: 1.0; stroke-dasharray: 7.0,7.0;"/><polygon fill="none" points="32.84,474.72,31.06,495.84,19.29,478.22,32.84,474.72" style="stroke: #A80036; stroke-width: 1.0;"/><!--MD5=[7c42b4011aa728296f409c876b3a9cd7]
link HAL to LL--><path d="M249.97,95.21 C235.95,118.94 217.76,149.71 199.9,179.95 " fill="none" id="HAL-&gt;LL" style="stroke: #A80036; stroke-width: 1.0;"/><polygon fill="#A80036" points="197.27,184.4,205.2859,178.6776,199.8088,180.0925,198.3939,174.6155,197.27,184.4" style="stroke: #A80036; stroke-width: 1.0;"/><!--MD5=[f481892d08b88046121823827ef5b6c7]
link HAL to LL_power--><path d="M275.21,95.21 C275.21,144.39 275.21,223.83 275.21,266.03 " fill="none" id="HAL-&gt;LL_power" style="stroke: #A80036; stroke-width: 1.0; stroke-dasharray: 7.0,7.0;"/><polygon fill="#A80036" points="275.21,271.23,279.21,262.23,275.21,266.23,271.21,262.23,275.21,271.23" style="stroke: #A80036; stroke-width: 1.0;"/><!--MD5=[03027760a4a69a9b5b7ae20cb535c4e1]
link HAL to LL_clock--><path d="M302.49,95.09 C313.59,113.22 326.14,134.8 336.21,155 C354.96,192.63 372.63,237.99 383.19,266.54 " fill="none" id="HAL-&gt;LL_clock" style="stroke: #A80036; stroke-width: 1.0; stroke-dasharray: 7.0,7.0;"/><polygon fill="#A80036" points="384.95,271.32,385.5976,261.4925,383.2241,266.6273,378.0893,264.2539,384.95,271.32" style="stroke: #A80036; stroke-width: 1.0;"/><!--MD5=[aa119ece880843938e062c5ac955c7c5]
link HAL to IRQ--><path d="M304.48,62.08 C343.34,76.27 411.57,106.55 450.21,155 C476.25,187.66 486.99,235.94 491.35,266.28 " fill="none" id="HAL-&gt;IRQ" style="stroke: #A80036; stroke-width: 1.0; stroke-dasharray: 7.0,7.0;"/><polygon fill="#A80036" points="492.04,271.36,494.7691,261.8968,491.3549,266.4072,486.8445,262.993,492.04,271.36" style="stroke: #A80036; stroke-width: 1.0;"/><!--MD5=[39658260a95506fa566d56d003fd7772]
link LL to ADC--><path d="M106.42,436.17 C103.07,454.28 99.66,472.74 96.36,490.6 " fill="none" id="LL-&gt;ADC" style="stroke: #A80036; stroke-width: 1.0;"/><polygon fill="#A80036" points="95.44,495.63,101.0145,487.5106,96.352,490.7139,93.1487,486.0514,95.44,495.63" style="stroke: #A80036; stroke-width: 1.0;"/><!--MD5=[cf9b8a0b5a14c96629c068a92f1d15e5]
@startuml
interface ADC {
	start()
	stop()
	set_mode()
	select_channel()
	set_trigger()
	get_measurement()
	enable_irq()
	disable_irq()
	get_event()
	clear_event()
	is_busy()
	is_completed()
	set_clock_frequency()
	set_sample_time()
	calibrate()
}

class LL {
	reset()
	enable()
	disable()
	set_clock_frequency()
	set_mode()
	start()
	stop()
	select_channel()
	set_trigger()
	get_measurement()
	enable_irq()
	disable_irq()
	get_event()
	clear_event()
	is_busy()
	is_completed()
	set_sample_time()
	calibrate()
}

class HAL {
	enable()
	disable()
	init()
}

HAL ..|> ADC
HAL - -> LL
HAL ..> LL_power
HAL ..> LL_clock
HAL ..> IRQ
LL - -> ADC
@enduml

PlantUML version 1.2019.13(Wed Dec 11 02:18:29 KST 2019)
(GPL source distribution)
Java Runtime: Java(TM) SE Runtime Environment
JVM: Java HotSpot(TM) 64-Bit Server VM
Java Version: 15+36-1562
Operating System: Mac OS X
Default Encoding: UTF-8
Language: en
Country: KR
--></g></svg>