<?xml version="1.0" encoding="UTF-8" standalone="no"?><svg xmlns="http://www.w3.org/2000/svg" xmlns:xlink="http://www.w3.org/1999/xlink" contentScriptType="application/ecmascript" contentStyleType="text/css" height="395px" preserveAspectRatio="none" style="width:441px;height:395px;" version="1.1" viewBox="0 0 441 395" width="441px" zoomAndPan="magnify"><defs><filter height="300%" id="f3e1kuqelcr52" width="300%" x="-1" y="-1"><feGaussianBlur result="blurOut" stdDeviation="2.0"/><feColorMatrix in="blurOut" result="blurOut2" type="matrix" values="0 0 0 0 0 0 0 0 0 0 0 0 0 0 0 0 0 0 .4 0"/><feOffset dx="4.0" dy="4.0" in="blurOut2" result="blurOut3"/><feBlend in="SourceGraphic" in2="blurOut3" mode="normal"/></filter></defs><g><!--MD5=[ebe7138334eb315d146ad850abc14b72]
class adc--><rect fill="#FEFECE" filter="url(#f3e1kuqelcr52)" height="268.2363" id="adc" style="stroke: #A80036; stroke-width: 1.5;" width="130" x="6" y="8"/><ellipse cx="56.25" cy="24" fill="#B4A7E5" rx="11" ry="11" style="stroke: #A80036; stroke-width: 1.0;"/><path d="M52.6777,20.2651 L52.6777,18.1069 L60.0571,18.1069 L60.0571,20.2651 L57.5918,20.2651 L57.5918,28.3418 L60.0571,28.3418 L60.0571,30.5 L52.6777,30.5 L52.6777,28.3418 L55.1431,28.3418 L55.1431,20.2651 Z "/><text fill="#000000" font-family="sans-serif" font-size="12" font-style="italic" lengthAdjust="spacingAndGlyphs" textLength="21" x="76.75" y="28.5352">adc</text><line style="stroke: #A80036; stroke-width: 1.5;" x1="7" x2="135" y1="40" y2="40"/><line style="stroke: #A80036; stroke-width: 1.5;" x1="7" x2="135" y1="48" y2="48"/><text fill="#000000" font-family="sans-serif" font-size="11" lengthAdjust="spacingAndGlyphs" textLength="35" x="12" y="62.6348">reset()</text><text fill="#000000" font-family="sans-serif" font-size="11" lengthAdjust="spacingAndGlyphs" textLength="49" x="12" y="75.5898">activate()</text><text fill="#000000" font-family="sans-serif" font-size="11" lengthAdjust="spacingAndGlyphs" textLength="62" x="12" y="88.5449">deactivate()</text><text fill="#000000" font-family="sans-serif" font-size="11" lengthAdjust="spacingAndGlyphs" textLength="33" x="12" y="101.5">start()</text><text fill="#000000" font-family="sans-serif" font-size="11" lengthAdjust="spacingAndGlyphs" textLength="32" x="12" y="114.4551">stop()</text><text fill="#000000" font-family="sans-serif" font-size="11" lengthAdjust="spacingAndGlyphs" textLength="60" x="12" y="127.4102">set_mode()</text><text fill="#000000" font-family="sans-serif" font-size="11" lengthAdjust="spacingAndGlyphs" textLength="87" x="12" y="140.3652">select_channel()</text><text fill="#000000" font-family="sans-serif" font-size="11" lengthAdjust="spacingAndGlyphs" textLength="67" x="12" y="153.3203">set_trigger()</text><text fill="#000000" font-family="sans-serif" font-size="11" lengthAdjust="spacingAndGlyphs" textLength="104" x="12" y="166.2754">get_measurement()</text><text fill="#000000" font-family="sans-serif" font-size="11" lengthAdjust="spacingAndGlyphs" textLength="64" x="12" y="179.2305">enable_irq()</text><text fill="#000000" font-family="sans-serif" font-size="11" lengthAdjust="spacingAndGlyphs" textLength="67" x="12" y="192.1855">disable_irq()</text><text fill="#000000" font-family="sans-serif" font-size="11" lengthAdjust="spacingAndGlyphs" textLength="60" x="12" y="205.1406">get_event()</text><text fill="#000000" font-family="sans-serif" font-size="11" lengthAdjust="spacingAndGlyphs" textLength="69" x="12" y="218.0957">clear_event()</text><text fill="#000000" font-family="sans-serif" font-size="11" lengthAdjust="spacingAndGlyphs" textLength="49" x="12" y="231.0508">is_busy()</text><text fill="#000000" font-family="sans-serif" font-size="11" lengthAdjust="spacingAndGlyphs" textLength="79" x="12" y="244.0059">is_completed()</text><text fill="#000000" font-family="sans-serif" font-size="11" lengthAdjust="spacingAndGlyphs" textLength="118" x="12" y="256.9609">set_clock_frequency()</text><text fill="#000000" font-family="sans-serif" font-size="11" lengthAdjust="spacingAndGlyphs" textLength="95" x="12" y="269.916">set_sample_rate()</text><!--MD5=[76867fc0e59e1c50ec6a0e1bf7ea3b66]
class LL_adc--><rect fill="#FEFECE" filter="url(#f3e1kuqelcr52)" height="48" id="LL_adc" style="stroke: #A80036; stroke-width: 1.5;" width="71" x="35.5" y="336"/><ellipse cx="50.5" cy="352" fill="#ADD1B2" rx="11" ry="11" style="stroke: #A80036; stroke-width: 1.0;"/><path d="M52.9731,358.1431 Q52.3921,358.4419 51.7529,358.5913 Q51.1138,358.7407 50.4082,358.7407 Q47.9014,358.7407 46.5815,357.0889 Q45.2617,355.437 45.2617,352.3159 Q45.2617,349.1865 46.5815,347.5347 Q47.9014,345.8828 50.4082,345.8828 Q51.1138,345.8828 51.7612,346.0322 Q52.4087,346.1816 52.9731,346.4805 L52.9731,349.2031 Q52.3423,348.6221 51.7488,348.3523 Q51.1553,348.0825 50.5244,348.0825 Q49.1797,348.0825 48.4949,349.1492 Q47.8101,350.2158 47.8101,352.3159 Q47.8101,354.4077 48.4949,355.4744 Q49.1797,356.541 50.5244,356.541 Q51.1553,356.541 51.7488,356.2712 Q52.3423,356.0015 52.9731,355.4204 Z "/><text fill="#000000" font-family="sans-serif" font-size="12" lengthAdjust="spacingAndGlyphs" textLength="39" x="64.5" y="356.5352">LL_adc</text><line style="stroke: #A80036; stroke-width: 1.5;" x1="36.5" x2="105.5" y1="368" y2="368"/><line style="stroke: #A80036; stroke-width: 1.5;" x1="36.5" x2="105.5" y1="376" y2="376"/><!--MD5=[94839095743b54f9e503a01a51ddc23e]
class HAL_adc--><rect fill="#FEFECE" filter="url(#f3e1kuqelcr52)" height="86.8652" id="HAL_adc" style="stroke: #A80036; stroke-width: 1.5;" width="82" x="216" y="98.5"/><ellipse cx="231" cy="114.5" fill="#ADD1B2" rx="11" ry="11" style="stroke: #A80036; stroke-width: 1.0;"/><path d="M233.4731,120.6431 Q232.8921,120.9419 232.2529,121.0913 Q231.6138,121.2407 230.9082,121.2407 Q228.4014,121.2407 227.0815,119.5889 Q225.7617,117.937 225.7617,114.8159 Q225.7617,111.6865 227.0815,110.0347 Q228.4014,108.3828 230.9082,108.3828 Q231.6138,108.3828 232.2612,108.5322 Q232.9087,108.6816 233.4731,108.9805 L233.4731,111.7031 Q232.8423,111.1221 232.2488,110.8523 Q231.6553,110.5825 231.0244,110.5825 Q229.6797,110.5825 228.9949,111.6492 Q228.3101,112.7158 228.3101,114.8159 Q228.3101,116.9077 228.9949,117.9744 Q229.6797,119.041 231.0244,119.041 Q231.6553,119.041 232.2488,118.7712 Q232.8423,118.5015 233.4731,117.9204 Z "/><text fill="#000000" font-family="sans-serif" font-size="12" lengthAdjust="spacingAndGlyphs" textLength="50" x="245" y="119.0352">HAL_adc</text><line style="stroke: #A80036; stroke-width: 1.5;" x1="217" x2="297" y1="130.5" y2="130.5"/><line style="stroke: #A80036; stroke-width: 1.5;" x1="217" x2="297" y1="138.5" y2="138.5"/><text fill="#000000" font-family="sans-serif" font-size="11" lengthAdjust="spacingAndGlyphs" textLength="43" x="222" y="153.1348">enable()</text><text fill="#000000" font-family="sans-serif" font-size="11" lengthAdjust="spacingAndGlyphs" textLength="46" x="222" y="166.0898">disable()</text><text fill="#000000" font-family="sans-serif" font-size="11" lengthAdjust="spacingAndGlyphs" textLength="25" x="222" y="179.0449">init()</text><!--MD5=[eb672f161971a32a28c99da6c0336b3d]
class LL_power--><rect fill="#FEFECE" filter="url(#f3e1kuqelcr52)" height="48" id="LL_power" style="stroke: #A80036; stroke-width: 1.5;" width="86" x="142" y="336"/><ellipse cx="157" cy="352" fill="#ADD1B2" rx="11" ry="11" style="stroke: #A80036; stroke-width: 1.0;"/><path d="M159.4731,358.1431 Q158.8921,358.4419 158.2529,358.5913 Q157.6138,358.7407 156.9082,358.7407 Q154.4014,358.7407 153.0815,357.0889 Q151.7617,355.437 151.7617,352.3159 Q151.7617,349.1865 153.0815,347.5347 Q154.4014,345.8828 156.9082,345.8828 Q157.6138,345.8828 158.2612,346.0322 Q158.9087,346.1816 159.4731,346.4805 L159.4731,349.2031 Q158.8423,348.6221 158.2488,348.3523 Q157.6553,348.0825 157.0244,348.0825 Q155.6797,348.0825 154.9949,349.1492 Q154.3101,350.2158 154.3101,352.3159 Q154.3101,354.4077 154.9949,355.4744 Q155.6797,356.541 157.0244,356.541 Q157.6553,356.541 158.2488,356.2712 Q158.8423,356.0015 159.4731,355.4204 Z "/><text fill="#000000" font-family="sans-serif" font-size="12" lengthAdjust="spacingAndGlyphs" textLength="54" x="171" y="356.5352">LL_power</text><line style="stroke: #A80036; stroke-width: 1.5;" x1="143" x2="227" y1="368" y2="368"/><line style="stroke: #A80036; stroke-width: 1.5;" x1="143" x2="227" y1="376" y2="376"/><!--MD5=[8b0caf15fab33df914d6885d5506f67f]
class LL_clock--><rect fill="#FEFECE" filter="url(#f3e1kuqelcr52)" height="48" id="LL_clock" style="stroke: #A80036; stroke-width: 1.5;" width="79" x="263.5" y="336"/><ellipse cx="278.5" cy="352" fill="#ADD1B2" rx="11" ry="11" style="stroke: #A80036; stroke-width: 1.0;"/><path d="M280.9731,358.1431 Q280.3921,358.4419 279.7529,358.5913 Q279.1138,358.7407 278.4082,358.7407 Q275.9014,358.7407 274.5815,357.0889 Q273.2617,355.437 273.2617,352.3159 Q273.2617,349.1865 274.5815,347.5347 Q275.9014,345.8828 278.4082,345.8828 Q279.1138,345.8828 279.7612,346.0322 Q280.4087,346.1816 280.9731,346.4805 L280.9731,349.2031 Q280.3423,348.6221 279.7488,348.3523 Q279.1553,348.0825 278.5244,348.0825 Q277.1797,348.0825 276.4949,349.1492 Q275.8101,350.2158 275.8101,352.3159 Q275.8101,354.4077 276.4949,355.4744 Q277.1797,356.541 278.5244,356.541 Q279.1553,356.541 279.7488,356.2712 Q280.3423,356.0015 280.9731,355.4204 Z "/><text fill="#000000" font-family="sans-serif" font-size="12" lengthAdjust="spacingAndGlyphs" textLength="47" x="292.5" y="356.5352">LL_clock</text><line style="stroke: #A80036; stroke-width: 1.5;" x1="264.5" x2="341.5" y1="368" y2="368"/><line style="stroke: #A80036; stroke-width: 1.5;" x1="264.5" x2="341.5" y1="376" y2="376"/><!--MD5=[831aefa9ebd008f9dae82517425faefb]
class IRQ--><rect fill="#FEFECE" filter="url(#f3e1kuqelcr52)" height="48" id="IRQ" style="stroke: #A80036; stroke-width: 1.5;" width="52" x="378" y="336"/><ellipse cx="393" cy="352" fill="#ADD1B2" rx="11" ry="11" style="stroke: #A80036; stroke-width: 1.0;"/><path d="M395.4731,358.1431 Q394.8921,358.4419 394.2529,358.5913 Q393.6138,358.7407 392.9082,358.7407 Q390.4014,358.7407 389.0815,357.0889 Q387.7617,355.437 387.7617,352.3159 Q387.7617,349.1865 389.0815,347.5347 Q390.4014,345.8828 392.9082,345.8828 Q393.6138,345.8828 394.2612,346.0322 Q394.9087,346.1816 395.4731,346.4805 L395.4731,349.2031 Q394.8423,348.6221 394.2488,348.3523 Q393.6553,348.0825 393.0244,348.0825 Q391.6797,348.0825 390.9949,349.1492 Q390.3101,350.2158 390.3101,352.3159 Q390.3101,354.4077 390.9949,355.4744 Q391.6797,356.541 393.0244,356.541 Q393.6553,356.541 394.2488,356.2712 Q394.8423,356.0015 395.4731,355.4204 Z "/><text fill="#000000" font-family="sans-serif" font-size="12" lengthAdjust="spacingAndGlyphs" textLength="20" x="407" y="356.5352">IRQ</text><line style="stroke: #A80036; stroke-width: 1.5;" x1="379" x2="429" y1="368" y2="368"/><line style="stroke: #A80036; stroke-width: 1.5;" x1="379" x2="429" y1="376" y2="376"/><!--MD5=[56982161ed5d7766c1f1a307388aa387]
reverse link adc to LL_adc--><path d="M71,296.13 C71,311.4 71,325.21 71,335.97 " fill="none" id="adc&lt;-LL_adc" style="stroke: #A80036; stroke-width: 1.0; stroke-dasharray: 7.0,7.0;"/><polygon fill="none" points="64,296.11,71,276.11,78,296.11,64,296.11" style="stroke: #A80036; stroke-width: 1.0;"/><!--MD5=[d14402bf609939963fe04a8cf9cf2dcb]
link HAL_adc to LL_adc--><path d="M225.65,185.64 C205.61,212.24 178.65,246.84 153,276 C135.83,295.51 115.28,316.31 99.04,332.21 " fill="none" id="HAL_adc-&gt;LL_adc" style="stroke: #A80036; stroke-width: 1.0;"/><polygon fill="#A80036" points="95.44,335.73,104.6676,332.2875,99.0111,332.2304,99.0682,326.5738,95.44,335.73" style="stroke: #A80036; stroke-width: 1.0;"/><!--MD5=[04a42d64167b060ccf6971d0d1746691]
link HAL_adc to LL_power--><path d="M242.78,185.67 C228.42,228.74 206.67,294 194.36,330.93 " fill="none" id="HAL_adc-&gt;LL_power" style="stroke: #A80036; stroke-width: 1.0; stroke-dasharray: 7.0,7.0;"/><polygon fill="#A80036" points="192.76,335.73,199.3876,328.4448,194.3326,330.9837,191.7936,325.9287,192.76,335.73" style="stroke: #A80036; stroke-width: 1.0;"/><!--MD5=[d3cdbc77c1870e3d2c88ca6b020f3f09]
link HAL_adc to LL_clock--><path d="M266.09,185.67 C275.22,228.56 289.04,293.47 296.93,330.48 " fill="none" id="HAL_adc-&gt;LL_clock" style="stroke: #A80036; stroke-width: 1.0; stroke-dasharray: 7.0,7.0;"/><polygon fill="#A80036" points="298.05,335.73,300.0889,326.0945,297.0092,330.8395,292.2641,327.7598,298.05,335.73" style="stroke: #A80036; stroke-width: 1.0;"/><!--MD5=[4da21ba61c68a72654a08e89b9afc036]
link HAL_adc to IRQ--><path d="M286.04,185.67 C315.47,228.92 360.13,294.54 385.21,331.39 " fill="none" id="HAL_adc-&gt;IRQ" style="stroke: #A80036; stroke-width: 1.0; stroke-dasharray: 7.0,7.0;"/><polygon fill="#A80036" points="388.17,335.73,386.4289,326.0363,385.3635,331.5919,379.8079,330.5266,388.17,335.73" style="stroke: #A80036; stroke-width: 1.0;"/><!--MD5=[e51e2006c906f1d8fba42f032a04f62f]
@startuml
interface adc {
	reset()
	activate()
	deactivate()
	start()
	stop()
	set_mode()
	select_channel()
	set_trigger()
	get_measurement()
	enable_irq()
	disable_irq()
	get_event()
	clear_event()
	is_busy()
	is_completed()
	set_clock_frequency()
	set_sample_rate()
}

class LL_adc {
}

class HAL_adc {
	enable()
	disable()
	init()
}

adc <|.. LL_adc
HAL_adc - -> LL_adc
HAL_adc ..> LL_power
HAL_adc ..> LL_clock
HAL_adc ..> IRQ
@enduml

PlantUML version 1.2019.13(Wed Dec 11 02:18:29 KST 2019)
(GPL source distribution)
Java Runtime: Java(TM) SE Runtime Environment
JVM: Java HotSpot(TM) 64-Bit Server VM
Java Version: 15+36-1562
Operating System: Mac OS X
Default Encoding: UTF-8
Language: en
Country: KR
--></g></svg>