<?xml version="1.0" encoding="UTF-8" standalone="no"?><svg xmlns="http://www.w3.org/2000/svg" xmlns:xlink="http://www.w3.org/1999/xlink" contentScriptType="application/ecmascript" contentStyleType="text/css" height="447px" preserveAspectRatio="none" style="width:470px;height:447px;" version="1.1" viewBox="0 0 470 447" width="470px" zoomAndPan="magnify"><defs><filter height="300%" id="f6j64zjujp34q" width="300%" x="-1" y="-1"><feGaussianBlur result="blurOut" stdDeviation="2.0"/><feColorMatrix in="blurOut" result="blurOut2" type="matrix" values="0 0 0 0 0 0 0 0 0 0 0 0 0 0 0 0 0 0 .4 0"/><feOffset dx="4.0" dy="4.0" in="blurOut2" result="blurOut3"/><feBlend in="SourceGraphic" in2="blurOut3" mode="normal"/></filter></defs><g><!--MD5=[e2df68d2c74ecfe30899ae4af2812170]
class ADC--><rect fill="#FEFECE" filter="url(#f6j64zjujp34q)" height="281.1914" id="ADC" style="stroke: #A80036; stroke-width: 1.5;" width="130" x="6" y="155"/><ellipse cx="54.25" cy="171" fill="#B4A7E5" rx="11" ry="11" style="stroke: #A80036; stroke-width: 1.0;"/><path d="M50.6777,167.2651 L50.6777,165.1069 L58.0571,165.1069 L58.0571,167.2651 L55.5918,167.2651 L55.5918,175.3418 L58.0571,175.3418 L58.0571,177.5 L50.6777,177.5 L50.6777,175.3418 L53.1431,175.3418 L53.1431,167.2651 Z "/><text fill="#000000" font-family="sans-serif" font-size="12" font-style="italic" lengthAdjust="spacingAndGlyphs" textLength="25" x="74.75" y="175.5352">ADC</text><line style="stroke: #A80036; stroke-width: 1.5;" x1="7" x2="135" y1="187" y2="187"/><line style="stroke: #A80036; stroke-width: 1.5;" x1="7" x2="135" y1="195" y2="195"/><text fill="#000000" font-family="sans-serif" font-size="11" lengthAdjust="spacingAndGlyphs" textLength="35" x="12" y="209.6348">reset()</text><text fill="#000000" font-family="sans-serif" font-size="11" lengthAdjust="spacingAndGlyphs" textLength="77" x="12" y="222.5898">enable_clock()</text><text fill="#000000" font-family="sans-serif" font-size="11" lengthAdjust="spacingAndGlyphs" textLength="80" x="12" y="235.5449">disable_clock()</text><text fill="#000000" font-family="sans-serif" font-size="11" lengthAdjust="spacingAndGlyphs" textLength="33" x="12" y="248.5">start()</text><text fill="#000000" font-family="sans-serif" font-size="11" lengthAdjust="spacingAndGlyphs" textLength="32" x="12" y="261.4551">stop()</text><text fill="#000000" font-family="sans-serif" font-size="11" lengthAdjust="spacingAndGlyphs" textLength="60" x="12" y="274.4102">set_mode()</text><text fill="#000000" font-family="sans-serif" font-size="11" lengthAdjust="spacingAndGlyphs" textLength="87" x="12" y="287.3652">select_channel()</text><text fill="#000000" font-family="sans-serif" font-size="11" lengthAdjust="spacingAndGlyphs" textLength="67" x="12" y="300.3203">set_trigger()</text><text fill="#000000" font-family="sans-serif" font-size="11" lengthAdjust="spacingAndGlyphs" textLength="104" x="12" y="313.2754">get_measurement()</text><text fill="#000000" font-family="sans-serif" font-size="11" lengthAdjust="spacingAndGlyphs" textLength="64" x="12" y="326.2305">enable_irq()</text><text fill="#000000" font-family="sans-serif" font-size="11" lengthAdjust="spacingAndGlyphs" textLength="67" x="12" y="339.1855">disable_irq()</text><text fill="#000000" font-family="sans-serif" font-size="11" lengthAdjust="spacingAndGlyphs" textLength="60" x="12" y="352.1406">get_event()</text><text fill="#000000" font-family="sans-serif" font-size="11" lengthAdjust="spacingAndGlyphs" textLength="69" x="12" y="365.0957">clear_event()</text><text fill="#000000" font-family="sans-serif" font-size="11" lengthAdjust="spacingAndGlyphs" textLength="49" x="12" y="378.0508">is_busy()</text><text fill="#000000" font-family="sans-serif" font-size="11" lengthAdjust="spacingAndGlyphs" textLength="79" x="12" y="391.0059">is_completed()</text><text fill="#000000" font-family="sans-serif" font-size="11" lengthAdjust="spacingAndGlyphs" textLength="118" x="12" y="403.9609">set_clock_frequency()</text><text fill="#000000" font-family="sans-serif" font-size="11" lengthAdjust="spacingAndGlyphs" textLength="97" x="12" y="416.916">set_sample_time()</text><text fill="#000000" font-family="sans-serif" font-size="11" lengthAdjust="spacingAndGlyphs" textLength="54" x="12" y="429.8711">calibrate()</text><!--MD5=[be3765a8ee426731c4981c30c0d20f09]
class HAL--><rect fill="#FEFECE" filter="url(#f6j64zjujp34q)" height="86.8652" id="HAL" style="stroke: #A80036; stroke-width: 1.5;" width="58" x="244" y="8"/><ellipse cx="260.35" cy="24" fill="#ADD1B2" rx="11" ry="11" style="stroke: #A80036; stroke-width: 1.0;"/><path d="M262.8231,30.1431 Q262.2421,30.4419 261.6029,30.5913 Q260.9638,30.7407 260.2582,30.7407 Q257.7514,30.7407 256.4315,29.0889 Q255.1117,27.437 255.1117,24.3159 Q255.1117,21.1865 256.4315,19.5347 Q257.7514,17.8828 260.2582,17.8828 Q260.9638,17.8828 261.6112,18.0322 Q262.2587,18.1816 262.8231,18.4805 L262.8231,21.2031 Q262.1923,20.6221 261.5988,20.3523 Q261.0053,20.0825 260.3744,20.0825 Q259.0297,20.0825 258.3449,21.1492 Q257.6601,22.2158 257.6601,24.3159 Q257.6601,26.4077 258.3449,27.4744 Q259.0297,28.541 260.3744,28.541 Q261.0053,28.541 261.5988,28.2712 Q262.1923,28.0015 262.8231,27.4204 Z "/><text fill="#000000" font-family="sans-serif" font-size="12" lengthAdjust="spacingAndGlyphs" textLength="23" x="274.65" y="28.5352">HAL</text><line style="stroke: #A80036; stroke-width: 1.5;" x1="245" x2="301" y1="40" y2="40"/><line style="stroke: #A80036; stroke-width: 1.5;" x1="245" x2="301" y1="48" y2="48"/><text fill="#000000" font-family="sans-serif" font-size="11" lengthAdjust="spacingAndGlyphs" textLength="43" x="250" y="62.6348">enable()</text><text fill="#000000" font-family="sans-serif" font-size="11" lengthAdjust="spacingAndGlyphs" textLength="46" x="250" y="75.5898">disable()</text><text fill="#000000" font-family="sans-serif" font-size="11" lengthAdjust="spacingAndGlyphs" textLength="25" x="250" y="88.5449">init()</text><!--MD5=[eb672f161971a32a28c99da6c0336b3d]
class LL_power--><rect fill="#FEFECE" filter="url(#f6j64zjujp34q)" height="48" id="LL_power" style="stroke: #A80036; stroke-width: 1.5;" width="86" x="171" y="271.5"/><ellipse cx="186" cy="287.5" fill="#ADD1B2" rx="11" ry="11" style="stroke: #A80036; stroke-width: 1.0;"/><path d="M188.4731,293.6431 Q187.8921,293.9419 187.2529,294.0913 Q186.6138,294.2407 185.9082,294.2407 Q183.4014,294.2407 182.0815,292.5889 Q180.7617,290.937 180.7617,287.8159 Q180.7617,284.6865 182.0815,283.0347 Q183.4014,281.3828 185.9082,281.3828 Q186.6138,281.3828 187.2612,281.5322 Q187.9087,281.6816 188.4731,281.9805 L188.4731,284.7031 Q187.8423,284.1221 187.2488,283.8523 Q186.6553,283.5825 186.0244,283.5825 Q184.6797,283.5825 183.9949,284.6492 Q183.3101,285.7158 183.3101,287.8159 Q183.3101,289.9077 183.9949,290.9744 Q184.6797,292.041 186.0244,292.041 Q186.6553,292.041 187.2488,291.7712 Q187.8423,291.5015 188.4731,290.9204 Z "/><text fill="#000000" font-family="sans-serif" font-size="12" lengthAdjust="spacingAndGlyphs" textLength="54" x="200" y="292.0352">LL_power</text><line style="stroke: #A80036; stroke-width: 1.5;" x1="172" x2="256" y1="303.5" y2="303.5"/><line style="stroke: #A80036; stroke-width: 1.5;" x1="172" x2="256" y1="311.5" y2="311.5"/><!--MD5=[8b0caf15fab33df914d6885d5506f67f]
class LL_clock--><rect fill="#FEFECE" filter="url(#f6j64zjujp34q)" height="48" id="LL_clock" style="stroke: #A80036; stroke-width: 1.5;" width="79" x="292.5" y="271.5"/><ellipse cx="307.5" cy="287.5" fill="#ADD1B2" rx="11" ry="11" style="stroke: #A80036; stroke-width: 1.0;"/><path d="M309.9731,293.6431 Q309.3921,293.9419 308.7529,294.0913 Q308.1138,294.2407 307.4082,294.2407 Q304.9014,294.2407 303.5815,292.5889 Q302.2617,290.937 302.2617,287.8159 Q302.2617,284.6865 303.5815,283.0347 Q304.9014,281.3828 307.4082,281.3828 Q308.1138,281.3828 308.7612,281.5322 Q309.4087,281.6816 309.9731,281.9805 L309.9731,284.7031 Q309.3423,284.1221 308.7488,283.8523 Q308.1553,283.5825 307.5244,283.5825 Q306.1797,283.5825 305.4949,284.6492 Q304.8101,285.7158 304.8101,287.8159 Q304.8101,289.9077 305.4949,290.9744 Q306.1797,292.041 307.5244,292.041 Q308.1553,292.041 308.7488,291.7712 Q309.3423,291.5015 309.9731,290.9204 Z "/><text fill="#000000" font-family="sans-serif" font-size="12" lengthAdjust="spacingAndGlyphs" textLength="47" x="321.5" y="292.0352">LL_clock</text><line style="stroke: #A80036; stroke-width: 1.5;" x1="293.5" x2="370.5" y1="303.5" y2="303.5"/><line style="stroke: #A80036; stroke-width: 1.5;" x1="293.5" x2="370.5" y1="311.5" y2="311.5"/><!--MD5=[831aefa9ebd008f9dae82517425faefb]
class IRQ--><rect fill="#FEFECE" filter="url(#f6j64zjujp34q)" height="48" id="IRQ" style="stroke: #A80036; stroke-width: 1.5;" width="52" x="407" y="271.5"/><ellipse cx="422" cy="287.5" fill="#ADD1B2" rx="11" ry="11" style="stroke: #A80036; stroke-width: 1.0;"/><path d="M424.4731,293.6431 Q423.8921,293.9419 423.2529,294.0913 Q422.6138,294.2407 421.9082,294.2407 Q419.4014,294.2407 418.0815,292.5889 Q416.7617,290.937 416.7617,287.8159 Q416.7617,284.6865 418.0815,283.0347 Q419.4014,281.3828 421.9082,281.3828 Q422.6138,281.3828 423.2612,281.5322 Q423.9087,281.6816 424.4731,281.9805 L424.4731,284.7031 Q423.8423,284.1221 423.2488,283.8523 Q422.6553,283.5825 422.0244,283.5825 Q420.6797,283.5825 419.9949,284.6492 Q419.3101,285.7158 419.3101,287.8159 Q419.3101,289.9077 419.9949,290.9744 Q420.6797,292.041 422.0244,292.041 Q422.6553,292.041 423.2488,291.7712 Q423.8423,291.5015 424.4731,290.9204 Z "/><text fill="#000000" font-family="sans-serif" font-size="12" lengthAdjust="spacingAndGlyphs" textLength="20" x="436" y="292.0352">IRQ</text><line style="stroke: #A80036; stroke-width: 1.5;" x1="408" x2="458" y1="303.5" y2="303.5"/><line style="stroke: #A80036; stroke-width: 1.5;" x1="408" x2="458" y1="311.5" y2="311.5"/><!--MD5=[b3c4cffaebeb1ca91d3860615de3212f]
class LL--><rect fill="#FEFECE" filter="url(#f6j64zjujp34q)" height="48" id="LL" style="stroke: #A80036; stroke-width: 1.5;" width="44" x="49" y="27.5"/><ellipse cx="64" cy="43.5" fill="#ADD1B2" rx="11" ry="11" style="stroke: #A80036; stroke-width: 1.0;"/><path d="M66.4731,49.6431 Q65.8921,49.9419 65.2529,50.0913 Q64.6138,50.2407 63.9082,50.2407 Q61.4014,50.2407 60.0815,48.5889 Q58.7617,46.937 58.7617,43.8159 Q58.7617,40.6865 60.0815,39.0347 Q61.4014,37.3828 63.9082,37.3828 Q64.6138,37.3828 65.2612,37.5322 Q65.9087,37.6816 66.4731,37.9805 L66.4731,40.7031 Q65.8423,40.1221 65.2488,39.8523 Q64.6553,39.5825 64.0244,39.5825 Q62.6797,39.5825 61.9949,40.6492 Q61.3101,41.7158 61.3101,43.8159 Q61.3101,45.9077 61.9949,46.9744 Q62.6797,48.041 64.0244,48.041 Q64.6553,48.041 65.2488,47.7712 Q65.8423,47.5015 66.4731,46.9204 Z "/><text fill="#000000" font-family="sans-serif" font-size="12" lengthAdjust="spacingAndGlyphs" textLength="12" x="78" y="48.0352">LL</text><line style="stroke: #A80036; stroke-width: 1.5;" x1="50" x2="92" y1="59.5" y2="59.5"/><line style="stroke: #A80036; stroke-width: 1.5;" x1="50" x2="92" y1="67.5" y2="67.5"/><!--MD5=[6cd6398b61cbd3971cab7309b09912b2]
link HAL to ADC--><path d="M243.94,72.95 C218.03,92.14 180.11,122.66 153,155 C148.31,160.6 143.72,166.5 139.27,172.58 " fill="none" id="HAL-&gt;ADC" style="stroke: #A80036; stroke-width: 1.0;"/><polygon fill="#A80036" points="136.21,176.82,144.7209,171.8637,139.1364,172.7659,138.2342,167.1814,136.21,176.82" style="stroke: #A80036; stroke-width: 1.0;"/><!--MD5=[f481892d08b88046121823827ef5b6c7]
link HAL to LL_power--><path d="M262.59,95.21 C250.57,144.5 231.15,224.15 220.88,266.29 " fill="none" id="HAL-&gt;LL_power" style="stroke: #A80036; stroke-width: 1.0;"/><polygon fill="#A80036" points="219.67,271.23,225.6903,263.4354,220.8558,266.3726,217.9185,261.5381,219.67,271.23" style="stroke: #A80036; stroke-width: 1.0;"/><!--MD5=[03027760a4a69a9b5b7ae20cb535c4e1]
link HAL to LL_clock--><path d="M283.41,95.21 C295.43,144.5 314.85,224.15 325.12,266.29 " fill="none" id="HAL-&gt;LL_clock" style="stroke: #A80036; stroke-width: 1.0;"/><polygon fill="#A80036" points="326.33,271.23,328.0815,261.5381,325.1442,266.3726,320.3097,263.4354,326.33,271.23" style="stroke: #A80036; stroke-width: 1.0;"/><!--MD5=[aa119ece880843938e062c5ac955c7c5]
link HAL to IRQ--><path d="M302.07,71.29 C328.32,89.67 366.23,119.96 389,155 C411.57,189.72 423.24,236.81 428.74,266.42 " fill="none" id="HAL-&gt;IRQ" style="stroke: #A80036; stroke-width: 1.0;"/><polygon fill="#A80036" points="429.63,271.38,431.975,261.8144,428.7456,266.4588,424.1012,263.2294,429.63,271.38" style="stroke: #A80036; stroke-width: 1.0;"/><!--MD5=[39658260a95506fa566d56d003fd7772]
link LL to ADC--><path d="M71,75.7 C71,90.69 71,111.66 71,134.74 " fill="none" id="LL-&gt;ADC" style="stroke: #A80036; stroke-width: 1.0; stroke-dasharray: 7.0,7.0;"/><polygon fill="none" points="78,134.99,71,154.99,64,134.99,78,134.99" style="stroke: #A80036; stroke-width: 1.0;"/><!--MD5=[b5bef13bc96a32a5a7ed9c1197d6dab2]
@startuml
interface ADC {
	reset()
	enable_clock()
	disable_clock()
	start()
	stop()
	set_mode()
	select_channel()
	set_trigger()
	get_measurement()
	enable_irq()
	disable_irq()
	get_event()
	clear_event()
	is_busy()
	is_completed()
	set_clock_frequency()
	set_sample_time()
	calibrate()
}

class HAL {
	enable()
	disable()
	init()
}

HAL - -> ADC
HAL - -> LL_power
HAL - -> LL_clock
HAL - -> IRQ
LL ..|> ADC
@enduml

PlantUML version 1.2019.13(Wed Dec 11 02:18:29 KST 2019)
(GPL source distribution)
Java Runtime: Java(TM) SE Runtime Environment
JVM: Java HotSpot(TM) 64-Bit Server VM
Java Version: 15+36-1562
Operating System: Mac OS X
Default Encoding: UTF-8
Language: en
Country: KR
--></g></svg>