<?xml version="1.0" encoding="UTF-8" standalone="no"?><svg xmlns="http://www.w3.org/2000/svg" xmlns:xlink="http://www.w3.org/1999/xlink" contentScriptType="application/ecmascript" contentStyleType="text/css" height="283px" preserveAspectRatio="none" style="width:151px;height:283px;" version="1.1" viewBox="0 0 151 283" width="151px" zoomAndPan="magnify"><defs><filter height="300%" id="f1nk1wln6klac3" width="300%" x="-1" y="-1"><feGaussianBlur result="blurOut" stdDeviation="2.0"/><feColorMatrix in="blurOut" result="blurOut2" type="matrix" values="0 0 0 0 0 0 0 0 0 0 0 0 0 0 0 0 0 0 .4 0"/><feOffset dx="4.0" dy="4.0" in="blurOut2" result="blurOut3"/><feBlend in="SourceGraphic" in2="blurOut3" mode="normal"/></filter></defs><g><!--MD5=[6be980a270965acedb03dda44b7ff25b]
class Periph--><rect fill="#FEFECE" filter="url(#f1nk1wln6klac3)" height="48" id="Periph" style="stroke: #A80036; stroke-width: 1.5;" width="69" x="35.5" y="116"/><ellipse cx="50.5" cy="132" fill="#B4A7E5" rx="11" ry="11" style="stroke: #A80036; stroke-width: 1.0;"/><path d="M46.9277,128.2651 L46.9277,126.1069 L54.3071,126.1069 L54.3071,128.2651 L51.8418,128.2651 L51.8418,136.3418 L54.3071,136.3418 L54.3071,138.5 L46.9277,138.5 L46.9277,136.3418 L49.3931,136.3418 L49.3931,128.2651 Z "/><text fill="#000000" font-family="sans-serif" font-size="12" font-style="italic" lengthAdjust="spacingAndGlyphs" textLength="37" x="64.5" y="136.5352">Periph</text><line style="stroke: #A80036; stroke-width: 1.5;" x1="36.5" x2="103.5" y1="148" y2="148"/><line style="stroke: #A80036; stroke-width: 1.5;" x1="36.5" x2="103.5" y1="156" y2="156"/><!--MD5=[b3c4cffaebeb1ca91d3860615de3212f]
class LL--><rect fill="#FEFECE" filter="url(#f1nk1wln6klac3)" height="48" id="LL" style="stroke: #A80036; stroke-width: 1.5;" width="44" x="6" y="8"/><ellipse cx="21" cy="24" fill="#ADD1B2" rx="11" ry="11" style="stroke: #A80036; stroke-width: 1.0;"/><path d="M23.4731,30.1431 Q22.8921,30.4419 22.2529,30.5913 Q21.6138,30.7407 20.9082,30.7407 Q18.4014,30.7407 17.0815,29.0889 Q15.7617,27.437 15.7617,24.3159 Q15.7617,21.1865 17.0815,19.5347 Q18.4014,17.8828 20.9082,17.8828 Q21.6138,17.8828 22.2612,18.0322 Q22.9087,18.1816 23.4731,18.4805 L23.4731,21.2031 Q22.8423,20.6221 22.2488,20.3523 Q21.6553,20.0825 21.0244,20.0825 Q19.6797,20.0825 18.9949,21.1492 Q18.3101,22.2158 18.3101,24.3159 Q18.3101,26.4077 18.9949,27.4744 Q19.6797,28.541 21.0244,28.541 Q21.6553,28.541 22.2488,28.2712 Q22.8423,28.0015 23.4731,27.4204 Z "/><text fill="#000000" font-family="sans-serif" font-size="12" lengthAdjust="spacingAndGlyphs" textLength="12" x="35" y="28.5352">LL</text><line style="stroke: #A80036; stroke-width: 1.5;" x1="7" x2="49" y1="40" y2="40"/><line style="stroke: #A80036; stroke-width: 1.5;" x1="7" x2="49" y1="48" y2="48"/><!--MD5=[be3765a8ee426731c4981c30c0d20f09]
class HAL--><rect fill="#FEFECE" filter="url(#f1nk1wln6klac3)" height="48" id="HAL" style="stroke: #A80036; stroke-width: 1.5;" width="55" x="85.5" y="8"/><ellipse cx="100.5" cy="24" fill="#ADD1B2" rx="11" ry="11" style="stroke: #A80036; stroke-width: 1.0;"/><path d="M102.9731,30.1431 Q102.3921,30.4419 101.7529,30.5913 Q101.1138,30.7407 100.4082,30.7407 Q97.9014,30.7407 96.5815,29.0889 Q95.2617,27.437 95.2617,24.3159 Q95.2617,21.1865 96.5815,19.5347 Q97.9014,17.8828 100.4082,17.8828 Q101.1138,17.8828 101.7612,18.0322 Q102.4087,18.1816 102.9731,18.4805 L102.9731,21.2031 Q102.3423,20.6221 101.7488,20.3523 Q101.1553,20.0825 100.5244,20.0825 Q99.1797,20.0825 98.4949,21.1492 Q97.8101,22.2158 97.8101,24.3159 Q97.8101,26.4077 98.4949,27.4744 Q99.1797,28.541 100.5244,28.541 Q101.1553,28.541 101.7488,28.2712 Q102.3423,28.0015 102.9731,27.4204 Z "/><text fill="#000000" font-family="sans-serif" font-size="12" lengthAdjust="spacingAndGlyphs" textLength="23" x="114.5" y="28.5352">HAL</text><line style="stroke: #A80036; stroke-width: 1.5;" x1="86.5" x2="139.5" y1="40" y2="40"/><line style="stroke: #A80036; stroke-width: 1.5;" x1="86.5" x2="139.5" y1="48" y2="48"/><!--MD5=[7b672a703c913e3dbedd276e6bcc3be7]
class periph_t--><rect fill="#FEFECE" filter="url(#f1nk1wln6klac3)" height="48" id="periph_t" style="stroke: #A80036; stroke-width: 1.5;" width="80" x="30" y="224"/><ellipse cx="45" cy="240" fill="#A9DCDF" rx="11" ry="11" style="stroke: #A80036; stroke-width: 1.0;"/><path d="M44.8633,235.3481 L43.7095,240.4199 L46.0254,240.4199 Z M43.3691,233.1069 L46.3657,233.1069 L49.7109,245.5 L47.2622,245.5 L46.4985,242.437 L43.2197,242.437 L42.4727,245.5 L40.0239,245.5 Z "/><text fill="#000000" font-family="sans-serif" font-size="12" font-style="italic" lengthAdjust="spacingAndGlyphs" textLength="48" x="59" y="244.5352">periph_t</text><line style="stroke: #A80036; stroke-width: 1.5;" x1="31" x2="109" y1="256" y2="256"/><line style="stroke: #A80036; stroke-width: 1.5;" x1="31" x2="109" y1="264" y2="264"/><!--MD5=[a1694e425a72104c7dbc9f4e191776e7]
link Periph to periph_t--><path d="M70,164 C70,180 70,201.45 70,218.53 " fill="none" id="Periph-&gt;periph_t" style="stroke: #A80036; stroke-width: 1.0;"/><polygon fill="#A80036" points="70,223.68,74,214.68,70,218.68,66,214.68,70,223.68" style="stroke: #A80036; stroke-width: 1.0;"/><!--MD5=[a4160eda9f8e8faa0c64bc6ff7fe721e]
link LL to Periph--><path d="M37.11,56 C41.87,68 47.84,83.06 53.38,97.05 " fill="none" id="LL-&gt;Periph" style="stroke: #A80036; stroke-width: 1.0; stroke-dasharray: 7.0,7.0;"/><polygon fill="none" points="59.9,94.51,60.76,115.68,46.88,99.66,59.9,94.51" style="stroke: #A80036; stroke-width: 1.0;"/><!--MD5=[1c9751fe3aaa94d1420995b11f91412f]
link HAL to Periph--><path d="M103.67,56 C97.12,72.14 88.33,93.82 81.37,110.97 " fill="none" id="HAL-&gt;Periph" style="stroke: #A80036; stroke-width: 1.0;"/><polygon fill="#A80036" points="79.46,115.68,86.5419,108.8356,81.3342,111.0446,79.1252,105.8368,79.46,115.68" style="stroke: #A80036; stroke-width: 1.0;"/><!--MD5=[f736819a7be45dcb3b6892bd2bb2eb3e]
@startuml
interface Periph
class LL
class HAL
abstract periph_t

Periph - -> periph_t
LL ..|> Periph
HAL - -> Periph
@enduml

PlantUML version 1.2019.13(Wed Dec 11 02:18:29 KST 2019)
(GPL source distribution)
Java Runtime: Java(TM) SE Runtime Environment
JVM: Java HotSpot(TM) 64-Bit Server VM
Java Version: 15+36-1562
Operating System: Mac OS X
Default Encoding: UTF-8
Language: en
Country: KR
--></g></svg>