<?xml version="1.0" encoding="UTF-8" standalone="no"?><svg xmlns="http://www.w3.org/2000/svg" xmlns:xlink="http://www.w3.org/1999/xlink" contentScriptType="application/ecmascript" contentStyleType="text/css" height="391px" preserveAspectRatio="none" style="width:117px;height:391px;" version="1.1" viewBox="0 0 117 391" width="117px" zoomAndPan="magnify"><defs><filter height="300%" id="f1w1eco8wfr55z" width="300%" x="-1" y="-1"><feGaussianBlur result="blurOut" stdDeviation="2.0"/><feColorMatrix in="blurOut" result="blurOut2" type="matrix" values="0 0 0 0 0 0 0 0 0 0 0 0 0 0 0 0 0 0 .4 0"/><feOffset dx="4.0" dy="4.0" in="blurOut2" result="blurOut3"/><feBlend in="SourceGraphic" in2="blurOut3" mode="normal"/></filter></defs><g><!--MD5=[6be980a270965acedb03dda44b7ff25b]
class Periph--><rect fill="#FEFECE" filter="url(#f1w1eco8wfr55z)" height="48" id="Periph" style="stroke: #A80036; stroke-width: 1.5;" width="69" x="11.5" y="224"/><ellipse cx="26.5" cy="240" fill="#B4A7E5" rx="11" ry="11" style="stroke: #A80036; stroke-width: 1.0;"/><path d="M22.9277,236.2651 L22.9277,234.1069 L30.3071,234.1069 L30.3071,236.2651 L27.8418,236.2651 L27.8418,244.3418 L30.3071,244.3418 L30.3071,246.5 L22.9277,246.5 L22.9277,244.3418 L25.3931,244.3418 L25.3931,236.2651 Z "/><text fill="#000000" font-family="sans-serif" font-size="12" font-style="italic" lengthAdjust="spacingAndGlyphs" textLength="37" x="40.5" y="244.5352">Periph</text><line style="stroke: #A80036; stroke-width: 1.5;" x1="12.5" x2="79.5" y1="256" y2="256"/><line style="stroke: #A80036; stroke-width: 1.5;" x1="12.5" x2="79.5" y1="264" y2="264"/><!--MD5=[b3c4cffaebeb1ca91d3860615de3212f]
class LL--><rect fill="#FEFECE" filter="url(#f1w1eco8wfr55z)" height="48" id="LL" style="stroke: #A80036; stroke-width: 1.5;" width="44" x="62" y="116"/><ellipse cx="77" cy="132" fill="#ADD1B2" rx="11" ry="11" style="stroke: #A80036; stroke-width: 1.0;"/><path d="M79.4731,138.1431 Q78.8921,138.4419 78.2529,138.5913 Q77.6138,138.7407 76.9082,138.7407 Q74.4014,138.7407 73.0815,137.0889 Q71.7617,135.437 71.7617,132.3159 Q71.7617,129.1865 73.0815,127.5347 Q74.4014,125.8828 76.9082,125.8828 Q77.6138,125.8828 78.2612,126.0322 Q78.9087,126.1816 79.4731,126.4805 L79.4731,129.2031 Q78.8423,128.6221 78.2488,128.3523 Q77.6553,128.0825 77.0244,128.0825 Q75.6797,128.0825 74.9949,129.1492 Q74.3101,130.2158 74.3101,132.3159 Q74.3101,134.4077 74.9949,135.4744 Q75.6797,136.541 77.0244,136.541 Q77.6553,136.541 78.2488,136.2712 Q78.8423,136.0015 79.4731,135.4204 Z "/><text fill="#000000" font-family="sans-serif" font-size="12" lengthAdjust="spacingAndGlyphs" textLength="12" x="91" y="136.5352">LL</text><line style="stroke: #A80036; stroke-width: 1.5;" x1="63" x2="105" y1="148" y2="148"/><line style="stroke: #A80036; stroke-width: 1.5;" x1="63" x2="105" y1="156" y2="156"/><!--MD5=[be3765a8ee426731c4981c30c0d20f09]
class HAL--><rect fill="#FEFECE" filter="url(#f1w1eco8wfr55z)" height="48" id="HAL" style="stroke: #A80036; stroke-width: 1.5;" width="55" x="18.5" y="8"/><ellipse cx="33.5" cy="24" fill="#ADD1B2" rx="11" ry="11" style="stroke: #A80036; stroke-width: 1.0;"/><path d="M35.9731,30.1431 Q35.3921,30.4419 34.7529,30.5913 Q34.1138,30.7407 33.4082,30.7407 Q30.9014,30.7407 29.5815,29.0889 Q28.2617,27.437 28.2617,24.3159 Q28.2617,21.1865 29.5815,19.5347 Q30.9014,17.8828 33.4082,17.8828 Q34.1138,17.8828 34.7612,18.0322 Q35.4087,18.1816 35.9731,18.4805 L35.9731,21.2031 Q35.3423,20.6221 34.7488,20.3523 Q34.1553,20.0825 33.5244,20.0825 Q32.1797,20.0825 31.4949,21.1492 Q30.8101,22.2158 30.8101,24.3159 Q30.8101,26.4077 31.4949,27.4744 Q32.1797,28.541 33.5244,28.541 Q34.1553,28.541 34.7488,28.2712 Q35.3423,28.0015 35.9731,27.4204 Z "/><text fill="#000000" font-family="sans-serif" font-size="12" lengthAdjust="spacingAndGlyphs" textLength="23" x="47.5" y="28.5352">HAL</text><line style="stroke: #A80036; stroke-width: 1.5;" x1="19.5" x2="72.5" y1="40" y2="40"/><line style="stroke: #A80036; stroke-width: 1.5;" x1="19.5" x2="72.5" y1="48" y2="48"/><!--MD5=[7b672a703c913e3dbedd276e6bcc3be7]
class periph_t--><rect fill="#FEFECE" filter="url(#f1w1eco8wfr55z)" height="48" id="periph_t" style="stroke: #A80036; stroke-width: 1.5;" width="80" x="6" y="332"/><ellipse cx="21" cy="348" fill="#A9DCDF" rx="11" ry="11" style="stroke: #A80036; stroke-width: 1.0;"/><path d="M20.8633,343.3481 L19.7095,348.4199 L22.0254,348.4199 Z M19.3691,341.1069 L22.3657,341.1069 L25.7109,353.5 L23.2622,353.5 L22.4985,350.437 L19.2197,350.437 L18.4727,353.5 L16.0239,353.5 Z "/><text fill="#000000" font-family="sans-serif" font-size="12" font-style="italic" lengthAdjust="spacingAndGlyphs" textLength="48" x="35" y="352.5352">periph_t</text><line style="stroke: #A80036; stroke-width: 1.5;" x1="7" x2="85" y1="364" y2="364"/><line style="stroke: #A80036; stroke-width: 1.5;" x1="7" x2="85" y1="372" y2="372"/><!--MD5=[a1694e425a72104c7dbc9f4e191776e7]
link Periph to periph_t--><path d="M46,272 C46,288 46,309.45 46,326.53 " fill="none" id="Periph-&gt;periph_t" style="stroke: #A80036; stroke-width: 1.0;"/><polygon fill="#A80036" points="46,331.68,50,322.68,46,326.68,42,322.68,46,331.68" style="stroke: #A80036; stroke-width: 1.0;"/><!--MD5=[a4160eda9f8e8faa0c64bc6ff7fe721e]
link LL to Periph--><path d="M75.75,164 C69.97,180.14 62.2,201.82 56.05,218.97 " fill="none" id="LL-&gt;Periph" style="stroke: #A80036; stroke-width: 1.0;"/><polygon fill="#A80036" points="54.36,223.68,61.1567,216.5523,56.0435,218.9719,53.6238,213.8587,54.36,223.68" style="stroke: #A80036; stroke-width: 1.0;"/><!--MD5=[1c9751fe3aaa94d1420995b11f91412f]
link HAL to Periph--><path d="M45.64,56.25 C45.41,72.89 45.12,95.83 45,116 C44.87,137.33 44.87,142.67 45,164 C45.08,176.77 45.22,190.64 45.38,203.32 " fill="none" id="HAL-&gt;Periph" style="stroke: #A80036; stroke-width: 1.0; stroke-dasharray: 7.0,7.0;"/><polygon fill="none" points="52.38,203.66,45.64,223.75,38.38,203.84,52.38,203.66" style="stroke: #A80036; stroke-width: 1.0;"/><!--MD5=[7c42b4011aa728296f409c876b3a9cd7]
link HAL to LL--><path d="M54.25,56 C60.03,72.14 67.8,93.82 73.95,110.97 " fill="none" id="HAL-&gt;LL" style="stroke: #A80036; stroke-width: 1.0; stroke-dasharray: 7.0,7.0;"/><polygon fill="#A80036" points="75.64,115.68,76.3762,105.8587,73.9565,110.9719,68.8433,108.5523,75.64,115.68" style="stroke: #A80036; stroke-width: 1.0;"/><!--MD5=[8ed0d9ecacab01938e7741b8ca77b24b]
@startuml
interface Periph
class LL
class HAL
abstract periph_t

Periph - -> periph_t
LL - -> Periph
HAL ..|> Periph
HAL ..> LL
@enduml

PlantUML version 1.2019.13(Wed Dec 11 02:18:29 KST 2019)
(GPL source distribution)
Java Runtime: Java(TM) SE Runtime Environment
JVM: Java HotSpot(TM) 64-Bit Server VM
Java Version: 15+36-1562
Operating System: Mac OS X
Default Encoding: UTF-8
Language: en
Country: KR
--></g></svg>