<?xml version="1.0" encoding="UTF-8" standalone="no"?><svg xmlns="http://www.w3.org/2000/svg" xmlns:xlink="http://www.w3.org/1999/xlink" contentScriptType="application/ecmascript" contentStyleType="text/css" height="827px" preserveAspectRatio="none" style="width:364px;height:827px;" version="1.1" viewBox="0 0 364 827" width="364px" zoomAndPan="magnify"><defs><filter height="300%" id="f1rkmkza7vhxcv" width="300%" x="-1" y="-1"><feGaussianBlur result="blurOut" stdDeviation="2.0"/><feColorMatrix in="blurOut" result="blurOut2" type="matrix" values="0 0 0 0 0 0 0 0 0 0 0 0 0 0 0 0 0 0 .4 0"/><feOffset dx="4.0" dy="4.0" in="blurOut2" result="blurOut3"/><feBlend in="SourceGraphic" in2="blurOut3" mode="normal"/></filter></defs><g><!--MD5=[c053a105bcf153d42bf1c80326010135]
class Clock--><rect fill="#FEFECE" filter="url(#f1rkmkza7vhxcv)" height="307.1016" id="Clock" style="stroke: #A80036; stroke-width: 1.5;" width="256" x="6" y="509"/><ellipse cx="114.25" cy="525" fill="#B4A7E5" rx="11" ry="11" style="stroke: #A80036; stroke-width: 1.0;"/><path d="M110.6777,521.2651 L110.6777,519.1069 L118.0571,519.1069 L118.0571,521.2651 L115.5918,521.2651 L115.5918,529.3418 L118.0571,529.3418 L118.0571,531.5 L110.6777,531.5 L110.6777,529.3418 L113.1431,529.3418 L113.1431,521.2651 Z "/><text fill="#000000" font-family="sans-serif" font-size="12" font-style="italic" lengthAdjust="spacingAndGlyphs" textLength="31" x="134.75" y="529.5352">Clock</text><line style="stroke: #A80036; stroke-width: 1.5;" x1="7" x2="261" y1="541" y2="541"/><line style="stroke: #A80036; stroke-width: 1.5;" x1="7" x2="261" y1="549" y2="549"/><text fill="#000000" font-family="sans-serif" font-size="11" lengthAdjust="spacingAndGlyphs" textLength="104" x="12" y="563.6348">enable_peripheral()</text><text fill="#000000" font-family="sans-serif" font-size="11" lengthAdjust="spacingAndGlyphs" textLength="107" x="12" y="576.5898">disable_peripheral()</text><text fill="#000000" font-family="sans-serif" font-size="11" lengthAdjust="spacingAndGlyphs" textLength="86" x="12" y="589.5449">enable_source()</text><text fill="#000000" font-family="sans-serif" font-size="11" lengthAdjust="spacingAndGlyphs" textLength="89" x="12" y="602.5">disable_source()</text><text fill="#000000" font-family="sans-serif" font-size="11" lengthAdjust="spacingAndGlyphs" textLength="67" x="12" y="615.4551">set_source()</text><text fill="#000000" font-family="sans-serif" font-size="11" lengthAdjust="spacingAndGlyphs" textLength="68" x="12" y="628.4102">get_source()</text><text fill="#000000" font-family="sans-serif" font-size="11" lengthAdjust="spacingAndGlyphs" textLength="103" x="12" y="641.3652">set_pll_frequency()</text><text fill="#000000" font-family="sans-serif" font-size="11" lengthAdjust="spacingAndGlyphs" textLength="52" x="12" y="654.3203">start_pll()</text><text fill="#000000" font-family="sans-serif" font-size="11" lengthAdjust="spacingAndGlyphs" textLength="51" x="12" y="667.2754">stop_pll()</text><text fill="#000000" font-family="sans-serif" font-size="11" lengthAdjust="spacingAndGlyphs" textLength="77" x="12" y="680.2305">is_pll_locked()</text><text fill="#000000" font-family="sans-serif" font-size="11" lengthAdjust="spacingAndGlyphs" textLength="113" x="12" y="693.1855">get_hclk_frequency()</text><text fill="#000000" font-family="sans-serif" font-size="11" lengthAdjust="spacingAndGlyphs" textLength="113" x="12" y="706.1406">get_pclk_frequency()</text><text fill="#000000" font-family="sans-serif" font-size="11" lengthAdjust="spacingAndGlyphs" textLength="85" x="12" y="719.0957">get_freqeuncy()</text><text fill="#000000" font-family="sans-serif" font-size="11" lengthAdjust="spacingAndGlyphs" textLength="163" x="12" y="732.0508">get_peripheral_clock_source()</text><text fill="#000000" font-family="sans-serif" font-size="11" lengthAdjust="spacingAndGlyphs" textLength="162" x="12" y="745.0059">set_peripheral_clock_source()</text><text fill="#000000" font-family="sans-serif" font-size="11" lengthAdjust="spacingAndGlyphs" textLength="244" x="12" y="757.9609">clk_get_peripheral_clock_source_frequency()</text><text fill="#000000" font-family="sans-serif" font-size="11" lengthAdjust="spacingAndGlyphs" textLength="85" x="12" y="770.916">enable_output()</text><text fill="#000000" font-family="sans-serif" font-size="11" lengthAdjust="spacingAndGlyphs" textLength="88" x="12" y="783.8711">disable_output()</text><text fill="#000000" font-family="sans-serif" font-size="11" lengthAdjust="spacingAndGlyphs" textLength="122" x="12" y="796.8262">set_output_prescaler()</text><text fill="#000000" font-family="sans-serif" font-size="11" lengthAdjust="spacingAndGlyphs" textLength="109" x="12" y="809.7813">set_output_source()</text><!--MD5=[b3c4cffaebeb1ca91d3860615de3212f]
class LL--><rect fill="#FEFECE" filter="url(#f1rkmkza7vhxcv)" height="320.0566" id="LL" style="stroke: #A80036; stroke-width: 1.5;" width="256" x="97" y="129"/><ellipse cx="214.75" cy="145" fill="#ADD1B2" rx="11" ry="11" style="stroke: #A80036; stroke-width: 1.0;"/><path d="M217.2231,151.1431 Q216.6421,151.4419 216.0029,151.5913 Q215.3638,151.7407 214.6582,151.7407 Q212.1514,151.7407 210.8315,150.0889 Q209.5117,148.437 209.5117,145.3159 Q209.5117,142.1865 210.8315,140.5347 Q212.1514,138.8828 214.6582,138.8828 Q215.3638,138.8828 216.0112,139.0322 Q216.6587,139.1816 217.2231,139.4805 L217.2231,142.2031 Q216.5923,141.6221 215.9988,141.3523 Q215.4053,141.0825 214.7744,141.0825 Q213.4297,141.0825 212.7449,142.1492 Q212.0601,143.2158 212.0601,145.3159 Q212.0601,147.4077 212.7449,148.4744 Q213.4297,149.541 214.7744,149.541 Q215.4053,149.541 215.9988,149.2712 Q216.5923,149.0015 217.2231,148.4204 Z "/><text fill="#000000" font-family="sans-serif" font-size="12" lengthAdjust="spacingAndGlyphs" textLength="12" x="235.25" y="149.5352">LL</text><line style="stroke: #A80036; stroke-width: 1.5;" x1="98" x2="352" y1="161" y2="161"/><line style="stroke: #A80036; stroke-width: 1.5;" x1="98" x2="352" y1="169" y2="169"/><text fill="#000000" font-family="sans-serif" font-size="11" lengthAdjust="spacingAndGlyphs" textLength="35" x="103" y="183.6348">reset()</text><text fill="#000000" font-family="sans-serif" font-size="11" lengthAdjust="spacingAndGlyphs" textLength="104" x="103" y="196.5898">enable_peripheral()</text><text fill="#000000" font-family="sans-serif" font-size="11" lengthAdjust="spacingAndGlyphs" textLength="107" x="103" y="209.5449">disable_peripheral()</text><text fill="#000000" font-family="sans-serif" font-size="11" lengthAdjust="spacingAndGlyphs" textLength="86" x="103" y="222.5">enable_source()</text><text fill="#000000" font-family="sans-serif" font-size="11" lengthAdjust="spacingAndGlyphs" textLength="89" x="103" y="235.4551">disable_source()</text><text fill="#000000" font-family="sans-serif" font-size="11" lengthAdjust="spacingAndGlyphs" textLength="67" x="103" y="248.4102">set_source()</text><text fill="#000000" font-family="sans-serif" font-size="11" lengthAdjust="spacingAndGlyphs" textLength="68" x="103" y="261.3652">get_source()</text><text fill="#000000" font-family="sans-serif" font-size="11" lengthAdjust="spacingAndGlyphs" textLength="103" x="103" y="274.3203">set_pll_frequency()</text><text fill="#000000" font-family="sans-serif" font-size="11" lengthAdjust="spacingAndGlyphs" textLength="52" x="103" y="287.2754">start_pll()</text><text fill="#000000" font-family="sans-serif" font-size="11" lengthAdjust="spacingAndGlyphs" textLength="51" x="103" y="300.2305">stop_pll()</text><text fill="#000000" font-family="sans-serif" font-size="11" lengthAdjust="spacingAndGlyphs" textLength="77" x="103" y="313.1855">is_pll_locked()</text><text fill="#000000" font-family="sans-serif" font-size="11" lengthAdjust="spacingAndGlyphs" textLength="113" x="103" y="326.1406">get_hclk_frequency()</text><text fill="#000000" font-family="sans-serif" font-size="11" lengthAdjust="spacingAndGlyphs" textLength="113" x="103" y="339.0957">get_pclk_frequency()</text><text fill="#000000" font-family="sans-serif" font-size="11" lengthAdjust="spacingAndGlyphs" textLength="85" x="103" y="352.0508">get_freqeuncy()</text><text fill="#000000" font-family="sans-serif" font-size="11" lengthAdjust="spacingAndGlyphs" textLength="163" x="103" y="365.0059">get_peripheral_clock_source()</text><text fill="#000000" font-family="sans-serif" font-size="11" lengthAdjust="spacingAndGlyphs" textLength="162" x="103" y="377.9609">set_peripheral_clock_source()</text><text fill="#000000" font-family="sans-serif" font-size="11" lengthAdjust="spacingAndGlyphs" textLength="85" x="103" y="390.916">enable_output()</text><text fill="#000000" font-family="sans-serif" font-size="11" lengthAdjust="spacingAndGlyphs" textLength="88" x="103" y="403.8711">disable_output()</text><text fill="#000000" font-family="sans-serif" font-size="11" lengthAdjust="spacingAndGlyphs" textLength="122" x="103" y="416.8262">set_output_prescaler()</text><text fill="#000000" font-family="sans-serif" font-size="11" lengthAdjust="spacingAndGlyphs" textLength="109" x="103" y="429.7813">set_output_source()</text><text fill="#000000" font-family="sans-serif" font-size="11" lengthAdjust="spacingAndGlyphs" textLength="244" x="103" y="442.7363">clk_get_peripheral_clock_source_frequency()</text><!--MD5=[be3765a8ee426731c4981c30c0d20f09]
class HAL--><rect fill="#FEFECE" filter="url(#f1rkmkza7vhxcv)" height="60.9551" id="HAL" style="stroke: #A80036; stroke-width: 1.5;" width="55" x="106.5" y="8"/><ellipse cx="121.5" cy="24" fill="#ADD1B2" rx="11" ry="11" style="stroke: #A80036; stroke-width: 1.0;"/><path d="M123.9731,30.1431 Q123.3921,30.4419 122.7529,30.5913 Q122.1138,30.7407 121.4082,30.7407 Q118.9014,30.7407 117.5815,29.0889 Q116.2617,27.437 116.2617,24.3159 Q116.2617,21.1865 117.5815,19.5347 Q118.9014,17.8828 121.4082,17.8828 Q122.1138,17.8828 122.7612,18.0322 Q123.4087,18.1816 123.9731,18.4805 L123.9731,21.2031 Q123.3423,20.6221 122.7488,20.3523 Q122.1553,20.0825 121.5244,20.0825 Q120.1797,20.0825 119.4949,21.1492 Q118.8101,22.2158 118.8101,24.3159 Q118.8101,26.4077 119.4949,27.4744 Q120.1797,28.541 121.5244,28.541 Q122.1553,28.541 122.7488,28.2712 Q123.3423,28.0015 123.9731,27.4204 Z "/><text fill="#000000" font-family="sans-serif" font-size="12" lengthAdjust="spacingAndGlyphs" textLength="23" x="135.5" y="28.5352">HAL</text><line style="stroke: #A80036; stroke-width: 1.5;" x1="107.5" x2="160.5" y1="40" y2="40"/><line style="stroke: #A80036; stroke-width: 1.5;" x1="107.5" x2="160.5" y1="48" y2="48"/><text fill="#000000" font-family="sans-serif" font-size="11" lengthAdjust="spacingAndGlyphs" textLength="25" x="112.5" y="62.6348">init()</text><!--MD5=[672230de64685517df2fd4349574a9ad]
link HAL to Clock--><path d="M110.55,69.06 C98.89,85.65 86.03,107.32 80,129 C47.29,246.55 62.34,383.6 84.76,489.23 " fill="none" id="HAL-&gt;Clock" style="stroke: #A80036; stroke-width: 1.0; stroke-dasharray: 7.0,7.0;"/><polygon fill="none" points="91.63,487.87,89.1,508.91,77.96,490.89,91.63,487.87" style="stroke: #A80036; stroke-width: 1.0;"/><!--MD5=[7c42b4011aa728296f409c876b3a9cd7]
link HAL to LL--><path d="M144.98,69.47 C150.38,84.24 157.37,103.3 164.95,124.02 " fill="none" id="HAL-&gt;LL" style="stroke: #A80036; stroke-width: 1.0;"/><polygon fill="#A80036" points="166.68,128.75,167.3539,118.9242,164.9667,124.0527,159.8382,121.6655,166.68,128.75" style="stroke: #A80036; stroke-width: 1.0;"/><!--MD5=[2f29fc63d46f1475eaa5a2724ef339ad]
link LL to Clock--><path d="M186.01,449.17 C181.58,467.26 177.06,485.69 172.64,503.76 " fill="none" id="LL-&gt;Clock" style="stroke: #A80036; stroke-width: 1.0;"/><polygon fill="#A80036" points="171.39,508.85,177.4103,501.0554,172.5758,503.9926,169.6385,499.1581,171.39,508.85" style="stroke: #A80036; stroke-width: 1.0;"/><!--MD5=[785032c6268c01433fa81e0be277e2db]
@startuml
interface Clock {
	enable_peripheral()
	disable_peripheral()
	enable_source()
	disable_source()
	set_source()
	get_source()
	set_pll_frequency()
	start_pll()
	stop_pll()
	is_pll_locked()
	get_hclk_frequency()
	get_pclk_frequency()
	get_freqeuncy()
	get_peripheral_clock_source()
	set_peripheral_clock_source()
	clk_get_peripheral_clock_source_frequency()
	enable_output()
	disable_output()
	set_output_prescaler()
	set_output_source()
}

class LL {
	reset()
	enable_peripheral()
	disable_peripheral()
	enable_source()
	disable_source()
	set_source()
	get_source()
	set_pll_frequency()
	start_pll()
	stop_pll()
	is_pll_locked()
	get_hclk_frequency()
	get_pclk_frequency()
	get_freqeuncy()
	get_peripheral_clock_source()
	set_peripheral_clock_source()
	enable_output()
	disable_output()
	set_output_prescaler()
	set_output_source()
	clk_get_peripheral_clock_source_frequency()
}

class HAL {
	init()
}

HAL ..|> Clock
HAL - -> LL
LL - -> Clock
@enduml

PlantUML version 1.2019.13(Wed Dec 11 02:18:29 KST 2019)
(GPL source distribution)
Java Runtime: Java(TM) SE Runtime Environment
JVM: Java HotSpot(TM) 64-Bit Server VM
Java Version: 15+36-1562
Operating System: Mac OS X
Default Encoding: UTF-8
Language: en
Country: KR
--></g></svg>