<?xml version="1.0" encoding="UTF-8" standalone="no"?><svg xmlns="http://www.w3.org/2000/svg" xmlns:xlink="http://www.w3.org/1999/xlink" contentScriptType="application/ecmascript" contentStyleType="text/css" height="460px" preserveAspectRatio="none" style="width:273px;height:460px;" version="1.1" viewBox="0 0 273 460" width="273px" zoomAndPan="magnify"><defs><filter height="300%" id="f65shrzs2grgi" width="300%" x="-1" y="-1"><feGaussianBlur result="blurOut" stdDeviation="2.0"/><feColorMatrix in="blurOut" result="blurOut2" type="matrix" values="0 0 0 0 0 0 0 0 0 0 0 0 0 0 0 0 0 0 .4 0"/><feOffset dx="4.0" dy="4.0" in="blurOut2" result="blurOut3"/><feBlend in="SourceGraphic" in2="blurOut3" mode="normal"/></filter></defs><g><!--MD5=[c053a105bcf153d42bf1c80326010135]
class Clock--><rect fill="#FEFECE" filter="url(#f65shrzs2grgi)" height="320.0566" id="Clock" style="stroke: #A80036; stroke-width: 1.5;" width="256" x="6" y="129"/><ellipse cx="114.25" cy="145" fill="#B4A7E5" rx="11" ry="11" style="stroke: #A80036; stroke-width: 1.0;"/><path d="M110.6777,141.2651 L110.6777,139.1069 L118.0571,139.1069 L118.0571,141.2651 L115.5918,141.2651 L115.5918,149.3418 L118.0571,149.3418 L118.0571,151.5 L110.6777,151.5 L110.6777,149.3418 L113.1431,149.3418 L113.1431,141.2651 Z "/><text fill="#000000" font-family="sans-serif" font-size="12" font-style="italic" lengthAdjust="spacingAndGlyphs" textLength="31" x="134.75" y="149.5352">Clock</text><line style="stroke: #A80036; stroke-width: 1.5;" x1="7" x2="261" y1="161" y2="161"/><line style="stroke: #A80036; stroke-width: 1.5;" x1="7" x2="261" y1="169" y2="169"/><text fill="#000000" font-family="sans-serif" font-size="11" lengthAdjust="spacingAndGlyphs" textLength="35" x="12" y="183.6348">reset()</text><text fill="#000000" font-family="sans-serif" font-size="11" lengthAdjust="spacingAndGlyphs" textLength="104" x="12" y="196.5898">enable_peripheral()</text><text fill="#000000" font-family="sans-serif" font-size="11" lengthAdjust="spacingAndGlyphs" textLength="107" x="12" y="209.5449">disable_peripheral()</text><text fill="#000000" font-family="sans-serif" font-size="11" lengthAdjust="spacingAndGlyphs" textLength="86" x="12" y="222.5">enable_source()</text><text fill="#000000" font-family="sans-serif" font-size="11" lengthAdjust="spacingAndGlyphs" textLength="89" x="12" y="235.4551">disable_source()</text><text fill="#000000" font-family="sans-serif" font-size="11" lengthAdjust="spacingAndGlyphs" textLength="67" x="12" y="248.4102">set_source()</text><text fill="#000000" font-family="sans-serif" font-size="11" lengthAdjust="spacingAndGlyphs" textLength="68" x="12" y="261.3652">get_source()</text><text fill="#000000" font-family="sans-serif" font-size="11" lengthAdjust="spacingAndGlyphs" textLength="103" x="12" y="274.3203">set_pll_frequency()</text><text fill="#000000" font-family="sans-serif" font-size="11" lengthAdjust="spacingAndGlyphs" textLength="52" x="12" y="287.2754">start_pll()</text><text fill="#000000" font-family="sans-serif" font-size="11" lengthAdjust="spacingAndGlyphs" textLength="51" x="12" y="300.2305">stop_pll()</text><text fill="#000000" font-family="sans-serif" font-size="11" lengthAdjust="spacingAndGlyphs" textLength="77" x="12" y="313.1855">is_pll_locked()</text><text fill="#000000" font-family="sans-serif" font-size="11" lengthAdjust="spacingAndGlyphs" textLength="113" x="12" y="326.1406">get_hclk_frequency()</text><text fill="#000000" font-family="sans-serif" font-size="11" lengthAdjust="spacingAndGlyphs" textLength="113" x="12" y="339.0957">get_pclk_frequency()</text><text fill="#000000" font-family="sans-serif" font-size="11" lengthAdjust="spacingAndGlyphs" textLength="85" x="12" y="352.0508">get_freqeuncy()</text><text fill="#000000" font-family="sans-serif" font-size="11" lengthAdjust="spacingAndGlyphs" textLength="163" x="12" y="365.0059">get_peripheral_clock_source()</text><text fill="#000000" font-family="sans-serif" font-size="11" lengthAdjust="spacingAndGlyphs" textLength="162" x="12" y="377.9609">set_peripheral_clock_source()</text><text fill="#000000" font-family="sans-serif" font-size="11" lengthAdjust="spacingAndGlyphs" textLength="244" x="12" y="390.916">clk_get_peripheral_clock_source_frequency()</text><text fill="#000000" font-family="sans-serif" font-size="11" lengthAdjust="spacingAndGlyphs" textLength="85" x="12" y="403.8711">enable_output()</text><text fill="#000000" font-family="sans-serif" font-size="11" lengthAdjust="spacingAndGlyphs" textLength="88" x="12" y="416.8262">disable_output()</text><text fill="#000000" font-family="sans-serif" font-size="11" lengthAdjust="spacingAndGlyphs" textLength="122" x="12" y="429.7813">set_output_prescaler()</text><text fill="#000000" font-family="sans-serif" font-size="11" lengthAdjust="spacingAndGlyphs" textLength="109" x="12" y="442.7363">set_output_source()</text><!--MD5=[be3765a8ee426731c4981c30c0d20f09]
class HAL--><rect fill="#FEFECE" filter="url(#f65shrzs2grgi)" height="60.9551" id="HAL" style="stroke: #A80036; stroke-width: 1.5;" width="55" x="64.5" y="8"/><ellipse cx="79.5" cy="24" fill="#ADD1B2" rx="11" ry="11" style="stroke: #A80036; stroke-width: 1.0;"/><path d="M81.9731,30.1431 Q81.3921,30.4419 80.7529,30.5913 Q80.1138,30.7407 79.4082,30.7407 Q76.9014,30.7407 75.5815,29.0889 Q74.2617,27.437 74.2617,24.3159 Q74.2617,21.1865 75.5815,19.5347 Q76.9014,17.8828 79.4082,17.8828 Q80.1138,17.8828 80.7612,18.0322 Q81.4087,18.1816 81.9731,18.4805 L81.9731,21.2031 Q81.3423,20.6221 80.7488,20.3523 Q80.1553,20.0825 79.5244,20.0825 Q78.1797,20.0825 77.4949,21.1492 Q76.8101,22.2158 76.8101,24.3159 Q76.8101,26.4077 77.4949,27.4744 Q78.1797,28.541 79.5244,28.541 Q80.1553,28.541 80.7488,28.2712 Q81.3423,28.0015 81.9731,27.4204 Z "/><text fill="#000000" font-family="sans-serif" font-size="12" lengthAdjust="spacingAndGlyphs" textLength="23" x="93.5" y="28.5352">HAL</text><line style="stroke: #A80036; stroke-width: 1.5;" x1="65.5" x2="118.5" y1="40" y2="40"/><line style="stroke: #A80036; stroke-width: 1.5;" x1="65.5" x2="118.5" y1="48" y2="48"/><text fill="#000000" font-family="sans-serif" font-size="11" lengthAdjust="spacingAndGlyphs" textLength="25" x="70.5" y="62.6348">init()</text><!--MD5=[b3c4cffaebeb1ca91d3860615de3212f]
class LL--><rect fill="#FEFECE" filter="url(#f65shrzs2grgi)" height="48" id="LL" style="stroke: #A80036; stroke-width: 1.5;" width="44" x="155" y="14.5"/><ellipse cx="170" cy="30.5" fill="#ADD1B2" rx="11" ry="11" style="stroke: #A80036; stroke-width: 1.0;"/><path d="M172.4731,36.6431 Q171.8921,36.9419 171.2529,37.0913 Q170.6138,37.2407 169.9082,37.2407 Q167.4014,37.2407 166.0815,35.5889 Q164.7617,33.937 164.7617,30.8159 Q164.7617,27.6865 166.0815,26.0347 Q167.4014,24.3828 169.9082,24.3828 Q170.6138,24.3828 171.2612,24.5322 Q171.9087,24.6816 172.4731,24.9805 L172.4731,27.7031 Q171.8423,27.1221 171.2488,26.8523 Q170.6553,26.5825 170.0244,26.5825 Q168.6797,26.5825 167.9949,27.6492 Q167.3101,28.7158 167.3101,30.8159 Q167.3101,32.9077 167.9949,33.9744 Q168.6797,35.041 170.0244,35.041 Q170.6553,35.041 171.2488,34.7712 Q171.8423,34.5015 172.4731,33.9204 Z "/><text fill="#000000" font-family="sans-serif" font-size="12" lengthAdjust="spacingAndGlyphs" textLength="12" x="184" y="35.0352">LL</text><line style="stroke: #A80036; stroke-width: 1.5;" x1="156" x2="198" y1="46.5" y2="46.5"/><line style="stroke: #A80036; stroke-width: 1.5;" x1="156" x2="198" y1="54.5" y2="54.5"/><!--MD5=[2f29fc63d46f1475eaa5a2724ef339ad]
link LL to Clock--><path d="M172.95,62.88 C170.85,75.05 168.06,91.16 164.94,109.17 " fill="none" id="LL-&gt;Clock" style="stroke: #A80036; stroke-width: 1.0; stroke-dasharray: 7.0,7.0;"/><polygon fill="none" points="171.83,110.45,161.52,128.96,158.03,108.06,171.83,110.45" style="stroke: #A80036; stroke-width: 1.0;"/><!--MD5=[672230de64685517df2fd4349574a9ad]
link HAL to Clock--><path d="M97.07,69.47 C99.55,84.17 102.76,103.14 106.24,123.76 " fill="none" id="HAL-&gt;Clock" style="stroke: #A80036; stroke-width: 1.0;"/><polygon fill="#A80036" points="107.08,128.75,109.5057,119.2045,106.2372,123.8215,101.6201,120.5531,107.08,128.75" style="stroke: #A80036; stroke-width: 1.0;"/><!--MD5=[dccb924596b558c79f34d7e7ae290e66]
@startuml
interface Clock {
	reset()
	enable_peripheral()
	disable_peripheral()
	enable_source()
	disable_source()
	set_source()
	get_source()
	set_pll_frequency()
	start_pll()
	stop_pll()
	is_pll_locked()
	get_hclk_frequency()
	get_pclk_frequency()
	get_freqeuncy()
	get_peripheral_clock_source()
	set_peripheral_clock_source()
	clk_get_peripheral_clock_source_frequency()
	enable_output()
	disable_output()
	set_output_prescaler()
	set_output_source()
}

class HAL {
	init()
}

LL ..|> Clock
HAL - -> Clock
@enduml

PlantUML version 1.2019.13(Wed Dec 11 02:18:29 KST 2019)
(GPL source distribution)
Java Runtime: Java(TM) SE Runtime Environment
JVM: Java HotSpot(TM) 64-Bit Server VM
Java Version: 15+36-1562
Operating System: Mac OS X
Default Encoding: UTF-8
Language: en
Country: KR
--></g></svg>