<?xml version="1.0" encoding="UTF-8" standalone="no"?><svg xmlns="http://www.w3.org/2000/svg" xmlns:xlink="http://www.w3.org/1999/xlink" contentScriptType="application/ecmascript" contentStyleType="text/css" height="567px" preserveAspectRatio="none" style="width:273px;height:567px;" version="1.1" viewBox="0 0 273 567" width="273px" zoomAndPan="magnify"><defs><filter height="300%" id="f2deieh7e2kjf" width="300%" x="-1" y="-1"><feGaussianBlur result="blurOut" stdDeviation="2.0"/><feColorMatrix in="blurOut" result="blurOut2" type="matrix" values="0 0 0 0 0 0 0 0 0 0 0 0 0 0 0 0 0 0 .4 0"/><feOffset dx="4.0" dy="4.0" in="blurOut2" result="blurOut3"/><feBlend in="SourceGraphic" in2="blurOut3" mode="normal"/></filter></defs><g><!--MD5=[4f2c036568707f540e190948682b0084]
class clk--><rect fill="#FEFECE" filter="url(#f2deieh7e2kjf)" height="320.0566" id="clk" style="stroke: #A80036; stroke-width: 1.5;" width="256" x="6" y="8"/><ellipse cx="121.75" cy="24" fill="#B4A7E5" rx="11" ry="11" style="stroke: #A80036; stroke-width: 1.0;"/><path d="M118.1777,20.2651 L118.1777,18.1069 L125.5571,18.1069 L125.5571,20.2651 L123.0918,20.2651 L123.0918,28.3418 L125.5571,28.3418 L125.5571,30.5 L118.1777,30.5 L118.1777,28.3418 L120.6431,28.3418 L120.6431,20.2651 Z "/><text fill="#000000" font-family="sans-serif" font-size="12" font-style="italic" lengthAdjust="spacingAndGlyphs" textLength="16" x="142.25" y="28.5352">clk</text><line style="stroke: #A80036; stroke-width: 1.5;" x1="7" x2="261" y1="40" y2="40"/><line style="stroke: #A80036; stroke-width: 1.5;" x1="7" x2="261" y1="48" y2="48"/><text fill="#000000" font-family="sans-serif" font-size="11" lengthAdjust="spacingAndGlyphs" textLength="35" x="12" y="62.6348">reset()</text><text fill="#000000" font-family="sans-serif" font-size="11" lengthAdjust="spacingAndGlyphs" textLength="104" x="12" y="75.5898">enable_peripheral()</text><text fill="#000000" font-family="sans-serif" font-size="11" lengthAdjust="spacingAndGlyphs" textLength="107" x="12" y="88.5449">disable_peripheral()</text><text fill="#000000" font-family="sans-serif" font-size="11" lengthAdjust="spacingAndGlyphs" textLength="86" x="12" y="101.5">enable_source()</text><text fill="#000000" font-family="sans-serif" font-size="11" lengthAdjust="spacingAndGlyphs" textLength="89" x="12" y="114.4551">disable_source()</text><text fill="#000000" font-family="sans-serif" font-size="11" lengthAdjust="spacingAndGlyphs" textLength="67" x="12" y="127.4102">set_source()</text><text fill="#000000" font-family="sans-serif" font-size="11" lengthAdjust="spacingAndGlyphs" textLength="68" x="12" y="140.3652">get_source()</text><text fill="#000000" font-family="sans-serif" font-size="11" lengthAdjust="spacingAndGlyphs" textLength="103" x="12" y="153.3203">set_pll_frequency()</text><text fill="#000000" font-family="sans-serif" font-size="11" lengthAdjust="spacingAndGlyphs" textLength="52" x="12" y="166.2754">start_pll()</text><text fill="#000000" font-family="sans-serif" font-size="11" lengthAdjust="spacingAndGlyphs" textLength="51" x="12" y="179.2305">stop_pll()</text><text fill="#000000" font-family="sans-serif" font-size="11" lengthAdjust="spacingAndGlyphs" textLength="77" x="12" y="192.1855">is_pll_locked()</text><text fill="#000000" font-family="sans-serif" font-size="11" lengthAdjust="spacingAndGlyphs" textLength="113" x="12" y="205.1406">get_hclk_frequency()</text><text fill="#000000" font-family="sans-serif" font-size="11" lengthAdjust="spacingAndGlyphs" textLength="113" x="12" y="218.0957">get_pclk_frequency()</text><text fill="#000000" font-family="sans-serif" font-size="11" lengthAdjust="spacingAndGlyphs" textLength="85" x="12" y="231.0508">get_freqeuncy()</text><text fill="#000000" font-family="sans-serif" font-size="11" lengthAdjust="spacingAndGlyphs" textLength="163" x="12" y="244.0059">get_peripheral_clock_source()</text><text fill="#000000" font-family="sans-serif" font-size="11" lengthAdjust="spacingAndGlyphs" textLength="162" x="12" y="256.9609">set_peripheral_clock_source()</text><text fill="#000000" font-family="sans-serif" font-size="11" lengthAdjust="spacingAndGlyphs" textLength="85" x="12" y="269.916">enable_output()</text><text fill="#000000" font-family="sans-serif" font-size="11" lengthAdjust="spacingAndGlyphs" textLength="88" x="12" y="282.8711">disable_output()</text><text fill="#000000" font-family="sans-serif" font-size="11" lengthAdjust="spacingAndGlyphs" textLength="122" x="12" y="295.8262">set_output_prescaler()</text><text fill="#000000" font-family="sans-serif" font-size="11" lengthAdjust="spacingAndGlyphs" textLength="109" x="12" y="308.7813">set_output_source()</text><text fill="#000000" font-family="sans-serif" font-size="11" lengthAdjust="spacingAndGlyphs" textLength="244" x="12" y="321.7363">clk_get_peripheral_clock_source_frequency()</text><!--MD5=[d8f831e696632d599e6c5ffa129b2602]
class LL_clk--><rect fill="#FEFECE" filter="url(#f2deieh7e2kjf)" height="48" id="LL_clk" style="stroke: #A80036; stroke-width: 1.5;" width="66" x="101" y="388"/><ellipse cx="116" cy="404" fill="#ADD1B2" rx="11" ry="11" style="stroke: #A80036; stroke-width: 1.0;"/><path d="M118.4731,410.1431 Q117.8921,410.4419 117.2529,410.5913 Q116.6138,410.7407 115.9082,410.7407 Q113.4014,410.7407 112.0815,409.0889 Q110.7617,407.437 110.7617,404.3159 Q110.7617,401.1865 112.0815,399.5347 Q113.4014,397.8828 115.9082,397.8828 Q116.6138,397.8828 117.2612,398.0322 Q117.9087,398.1816 118.4731,398.4805 L118.4731,401.2031 Q117.8423,400.6221 117.2488,400.3523 Q116.6553,400.0825 116.0244,400.0825 Q114.6797,400.0825 113.9949,401.1492 Q113.3101,402.2158 113.3101,404.3159 Q113.3101,406.4077 113.9949,407.4744 Q114.6797,408.541 116.0244,408.541 Q116.6553,408.541 117.2488,408.2712 Q117.8423,408.0015 118.4731,407.4204 Z "/><text fill="#000000" font-family="sans-serif" font-size="12" lengthAdjust="spacingAndGlyphs" textLength="34" x="130" y="408.5352">LL_clk</text><line style="stroke: #A80036; stroke-width: 1.5;" x1="102" x2="166" y1="420" y2="420"/><line style="stroke: #A80036; stroke-width: 1.5;" x1="102" x2="166" y1="428" y2="428"/><!--MD5=[cf25839e63160ae8b66fa7613238a1d8]
class HAL_clk--><rect fill="#FEFECE" filter="url(#f2deieh7e2kjf)" height="60.9551" id="HAL_clk" style="stroke: #A80036; stroke-width: 1.5;" width="77" x="95.5" y="496"/><ellipse cx="110.5" cy="512" fill="#ADD1B2" rx="11" ry="11" style="stroke: #A80036; stroke-width: 1.0;"/><path d="M112.9731,518.1431 Q112.3921,518.4419 111.7529,518.5913 Q111.1138,518.7407 110.4082,518.7407 Q107.9014,518.7407 106.5815,517.0889 Q105.2617,515.437 105.2617,512.3159 Q105.2617,509.1865 106.5815,507.5347 Q107.9014,505.8828 110.4082,505.8828 Q111.1138,505.8828 111.7612,506.0322 Q112.4087,506.1816 112.9731,506.4805 L112.9731,509.2031 Q112.3423,508.6221 111.7488,508.3523 Q111.1553,508.0825 110.5244,508.0825 Q109.1797,508.0825 108.4949,509.1492 Q107.8101,510.2158 107.8101,512.3159 Q107.8101,514.4077 108.4949,515.4744 Q109.1797,516.541 110.5244,516.541 Q111.1553,516.541 111.7488,516.2712 Q112.3423,516.0015 112.9731,515.4204 Z "/><text fill="#000000" font-family="sans-serif" font-size="12" lengthAdjust="spacingAndGlyphs" textLength="45" x="124.5" y="516.5352">HAL_clk</text><line style="stroke: #A80036; stroke-width: 1.5;" x1="96.5" x2="171.5" y1="528" y2="528"/><line style="stroke: #A80036; stroke-width: 1.5;" x1="96.5" x2="171.5" y1="536" y2="536"/><text fill="#000000" font-family="sans-serif" font-size="11" lengthAdjust="spacingAndGlyphs" textLength="46" x="101.5" y="550.6348">clk_init()</text><!--MD5=[0634d43241d4affe486c22b85ba656e8]
reverse link clk to LL_clk--><path d="M134,348.27 C134,363.61 134,377.32 134,387.97 " fill="none" id="clk&lt;-LL_clk" style="stroke: #A80036; stroke-width: 1.0; stroke-dasharray: 7.0,7.0;"/><polygon fill="none" points="127,348.06,134,328.06,141,348.06,127,348.06" style="stroke: #A80036; stroke-width: 1.0;"/><!--MD5=[47b18092d7c0638f9e0901c0ef39efbd]
reverse link LL_clk to HAL_clk--><path d="M134,441.04 C134,457.67 134,478.72 134,495.65 " fill="none" id="LL_clk&lt;-HAL_clk" style="stroke: #A80036; stroke-width: 1.0;"/><polygon fill="#A80036" points="134,436.04,130,445.04,134,441.04,138,445.04,134,436.04" style="stroke: #A80036; stroke-width: 1.0;"/><!--MD5=[5f69dd8079b7ae21f500b3b73b671bec]
@startuml
interface clk {
	reset()
	enable_peripheral()
	disable_peripheral()
	enable_source()
	disable_source()
	set_source()
	get_source()
	set_pll_frequency()
	start_pll()
	stop_pll()
	is_pll_locked()
	get_hclk_frequency()
	get_pclk_frequency()
	get_freqeuncy()
	get_peripheral_clock_source()
	set_peripheral_clock_source()
	enable_output()
	disable_output()
	set_output_prescaler()
	set_output_source()
	clk_get_peripheral_clock_source_frequency()
}

class LL_clk {
}

class HAL_clk {
	clk_init()
}

clk <|.. LL_clk
LL_clk <- - HAL_clk
@enduml

PlantUML version 1.2019.13(Wed Dec 11 02:18:29 KST 2019)
(GPL source distribution)
Java Runtime: Java(TM) SE Runtime Environment
JVM: Java HotSpot(TM) 64-Bit Server VM
Java Version: 15+36-1562
Operating System: Mac OS X
Default Encoding: UTF-8
Language: en
Country: KR
--></g></svg>