<?xml version="1.0" encoding="UTF-8" standalone="no"?><svg xmlns="http://www.w3.org/2000/svg" xmlns:xlink="http://www.w3.org/1999/xlink" contentScriptType="application/ecmascript" contentStyleType="text/css" height="542px" preserveAspectRatio="none" style="width:192px;height:542px;" version="1.1" viewBox="0 0 192 542" width="192px" zoomAndPan="magnify"><defs><filter height="300%" id="frwlm6wdqvw4i" width="300%" x="-1" y="-1"><feGaussianBlur result="blurOut" stdDeviation="2.0"/><feColorMatrix in="blurOut" result="blurOut2" type="matrix" values="0 0 0 0 0 0 0 0 0 0 0 0 0 0 0 0 0 0 .4 0"/><feOffset dx="4.0" dy="4.0" in="blurOut2" result="blurOut3"/><feBlend in="SourceGraphic" in2="blurOut3" mode="normal"/></filter></defs><g><!--MD5=[4f2c036568707f540e190948682b0084]
class clk--><rect fill="#FEFECE" filter="url(#frwlm6wdqvw4i)" height="307.1016" id="clk" style="stroke: #A80036; stroke-width: 1.5;" width="175" x="6" y="8"/><ellipse cx="81.25" cy="24" fill="#B4A7E5" rx="11" ry="11" style="stroke: #A80036; stroke-width: 1.0;"/><path d="M77.6777,20.2651 L77.6777,18.1069 L85.0571,18.1069 L85.0571,20.2651 L82.5918,20.2651 L82.5918,28.3418 L85.0571,28.3418 L85.0571,30.5 L77.6777,30.5 L77.6777,28.3418 L80.1431,28.3418 L80.1431,20.2651 Z "/><text fill="#000000" font-family="sans-serif" font-size="12" font-style="italic" lengthAdjust="spacingAndGlyphs" textLength="16" x="101.75" y="28.5352">clk</text><line style="stroke: #A80036; stroke-width: 1.5;" x1="7" x2="180" y1="40" y2="40"/><line style="stroke: #A80036; stroke-width: 1.5;" x1="7" x2="180" y1="48" y2="48"/><text fill="#000000" font-family="sans-serif" font-size="11" lengthAdjust="spacingAndGlyphs" textLength="35" x="12" y="62.6348">reset()</text><text fill="#000000" font-family="sans-serif" font-size="11" lengthAdjust="spacingAndGlyphs" textLength="104" x="12" y="75.5898">enable_peripheral()</text><text fill="#000000" font-family="sans-serif" font-size="11" lengthAdjust="spacingAndGlyphs" textLength="107" x="12" y="88.5449">disable_peripheral()</text><text fill="#000000" font-family="sans-serif" font-size="11" lengthAdjust="spacingAndGlyphs" textLength="86" x="12" y="101.5">enable_source()</text><text fill="#000000" font-family="sans-serif" font-size="11" lengthAdjust="spacingAndGlyphs" textLength="89" x="12" y="114.4551">disable_source()</text><text fill="#000000" font-family="sans-serif" font-size="11" lengthAdjust="spacingAndGlyphs" textLength="67" x="12" y="127.4102">set_source()</text><text fill="#000000" font-family="sans-serif" font-size="11" lengthAdjust="spacingAndGlyphs" textLength="68" x="12" y="140.3652">get_source()</text><text fill="#000000" font-family="sans-serif" font-size="11" lengthAdjust="spacingAndGlyphs" textLength="103" x="12" y="153.3203">set_pll_frequency()</text><text fill="#000000" font-family="sans-serif" font-size="11" lengthAdjust="spacingAndGlyphs" textLength="52" x="12" y="166.2754">start_pll()</text><text fill="#000000" font-family="sans-serif" font-size="11" lengthAdjust="spacingAndGlyphs" textLength="51" x="12" y="179.2305">stop_pll()</text><text fill="#000000" font-family="sans-serif" font-size="11" lengthAdjust="spacingAndGlyphs" textLength="77" x="12" y="192.1855">is_pll_locked()</text><text fill="#000000" font-family="sans-serif" font-size="11" lengthAdjust="spacingAndGlyphs" textLength="113" x="12" y="205.1406">get_hclk_frequency()</text><text fill="#000000" font-family="sans-serif" font-size="11" lengthAdjust="spacingAndGlyphs" textLength="113" x="12" y="218.0957">get_pclk_frequency()</text><text fill="#000000" font-family="sans-serif" font-size="11" lengthAdjust="spacingAndGlyphs" textLength="85" x="12" y="231.0508">get_freqeuncy()</text><text fill="#000000" font-family="sans-serif" font-size="11" lengthAdjust="spacingAndGlyphs" textLength="163" x="12" y="244.0059">get_peripheral_clock_source()</text><text fill="#000000" font-family="sans-serif" font-size="11" lengthAdjust="spacingAndGlyphs" textLength="162" x="12" y="256.9609">set_peripheral_clock_source()</text><text fill="#000000" font-family="sans-serif" font-size="11" lengthAdjust="spacingAndGlyphs" textLength="85" x="12" y="269.916">enable_output()</text><text fill="#000000" font-family="sans-serif" font-size="11" lengthAdjust="spacingAndGlyphs" textLength="88" x="12" y="282.8711">disable_output()</text><text fill="#000000" font-family="sans-serif" font-size="11" lengthAdjust="spacingAndGlyphs" textLength="122" x="12" y="295.8262">set_output_prescaler()</text><text fill="#000000" font-family="sans-serif" font-size="11" lengthAdjust="spacingAndGlyphs" textLength="109" x="12" y="308.7813">set_output_source()</text><!--MD5=[d8f831e696632d599e6c5ffa129b2602]
class LL_clk--><rect fill="#FEFECE" filter="url(#frwlm6wdqvw4i)" height="48" id="LL_clk" style="stroke: #A80036; stroke-width: 1.5;" width="66" x="60.5" y="375"/><ellipse cx="75.5" cy="391" fill="#ADD1B2" rx="11" ry="11" style="stroke: #A80036; stroke-width: 1.0;"/><path d="M77.9731,397.1431 Q77.3921,397.4419 76.7529,397.5913 Q76.1138,397.7407 75.4082,397.7407 Q72.9014,397.7407 71.5815,396.0889 Q70.2617,394.437 70.2617,391.3159 Q70.2617,388.1865 71.5815,386.5347 Q72.9014,384.8828 75.4082,384.8828 Q76.1138,384.8828 76.7612,385.0322 Q77.4087,385.1816 77.9731,385.4805 L77.9731,388.2031 Q77.3423,387.6221 76.7488,387.3523 Q76.1553,387.0825 75.5244,387.0825 Q74.1797,387.0825 73.4949,388.1492 Q72.8101,389.2158 72.8101,391.3159 Q72.8101,393.4077 73.4949,394.4744 Q74.1797,395.541 75.5244,395.541 Q76.1553,395.541 76.7488,395.2712 Q77.3423,395.0015 77.9731,394.4204 Z "/><text fill="#000000" font-family="sans-serif" font-size="12" lengthAdjust="spacingAndGlyphs" textLength="34" x="89.5" y="395.5352">LL_clk</text><line style="stroke: #A80036; stroke-width: 1.5;" x1="61.5" x2="125.5" y1="407" y2="407"/><line style="stroke: #A80036; stroke-width: 1.5;" x1="61.5" x2="125.5" y1="415" y2="415"/><!--MD5=[cf25839e63160ae8b66fa7613238a1d8]
class HAL_clk--><rect fill="#FEFECE" filter="url(#frwlm6wdqvw4i)" height="48" id="HAL_clk" style="stroke: #A80036; stroke-width: 1.5;" width="77" x="55" y="483"/><ellipse cx="70" cy="499" fill="#ADD1B2" rx="11" ry="11" style="stroke: #A80036; stroke-width: 1.0;"/><path d="M72.4731,505.1431 Q71.8921,505.4419 71.2529,505.5913 Q70.6138,505.7407 69.9082,505.7407 Q67.4014,505.7407 66.0815,504.0889 Q64.7617,502.437 64.7617,499.3159 Q64.7617,496.1865 66.0815,494.5347 Q67.4014,492.8828 69.9082,492.8828 Q70.6138,492.8828 71.2612,493.0322 Q71.9087,493.1816 72.4731,493.4805 L72.4731,496.2031 Q71.8423,495.6221 71.2488,495.3523 Q70.6553,495.0825 70.0244,495.0825 Q68.6797,495.0825 67.9949,496.1492 Q67.3101,497.2158 67.3101,499.3159 Q67.3101,501.4077 67.9949,502.4744 Q68.6797,503.541 70.0244,503.541 Q70.6553,503.541 71.2488,503.2712 Q71.8423,503.0015 72.4731,502.4204 Z "/><text fill="#000000" font-family="sans-serif" font-size="12" lengthAdjust="spacingAndGlyphs" textLength="45" x="84" y="503.5352">HAL_clk</text><line style="stroke: #A80036; stroke-width: 1.5;" x1="56" x2="131" y1="515" y2="515"/><line style="stroke: #A80036; stroke-width: 1.5;" x1="56" x2="131" y1="523" y2="523"/><!--MD5=[0634d43241d4affe486c22b85ba656e8]
reverse link clk to LL_clk--><path d="M93.5,335.39 C93.5,350.65 93.5,364.32 93.5,374.97 " fill="none" id="clk&lt;-LL_clk" style="stroke: #A80036; stroke-width: 1.0; stroke-dasharray: 7.0,7.0;"/><polygon fill="none" points="86.5,335.3,93.5,315.3,100.5,335.3,86.5,335.3" style="stroke: #A80036; stroke-width: 1.0;"/><!--MD5=[47b18092d7c0638f9e0901c0ef39efbd]
reverse link LL_clk to HAL_clk--><path d="M93.5,428.13 C93.5,445.15 93.5,466.6 93.5,482.68 " fill="none" id="LL_clk&lt;-HAL_clk" style="stroke: #A80036; stroke-width: 1.0;"/><polygon fill="#A80036" points="93.5,423,89.5,432,93.5,428,97.5,432,93.5,423" style="stroke: #A80036; stroke-width: 1.0;"/><!--MD5=[2470a712f3dd543eac09020ba0226cf1]
@startuml
interface clk {
	reset()
	enable_peripheral()
	disable_peripheral()
	enable_source()
	disable_source()
	set_source()
	get_source()
	set_pll_frequency()
	start_pll()
	stop_pll()
	is_pll_locked()
	get_hclk_frequency()
	get_pclk_frequency()
	get_freqeuncy()
	get_peripheral_clock_source()
	set_peripheral_clock_source()
	enable_output()
	disable_output()
	set_output_prescaler()
	set_output_source()
}

class LL_clk {
}

class HAL_clk {
}

clk <|.. LL_clk
LL_clk <- - HAL_clk
@enduml

PlantUML version 1.2019.13(Wed Dec 11 02:18:29 KST 2019)
(GPL source distribution)
Java Runtime: Java(TM) SE Runtime Environment
JVM: Java HotSpot(TM) 64-Bit Server VM
Java Version: 15+36-1562
Operating System: Mac OS X
Default Encoding: UTF-8
Language: en
Country: KR
--></g></svg>