<?xml version="1.0" encoding="UTF-8" standalone="no"?><svg xmlns="http://www.w3.org/2000/svg" xmlns:xlink="http://www.w3.org/1999/xlink" contentScriptType="application/ecmascript" contentStyleType="text/css" height="395px" preserveAspectRatio="none" style="width:440px;height:395px;" version="1.1" viewBox="0 0 440 395" width="440px" zoomAndPan="magnify"><defs><filter height="300%" id="fbtb1p85hlwa1" width="300%" x="-1" y="-1"><feGaussianBlur result="blurOut" stdDeviation="2.0"/><feColorMatrix in="blurOut" result="blurOut2" type="matrix" values="0 0 0 0 0 0 0 0 0 0 0 0 0 0 0 0 0 0 .4 0"/><feOffset dx="4.0" dy="4.0" in="blurOut2" result="blurOut3"/><feBlend in="SourceGraphic" in2="blurOut3" mode="normal"/></filter></defs><g><!--MD5=[ab36248187aa0020819eb0c4b562a567]
class GPIO--><rect fill="#FEFECE" filter="url(#fbtb1p85hlwa1)" height="229.3711" id="GPIO" style="stroke: #A80036; stroke-width: 1.5;" width="100" x="6" y="155"/><ellipse cx="39" cy="171" fill="#B4A7E5" rx="11" ry="11" style="stroke: #A80036; stroke-width: 1.0;"/><path d="M35.4277,167.2651 L35.4277,165.1069 L42.8071,165.1069 L42.8071,167.2651 L40.3418,167.2651 L40.3418,175.3418 L42.8071,175.3418 L42.8071,177.5 L35.4277,177.5 L35.4277,175.3418 L37.8931,175.3418 L37.8931,167.2651 Z "/><text fill="#000000" font-family="sans-serif" font-size="12" font-style="italic" lengthAdjust="spacingAndGlyphs" textLength="28" x="57" y="175.5352">GPIO</text><line style="stroke: #A80036; stroke-width: 1.5;" x1="7" x2="105" y1="187" y2="187"/><line style="stroke: #A80036; stroke-width: 1.5;" x1="7" x2="105" y1="195" y2="195"/><text fill="#000000" font-family="sans-serif" font-size="11" lengthAdjust="spacingAndGlyphs" textLength="35" x="12" y="209.6348">reset()</text><text fill="#000000" font-family="sans-serif" font-size="11" lengthAdjust="spacingAndGlyphs" textLength="72" x="12" y="222.5898">enable_port()</text><text fill="#000000" font-family="sans-serif" font-size="11" lengthAdjust="spacingAndGlyphs" textLength="75" x="12" y="235.5449">disable_port()</text><text fill="#000000" font-family="sans-serif" font-size="11" lengthAdjust="spacingAndGlyphs" textLength="60" x="12" y="248.5">set_mode()</text><text fill="#000000" font-family="sans-serif" font-size="11" lengthAdjust="spacingAndGlyphs" textLength="67" x="12" y="261.4551">set_altfunc()</text><text fill="#000000" font-family="sans-serif" font-size="11" lengthAdjust="spacingAndGlyphs" textLength="62" x="12" y="274.4102">set_speed()</text><text fill="#000000" font-family="sans-serif" font-size="11" lengthAdjust="spacingAndGlyphs" textLength="88" x="12" y="287.3652">set_debouncer()</text><text fill="#000000" font-family="sans-serif" font-size="11" lengthAdjust="spacingAndGlyphs" textLength="64" x="12" y="300.3203">enable_irq()</text><text fill="#000000" font-family="sans-serif" font-size="11" lengthAdjust="spacingAndGlyphs" textLength="67" x="12" y="313.2754">disable_irq()</text><text fill="#000000" font-family="sans-serif" font-size="11" lengthAdjust="spacingAndGlyphs" textLength="69" x="12" y="326.2305">clear_event()</text><text fill="#000000" font-family="sans-serif" font-size="11" lengthAdjust="spacingAndGlyphs" textLength="63" x="12" y="339.1855">write_port()</text><text fill="#000000" font-family="sans-serif" font-size="11" lengthAdjust="spacingAndGlyphs" textLength="61" x="12" y="352.1406">read_port()</text><text fill="#000000" font-family="sans-serif" font-size="11" lengthAdjust="spacingAndGlyphs" textLength="57" x="12" y="365.0957">write_pin()</text><text fill="#000000" font-family="sans-serif" font-size="11" lengthAdjust="spacingAndGlyphs" textLength="55" x="12" y="378.0508">read_pin()</text><!--MD5=[be3765a8ee426731c4981c30c0d20f09]
class HAL--><rect fill="#FEFECE" filter="url(#fbtb1p85hlwa1)" height="86.8652" id="HAL" style="stroke: #A80036; stroke-width: 1.5;" width="89" x="198.5" y="8"/><ellipse cx="228.8" cy="24" fill="#ADD1B2" rx="11" ry="11" style="stroke: #A80036; stroke-width: 1.0;"/><path d="M231.2731,30.1431 Q230.6921,30.4419 230.0529,30.5913 Q229.4138,30.7407 228.7082,30.7407 Q226.2014,30.7407 224.8815,29.0889 Q223.5617,27.437 223.5617,24.3159 Q223.5617,21.1865 224.8815,19.5347 Q226.2014,17.8828 228.7082,17.8828 Q229.4138,17.8828 230.0612,18.0322 Q230.7087,18.1816 231.2731,18.4805 L231.2731,21.2031 Q230.6423,20.6221 230.0488,20.3523 Q229.4553,20.0825 228.8244,20.0825 Q227.4797,20.0825 226.7949,21.1492 Q226.1101,22.2158 226.1101,24.3159 Q226.1101,26.4077 226.7949,27.4744 Q227.4797,28.541 228.8244,28.541 Q229.4553,28.541 230.0488,28.2712 Q230.6423,28.0015 231.2731,27.4204 Z "/><text fill="#000000" font-family="sans-serif" font-size="12" lengthAdjust="spacingAndGlyphs" textLength="23" x="246.2" y="28.5352">HAL</text><line style="stroke: #A80036; stroke-width: 1.5;" x1="199.5" x2="286.5" y1="40" y2="40"/><line style="stroke: #A80036; stroke-width: 1.5;" x1="199.5" x2="286.5" y1="48" y2="48"/><text fill="#000000" font-family="sans-serif" font-size="11" lengthAdjust="spacingAndGlyphs" textLength="35" x="204.5" y="62.6348">open()</text><text fill="#000000" font-family="sans-serif" font-size="11" lengthAdjust="spacingAndGlyphs" textLength="77" x="204.5" y="75.5898">open_output()</text><text fill="#000000" font-family="sans-serif" font-size="11" lengthAdjust="spacingAndGlyphs" textLength="36" x="204.5" y="88.5449">close()</text><!--MD5=[b3c4cffaebeb1ca91d3860615de3212f]
class LL--><rect fill="#FEFECE" filter="url(#fbtb1p85hlwa1)" height="48" id="LL" style="stroke: #A80036; stroke-width: 1.5;" width="44" x="34" y="27.5"/><ellipse cx="49" cy="43.5" fill="#ADD1B2" rx="11" ry="11" style="stroke: #A80036; stroke-width: 1.0;"/><path d="M51.4731,49.6431 Q50.8921,49.9419 50.2529,50.0913 Q49.6138,50.2407 48.9082,50.2407 Q46.4014,50.2407 45.0815,48.5889 Q43.7617,46.937 43.7617,43.8159 Q43.7617,40.6865 45.0815,39.0347 Q46.4014,37.3828 48.9082,37.3828 Q49.6138,37.3828 50.2612,37.5322 Q50.9087,37.6816 51.4731,37.9805 L51.4731,40.7031 Q50.8423,40.1221 50.2488,39.8523 Q49.6553,39.5825 49.0244,39.5825 Q47.6797,39.5825 46.9949,40.6492 Q46.3101,41.7158 46.3101,43.8159 Q46.3101,45.9077 46.9949,46.9744 Q47.6797,48.041 49.0244,48.041 Q49.6553,48.041 50.2488,47.7712 Q50.8423,47.5015 51.4731,46.9204 Z "/><text fill="#000000" font-family="sans-serif" font-size="12" lengthAdjust="spacingAndGlyphs" textLength="12" x="63" y="48.0352">LL</text><line style="stroke: #A80036; stroke-width: 1.5;" x1="35" x2="77" y1="59.5" y2="59.5"/><line style="stroke: #A80036; stroke-width: 1.5;" x1="35" x2="77" y1="67.5" y2="67.5"/><!--MD5=[eb672f161971a32a28c99da6c0336b3d]
class LL_power--><rect fill="#FEFECE" filter="url(#fbtb1p85hlwa1)" height="48" id="LL_power" style="stroke: #A80036; stroke-width: 1.5;" width="86" x="141" y="245.5"/><ellipse cx="156" cy="261.5" fill="#ADD1B2" rx="11" ry="11" style="stroke: #A80036; stroke-width: 1.0;"/><path d="M158.4731,267.6431 Q157.8921,267.9419 157.2529,268.0913 Q156.6138,268.2407 155.9082,268.2407 Q153.4014,268.2407 152.0815,266.5889 Q150.7617,264.937 150.7617,261.8159 Q150.7617,258.6865 152.0815,257.0347 Q153.4014,255.3828 155.9082,255.3828 Q156.6138,255.3828 157.2612,255.5322 Q157.9087,255.6816 158.4731,255.9805 L158.4731,258.7031 Q157.8423,258.1221 157.2488,257.8523 Q156.6553,257.5825 156.0244,257.5825 Q154.6797,257.5825 153.9949,258.6492 Q153.3101,259.7158 153.3101,261.8159 Q153.3101,263.9077 153.9949,264.9744 Q154.6797,266.041 156.0244,266.041 Q156.6553,266.041 157.2488,265.7712 Q157.8423,265.5015 158.4731,264.9204 Z "/><text fill="#000000" font-family="sans-serif" font-size="12" lengthAdjust="spacingAndGlyphs" textLength="54" x="170" y="266.0352">LL_power</text><line style="stroke: #A80036; stroke-width: 1.5;" x1="142" x2="226" y1="277.5" y2="277.5"/><line style="stroke: #A80036; stroke-width: 1.5;" x1="142" x2="226" y1="285.5" y2="285.5"/><!--MD5=[8b0caf15fab33df914d6885d5506f67f]
class LL_clock--><rect fill="#FEFECE" filter="url(#fbtb1p85hlwa1)" height="48" id="LL_clock" style="stroke: #A80036; stroke-width: 1.5;" width="79" x="262.5" y="245.5"/><ellipse cx="277.5" cy="261.5" fill="#ADD1B2" rx="11" ry="11" style="stroke: #A80036; stroke-width: 1.0;"/><path d="M279.9731,267.6431 Q279.3921,267.9419 278.7529,268.0913 Q278.1138,268.2407 277.4082,268.2407 Q274.9014,268.2407 273.5815,266.5889 Q272.2617,264.937 272.2617,261.8159 Q272.2617,258.6865 273.5815,257.0347 Q274.9014,255.3828 277.4082,255.3828 Q278.1138,255.3828 278.7612,255.5322 Q279.4087,255.6816 279.9731,255.9805 L279.9731,258.7031 Q279.3423,258.1221 278.7488,257.8523 Q278.1553,257.5825 277.5244,257.5825 Q276.1797,257.5825 275.4949,258.6492 Q274.8101,259.7158 274.8101,261.8159 Q274.8101,263.9077 275.4949,264.9744 Q276.1797,266.041 277.5244,266.041 Q278.1553,266.041 278.7488,265.7712 Q279.3423,265.5015 279.9731,264.9204 Z "/><text fill="#000000" font-family="sans-serif" font-size="12" lengthAdjust="spacingAndGlyphs" textLength="47" x="291.5" y="266.0352">LL_clock</text><line style="stroke: #A80036; stroke-width: 1.5;" x1="263.5" x2="340.5" y1="277.5" y2="277.5"/><line style="stroke: #A80036; stroke-width: 1.5;" x1="263.5" x2="340.5" y1="285.5" y2="285.5"/><!--MD5=[831aefa9ebd008f9dae82517425faefb]
class IRQ--><rect fill="#FEFECE" filter="url(#fbtb1p85hlwa1)" height="48" id="IRQ" style="stroke: #A80036; stroke-width: 1.5;" width="52" x="377" y="245.5"/><ellipse cx="392" cy="261.5" fill="#ADD1B2" rx="11" ry="11" style="stroke: #A80036; stroke-width: 1.0;"/><path d="M394.4731,267.6431 Q393.8921,267.9419 393.2529,268.0913 Q392.6138,268.2407 391.9082,268.2407 Q389.4014,268.2407 388.0815,266.5889 Q386.7617,264.937 386.7617,261.8159 Q386.7617,258.6865 388.0815,257.0347 Q389.4014,255.3828 391.9082,255.3828 Q392.6138,255.3828 393.2612,255.5322 Q393.9087,255.6816 394.4731,255.9805 L394.4731,258.7031 Q393.8423,258.1221 393.2488,257.8523 Q392.6553,257.5825 392.0244,257.5825 Q390.6797,257.5825 389.9949,258.6492 Q389.3101,259.7158 389.3101,261.8159 Q389.3101,263.9077 389.9949,264.9744 Q390.6797,266.041 392.0244,266.041 Q392.6553,266.041 393.2488,265.7712 Q393.8423,265.5015 394.4731,264.9204 Z "/><text fill="#000000" font-family="sans-serif" font-size="12" lengthAdjust="spacingAndGlyphs" textLength="20" x="406" y="266.0352">IRQ</text><line style="stroke: #A80036; stroke-width: 1.5;" x1="378" x2="428" y1="277.5" y2="277.5"/><line style="stroke: #A80036; stroke-width: 1.5;" x1="378" x2="428" y1="285.5" y2="285.5"/><!--MD5=[cb512d2bd354f52724a5d9f48630de97]
link LL to GPIO--><path d="M56,75.62 C56,90.73 56,111.82 56,134.55 " fill="none" id="LL-&gt;GPIO" style="stroke: #A80036; stroke-width: 1.0; stroke-dasharray: 7.0,7.0;"/><polygon fill="none" points="63,134.83,56,154.83,49,134.83,63,134.83" style="stroke: #A80036; stroke-width: 1.0;"/><!--MD5=[0c1688266da1a21becac32d14221378a]
link HAL to GPIO--><path d="M198.48,84.72 C174.39,103.52 145.11,128.67 123,155 C118.22,160.69 113.57,166.77 109.1,173.05 " fill="none" id="HAL-&gt;GPIO" style="stroke: #A80036; stroke-width: 1.0;"/><polygon fill="#A80036" points="106.03,177.42,114.4693,172.3427,108.8983,173.3245,107.9165,167.7535,106.03,177.42" style="stroke: #A80036; stroke-width: 1.0;"/><!--MD5=[f481892d08b88046121823827ef5b6c7]
link HAL to LL_power--><path d="M231.34,95.17 C219.63,138.06 201.9,202.97 191.79,239.98 " fill="none" id="HAL-&gt;LL_power" style="stroke: #A80036; stroke-width: 1.0;"/><polygon fill="#A80036" points="190.36,245.23,196.5833,237.5965,191.6732,240.4055,188.8641,235.4954,190.36,245.23" style="stroke: #A80036; stroke-width: 1.0;"/><!--MD5=[03027760a4a69a9b5b7ae20cb535c4e1]
link HAL to LL_clock--><path d="M254.66,95.17 C266.37,138.06 284.1,202.97 294.21,239.98 " fill="none" id="HAL-&gt;LL_clock" style="stroke: #A80036; stroke-width: 1.0;"/><polygon fill="#A80036" points="295.64,245.23,297.1359,235.4954,294.3268,240.4055,289.4167,237.5965,295.64,245.23" style="stroke: #A80036; stroke-width: 1.0;"/><!--MD5=[aa119ece880843938e062c5ac955c7c5]
link HAL to IRQ--><path d="M287.67,83.68 C311.47,102.15 339.72,127.33 359,155 C377.27,181.23 389.31,216.08 396.1,240.21 " fill="none" id="HAL-&gt;IRQ" style="stroke: #A80036; stroke-width: 1.0;"/><polygon fill="#A80036" points="397.48,245.19,398.9491,235.4513,396.1536,240.3692,391.2357,237.5736,397.48,245.19" style="stroke: #A80036; stroke-width: 1.0;"/><!--MD5=[3e577c2e21a74eb03d0d865273359aaa]
@startuml
interface GPIO {
	reset()
	enable_port()
	disable_port()
	set_mode()
	set_altfunc()
	set_speed()
	set_debouncer()
	enable_irq()
	disable_irq()
	clear_event()
	write_port()
	read_port()
	write_pin()
	read_pin()
}

class HAL {
	open()
	open_output()
	close()
}

LL ..|> GPIO
HAL - -> GPIO
HAL - -> LL_power
HAL - -> LL_clock
HAL - -> IRQ
@enduml

PlantUML version 1.2019.13(Wed Dec 11 02:18:29 KST 2019)
(GPL source distribution)
Java Runtime: Java(TM) SE Runtime Environment
JVM: Java HotSpot(TM) 64-Bit Server VM
Java Version: 15+36-1562
Operating System: Mac OS X
Default Encoding: UTF-8
Language: en
Country: KR
--></g></svg>