<?xml version="1.0" encoding="UTF-8" standalone="no"?><svg xmlns="http://www.w3.org/2000/svg" xmlns:xlink="http://www.w3.org/1999/xlink" contentScriptType="application/ecmascript" contentStyleType="text/css" height="593px" preserveAspectRatio="none" style="width:490px;height:593px;" version="1.1" viewBox="0 0 490 593" width="490px" zoomAndPan="magnify"><defs><filter height="300%" id="f18tn0uzt6a8j" width="300%" x="-1" y="-1"><feGaussianBlur result="blurOut" stdDeviation="2.0"/><feColorMatrix in="blurOut" result="blurOut2" type="matrix" values="0 0 0 0 0 0 0 0 0 0 0 0 0 0 0 0 0 0 .4 0"/><feOffset dx="4.0" dy="4.0" in="blurOut2" result="blurOut3"/><feBlend in="SourceGraphic" in2="blurOut3" mode="normal"/></filter></defs><g><!--MD5=[ab36248187aa0020819eb0c4b562a567]
class GPIO--><rect fill="#FEFECE" filter="url(#f18tn0uzt6a8j)" height="138.6855" id="GPIO" style="stroke: #A80036; stroke-width: 1.5;" width="81" x="13.53" y="444"/><ellipse cx="37.98" cy="460" fill="#B4A7E5" rx="11" ry="11" style="stroke: #A80036; stroke-width: 1.0;"/><path d="M34.4077,456.2651 L34.4077,454.1069 L41.7871,454.1069 L41.7871,456.2651 L39.3218,456.2651 L39.3218,464.3418 L41.7871,464.3418 L41.7871,466.5 L34.4077,466.5 L34.4077,464.3418 L36.8731,464.3418 L36.8731,456.2651 Z "/><text fill="#000000" font-family="sans-serif" font-size="12" font-style="italic" lengthAdjust="spacingAndGlyphs" textLength="28" x="54.08" y="464.5352">GPIO</text><line style="stroke: #A80036; stroke-width: 1.5;" x1="14.53" x2="93.53" y1="476" y2="476"/><line style="stroke: #A80036; stroke-width: 1.5;" x1="14.53" x2="93.53" y1="484" y2="484"/><text fill="#000000" font-family="sans-serif" font-size="11" lengthAdjust="spacingAndGlyphs" textLength="60" x="19.53" y="498.6348">set_mode()</text><text fill="#000000" font-family="sans-serif" font-size="11" lengthAdjust="spacingAndGlyphs" textLength="67" x="19.53" y="511.5898">set_altfunc()</text><text fill="#000000" font-family="sans-serif" font-size="11" lengthAdjust="spacingAndGlyphs" textLength="69" x="19.53" y="524.5449">clear_event()</text><text fill="#000000" font-family="sans-serif" font-size="11" lengthAdjust="spacingAndGlyphs" textLength="63" x="19.53" y="537.5">write_port()</text><text fill="#000000" font-family="sans-serif" font-size="11" lengthAdjust="spacingAndGlyphs" textLength="61" x="19.53" y="550.4551">read_port()</text><text fill="#000000" font-family="sans-serif" font-size="11" lengthAdjust="spacingAndGlyphs" textLength="34" x="19.53" y="563.4102">write()</text><text fill="#000000" font-family="sans-serif" font-size="11" lengthAdjust="spacingAndGlyphs" textLength="32" x="19.53" y="576.3652">read()</text><!--MD5=[b3c4cffaebeb1ca91d3860615de3212f]
class LL--><rect fill="#FEFECE" filter="url(#f18tn0uzt6a8j)" height="229.3711" id="LL" style="stroke: #A80036; stroke-width: 1.5;" width="100" x="56.03" y="155"/><ellipse cx="96.23" cy="171" fill="#ADD1B2" rx="11" ry="11" style="stroke: #A80036; stroke-width: 1.0;"/><path d="M98.7031,177.1431 Q98.1221,177.4419 97.4829,177.5913 Q96.8438,177.7407 96.1382,177.7407 Q93.6314,177.7407 92.3115,176.0889 Q90.9917,174.437 90.9917,171.3159 Q90.9917,168.1865 92.3115,166.5347 Q93.6314,164.8828 96.1382,164.8828 Q96.8438,164.8828 97.4912,165.0322 Q98.1387,165.1816 98.7031,165.4805 L98.7031,168.2031 Q98.0723,167.6221 97.4788,167.3523 Q96.8853,167.0825 96.2544,167.0825 Q94.9097,167.0825 94.2249,168.1492 Q93.5401,169.2158 93.5401,171.3159 Q93.5401,173.4077 94.2249,174.4744 Q94.9097,175.541 96.2544,175.541 Q96.8853,175.541 97.4788,175.2712 Q98.0723,175.0015 98.7031,174.4204 Z "/><text fill="#000000" font-family="sans-serif" font-size="12" lengthAdjust="spacingAndGlyphs" textLength="12" x="115.83" y="175.5352">LL</text><line style="stroke: #A80036; stroke-width: 1.5;" x1="57.03" x2="155.03" y1="187" y2="187"/><line style="stroke: #A80036; stroke-width: 1.5;" x1="57.03" x2="155.03" y1="195" y2="195"/><text fill="#000000" font-family="sans-serif" font-size="11" lengthAdjust="spacingAndGlyphs" textLength="35" x="62.03" y="209.6348">reset()</text><text fill="#000000" font-family="sans-serif" font-size="11" lengthAdjust="spacingAndGlyphs" textLength="72" x="62.03" y="222.5898">enable_port()</text><text fill="#000000" font-family="sans-serif" font-size="11" lengthAdjust="spacingAndGlyphs" textLength="75" x="62.03" y="235.5449">disable_port()</text><text fill="#000000" font-family="sans-serif" font-size="11" lengthAdjust="spacingAndGlyphs" textLength="60" x="62.03" y="248.5">set_mode()</text><text fill="#000000" font-family="sans-serif" font-size="11" lengthAdjust="spacingAndGlyphs" textLength="67" x="62.03" y="261.4551">set_altfunc()</text><text fill="#000000" font-family="sans-serif" font-size="11" lengthAdjust="spacingAndGlyphs" textLength="62" x="62.03" y="274.4102">set_speed()</text><text fill="#000000" font-family="sans-serif" font-size="11" lengthAdjust="spacingAndGlyphs" textLength="88" x="62.03" y="287.3652">set_debouncer()</text><text fill="#000000" font-family="sans-serif" font-size="11" lengthAdjust="spacingAndGlyphs" textLength="64" x="62.03" y="300.3203">enable_irq()</text><text fill="#000000" font-family="sans-serif" font-size="11" lengthAdjust="spacingAndGlyphs" textLength="67" x="62.03" y="313.2754">disable_irq()</text><text fill="#000000" font-family="sans-serif" font-size="11" lengthAdjust="spacingAndGlyphs" textLength="69" x="62.03" y="326.2305">clear_event()</text><text fill="#000000" font-family="sans-serif" font-size="11" lengthAdjust="spacingAndGlyphs" textLength="63" x="62.03" y="339.1855">write_port()</text><text fill="#000000" font-family="sans-serif" font-size="11" lengthAdjust="spacingAndGlyphs" textLength="61" x="62.03" y="352.1406">read_port()</text><text fill="#000000" font-family="sans-serif" font-size="11" lengthAdjust="spacingAndGlyphs" textLength="34" x="62.03" y="365.0957">write()</text><text fill="#000000" font-family="sans-serif" font-size="11" lengthAdjust="spacingAndGlyphs" textLength="32" x="62.03" y="378.0508">read()</text><!--MD5=[be3765a8ee426731c4981c30c0d20f09]
class HAL--><rect fill="#FEFECE" filter="url(#f18tn0uzt6a8j)" height="86.8652" id="HAL" style="stroke: #A80036; stroke-width: 1.5;" width="89" x="189.53" y="8"/><ellipse cx="219.83" cy="24" fill="#ADD1B2" rx="11" ry="11" style="stroke: #A80036; stroke-width: 1.0;"/><path d="M222.3031,30.1431 Q221.7221,30.4419 221.0829,30.5913 Q220.4438,30.7407 219.7382,30.7407 Q217.2314,30.7407 215.9115,29.0889 Q214.5917,27.437 214.5917,24.3159 Q214.5917,21.1865 215.9115,19.5347 Q217.2314,17.8828 219.7382,17.8828 Q220.4438,17.8828 221.0912,18.0322 Q221.7387,18.1816 222.3031,18.4805 L222.3031,21.2031 Q221.6723,20.6221 221.0788,20.3523 Q220.4853,20.0825 219.8544,20.0825 Q218.5097,20.0825 217.8249,21.1492 Q217.1401,22.2158 217.1401,24.3159 Q217.1401,26.4077 217.8249,27.4744 Q218.5097,28.541 219.8544,28.541 Q220.4853,28.541 221.0788,28.2712 Q221.6723,28.0015 222.3031,27.4204 Z "/><text fill="#000000" font-family="sans-serif" font-size="12" lengthAdjust="spacingAndGlyphs" textLength="23" x="237.23" y="28.5352">HAL</text><line style="stroke: #A80036; stroke-width: 1.5;" x1="190.53" x2="277.53" y1="40" y2="40"/><line style="stroke: #A80036; stroke-width: 1.5;" x1="190.53" x2="277.53" y1="48" y2="48"/><text fill="#000000" font-family="sans-serif" font-size="11" lengthAdjust="spacingAndGlyphs" textLength="35" x="195.53" y="62.6348">open()</text><text fill="#000000" font-family="sans-serif" font-size="11" lengthAdjust="spacingAndGlyphs" textLength="77" x="195.53" y="75.5898">open_output()</text><text fill="#000000" font-family="sans-serif" font-size="11" lengthAdjust="spacingAndGlyphs" textLength="36" x="195.53" y="88.5449">close()</text><!--MD5=[eb672f161971a32a28c99da6c0336b3d]
class LL_power--><rect fill="#FEFECE" filter="url(#f18tn0uzt6a8j)" height="48" id="LL_power" style="stroke: #A80036; stroke-width: 1.5;" width="86" x="191.03" y="245.5"/><ellipse cx="206.03" cy="261.5" fill="#ADD1B2" rx="11" ry="11" style="stroke: #A80036; stroke-width: 1.0;"/><path d="M208.5031,267.6431 Q207.9221,267.9419 207.2829,268.0913 Q206.6438,268.2407 205.9382,268.2407 Q203.4314,268.2407 202.1115,266.5889 Q200.7917,264.937 200.7917,261.8159 Q200.7917,258.6865 202.1115,257.0347 Q203.4314,255.3828 205.9382,255.3828 Q206.6438,255.3828 207.2912,255.5322 Q207.9387,255.6816 208.5031,255.9805 L208.5031,258.7031 Q207.8723,258.1221 207.2788,257.8523 Q206.6853,257.5825 206.0544,257.5825 Q204.7097,257.5825 204.0249,258.6492 Q203.3401,259.7158 203.3401,261.8159 Q203.3401,263.9077 204.0249,264.9744 Q204.7097,266.041 206.0544,266.041 Q206.6853,266.041 207.2788,265.7712 Q207.8723,265.5015 208.5031,264.9204 Z "/><text fill="#000000" font-family="sans-serif" font-size="12" lengthAdjust="spacingAndGlyphs" textLength="54" x="220.03" y="266.0352">LL_power</text><line style="stroke: #A80036; stroke-width: 1.5;" x1="192.03" x2="276.03" y1="277.5" y2="277.5"/><line style="stroke: #A80036; stroke-width: 1.5;" x1="192.03" x2="276.03" y1="285.5" y2="285.5"/><!--MD5=[8b0caf15fab33df914d6885d5506f67f]
class LL_clock--><rect fill="#FEFECE" filter="url(#f18tn0uzt6a8j)" height="48" id="LL_clock" style="stroke: #A80036; stroke-width: 1.5;" width="79" x="312.53" y="245.5"/><ellipse cx="327.53" cy="261.5" fill="#ADD1B2" rx="11" ry="11" style="stroke: #A80036; stroke-width: 1.0;"/><path d="M330.0031,267.6431 Q329.4221,267.9419 328.7829,268.0913 Q328.1438,268.2407 327.4382,268.2407 Q324.9314,268.2407 323.6115,266.5889 Q322.2917,264.937 322.2917,261.8159 Q322.2917,258.6865 323.6115,257.0347 Q324.9314,255.3828 327.4382,255.3828 Q328.1438,255.3828 328.7912,255.5322 Q329.4387,255.6816 330.0031,255.9805 L330.0031,258.7031 Q329.3723,258.1221 328.7788,257.8523 Q328.1853,257.5825 327.5544,257.5825 Q326.2097,257.5825 325.5249,258.6492 Q324.8401,259.7158 324.8401,261.8159 Q324.8401,263.9077 325.5249,264.9744 Q326.2097,266.041 327.5544,266.041 Q328.1853,266.041 328.7788,265.7712 Q329.3723,265.5015 330.0031,264.9204 Z "/><text fill="#000000" font-family="sans-serif" font-size="12" lengthAdjust="spacingAndGlyphs" textLength="47" x="341.53" y="266.0352">LL_clock</text><line style="stroke: #A80036; stroke-width: 1.5;" x1="313.53" x2="390.53" y1="277.5" y2="277.5"/><line style="stroke: #A80036; stroke-width: 1.5;" x1="313.53" x2="390.53" y1="285.5" y2="285.5"/><!--MD5=[831aefa9ebd008f9dae82517425faefb]
class IRQ--><rect fill="#FEFECE" filter="url(#f18tn0uzt6a8j)" height="48" id="IRQ" style="stroke: #A80036; stroke-width: 1.5;" width="52" x="427.03" y="245.5"/><ellipse cx="442.03" cy="261.5" fill="#ADD1B2" rx="11" ry="11" style="stroke: #A80036; stroke-width: 1.0;"/><path d="M444.5031,267.6431 Q443.9221,267.9419 443.2829,268.0913 Q442.6438,268.2407 441.9382,268.2407 Q439.4314,268.2407 438.1115,266.5889 Q436.7917,264.937 436.7917,261.8159 Q436.7917,258.6865 438.1115,257.0347 Q439.4314,255.3828 441.9382,255.3828 Q442.6438,255.3828 443.2912,255.5322 Q443.9387,255.6816 444.5031,255.9805 L444.5031,258.7031 Q443.8723,258.1221 443.2788,257.8523 Q442.6853,257.5825 442.0544,257.5825 Q440.7097,257.5825 440.0249,258.6492 Q439.3401,259.7158 439.3401,261.8159 Q439.3401,263.9077 440.0249,264.9744 Q440.7097,266.041 442.0544,266.041 Q442.6853,266.041 443.2788,265.7712 Q443.8723,265.5015 444.5031,264.9204 Z "/><text fill="#000000" font-family="sans-serif" font-size="12" lengthAdjust="spacingAndGlyphs" textLength="20" x="456.03" y="266.0352">IRQ</text><line style="stroke: #A80036; stroke-width: 1.5;" x1="428.03" x2="478.03" y1="277.5" y2="277.5"/><line style="stroke: #A80036; stroke-width: 1.5;" x1="428.03" x2="478.03" y1="285.5" y2="285.5"/><!--MD5=[0c1688266da1a21becac32d14221378a]
link HAL to GPIO--><path d="M189.15,61.9 C142.37,74.35 71.46,101.31 39.03,155 C-9.91,236.02 4.72,347.26 24.59,424.03 " fill="none" id="HAL-&gt;GPIO" style="stroke: #A80036; stroke-width: 1.0; stroke-dasharray: 7.0,7.0;"/><polygon fill="none" points="31.46,422.6,30,443.74,17.96,426.31,31.46,422.6" style="stroke: #A80036; stroke-width: 1.0;"/><!--MD5=[7c42b4011aa728296f409c876b3a9cd7]
link HAL to LL--><path d="M208.74,95.17 C194.5,119.22 176.15,150.17 158.91,179.26 " fill="none" id="HAL-&gt;LL" style="stroke: #A80036; stroke-width: 1.0;"/><polygon fill="#A80036" points="156.16,183.91,164.1842,178.1993,158.7051,179.6062,157.2981,174.1271,156.16,183.91" style="stroke: #A80036; stroke-width: 1.0;"/><!--MD5=[f481892d08b88046121823827ef5b6c7]
link HAL to LL_power--><path d="M234.03,95.17 C234.03,138.06 234.03,202.97 234.03,239.98 " fill="none" id="HAL-&gt;LL_power" style="stroke: #A80036; stroke-width: 1.0; stroke-dasharray: 7.0,7.0;"/><polygon fill="#A80036" points="234.03,245.23,238.03,236.23,234.03,240.23,230.03,236.23,234.03,245.23" style="stroke: #A80036; stroke-width: 1.0;"/><!--MD5=[03027760a4a69a9b5b7ae20cb535c4e1]
link HAL to LL_clock--><path d="M260.55,95.5 C271.52,113.68 284.19,135.2 295.03,155 C310.76,183.71 327.41,217.28 338.63,240.43 " fill="none" id="HAL-&gt;LL_clock" style="stroke: #A80036; stroke-width: 1.0; stroke-dasharray: 7.0,7.0;"/><polygon fill="#A80036" points="340.94,245.21,340.6181,235.3664,338.7611,240.7097,333.4177,238.8527,340.94,245.21" style="stroke: #A80036; stroke-width: 1.0;"/><!--MD5=[aa119ece880843938e062c5ac955c7c5]
link HAL to IRQ--><path d="M278.88,68.85 C318.05,85.2 373.99,113.85 409.03,155 C430.01,179.64 441.63,215.4 447.59,240.17 " fill="none" id="HAL-&gt;IRQ" style="stroke: #A80036; stroke-width: 1.0; stroke-dasharray: 7.0,7.0;"/><polygon fill="#A80036" points="448.77,245.28,450.6355,235.6094,447.6415,240.409,442.842,237.415,448.77,245.28" style="stroke: #A80036; stroke-width: 1.0;"/><!--MD5=[cb512d2bd354f52724a5d9f48630de97]
link LL to GPIO--><path d="M81.63,384.06 C77.66,402.53 73.64,421.24 69.94,438.45 " fill="none" id="LL-&gt;GPIO" style="stroke: #A80036; stroke-width: 1.0;"/><polygon fill="#A80036" points="68.81,443.74,74.6229,435.7895,69.8674,438.8531,66.8038,434.0976,68.81,443.74" style="stroke: #A80036; stroke-width: 1.0;"/><!--MD5=[e64280fae11663def4b19f0bf536a3fd]
@startuml
interface GPIO {
	set_mode()
	set_altfunc()
	clear_event()
	write_port()
	read_port()
	write()
	read()
}

class LL {
	reset()
	enable_port()
	disable_port()
	set_mode()
	set_altfunc()
	set_speed()
	set_debouncer()
	enable_irq()
	disable_irq()
	clear_event()
	write_port()
	read_port()
	write()
	read()
}

class HAL {
	open()
	open_output()
	close()
}

HAL ..|> GPIO
HAL - -> LL
HAL ..> LL_power
HAL ..> LL_clock
HAL ..> IRQ
LL - -> GPIO
@enduml

PlantUML version 1.2019.13(Wed Dec 11 02:18:29 KST 2019)
(GPL source distribution)
Java Runtime: Java(TM) SE Runtime Environment
JVM: Java HotSpot(TM) 64-Bit Server VM
Java Version: 15+36-1562
Operating System: Mac OS X
Default Encoding: UTF-8
Language: en
Country: KR
--></g></svg>