<?xml version="1.0" encoding="UTF-8" standalone="no"?><svg xmlns="http://www.w3.org/2000/svg" xmlns:xlink="http://www.w3.org/1999/xlink" contentScriptType="application/ecmascript" contentStyleType="text/css" height="554px" preserveAspectRatio="none" style="width:488px;height:554px;" version="1.1" viewBox="0 0 488 554" width="488px" zoomAndPan="magnify"><defs><filter height="300%" id="fw8ebavi9g7td" width="300%" x="-1" y="-1"><feGaussianBlur result="blurOut" stdDeviation="2.0"/><feColorMatrix in="blurOut" result="blurOut2" type="matrix" values="0 0 0 0 0 0 0 0 0 0 0 0 0 0 0 0 0 0 .4 0"/><feOffset dx="4.0" dy="4.0" in="blurOut2" result="blurOut3"/><feBlend in="SourceGraphic" in2="blurOut3" mode="normal"/></filter></defs><g><!--MD5=[ab36248187aa0020819eb0c4b562a567]
class GPIO--><rect fill="#FEFECE" filter="url(#fw8ebavi9g7td)" height="99.8203" id="GPIO" style="stroke: #A80036; stroke-width: 1.5;" width="81" x="11.74" y="444"/><ellipse cx="36.19" cy="460" fill="#B4A7E5" rx="11" ry="11" style="stroke: #A80036; stroke-width: 1.0;"/><path d="M32.6177,456.2651 L32.6177,454.1069 L39.9971,454.1069 L39.9971,456.2651 L37.5318,456.2651 L37.5318,464.3418 L39.9971,464.3418 L39.9971,466.5 L32.6177,466.5 L32.6177,464.3418 L35.0831,464.3418 L35.0831,456.2651 Z "/><text fill="#000000" font-family="sans-serif" font-size="12" font-style="italic" lengthAdjust="spacingAndGlyphs" textLength="28" x="52.29" y="464.5352">GPIO</text><line style="stroke: #A80036; stroke-width: 1.5;" x1="12.74" x2="91.74" y1="476" y2="476"/><line style="stroke: #A80036; stroke-width: 1.5;" x1="12.74" x2="91.74" y1="484" y2="484"/><text fill="#000000" font-family="sans-serif" font-size="11" lengthAdjust="spacingAndGlyphs" textLength="67" x="17.74" y="498.6348">set_altfunc()</text><text fill="#000000" font-family="sans-serif" font-size="11" lengthAdjust="spacingAndGlyphs" textLength="69" x="17.74" y="511.5898">clear_event()</text><text fill="#000000" font-family="sans-serif" font-size="11" lengthAdjust="spacingAndGlyphs" textLength="34" x="17.74" y="524.5449">write()</text><text fill="#000000" font-family="sans-serif" font-size="11" lengthAdjust="spacingAndGlyphs" textLength="32" x="17.74" y="537.5">read()</text><!--MD5=[b3c4cffaebeb1ca91d3860615de3212f]
class LL--><rect fill="#FEFECE" filter="url(#fw8ebavi9g7td)" height="229.3711" id="LL" style="stroke: #A80036; stroke-width: 1.5;" width="100" x="54.24" y="155"/><ellipse cx="94.44" cy="171" fill="#ADD1B2" rx="11" ry="11" style="stroke: #A80036; stroke-width: 1.0;"/><path d="M96.9131,177.1431 Q96.3321,177.4419 95.6929,177.5913 Q95.0538,177.7407 94.3482,177.7407 Q91.8414,177.7407 90.5215,176.0889 Q89.2017,174.437 89.2017,171.3159 Q89.2017,168.1865 90.5215,166.5347 Q91.8414,164.8828 94.3482,164.8828 Q95.0538,164.8828 95.7012,165.0322 Q96.3487,165.1816 96.9131,165.4805 L96.9131,168.2031 Q96.2823,167.6221 95.6888,167.3523 Q95.0953,167.0825 94.4644,167.0825 Q93.1197,167.0825 92.4349,168.1492 Q91.7501,169.2158 91.7501,171.3159 Q91.7501,173.4077 92.4349,174.4744 Q93.1197,175.541 94.4644,175.541 Q95.0953,175.541 95.6888,175.2712 Q96.2823,175.0015 96.9131,174.4204 Z "/><text fill="#000000" font-family="sans-serif" font-size="12" lengthAdjust="spacingAndGlyphs" textLength="12" x="114.04" y="175.5352">LL</text><line style="stroke: #A80036; stroke-width: 1.5;" x1="55.24" x2="153.24" y1="187" y2="187"/><line style="stroke: #A80036; stroke-width: 1.5;" x1="55.24" x2="153.24" y1="195" y2="195"/><text fill="#000000" font-family="sans-serif" font-size="11" lengthAdjust="spacingAndGlyphs" textLength="35" x="60.24" y="209.6348">reset()</text><text fill="#000000" font-family="sans-serif" font-size="11" lengthAdjust="spacingAndGlyphs" textLength="72" x="60.24" y="222.5898">enable_port()</text><text fill="#000000" font-family="sans-serif" font-size="11" lengthAdjust="spacingAndGlyphs" textLength="75" x="60.24" y="235.5449">disable_port()</text><text fill="#000000" font-family="sans-serif" font-size="11" lengthAdjust="spacingAndGlyphs" textLength="60" x="60.24" y="248.5">set_mode()</text><text fill="#000000" font-family="sans-serif" font-size="11" lengthAdjust="spacingAndGlyphs" textLength="67" x="60.24" y="261.4551">set_altfunc()</text><text fill="#000000" font-family="sans-serif" font-size="11" lengthAdjust="spacingAndGlyphs" textLength="62" x="60.24" y="274.4102">set_speed()</text><text fill="#000000" font-family="sans-serif" font-size="11" lengthAdjust="spacingAndGlyphs" textLength="88" x="60.24" y="287.3652">set_debouncer()</text><text fill="#000000" font-family="sans-serif" font-size="11" lengthAdjust="spacingAndGlyphs" textLength="64" x="60.24" y="300.3203">enable_irq()</text><text fill="#000000" font-family="sans-serif" font-size="11" lengthAdjust="spacingAndGlyphs" textLength="67" x="60.24" y="313.2754">disable_irq()</text><text fill="#000000" font-family="sans-serif" font-size="11" lengthAdjust="spacingAndGlyphs" textLength="69" x="60.24" y="326.2305">clear_event()</text><text fill="#000000" font-family="sans-serif" font-size="11" lengthAdjust="spacingAndGlyphs" textLength="63" x="60.24" y="339.1855">write_port()</text><text fill="#000000" font-family="sans-serif" font-size="11" lengthAdjust="spacingAndGlyphs" textLength="61" x="60.24" y="352.1406">read_port()</text><text fill="#000000" font-family="sans-serif" font-size="11" lengthAdjust="spacingAndGlyphs" textLength="34" x="60.24" y="365.0957">write()</text><text fill="#000000" font-family="sans-serif" font-size="11" lengthAdjust="spacingAndGlyphs" textLength="32" x="60.24" y="378.0508">read()</text><!--MD5=[be3765a8ee426731c4981c30c0d20f09]
class HAL--><rect fill="#FEFECE" filter="url(#fw8ebavi9g7td)" height="86.8652" id="HAL" style="stroke: #A80036; stroke-width: 1.5;" width="89" x="187.74" y="8"/><ellipse cx="218.04" cy="24" fill="#ADD1B2" rx="11" ry="11" style="stroke: #A80036; stroke-width: 1.0;"/><path d="M220.5131,30.1431 Q219.9321,30.4419 219.2929,30.5913 Q218.6538,30.7407 217.9482,30.7407 Q215.4414,30.7407 214.1215,29.0889 Q212.8017,27.437 212.8017,24.3159 Q212.8017,21.1865 214.1215,19.5347 Q215.4414,17.8828 217.9482,17.8828 Q218.6538,17.8828 219.3012,18.0322 Q219.9487,18.1816 220.5131,18.4805 L220.5131,21.2031 Q219.8823,20.6221 219.2888,20.3523 Q218.6953,20.0825 218.0644,20.0825 Q216.7197,20.0825 216.0349,21.1492 Q215.3501,22.2158 215.3501,24.3159 Q215.3501,26.4077 216.0349,27.4744 Q216.7197,28.541 218.0644,28.541 Q218.6953,28.541 219.2888,28.2712 Q219.8823,28.0015 220.5131,27.4204 Z "/><text fill="#000000" font-family="sans-serif" font-size="12" lengthAdjust="spacingAndGlyphs" textLength="23" x="235.44" y="28.5352">HAL</text><line style="stroke: #A80036; stroke-width: 1.5;" x1="188.74" x2="275.74" y1="40" y2="40"/><line style="stroke: #A80036; stroke-width: 1.5;" x1="188.74" x2="275.74" y1="48" y2="48"/><text fill="#000000" font-family="sans-serif" font-size="11" lengthAdjust="spacingAndGlyphs" textLength="35" x="193.74" y="62.6348">open()</text><text fill="#000000" font-family="sans-serif" font-size="11" lengthAdjust="spacingAndGlyphs" textLength="77" x="193.74" y="75.5898">open_output()</text><text fill="#000000" font-family="sans-serif" font-size="11" lengthAdjust="spacingAndGlyphs" textLength="36" x="193.74" y="88.5449">close()</text><!--MD5=[eb672f161971a32a28c99da6c0336b3d]
class LL_power--><rect fill="#FEFECE" filter="url(#fw8ebavi9g7td)" height="48" id="LL_power" style="stroke: #A80036; stroke-width: 1.5;" width="86" x="189.24" y="245.5"/><ellipse cx="204.24" cy="261.5" fill="#ADD1B2" rx="11" ry="11" style="stroke: #A80036; stroke-width: 1.0;"/><path d="M206.7131,267.6431 Q206.1321,267.9419 205.4929,268.0913 Q204.8538,268.2407 204.1482,268.2407 Q201.6414,268.2407 200.3215,266.5889 Q199.0017,264.937 199.0017,261.8159 Q199.0017,258.6865 200.3215,257.0347 Q201.6414,255.3828 204.1482,255.3828 Q204.8538,255.3828 205.5012,255.5322 Q206.1487,255.6816 206.7131,255.9805 L206.7131,258.7031 Q206.0823,258.1221 205.4888,257.8523 Q204.8953,257.5825 204.2644,257.5825 Q202.9197,257.5825 202.2349,258.6492 Q201.5501,259.7158 201.5501,261.8159 Q201.5501,263.9077 202.2349,264.9744 Q202.9197,266.041 204.2644,266.041 Q204.8953,266.041 205.4888,265.7712 Q206.0823,265.5015 206.7131,264.9204 Z "/><text fill="#000000" font-family="sans-serif" font-size="12" lengthAdjust="spacingAndGlyphs" textLength="54" x="218.24" y="266.0352">LL_power</text><line style="stroke: #A80036; stroke-width: 1.5;" x1="190.24" x2="274.24" y1="277.5" y2="277.5"/><line style="stroke: #A80036; stroke-width: 1.5;" x1="190.24" x2="274.24" y1="285.5" y2="285.5"/><!--MD5=[8b0caf15fab33df914d6885d5506f67f]
class LL_clock--><rect fill="#FEFECE" filter="url(#fw8ebavi9g7td)" height="48" id="LL_clock" style="stroke: #A80036; stroke-width: 1.5;" width="79" x="310.74" y="245.5"/><ellipse cx="325.74" cy="261.5" fill="#ADD1B2" rx="11" ry="11" style="stroke: #A80036; stroke-width: 1.0;"/><path d="M328.2131,267.6431 Q327.6321,267.9419 326.9929,268.0913 Q326.3538,268.2407 325.6482,268.2407 Q323.1414,268.2407 321.8215,266.5889 Q320.5017,264.937 320.5017,261.8159 Q320.5017,258.6865 321.8215,257.0347 Q323.1414,255.3828 325.6482,255.3828 Q326.3538,255.3828 327.0012,255.5322 Q327.6487,255.6816 328.2131,255.9805 L328.2131,258.7031 Q327.5823,258.1221 326.9888,257.8523 Q326.3953,257.5825 325.7644,257.5825 Q324.4197,257.5825 323.7349,258.6492 Q323.0501,259.7158 323.0501,261.8159 Q323.0501,263.9077 323.7349,264.9744 Q324.4197,266.041 325.7644,266.041 Q326.3953,266.041 326.9888,265.7712 Q327.5823,265.5015 328.2131,264.9204 Z "/><text fill="#000000" font-family="sans-serif" font-size="12" lengthAdjust="spacingAndGlyphs" textLength="47" x="339.74" y="266.0352">LL_clock</text><line style="stroke: #A80036; stroke-width: 1.5;" x1="311.74" x2="388.74" y1="277.5" y2="277.5"/><line style="stroke: #A80036; stroke-width: 1.5;" x1="311.74" x2="388.74" y1="285.5" y2="285.5"/><!--MD5=[831aefa9ebd008f9dae82517425faefb]
class IRQ--><rect fill="#FEFECE" filter="url(#fw8ebavi9g7td)" height="48" id="IRQ" style="stroke: #A80036; stroke-width: 1.5;" width="52" x="425.24" y="245.5"/><ellipse cx="440.24" cy="261.5" fill="#ADD1B2" rx="11" ry="11" style="stroke: #A80036; stroke-width: 1.0;"/><path d="M442.7131,267.6431 Q442.1321,267.9419 441.4929,268.0913 Q440.8538,268.2407 440.1482,268.2407 Q437.6414,268.2407 436.3215,266.5889 Q435.0017,264.937 435.0017,261.8159 Q435.0017,258.6865 436.3215,257.0347 Q437.6414,255.3828 440.1482,255.3828 Q440.8538,255.3828 441.5012,255.5322 Q442.1487,255.6816 442.7131,255.9805 L442.7131,258.7031 Q442.0823,258.1221 441.4888,257.8523 Q440.8953,257.5825 440.2644,257.5825 Q438.9197,257.5825 438.2349,258.6492 Q437.5501,259.7158 437.5501,261.8159 Q437.5501,263.9077 438.2349,264.9744 Q438.9197,266.041 440.2644,266.041 Q440.8953,266.041 441.4888,265.7712 Q442.0823,265.5015 442.7131,264.9204 Z "/><text fill="#000000" font-family="sans-serif" font-size="12" lengthAdjust="spacingAndGlyphs" textLength="20" x="454.24" y="266.0352">IRQ</text><line style="stroke: #A80036; stroke-width: 1.5;" x1="426.24" x2="476.24" y1="277.5" y2="277.5"/><line style="stroke: #A80036; stroke-width: 1.5;" x1="426.24" x2="476.24" y1="285.5" y2="285.5"/><!--MD5=[0c1688266da1a21becac32d14221378a]
link HAL to GPIO--><path d="M187.36,61.9 C140.58,74.35 69.67,101.31 37.24,155 C-12.38,237.15 7.45,352.12 28.29,424.55 " fill="none" id="HAL-&gt;GPIO" style="stroke: #A80036; stroke-width: 1.0; stroke-dasharray: 7.0,7.0;"/><polygon fill="none" points="35.02,422.62,34.14,443.79,21.62,426.69,35.02,422.62" style="stroke: #A80036; stroke-width: 1.0;"/><!--MD5=[7c42b4011aa728296f409c876b3a9cd7]
link HAL to LL--><path d="M206.95,95.17 C192.71,119.22 174.36,150.17 157.12,179.26 " fill="none" id="HAL-&gt;LL" style="stroke: #A80036; stroke-width: 1.0;"/><polygon fill="#A80036" points="154.37,183.91,162.3942,178.1993,156.9151,179.6062,155.5081,174.1271,154.37,183.91" style="stroke: #A80036; stroke-width: 1.0;"/><!--MD5=[f481892d08b88046121823827ef5b6c7]
link HAL to LL_power--><path d="M232.24,95.17 C232.24,138.06 232.24,202.97 232.24,239.98 " fill="none" id="HAL-&gt;LL_power" style="stroke: #A80036; stroke-width: 1.0; stroke-dasharray: 7.0,7.0;"/><polygon fill="#A80036" points="232.24,245.23,236.24,236.23,232.24,240.23,228.24,236.23,232.24,245.23" style="stroke: #A80036; stroke-width: 1.0;"/><!--MD5=[03027760a4a69a9b5b7ae20cb535c4e1]
link HAL to LL_clock--><path d="M258.76,95.5 C269.73,113.68 282.4,135.2 293.24,155 C308.97,183.71 325.62,217.28 336.84,240.43 " fill="none" id="HAL-&gt;LL_clock" style="stroke: #A80036; stroke-width: 1.0; stroke-dasharray: 7.0,7.0;"/><polygon fill="#A80036" points="339.15,245.21,338.8281,235.3664,336.9711,240.7097,331.6277,238.8527,339.15,245.21" style="stroke: #A80036; stroke-width: 1.0;"/><!--MD5=[aa119ece880843938e062c5ac955c7c5]
link HAL to IRQ--><path d="M277.09,68.85 C316.26,85.2 372.2,113.85 407.24,155 C428.22,179.64 439.84,215.4 445.8,240.17 " fill="none" id="HAL-&gt;IRQ" style="stroke: #A80036; stroke-width: 1.0; stroke-dasharray: 7.0,7.0;"/><polygon fill="#A80036" points="446.98,245.28,448.8455,235.6094,445.8515,240.409,441.052,237.415,446.98,245.28" style="stroke: #A80036; stroke-width: 1.0;"/><!--MD5=[cb512d2bd354f52724a5d9f48630de97]
link LL to GPIO--><path d="M77.71,384.03 C73.24,403.16 68.79,422.2 64.89,438.88 " fill="none" id="LL-&gt;GPIO" style="stroke: #A80036; stroke-width: 1.0;"/><polygon fill="#A80036" points="63.7,443.98,69.6499,436.1315,64.842,439.1122,61.8614,434.3043,63.7,443.98" style="stroke: #A80036; stroke-width: 1.0;"/><!--MD5=[9d6bb02adf01e4af8af26f0a815093ff]
@startuml
interface GPIO {
	set_altfunc()
	clear_event()
	write()
	read()
}

class LL {
	reset()
	enable_port()
	disable_port()
	set_mode()
	set_altfunc()
	set_speed()
	set_debouncer()
	enable_irq()
	disable_irq()
	clear_event()
	write_port()
	read_port()
	write()
	read()
}

class HAL {
	open()
	open_output()
	close()
}

HAL ..|> GPIO
HAL - -> LL
HAL ..> LL_power
HAL ..> LL_clock
HAL ..> IRQ
LL - -> GPIO
@enduml

PlantUML version 1.2019.13(Wed Dec 11 02:18:29 KST 2019)
(GPL source distribution)
Java Runtime: Java(TM) SE Runtime Environment
JVM: Java HotSpot(TM) 64-Bit Server VM
Java Version: 15+36-1562
Operating System: Mac OS X
Default Encoding: UTF-8
Language: en
Country: KR
--></g></svg>