<?xml version="1.0" encoding="UTF-8" standalone="no"?><svg xmlns="http://www.w3.org/2000/svg" xmlns:xlink="http://www.w3.org/1999/xlink" contentScriptType="application/ecmascript" contentStyleType="text/css" height="611px" preserveAspectRatio="none" style="width:305px;height:611px;" version="1.1" viewBox="0 0 305 611" width="305px" zoomAndPan="magnify"><defs><filter height="300%" id="fm2ohuc4pxy4c" width="300%" x="-1" y="-1"><feGaussianBlur result="blurOut" stdDeviation="2.0"/><feColorMatrix in="blurOut" result="blurOut2" type="matrix" values="0 0 0 0 0 0 0 0 0 0 0 0 0 0 0 0 0 0 .4 0"/><feOffset dx="4.0" dy="4.0" in="blurOut2" result="blurOut3"/><feBlend in="SourceGraphic" in2="blurOut3" mode="normal"/></filter></defs><g><!--MD5=[c588de03eb35ad1869cb4a54d7241460]
class gpio--><rect fill="#FEFECE" filter="url(#fm2ohuc4pxy4c)" height="229.3711" id="gpio" style="stroke: #A80036; stroke-width: 1.5;" width="100" x="117" y="8"/><ellipse cx="151.35" cy="24" fill="#B4A7E5" rx="11" ry="11" style="stroke: #A80036; stroke-width: 1.0;"/><path d="M147.7777,20.2651 L147.7777,18.1069 L155.1571,18.1069 L155.1571,20.2651 L152.6918,20.2651 L152.6918,28.3418 L155.1571,28.3418 L155.1571,30.5 L147.7777,30.5 L147.7777,28.3418 L150.2431,28.3418 L150.2431,20.2651 Z "/><text fill="#000000" font-family="sans-serif" font-size="12" font-style="italic" lengthAdjust="spacingAndGlyphs" textLength="25" x="169.65" y="28.5352">gpio</text><line style="stroke: #A80036; stroke-width: 1.5;" x1="118" x2="216" y1="40" y2="40"/><line style="stroke: #A80036; stroke-width: 1.5;" x1="118" x2="216" y1="48" y2="48"/><text fill="#000000" font-family="sans-serif" font-size="11" lengthAdjust="spacingAndGlyphs" textLength="35" x="123" y="62.6348">reset()</text><text fill="#000000" font-family="sans-serif" font-size="11" lengthAdjust="spacingAndGlyphs" textLength="72" x="123" y="75.5898">enable_port()</text><text fill="#000000" font-family="sans-serif" font-size="11" lengthAdjust="spacingAndGlyphs" textLength="75" x="123" y="88.5449">disable_port()</text><text fill="#000000" font-family="sans-serif" font-size="11" lengthAdjust="spacingAndGlyphs" textLength="60" x="123" y="101.5">set_mode()</text><text fill="#000000" font-family="sans-serif" font-size="11" lengthAdjust="spacingAndGlyphs" textLength="67" x="123" y="114.4551">set_altfunc()</text><text fill="#000000" font-family="sans-serif" font-size="11" lengthAdjust="spacingAndGlyphs" textLength="62" x="123" y="127.4102">set_speed()</text><text fill="#000000" font-family="sans-serif" font-size="11" lengthAdjust="spacingAndGlyphs" textLength="88" x="123" y="140.3652">set_debouncer()</text><text fill="#000000" font-family="sans-serif" font-size="11" lengthAdjust="spacingAndGlyphs" textLength="64" x="123" y="153.3203">enable_irq()</text><text fill="#000000" font-family="sans-serif" font-size="11" lengthAdjust="spacingAndGlyphs" textLength="67" x="123" y="166.2754">disable_irq()</text><text fill="#000000" font-family="sans-serif" font-size="11" lengthAdjust="spacingAndGlyphs" textLength="69" x="123" y="179.2305">clear_event()</text><text fill="#000000" font-family="sans-serif" font-size="11" lengthAdjust="spacingAndGlyphs" textLength="63" x="123" y="192.1855">write_port()</text><text fill="#000000" font-family="sans-serif" font-size="11" lengthAdjust="spacingAndGlyphs" textLength="61" x="123" y="205.1406">read_port()</text><text fill="#000000" font-family="sans-serif" font-size="11" lengthAdjust="spacingAndGlyphs" textLength="34" x="123" y="218.0957">write()</text><text fill="#000000" font-family="sans-serif" font-size="11" lengthAdjust="spacingAndGlyphs" textLength="32" x="123" y="231.0508">read()</text><!--MD5=[b9353704b3fc46b99c81e088a2bf2a22]
class LL_gpio--><rect fill="#FEFECE" filter="url(#fm2ohuc4pxy4c)" height="48" id="LL_gpio" style="stroke: #A80036; stroke-width: 1.5;" width="75" x="129.5" y="297"/><ellipse cx="144.5" cy="313" fill="#ADD1B2" rx="11" ry="11" style="stroke: #A80036; stroke-width: 1.0;"/><path d="M146.9731,319.1431 Q146.3921,319.4419 145.7529,319.5913 Q145.1138,319.7407 144.4082,319.7407 Q141.9014,319.7407 140.5815,318.0889 Q139.2617,316.437 139.2617,313.3159 Q139.2617,310.1865 140.5815,308.5347 Q141.9014,306.8828 144.4082,306.8828 Q145.1138,306.8828 145.7612,307.0322 Q146.4087,307.1816 146.9731,307.4805 L146.9731,310.2031 Q146.3423,309.6221 145.7488,309.3523 Q145.1553,309.0825 144.5244,309.0825 Q143.1797,309.0825 142.4949,310.1492 Q141.8101,311.2158 141.8101,313.3159 Q141.8101,315.4077 142.4949,316.4744 Q143.1797,317.541 144.5244,317.541 Q145.1553,317.541 145.7488,317.2712 Q146.3423,317.0015 146.9731,316.4204 Z "/><text fill="#000000" font-family="sans-serif" font-size="12" lengthAdjust="spacingAndGlyphs" textLength="43" x="158.5" y="317.5352">LL_gpio</text><line style="stroke: #A80036; stroke-width: 1.5;" x1="130.5" x2="203.5" y1="329" y2="329"/><line style="stroke: #A80036; stroke-width: 1.5;" x1="130.5" x2="203.5" y1="337" y2="337"/><!--MD5=[1a4c656555c01f2f7d0400df4f7db7cf]
class HAL_gpio--><rect fill="#FEFECE" filter="url(#fm2ohuc4pxy4c)" height="86.8652" id="HAL_gpio" style="stroke: #A80036; stroke-width: 1.5;" width="89" x="122.5" y="405"/><ellipse cx="138.85" cy="421" fill="#ADD1B2" rx="11" ry="11" style="stroke: #A80036; stroke-width: 1.0;"/><path d="M141.3231,427.1431 Q140.7421,427.4419 140.1029,427.5913 Q139.4638,427.7407 138.7582,427.7407 Q136.2514,427.7407 134.9315,426.0889 Q133.6117,424.437 133.6117,421.3159 Q133.6117,418.1865 134.9315,416.5347 Q136.2514,414.8828 138.7582,414.8828 Q139.4638,414.8828 140.1112,415.0322 Q140.7587,415.1816 141.3231,415.4805 L141.3231,418.2031 Q140.6923,417.6221 140.0988,417.3523 Q139.5053,417.0825 138.8744,417.0825 Q137.5297,417.0825 136.8449,418.1492 Q136.1601,419.2158 136.1601,421.3159 Q136.1601,423.4077 136.8449,424.4744 Q137.5297,425.541 138.8744,425.541 Q139.5053,425.541 140.0988,425.2712 Q140.6923,425.0015 141.3231,424.4204 Z "/><text fill="#000000" font-family="sans-serif" font-size="12" lengthAdjust="spacingAndGlyphs" textLength="54" x="153.15" y="425.5352">HAL_gpio</text><line style="stroke: #A80036; stroke-width: 1.5;" x1="123.5" x2="210.5" y1="437" y2="437"/><line style="stroke: #A80036; stroke-width: 1.5;" x1="123.5" x2="210.5" y1="445" y2="445"/><text fill="#000000" font-family="sans-serif" font-size="11" lengthAdjust="spacingAndGlyphs" textLength="35" x="128.5" y="459.6348">open()</text><text fill="#000000" font-family="sans-serif" font-size="11" lengthAdjust="spacingAndGlyphs" textLength="77" x="128.5" y="472.5898">open_output()</text><text fill="#000000" font-family="sans-serif" font-size="11" lengthAdjust="spacingAndGlyphs" textLength="36" x="128.5" y="485.5449">close()</text><!--MD5=[eb672f161971a32a28c99da6c0336b3d]
class LL_power--><rect fill="#FEFECE" filter="url(#fm2ohuc4pxy4c)" height="48" id="LL_power" style="stroke: #A80036; stroke-width: 1.5;" width="86" x="6" y="552"/><ellipse cx="21" cy="568" fill="#ADD1B2" rx="11" ry="11" style="stroke: #A80036; stroke-width: 1.0;"/><path d="M23.4731,574.1431 Q22.8921,574.4419 22.2529,574.5913 Q21.6138,574.7407 20.9082,574.7407 Q18.4014,574.7407 17.0815,573.0889 Q15.7617,571.437 15.7617,568.3159 Q15.7617,565.1865 17.0815,563.5347 Q18.4014,561.8828 20.9082,561.8828 Q21.6138,561.8828 22.2612,562.0322 Q22.9087,562.1816 23.4731,562.4805 L23.4731,565.2031 Q22.8423,564.6221 22.2488,564.3523 Q21.6553,564.0825 21.0244,564.0825 Q19.6797,564.0825 18.9949,565.1492 Q18.3101,566.2158 18.3101,568.3159 Q18.3101,570.4077 18.9949,571.4744 Q19.6797,572.541 21.0244,572.541 Q21.6553,572.541 22.2488,572.2712 Q22.8423,572.0015 23.4731,571.4204 Z "/><text fill="#000000" font-family="sans-serif" font-size="12" lengthAdjust="spacingAndGlyphs" textLength="54" x="35" y="572.5352">LL_power</text><line style="stroke: #A80036; stroke-width: 1.5;" x1="7" x2="91" y1="584" y2="584"/><line style="stroke: #A80036; stroke-width: 1.5;" x1="7" x2="91" y1="592" y2="592"/><!--MD5=[8b0caf15fab33df914d6885d5506f67f]
class LL_clock--><rect fill="#FEFECE" filter="url(#fm2ohuc4pxy4c)" height="48" id="LL_clock" style="stroke: #A80036; stroke-width: 1.5;" width="79" x="127.5" y="552"/><ellipse cx="142.5" cy="568" fill="#ADD1B2" rx="11" ry="11" style="stroke: #A80036; stroke-width: 1.0;"/><path d="M144.9731,574.1431 Q144.3921,574.4419 143.7529,574.5913 Q143.1138,574.7407 142.4082,574.7407 Q139.9014,574.7407 138.5815,573.0889 Q137.2617,571.437 137.2617,568.3159 Q137.2617,565.1865 138.5815,563.5347 Q139.9014,561.8828 142.4082,561.8828 Q143.1138,561.8828 143.7612,562.0322 Q144.4087,562.1816 144.9731,562.4805 L144.9731,565.2031 Q144.3423,564.6221 143.7488,564.3523 Q143.1553,564.0825 142.5244,564.0825 Q141.1797,564.0825 140.4949,565.1492 Q139.8101,566.2158 139.8101,568.3159 Q139.8101,570.4077 140.4949,571.4744 Q141.1797,572.541 142.5244,572.541 Q143.1553,572.541 143.7488,572.2712 Q144.3423,572.0015 144.9731,571.4204 Z "/><text fill="#000000" font-family="sans-serif" font-size="12" lengthAdjust="spacingAndGlyphs" textLength="47" x="156.5" y="572.5352">LL_clock</text><line style="stroke: #A80036; stroke-width: 1.5;" x1="128.5" x2="205.5" y1="584" y2="584"/><line style="stroke: #A80036; stroke-width: 1.5;" x1="128.5" x2="205.5" y1="592" y2="592"/><!--MD5=[831aefa9ebd008f9dae82517425faefb]
class IRQ--><rect fill="#FEFECE" filter="url(#fm2ohuc4pxy4c)" height="48" id="IRQ" style="stroke: #A80036; stroke-width: 1.5;" width="52" x="242" y="552"/><ellipse cx="257" cy="568" fill="#ADD1B2" rx="11" ry="11" style="stroke: #A80036; stroke-width: 1.0;"/><path d="M259.4731,574.1431 Q258.8921,574.4419 258.2529,574.5913 Q257.6138,574.7407 256.9082,574.7407 Q254.4014,574.7407 253.0815,573.0889 Q251.7617,571.437 251.7617,568.3159 Q251.7617,565.1865 253.0815,563.5347 Q254.4014,561.8828 256.9082,561.8828 Q257.6138,561.8828 258.2612,562.0322 Q258.9087,562.1816 259.4731,562.4805 L259.4731,565.2031 Q258.8423,564.6221 258.2488,564.3523 Q257.6553,564.0825 257.0244,564.0825 Q255.6797,564.0825 254.9949,565.1492 Q254.3101,566.2158 254.3101,568.3159 Q254.3101,570.4077 254.9949,571.4744 Q255.6797,572.541 257.0244,572.541 Q257.6553,572.541 258.2488,572.2712 Q258.8423,572.0015 259.4731,571.4204 Z "/><text fill="#000000" font-family="sans-serif" font-size="12" lengthAdjust="spacingAndGlyphs" textLength="20" x="271" y="572.5352">IRQ</text><line style="stroke: #A80036; stroke-width: 1.5;" x1="243" x2="293" y1="584" y2="584"/><line style="stroke: #A80036; stroke-width: 1.5;" x1="243" x2="293" y1="592" y2="592"/><!--MD5=[1118a3c2818198ac94f280e131565ec9]
reverse link gpio to LL_gpio--><path d="M167,257.42 C167,272.33 167,285.96 167,296.68 " fill="none" id="gpio&lt;-LL_gpio" style="stroke: #A80036; stroke-width: 1.0; stroke-dasharray: 7.0,7.0;"/><polygon fill="none" points="160,257.24,167,237.24,174,257.24,160,257.24" style="stroke: #A80036; stroke-width: 1.0;"/><!--MD5=[3b25f2b5e875a167e32e0af1976bbc8f]
reverse link LL_gpio to HAL_gpio--><path d="M167,350.29 C167,366.38 167,386.83 167,404.83 " fill="none" id="LL_gpio&lt;-HAL_gpio" style="stroke: #A80036; stroke-width: 1.0;"/><polygon fill="#A80036" points="167,345.02,163,354.02,167,350.02,171,354.02,167,345.02" style="stroke: #A80036; stroke-width: 1.0;"/><!--MD5=[42e7cc640e3fdae735b79ad0923dbb62]
link HAL_gpio to LL_power--><path d="M126.72,492.34 C109.49,510.67 89.88,531.53 74.67,547.7 " fill="none" id="HAL_gpio-&gt;LL_power" style="stroke: #A80036; stroke-width: 1.0; stroke-dasharray: 7.0,7.0;"/><polygon fill="#A80036" points="70.9,551.71,79.9811,547.8977,74.3268,548.069,74.1555,542.4147,70.9,551.71" style="stroke: #A80036; stroke-width: 1.0;"/><!--MD5=[d40fe8e36b6a01de93cc45d2846c43fd]
link HAL_gpio to LL_clock--><path d="M167,492.34 C167,510.2 167,530.47 167,546.46 " fill="none" id="HAL_gpio-&gt;LL_clock" style="stroke: #A80036; stroke-width: 1.0; stroke-dasharray: 7.0,7.0;"/><polygon fill="#A80036" points="167,551.71,171,542.71,167,546.71,163,542.71,167,551.71" style="stroke: #A80036; stroke-width: 1.0;"/><!--MD5=[af7a348ca674c9e95066c81465234aad]
link HAL_gpio to IRQ--><path d="M201.48,492.34 C216.23,510.67 233.01,531.53 246.03,547.7 " fill="none" id="HAL_gpio-&gt;IRQ" style="stroke: #A80036; stroke-width: 1.0; stroke-dasharray: 7.0,7.0;"/><polygon fill="#A80036" points="249.26,551.71,246.7485,542.1868,246.1313,547.8098,240.5082,547.1927,249.26,551.71" style="stroke: #A80036; stroke-width: 1.0;"/><!--MD5=[82ec52d3b7eafdac16c35eaba9e7b185]
@startuml
interface gpio {
	reset()
	enable_port()
	disable_port()
	set_mode()
	set_altfunc()
	set_speed()
	set_debouncer()
	enable_irq()
	disable_irq()
	clear_event()
	write_port()
	read_port()
	write()
	read()
}

class LL_gpio {
}

class HAL_gpio {
	open()
	open_output()
	close()
}

gpio <|.. LL_gpio
LL_gpio <- - HAL_gpio

HAL_gpio ..> LL_power
HAL_gpio ..> LL_clock
HAL_gpio ..> IRQ
@enduml

PlantUML version 1.2019.13(Wed Dec 11 02:18:29 KST 2019)
(GPL source distribution)
Java Runtime: Java(TM) SE Runtime Environment
JVM: Java HotSpot(TM) 64-Bit Server VM
Java Version: 15+36-1562
Operating System: Mac OS X
Default Encoding: UTF-8
Language: en
Country: KR
--></g></svg>