<?xml version="1.0" encoding="UTF-8" standalone="no"?><svg xmlns="http://www.w3.org/2000/svg" xmlns:xlink="http://www.w3.org/1999/xlink" contentScriptType="application/ecmascript" contentStyleType="text/css" height="542px" preserveAspectRatio="none" style="width:213px;height:542px;" version="1.1" viewBox="0 0 213 542" width="213px" zoomAndPan="magnify"><defs><filter height="300%" id="fztinb6dprkwf" width="300%" x="-1" y="-1"><feGaussianBlur result="blurOut" stdDeviation="2.0"/><feColorMatrix in="blurOut" result="blurOut2" type="matrix" values="0 0 0 0 0 0 0 0 0 0 0 0 0 0 0 0 0 0 .4 0"/><feOffset dx="4.0" dy="4.0" in="blurOut2" result="blurOut3"/><feBlend in="SourceGraphic" in2="blurOut3" mode="normal"/></filter></defs><g><!--MD5=[e5e90b6a3141b1b16fc7804698196da8]
class Power--><rect fill="#FEFECE" filter="url(#fztinb6dprkwf)" height="177.5508" id="Power" style="stroke: #A80036; stroke-width: 1.5;" width="135" x="6" y="354"/><ellipse cx="51.75" cy="370" fill="#B4A7E5" rx="11" ry="11" style="stroke: #A80036; stroke-width: 1.0;"/><path d="M48.1777,366.2651 L48.1777,364.1069 L55.5571,364.1069 L55.5571,366.2651 L53.0918,366.2651 L53.0918,374.3418 L55.5571,374.3418 L55.5571,376.5 L48.1777,376.5 L48.1777,374.3418 L50.6431,374.3418 L50.6431,366.2651 Z "/><text fill="#000000" font-family="sans-serif" font-size="12" font-style="italic" lengthAdjust="spacingAndGlyphs" textLength="35" x="72.25" y="374.5352">Power</text><line style="stroke: #A80036; stroke-width: 1.5;" x1="7" x2="140" y1="386" y2="386"/><line style="stroke: #A80036; stroke-width: 1.5;" x1="7" x2="140" y1="394" y2="394"/><text fill="#000000" font-family="sans-serif" font-size="11" lengthAdjust="spacingAndGlyphs" textLength="35" x="12" y="408.6348">reset()</text><text fill="#000000" font-family="sans-serif" font-size="11" lengthAdjust="spacingAndGlyphs" textLength="44" x="12" y="421.5898">reboot()</text><text fill="#000000" font-family="sans-serif" font-size="11" lengthAdjust="spacingAndGlyphs" textLength="110" x="12" y="434.5449">get_reboot_source()</text><text fill="#000000" font-family="sans-serif" font-size="11" lengthAdjust="spacingAndGlyphs" textLength="119" x="12" y="447.5">clear_reboot_source()</text><text fill="#000000" font-family="sans-serif" font-size="11" lengthAdjust="spacingAndGlyphs" textLength="104" x="12" y="460.4551">enable_peripheral()</text><text fill="#000000" font-family="sans-serif" font-size="11" lengthAdjust="spacingAndGlyphs" textLength="107" x="12" y="473.4102">disable_peripheral()</text><text fill="#000000" font-family="sans-serif" font-size="11" lengthAdjust="spacingAndGlyphs" textLength="60" x="12" y="486.3652">set_mode()</text><text fill="#000000" font-family="sans-serif" font-size="11" lengthAdjust="spacingAndGlyphs" textLength="113" x="12" y="499.3203">set_wakeup_source()</text><text fill="#000000" font-family="sans-serif" font-size="11" lengthAdjust="spacingAndGlyphs" textLength="123" x="12" y="512.2754">clear_wakeup_source()</text><text fill="#000000" font-family="sans-serif" font-size="11" lengthAdjust="spacingAndGlyphs" textLength="114" x="12" y="525.2305">get_wakeup_source()</text><!--MD5=[b3c4cffaebeb1ca91d3860615de3212f]
class LL--><rect fill="#FEFECE" filter="url(#fztinb6dprkwf)" height="177.5508" id="LL" style="stroke: #A80036; stroke-width: 1.5;" width="135" x="67" y="116"/><ellipse cx="124.25" cy="132" fill="#ADD1B2" rx="11" ry="11" style="stroke: #A80036; stroke-width: 1.0;"/><path d="M126.7231,138.1431 Q126.1421,138.4419 125.5029,138.5913 Q124.8638,138.7407 124.1582,138.7407 Q121.6514,138.7407 120.3315,137.0889 Q119.0117,135.437 119.0117,132.3159 Q119.0117,129.1865 120.3315,127.5347 Q121.6514,125.8828 124.1582,125.8828 Q124.8638,125.8828 125.5112,126.0322 Q126.1587,126.1816 126.7231,126.4805 L126.7231,129.2031 Q126.0923,128.6221 125.4988,128.3523 Q124.9053,128.0825 124.2744,128.0825 Q122.9297,128.0825 122.2449,129.1492 Q121.5601,130.2158 121.5601,132.3159 Q121.5601,134.4077 122.2449,135.4744 Q122.9297,136.541 124.2744,136.541 Q124.9053,136.541 125.4988,136.2712 Q126.0923,136.0015 126.7231,135.4204 Z "/><text fill="#000000" font-family="sans-serif" font-size="12" lengthAdjust="spacingAndGlyphs" textLength="12" x="144.75" y="136.5352">LL</text><line style="stroke: #A80036; stroke-width: 1.5;" x1="68" x2="201" y1="148" y2="148"/><line style="stroke: #A80036; stroke-width: 1.5;" x1="68" x2="201" y1="156" y2="156"/><text fill="#000000" font-family="sans-serif" font-size="11" lengthAdjust="spacingAndGlyphs" textLength="35" x="73" y="170.6348">reset()</text><text fill="#000000" font-family="sans-serif" font-size="11" lengthAdjust="spacingAndGlyphs" textLength="44" x="73" y="183.5898">reboot()</text><text fill="#000000" font-family="sans-serif" font-size="11" lengthAdjust="spacingAndGlyphs" textLength="110" x="73" y="196.5449">get_reboot_source()</text><text fill="#000000" font-family="sans-serif" font-size="11" lengthAdjust="spacingAndGlyphs" textLength="119" x="73" y="209.5">clear_reboot_source()</text><text fill="#000000" font-family="sans-serif" font-size="11" lengthAdjust="spacingAndGlyphs" textLength="104" x="73" y="222.4551">enable_peripheral()</text><text fill="#000000" font-family="sans-serif" font-size="11" lengthAdjust="spacingAndGlyphs" textLength="107" x="73" y="235.4102">disable_peripheral()</text><text fill="#000000" font-family="sans-serif" font-size="11" lengthAdjust="spacingAndGlyphs" textLength="60" x="73" y="248.3652">set_mode()</text><text fill="#000000" font-family="sans-serif" font-size="11" lengthAdjust="spacingAndGlyphs" textLength="113" x="73" y="261.3203">set_wakeup_source()</text><text fill="#000000" font-family="sans-serif" font-size="11" lengthAdjust="spacingAndGlyphs" textLength="123" x="73" y="274.2754">clear_wakeup_source()</text><text fill="#000000" font-family="sans-serif" font-size="11" lengthAdjust="spacingAndGlyphs" textLength="114" x="73" y="287.2305">get_wakeup_source()</text><!--MD5=[be3765a8ee426731c4981c30c0d20f09]
class HAL--><rect fill="#FEFECE" filter="url(#fztinb6dprkwf)" height="48" id="HAL" style="stroke: #A80036; stroke-width: 1.5;" width="55" x="46" y="8"/><ellipse cx="61" cy="24" fill="#ADD1B2" rx="11" ry="11" style="stroke: #A80036; stroke-width: 1.0;"/><path d="M63.4731,30.1431 Q62.8921,30.4419 62.2529,30.5913 Q61.6138,30.7407 60.9082,30.7407 Q58.4014,30.7407 57.0815,29.0889 Q55.7617,27.437 55.7617,24.3159 Q55.7617,21.1865 57.0815,19.5347 Q58.4014,17.8828 60.9082,17.8828 Q61.6138,17.8828 62.2612,18.0322 Q62.9087,18.1816 63.4731,18.4805 L63.4731,21.2031 Q62.8423,20.6221 62.2488,20.3523 Q61.6553,20.0825 61.0244,20.0825 Q59.6797,20.0825 58.9949,21.1492 Q58.3101,22.2158 58.3101,24.3159 Q58.3101,26.4077 58.9949,27.4744 Q59.6797,28.541 61.0244,28.541 Q61.6553,28.541 62.2488,28.2712 Q62.8423,28.0015 63.4731,27.4204 Z "/><text fill="#000000" font-family="sans-serif" font-size="12" lengthAdjust="spacingAndGlyphs" textLength="23" x="75" y="28.5352">HAL</text><line style="stroke: #A80036; stroke-width: 1.5;" x1="47" x2="100" y1="40" y2="40"/><line style="stroke: #A80036; stroke-width: 1.5;" x1="47" x2="100" y1="48" y2="48"/><!--MD5=[ee94cdee192c69ba29faaf356707a8ff]
link HAL to Power--><path d="M64.88,56.23 C59.25,72.66 52.42,95.36 49.5,116 C39.26,188.25 45.37,270.17 53.97,333.81 " fill="none" id="HAL-&gt;Power" style="stroke: #A80036; stroke-width: 1.0; stroke-dasharray: 7.0,7.0;"/><polygon fill="none" points="60.93,333,56.84,353.8,47.07,334.99,60.93,333" style="stroke: #A80036; stroke-width: 1.0;"/><!--MD5=[7c42b4011aa728296f409c876b3a9cd7]
link HAL to LL--><path d="M81.73,56.06 C86.91,70.58 93.97,90.37 101.24,110.76 " fill="none" id="HAL-&gt;LL" style="stroke: #A80036; stroke-width: 1.0;"/><polygon fill="#A80036" points="102.99,115.67,103.7526,105.8507,101.3192,110.9574,96.2125,108.524,102.99,115.67" style="stroke: #A80036; stroke-width: 1.0;"/><!--MD5=[6ab2e2a02d8b265a19dfbb89abb66595]
link LL to Power--><path d="M111.7,294.21 C107.09,312.04 102.23,330.85 97.58,348.84 " fill="none" id="LL-&gt;Power" style="stroke: #A80036; stroke-width: 1.0;"/><polygon fill="#A80036" points="96.27,353.89,102.403,346.1838,97.5263,349.0504,94.6597,344.1737,96.27,353.89" style="stroke: #A80036; stroke-width: 1.0;"/><!--MD5=[0e3e694770812ff73dc3498197f1f514]
@startuml
interface Power {
	reset()
	reboot()
	get_reboot_source()
	clear_reboot_source()
	enable_peripheral()
	disable_peripheral()
	set_mode()
	set_wakeup_source()
	clear_wakeup_source()
	get_wakeup_source()
}

class LL {
	reset()
	reboot()
	get_reboot_source()
	clear_reboot_source()
	enable_peripheral()
	disable_peripheral()
	set_mode()
	set_wakeup_source()
	clear_wakeup_source()
	get_wakeup_source()
}

class HAL {
}

HAL ..|> Power
HAL - -> LL
LL - -> Power
@enduml

PlantUML version 1.2019.13(Wed Dec 11 02:18:29 KST 2019)
(GPL source distribution)
Java Runtime: Java(TM) SE Runtime Environment
JVM: Java HotSpot(TM) 64-Bit Server VM
Java Version: 15+36-1562
Operating System: Mac OS X
Default Encoding: UTF-8
Language: en
Country: KR
--></g></svg>