<?xml version="1.0" encoding="UTF-8" standalone="no"?><svg xmlns="http://www.w3.org/2000/svg" xmlns:xlink="http://www.w3.org/1999/xlink" contentScriptType="application/ecmascript" contentStyleType="text/css" height="413px" preserveAspectRatio="none" style="width:152px;height:413px;" version="1.1" viewBox="0 0 152 413" width="152px" zoomAndPan="magnify"><defs><filter height="300%" id="fn2690efya35n" width="300%" x="-1" y="-1"><feGaussianBlur result="blurOut" stdDeviation="2.0"/><feColorMatrix in="blurOut" result="blurOut2" type="matrix" values="0 0 0 0 0 0 0 0 0 0 0 0 0 0 0 0 0 0 .4 0"/><feOffset dx="4.0" dy="4.0" in="blurOut2" result="blurOut3"/><feBlend in="SourceGraphic" in2="blurOut3" mode="normal"/></filter></defs><g><!--MD5=[b63e8ecb5b19a0ef44368be7ad2c5983]
class pwr--><rect fill="#FEFECE" filter="url(#fn2690efya35n)" height="177.5508" id="pwr" style="stroke: #A80036; stroke-width: 1.5;" width="135" x="6" y="8"/><ellipse cx="58.25" cy="24" fill="#B4A7E5" rx="11" ry="11" style="stroke: #A80036; stroke-width: 1.0;"/><path d="M54.6777,20.2651 L54.6777,18.1069 L62.0571,18.1069 L62.0571,20.2651 L59.5918,20.2651 L59.5918,28.3418 L62.0571,28.3418 L62.0571,30.5 L54.6777,30.5 L54.6777,28.3418 L57.1431,28.3418 L57.1431,20.2651 Z "/><text fill="#000000" font-family="sans-serif" font-size="12" font-style="italic" lengthAdjust="spacingAndGlyphs" textLength="22" x="78.75" y="28.5352">pwr</text><line style="stroke: #A80036; stroke-width: 1.5;" x1="7" x2="140" y1="40" y2="40"/><line style="stroke: #A80036; stroke-width: 1.5;" x1="7" x2="140" y1="48" y2="48"/><text fill="#000000" font-family="sans-serif" font-size="11" lengthAdjust="spacingAndGlyphs" textLength="35" x="12" y="62.6348">reset()</text><text fill="#000000" font-family="sans-serif" font-size="11" lengthAdjust="spacingAndGlyphs" textLength="44" x="12" y="75.5898">reboot()</text><text fill="#000000" font-family="sans-serif" font-size="11" lengthAdjust="spacingAndGlyphs" textLength="110" x="12" y="88.5449">get_reboot_source()</text><text fill="#000000" font-family="sans-serif" font-size="11" lengthAdjust="spacingAndGlyphs" textLength="119" x="12" y="101.5">clear_reboot_source()</text><text fill="#000000" font-family="sans-serif" font-size="11" lengthAdjust="spacingAndGlyphs" textLength="104" x="12" y="114.4551">enable_peripheral()</text><text fill="#000000" font-family="sans-serif" font-size="11" lengthAdjust="spacingAndGlyphs" textLength="107" x="12" y="127.4102">disable_peripheral()</text><text fill="#000000" font-family="sans-serif" font-size="11" lengthAdjust="spacingAndGlyphs" textLength="60" x="12" y="140.3652">set_mode()</text><text fill="#000000" font-family="sans-serif" font-size="11" lengthAdjust="spacingAndGlyphs" textLength="113" x="12" y="153.3203">set_wakeup_source()</text><text fill="#000000" font-family="sans-serif" font-size="11" lengthAdjust="spacingAndGlyphs" textLength="123" x="12" y="166.2754">clear_wakeup_source()</text><text fill="#000000" font-family="sans-serif" font-size="11" lengthAdjust="spacingAndGlyphs" textLength="114" x="12" y="179.2305">get_wakeup_source()</text><!--MD5=[70ada89af4af594754eedc85a2b81627]
class LL_pwr--><rect fill="#FEFECE" filter="url(#fn2690efya35n)" height="48" id="LL_pwr" style="stroke: #A80036; stroke-width: 1.5;" width="72" x="37.5" y="246"/><ellipse cx="52.5" cy="262" fill="#ADD1B2" rx="11" ry="11" style="stroke: #A80036; stroke-width: 1.0;"/><path d="M54.9731,268.1431 Q54.3921,268.4419 53.7529,268.5913 Q53.1138,268.7407 52.4082,268.7407 Q49.9014,268.7407 48.5815,267.0889 Q47.2617,265.437 47.2617,262.3159 Q47.2617,259.1865 48.5815,257.5347 Q49.9014,255.8828 52.4082,255.8828 Q53.1138,255.8828 53.7612,256.0322 Q54.4087,256.1816 54.9731,256.4805 L54.9731,259.2031 Q54.3423,258.6221 53.7488,258.3523 Q53.1553,258.0825 52.5244,258.0825 Q51.1797,258.0825 50.4949,259.1492 Q49.8101,260.2158 49.8101,262.3159 Q49.8101,264.4077 50.4949,265.4744 Q51.1797,266.541 52.5244,266.541 Q53.1553,266.541 53.7488,266.2712 Q54.3423,266.0015 54.9731,265.4204 Z "/><text fill="#000000" font-family="sans-serif" font-size="12" lengthAdjust="spacingAndGlyphs" textLength="40" x="66.5" y="266.5352">LL_pwr</text><line style="stroke: #A80036; stroke-width: 1.5;" x1="38.5" x2="108.5" y1="278" y2="278"/><line style="stroke: #A80036; stroke-width: 1.5;" x1="38.5" x2="108.5" y1="286" y2="286"/><!--MD5=[e8c1eb9a74943fe1c98f40784257a940]
class HAL_pwr--><rect fill="#FEFECE" filter="url(#fn2690efya35n)" height="48" id="HAL_pwr" style="stroke: #A80036; stroke-width: 1.5;" width="83" x="32" y="354"/><ellipse cx="47" cy="370" fill="#ADD1B2" rx="11" ry="11" style="stroke: #A80036; stroke-width: 1.0;"/><path d="M49.4731,376.1431 Q48.8921,376.4419 48.2529,376.5913 Q47.6138,376.7407 46.9082,376.7407 Q44.4014,376.7407 43.0815,375.0889 Q41.7617,373.437 41.7617,370.3159 Q41.7617,367.1865 43.0815,365.5347 Q44.4014,363.8828 46.9082,363.8828 Q47.6138,363.8828 48.2612,364.0322 Q48.9087,364.1816 49.4731,364.4805 L49.4731,367.2031 Q48.8423,366.6221 48.2488,366.3523 Q47.6553,366.0825 47.0244,366.0825 Q45.6797,366.0825 44.9949,367.1492 Q44.3101,368.2158 44.3101,370.3159 Q44.3101,372.4077 44.9949,373.4744 Q45.6797,374.541 47.0244,374.541 Q47.6553,374.541 48.2488,374.2712 Q48.8423,374.0015 49.4731,373.4204 Z "/><text fill="#000000" font-family="sans-serif" font-size="12" lengthAdjust="spacingAndGlyphs" textLength="51" x="61" y="374.5352">HAL_pwr</text><line style="stroke: #A80036; stroke-width: 1.5;" x1="33" x2="114" y1="386" y2="386"/><line style="stroke: #A80036; stroke-width: 1.5;" x1="33" x2="114" y1="394" y2="394"/><!--MD5=[47fae08f11f4b76305a486e61d4d3e62]
reverse link pwr to LL_pwr--><path d="M73.5,206.22 C73.5,221.01 73.5,234.83 73.5,245.71 " fill="none" id="pwr&lt;-LL_pwr" style="stroke: #A80036; stroke-width: 1.0; stroke-dasharray: 7.0,7.0;"/><polygon fill="none" points="66.5,206,73.5,186,80.5,206,66.5,206" style="stroke: #A80036; stroke-width: 1.0;"/><!--MD5=[e2318b075028558a4d97ac4fa752bf78]
reverse link LL_pwr to HAL_pwr--><path d="M73.5,299.13 C73.5,316.15 73.5,337.6 73.5,353.68 " fill="none" id="LL_pwr&lt;-HAL_pwr" style="stroke: #A80036; stroke-width: 1.0;"/><polygon fill="#A80036" points="73.5,294,69.5,303,73.5,299,77.5,303,73.5,294" style="stroke: #A80036; stroke-width: 1.0;"/><!--MD5=[0e5fad7ef275665d7f46260779bf45f1]
@startuml
interface pwr {
	reset()
	reboot()
	get_reboot_source()
	clear_reboot_source()
	enable_peripheral()
	disable_peripheral()
	set_mode()
	set_wakeup_source()
	clear_wakeup_source()
	get_wakeup_source()
}

class LL_pwr {
}

class HAL_pwr {
}

pwr <|.. LL_pwr
LL_pwr <- - HAL_pwr
@enduml

PlantUML version 1.2019.13(Wed Dec 11 02:18:29 KST 2019)
(GPL source distribution)
Java Runtime: Java(TM) SE Runtime Environment
JVM: Java HotSpot(TM) 64-Bit Server VM
Java Version: 15+36-1562
Operating System: Mac OS X
Default Encoding: UTF-8
Language: en
Country: KR
--></g></svg>