<?xml version="1.0" encoding="UTF-8" standalone="no"?><svg xmlns="http://www.w3.org/2000/svg" xmlns:xlink="http://www.w3.org/1999/xlink" contentScriptType="application/ecmascript" contentStyleType="text/css" height="693px" preserveAspectRatio="none" style="width:489px;height:693px;" version="1.1" viewBox="0 0 489 693" width="489px" zoomAndPan="magnify"><defs><filter height="300%" id="f1pxrel1efesv2" width="300%" x="-1" y="-1"><feGaussianBlur result="blurOut" stdDeviation="2.0"/><feColorMatrix in="blurOut" result="blurOut2" type="matrix" values="0 0 0 0 0 0 0 0 0 0 0 0 0 0 0 0 0 0 .4 0"/><feOffset dx="4.0" dy="4.0" in="blurOut2" result="blurOut3"/><feBlend in="SourceGraphic" in2="blurOut3" mode="normal"/></filter></defs><g><!--MD5=[eebdaaf64b4c4fafde6abc594a2de937]
class SPI--><rect fill="#FEFECE" filter="url(#f1pxrel1efesv2)" height="449.6074" id="SPI" style="stroke: #A80036; stroke-width: 1.5;" width="149" x="6" y="233"/><ellipse cx="68.25" cy="249" fill="#B4A7E5" rx="11" ry="11" style="stroke: #A80036; stroke-width: 1.0;"/><path d="M64.6777,245.2651 L64.6777,243.1069 L72.0571,243.1069 L72.0571,245.2651 L69.5918,245.2651 L69.5918,253.3418 L72.0571,253.3418 L72.0571,255.5 L64.6777,255.5 L64.6777,253.3418 L67.1431,253.3418 L67.1431,245.2651 Z "/><text fill="#000000" font-family="sans-serif" font-size="12" font-style="italic" lengthAdjust="spacingAndGlyphs" textLength="16" x="88.75" y="253.5352">SPI</text><line style="stroke: #A80036; stroke-width: 1.5;" x1="7" x2="154" y1="265" y2="265"/><line style="stroke: #A80036; stroke-width: 1.5;" x1="7" x2="154" y1="273" y2="273"/><text fill="#000000" font-family="sans-serif" font-size="11" lengthAdjust="spacingAndGlyphs" textLength="35" x="12" y="287.6348">reset()</text><text fill="#000000" font-family="sans-serif" font-size="11" lengthAdjust="spacingAndGlyphs" textLength="50" x="12" y="300.5898">get_rxd()</text><text fill="#000000" font-family="sans-serif" font-size="11" lengthAdjust="spacingAndGlyphs" textLength="48" x="12" y="313.5449">set_txd()</text><text fill="#000000" font-family="sans-serif" font-size="11" lengthAdjust="spacingAndGlyphs" textLength="49" x="12" y="326.5">is_busy()</text><text fill="#000000" font-family="sans-serif" font-size="11" lengthAdjust="spacingAndGlyphs" textLength="96" x="12" y="339.4551">is_tx_completed()</text><text fill="#000000" font-family="sans-serif" font-size="11" lengthAdjust="spacingAndGlyphs" textLength="45" x="12" y="352.4102">has_rx()</text><text fill="#000000" font-family="sans-serif" font-size="11" lengthAdjust="spacingAndGlyphs" textLength="91" x="12" y="365.3652">clear_rx_buffer()</text><text fill="#000000" font-family="sans-serif" font-size="11" lengthAdjust="spacingAndGlyphs" textLength="90" x="12" y="378.3203">clear_tx_buffer()</text><text fill="#000000" font-family="sans-serif" font-size="11" lengthAdjust="spacingAndGlyphs" textLength="64" x="12" y="391.2754">enable_irq()</text><text fill="#000000" font-family="sans-serif" font-size="11" lengthAdjust="spacingAndGlyphs" textLength="67" x="12" y="404.2305">disable_irq()</text><text fill="#000000" font-family="sans-serif" font-size="11" lengthAdjust="spacingAndGlyphs" textLength="109" x="12" y="417.1855">enable_chip_select()</text><text fill="#000000" font-family="sans-serif" font-size="11" lengthAdjust="spacingAndGlyphs" textLength="112" x="12" y="430.1406">disable_chip_select()</text><text fill="#000000" font-family="sans-serif" font-size="11" lengthAdjust="spacingAndGlyphs" textLength="126" x="12" y="443.0957">set_chip_select_mode()</text><text fill="#000000" font-family="sans-serif" font-size="11" lengthAdjust="spacingAndGlyphs" textLength="120" x="12" y="456.0508">set_chip_select_level()</text><text fill="#000000" font-family="sans-serif" font-size="11" lengthAdjust="spacingAndGlyphs" textLength="137" x="12" y="469.0059">set_chip_select_polarity()</text><text fill="#000000" font-family="sans-serif" font-size="11" lengthAdjust="spacingAndGlyphs" textLength="79" x="12" y="481.9609">set_loopback()</text><text fill="#000000" font-family="sans-serif" font-size="11" lengthAdjust="spacingAndGlyphs" textLength="60" x="12" y="494.916">set_mode()</text><text fill="#000000" font-family="sans-serif" font-size="11" lengthAdjust="spacingAndGlyphs" textLength="77" x="12" y="507.8711">enable_clock()</text><text fill="#000000" font-family="sans-serif" font-size="11" lengthAdjust="spacingAndGlyphs" textLength="80" x="12" y="520.8262">disable_clock()</text><text fill="#000000" font-family="sans-serif" font-size="11" lengthAdjust="spacingAndGlyphs" textLength="60" x="12" y="533.7813">get_event()</text><text fill="#000000" font-family="sans-serif" font-size="11" lengthAdjust="spacingAndGlyphs" textLength="69" x="12" y="546.7363">clear_event()</text><text fill="#000000" font-family="sans-serif" font-size="11" lengthAdjust="spacingAndGlyphs" textLength="96" x="12" y="559.6914">set_clock_phase()</text><text fill="#000000" font-family="sans-serif" font-size="11" lengthAdjust="spacingAndGlyphs" textLength="105" x="12" y="572.6465">set_clock_polarity()</text><text fill="#000000" font-family="sans-serif" font-size="11" lengthAdjust="spacingAndGlyphs" textLength="88" x="12" y="585.6016">set_data_width()</text><text fill="#000000" font-family="sans-serif" font-size="11" lengthAdjust="spacingAndGlyphs" textLength="74" x="12" y="598.5566">set_bitorder()</text><text fill="#000000" font-family="sans-serif" font-size="11" lengthAdjust="spacingAndGlyphs" textLength="84" x="12" y="611.5117">set_frequency()</text><text fill="#000000" font-family="sans-serif" font-size="11" lengthAdjust="spacingAndGlyphs" textLength="89" x="12" y="624.4668">set_start_delay()</text><text fill="#000000" font-family="sans-serif" font-size="11" lengthAdjust="spacingAndGlyphs" textLength="88" x="12" y="637.4219">set_stop_delay()</text><text fill="#000000" font-family="sans-serif" font-size="11" lengthAdjust="spacingAndGlyphs" textLength="93" x="12" y="650.377">set_burst_delay()</text><text fill="#000000" font-family="sans-serif" font-size="11" lengthAdjust="spacingAndGlyphs" textLength="66" x="12" y="663.332">enable_crc()</text><text fill="#000000" font-family="sans-serif" font-size="11" lengthAdjust="spacingAndGlyphs" textLength="69" x="12" y="676.2871">disable_crc()</text><!--MD5=[be3765a8ee426731c4981c30c0d20f09]
class HAL--><rect fill="#FEFECE" filter="url(#f1pxrel1efesv2)" height="164.5957" id="HAL" style="stroke: #A80036; stroke-width: 1.5;" width="76" x="254.5" y="8"/><ellipse cx="278.95" cy="24" fill="#ADD1B2" rx="11" ry="11" style="stroke: #A80036; stroke-width: 1.0;"/><path d="M281.4231,30.1431 Q280.8421,30.4419 280.2029,30.5913 Q279.5638,30.7407 278.8582,30.7407 Q276.3514,30.7407 275.0315,29.0889 Q273.7117,27.437 273.7117,24.3159 Q273.7117,21.1865 275.0315,19.5347 Q276.3514,17.8828 278.8582,17.8828 Q279.5638,17.8828 280.2112,18.0322 Q280.8587,18.1816 281.4231,18.4805 L281.4231,21.2031 Q280.7923,20.6221 280.1988,20.3523 Q279.6053,20.0825 278.9744,20.0825 Q277.6297,20.0825 276.9449,21.1492 Q276.2601,22.2158 276.2601,24.3159 Q276.2601,26.4077 276.9449,27.4744 Q277.6297,28.541 278.9744,28.541 Q279.6053,28.541 280.1988,28.2712 Q280.7923,28.0015 281.4231,27.4204 Z "/><text fill="#000000" font-family="sans-serif" font-size="12" lengthAdjust="spacingAndGlyphs" textLength="23" x="295.05" y="28.5352">HAL</text><line style="stroke: #A80036; stroke-width: 1.5;" x1="255.5" x2="329.5" y1="40" y2="40"/><line style="stroke: #A80036; stroke-width: 1.5;" x1="255.5" x2="329.5" y1="48" y2="48"/><text fill="#000000" font-family="sans-serif" font-size="11" lengthAdjust="spacingAndGlyphs" textLength="43" x="260.5" y="62.6348">enable()</text><text fill="#000000" font-family="sans-serif" font-size="11" lengthAdjust="spacingAndGlyphs" textLength="46" x="260.5" y="75.5898">disable()</text><text fill="#000000" font-family="sans-serif" font-size="11" lengthAdjust="spacingAndGlyphs" textLength="33" x="260.5" y="88.5449">start()</text><text fill="#000000" font-family="sans-serif" font-size="11" lengthAdjust="spacingAndGlyphs" textLength="32" x="260.5" y="101.5">stop()</text><text fill="#000000" font-family="sans-serif" font-size="11" lengthAdjust="spacingAndGlyphs" textLength="25" x="260.5" y="114.4551">init()</text><text fill="#000000" font-family="sans-serif" font-size="11" lengthAdjust="spacingAndGlyphs" textLength="38" x="260.5" y="127.4102">deinit()</text><text fill="#000000" font-family="sans-serif" font-size="11" lengthAdjust="spacingAndGlyphs" textLength="34" x="260.5" y="140.3652">write()</text><text fill="#000000" font-family="sans-serif" font-size="11" lengthAdjust="spacingAndGlyphs" textLength="32" x="260.5" y="153.3203">read()</text><text fill="#000000" font-family="sans-serif" font-size="11" lengthAdjust="spacingAndGlyphs" textLength="64" x="260.5" y="166.2754">write_read()</text><!--MD5=[b3c4cffaebeb1ca91d3860615de3212f]
class LL--><rect fill="#FEFECE" filter="url(#f1pxrel1efesv2)" height="48" id="LL" style="stroke: #A80036; stroke-width: 1.5;" width="44" x="58.5" y="66.5"/><ellipse cx="73.5" cy="82.5" fill="#ADD1B2" rx="11" ry="11" style="stroke: #A80036; stroke-width: 1.0;"/><path d="M75.9731,88.6431 Q75.3921,88.9419 74.7529,89.0913 Q74.1138,89.2407 73.4082,89.2407 Q70.9014,89.2407 69.5815,87.5889 Q68.2617,85.937 68.2617,82.8159 Q68.2617,79.6865 69.5815,78.0347 Q70.9014,76.3828 73.4082,76.3828 Q74.1138,76.3828 74.7612,76.5322 Q75.4087,76.6816 75.9731,76.9805 L75.9731,79.7031 Q75.3423,79.1221 74.7488,78.8523 Q74.1553,78.5825 73.5244,78.5825 Q72.1797,78.5825 71.4949,79.6492 Q70.8101,80.7158 70.8101,82.8159 Q70.8101,84.9077 71.4949,85.9744 Q72.1797,87.041 73.5244,87.041 Q74.1553,87.041 74.7488,86.7712 Q75.3423,86.5015 75.9731,85.9204 Z "/><text fill="#000000" font-family="sans-serif" font-size="12" lengthAdjust="spacingAndGlyphs" textLength="12" x="87.5" y="87.0352">LL</text><line style="stroke: #A80036; stroke-width: 1.5;" x1="59.5" x2="101.5" y1="98.5" y2="98.5"/><line style="stroke: #A80036; stroke-width: 1.5;" x1="59.5" x2="101.5" y1="106.5" y2="106.5"/><!--MD5=[eb672f161971a32a28c99da6c0336b3d]
class LL_power--><rect fill="#FEFECE" filter="url(#f1pxrel1efesv2)" height="48" id="LL_power" style="stroke: #A80036; stroke-width: 1.5;" width="86" x="190.5" y="434"/><ellipse cx="205.5" cy="450" fill="#ADD1B2" rx="11" ry="11" style="stroke: #A80036; stroke-width: 1.0;"/><path d="M207.9731,456.1431 Q207.3921,456.4419 206.7529,456.5913 Q206.1138,456.7407 205.4082,456.7407 Q202.9014,456.7407 201.5815,455.0889 Q200.2617,453.437 200.2617,450.3159 Q200.2617,447.1865 201.5815,445.5347 Q202.9014,443.8828 205.4082,443.8828 Q206.1138,443.8828 206.7612,444.0322 Q207.4087,444.1816 207.9731,444.4805 L207.9731,447.2031 Q207.3423,446.6221 206.7488,446.3523 Q206.1553,446.0825 205.5244,446.0825 Q204.1797,446.0825 203.4949,447.1492 Q202.8101,448.2158 202.8101,450.3159 Q202.8101,452.4077 203.4949,453.4744 Q204.1797,454.541 205.5244,454.541 Q206.1553,454.541 206.7488,454.2712 Q207.3423,454.0015 207.9731,453.4204 Z "/><text fill="#000000" font-family="sans-serif" font-size="12" lengthAdjust="spacingAndGlyphs" textLength="54" x="219.5" y="454.5352">LL_power</text><line style="stroke: #A80036; stroke-width: 1.5;" x1="191.5" x2="275.5" y1="466" y2="466"/><line style="stroke: #A80036; stroke-width: 1.5;" x1="191.5" x2="275.5" y1="474" y2="474"/><!--MD5=[8b0caf15fab33df914d6885d5506f67f]
class LL_clock--><rect fill="#FEFECE" filter="url(#f1pxrel1efesv2)" height="48" id="LL_clock" style="stroke: #A80036; stroke-width: 1.5;" width="79" x="312" y="434"/><ellipse cx="327" cy="450" fill="#ADD1B2" rx="11" ry="11" style="stroke: #A80036; stroke-width: 1.0;"/><path d="M329.4731,456.1431 Q328.8921,456.4419 328.2529,456.5913 Q327.6138,456.7407 326.9082,456.7407 Q324.4014,456.7407 323.0815,455.0889 Q321.7617,453.437 321.7617,450.3159 Q321.7617,447.1865 323.0815,445.5347 Q324.4014,443.8828 326.9082,443.8828 Q327.6138,443.8828 328.2612,444.0322 Q328.9087,444.1816 329.4731,444.4805 L329.4731,447.2031 Q328.8423,446.6221 328.2488,446.3523 Q327.6553,446.0825 327.0244,446.0825 Q325.6797,446.0825 324.9949,447.1492 Q324.3101,448.2158 324.3101,450.3159 Q324.3101,452.4077 324.9949,453.4744 Q325.6797,454.541 327.0244,454.541 Q327.6553,454.541 328.2488,454.2712 Q328.8423,454.0015 329.4731,453.4204 Z "/><text fill="#000000" font-family="sans-serif" font-size="12" lengthAdjust="spacingAndGlyphs" textLength="47" x="341" y="454.5352">LL_clock</text><line style="stroke: #A80036; stroke-width: 1.5;" x1="313" x2="390" y1="466" y2="466"/><line style="stroke: #A80036; stroke-width: 1.5;" x1="313" x2="390" y1="474" y2="474"/><!--MD5=[831aefa9ebd008f9dae82517425faefb]
class IRQ--><rect fill="#FEFECE" filter="url(#f1pxrel1efesv2)" height="48" id="IRQ" style="stroke: #A80036; stroke-width: 1.5;" width="52" x="426.5" y="434"/><ellipse cx="441.5" cy="450" fill="#ADD1B2" rx="11" ry="11" style="stroke: #A80036; stroke-width: 1.0;"/><path d="M443.9731,456.1431 Q443.3921,456.4419 442.7529,456.5913 Q442.1138,456.7407 441.4082,456.7407 Q438.9014,456.7407 437.5815,455.0889 Q436.2617,453.437 436.2617,450.3159 Q436.2617,447.1865 437.5815,445.5347 Q438.9014,443.8828 441.4082,443.8828 Q442.1138,443.8828 442.7612,444.0322 Q443.4087,444.1816 443.9731,444.4805 L443.9731,447.2031 Q443.3423,446.6221 442.7488,446.3523 Q442.1553,446.0825 441.5244,446.0825 Q440.1797,446.0825 439.4949,447.1492 Q438.8101,448.2158 438.8101,450.3159 Q438.8101,452.4077 439.4949,453.4744 Q440.1797,454.541 441.5244,454.541 Q442.1553,454.541 442.7488,454.2712 Q443.3423,454.0015 443.9731,453.4204 Z "/><text fill="#000000" font-family="sans-serif" font-size="12" lengthAdjust="spacingAndGlyphs" textLength="20" x="455.5" y="454.5352">IRQ</text><line style="stroke: #A80036; stroke-width: 1.5;" x1="427.5" x2="477.5" y1="466" y2="466"/><line style="stroke: #A80036; stroke-width: 1.5;" x1="427.5" x2="477.5" y1="474" y2="474"/><!--MD5=[13bdc8eed54f11524445788d88c7500a]
link LL to SPI--><path d="M80.5,114.64 C80.5,136.69 80.5,172.42 80.5,212.66 " fill="none" id="LL-&gt;SPI" style="stroke: #A80036; stroke-width: 1.0; stroke-dasharray: 7.0,7.0;"/><polygon fill="none" points="87.5,212.74,80.5,232.74,73.5,212.74,87.5,212.74" style="stroke: #A80036; stroke-width: 1.0;"/><!--MD5=[ef6fe0030ed491b80e0e5e83099699b4]
link HAL to SPI--><path d="M254.24,129.77 C228.67,156.87 195.6,195.02 172.5,233 C167.29,241.57 162.25,250.48 157.4,259.6 " fill="none" id="HAL-&gt;SPI" style="stroke: #A80036; stroke-width: 1.0;"/><polygon fill="#A80036" points="155.03,264.1,162.759,257.9956,157.357,259.6745,155.6781,254.2725,155.03,264.1" style="stroke: #A80036; stroke-width: 1.0;"/><!--MD5=[f481892d08b88046121823827ef5b6c7]
link HAL to LL_power--><path d="M279.33,173.07 C266.21,254.39 246.78,374.75 238.04,428.86 " fill="none" id="HAL-&gt;LL_power" style="stroke: #A80036; stroke-width: 1.0;"/><polygon fill="#A80036" points="237.23,433.88,242.5933,425.6196,238.0149,428.942,234.6925,424.3636,237.23,433.88" style="stroke: #A80036; stroke-width: 1.0;"/><!--MD5=[03027760a4a69a9b5b7ae20cb535c4e1]
link HAL to LL_clock--><path d="M305.67,173.07 C318.79,254.39 338.22,374.75 346.96,428.86 " fill="none" id="HAL-&gt;LL_clock" style="stroke: #A80036; stroke-width: 1.0;"/><polygon fill="#A80036" points="347.77,433.88,350.3075,424.3636,346.9851,428.942,342.4067,425.6196,347.77,433.88" style="stroke: #A80036; stroke-width: 1.0;"/><!--MD5=[aa119ece880843938e062c5ac955c7c5]
link HAL to IRQ--><path d="M330.69,127.55 C356.63,154.22 389.54,192.77 408.5,233 C439.42,298.63 448.62,384.94 451.35,428.79 " fill="none" id="HAL-&gt;IRQ" style="stroke: #A80036; stroke-width: 1.0;"/><polygon fill="#A80036" points="451.65,433.93,455.1038,424.7066,451.3505,428.939,447.1182,425.1857,451.65,433.93" style="stroke: #A80036; stroke-width: 1.0;"/><!--MD5=[cb3dfa1209af1cbb6ff5d8098e489304]
@startuml
interface SPI {
	reset()
	get_rxd()
	set_txd()
	is_busy()
	is_tx_completed()
	has_rx()
	clear_rx_buffer()
	clear_tx_buffer()
	enable_irq()
	disable_irq()
	enable_chip_select()
	disable_chip_select()
	set_chip_select_mode()
	set_chip_select_level()
	set_chip_select_polarity()
	set_loopback()
	set_mode()
	enable_clock()
	disable_clock()
	get_event()
	clear_event()
	set_clock_phase()
	set_clock_polarity()
	set_data_width()
	set_bitorder()
	set_frequency()
	set_start_delay()
	set_stop_delay()
	set_burst_delay()
	enable_crc()
	disable_crc()
}

class HAL {
	enable()
	disable()
	start()
	stop()
	init()
	deinit()
	write()
	read()
	write_read()
}

LL ..|> SPI
HAL - -> SPI
HAL - -> LL_power
HAL - -> LL_clock
HAL - -> IRQ
@enduml

PlantUML version 1.2019.13(Wed Dec 11 02:18:29 KST 2019)
(GPL source distribution)
Java Runtime: Java(TM) SE Runtime Environment
JVM: Java HotSpot(TM) 64-Bit Server VM
Java Version: 15+36-1562
Operating System: Mac OS X
Default Encoding: UTF-8
Language: en
Country: KR
--></g></svg>