<?xml version="1.0" encoding="UTF-8" standalone="no"?><svg xmlns="http://www.w3.org/2000/svg" xmlns:xlink="http://www.w3.org/1999/xlink" contentScriptType="application/ecmascript" contentStyleType="text/css" height="866px" preserveAspectRatio="none" style="width:560px;height:866px;" version="1.1" viewBox="0 0 560 866" width="560px" zoomAndPan="magnify"><defs><filter height="300%" id="f1eeg0yenzatso" width="300%" x="-1" y="-1"><feGaussianBlur result="blurOut" stdDeviation="2.0"/><feColorMatrix in="blurOut" result="blurOut2" type="matrix" values="0 0 0 0 0 0 0 0 0 0 0 0 0 0 0 0 0 0 .4 0"/><feOffset dx="4.0" dy="4.0" in="blurOut2" result="blurOut3"/><feBlend in="SourceGraphic" in2="blurOut3" mode="normal"/></filter></defs><g><!--MD5=[eebdaaf64b4c4fafde6abc594a2de937]
class SPI--><rect fill="#FEFECE" filter="url(#f1eeg0yenzatso)" height="138.6855" id="SPI" style="stroke: #A80036; stroke-width: 1.5;" width="81" x="46.64" y="717"/><ellipse cx="76.49" cy="733" fill="#B4A7E5" rx="11" ry="11" style="stroke: #A80036; stroke-width: 1.0;"/><path d="M72.9177,729.2651 L72.9177,727.1069 L80.2971,727.1069 L80.2971,729.2651 L77.8318,729.2651 L77.8318,737.3418 L80.2971,737.3418 L80.2971,739.5 L72.9177,739.5 L72.9177,737.3418 L75.3831,737.3418 L75.3831,729.2651 Z "/><text fill="#000000" font-family="sans-serif" font-size="12" font-style="italic" lengthAdjust="spacingAndGlyphs" textLength="16" x="93.79" y="737.5352">SPI</text><line style="stroke: #A80036; stroke-width: 1.5;" x1="47.64" x2="126.64" y1="749" y2="749"/><text fill="#000000" font-family="sans-serif" font-size="11" lengthAdjust="spacingAndGlyphs" textLength="62" x="52.64" y="763.6348">spi_mode_t</text><text fill="#000000" font-family="sans-serif" font-size="11" lengthAdjust="spacingAndGlyphs" textLength="47" x="52.64" y="776.5898">spi_irq_t</text><text fill="#000000" font-family="sans-serif" font-size="11" lengthAdjust="spacingAndGlyphs" textLength="61" x="52.64" y="789.5449">spi_event_t</text><line style="stroke: #A80036; stroke-width: 1.5;" x1="47.64" x2="126.64" y1="795.8652" y2="795.8652"/><text fill="#000000" font-family="sans-serif" font-size="11" lengthAdjust="spacingAndGlyphs" textLength="33" x="52.64" y="810.5">start()</text><text fill="#000000" font-family="sans-serif" font-size="11" lengthAdjust="spacingAndGlyphs" textLength="32" x="52.64" y="823.4551">stop()</text><text fill="#000000" font-family="sans-serif" font-size="11" lengthAdjust="spacingAndGlyphs" textLength="60" x="52.64" y="836.4102">get_event()</text><text fill="#000000" font-family="sans-serif" font-size="11" lengthAdjust="spacingAndGlyphs" textLength="69" x="52.64" y="849.3652">clear_event()</text><!--MD5=[b3c4cffaebeb1ca91d3860615de3212f]
class LL--><rect fill="#FEFECE" filter="url(#f1eeg0yenzatso)" height="449.6074" id="LL" style="stroke: #A80036; stroke-width: 1.5;" width="149" x="76.64" y="207"/><ellipse cx="140.89" cy="223" fill="#ADD1B2" rx="11" ry="11" style="stroke: #A80036; stroke-width: 1.0;"/><path d="M143.3631,229.1431 Q142.7821,229.4419 142.1429,229.5913 Q141.5038,229.7407 140.7982,229.7407 Q138.2914,229.7407 136.9715,228.0889 Q135.6517,226.437 135.6517,223.3159 Q135.6517,220.1865 136.9715,218.5347 Q138.2914,216.8828 140.7982,216.8828 Q141.5038,216.8828 142.1512,217.0322 Q142.7987,217.1816 143.3631,217.4805 L143.3631,220.2031 Q142.7323,219.6221 142.1388,219.3523 Q141.5453,219.0825 140.9144,219.0825 Q139.5697,219.0825 138.8849,220.1492 Q138.2001,221.2158 138.2001,223.3159 Q138.2001,225.4077 138.8849,226.4744 Q139.5697,227.541 140.9144,227.541 Q141.5453,227.541 142.1388,227.2712 Q142.7323,227.0015 143.3631,226.4204 Z "/><text fill="#000000" font-family="sans-serif" font-size="12" lengthAdjust="spacingAndGlyphs" textLength="12" x="161.39" y="227.5352">LL</text><line style="stroke: #A80036; stroke-width: 1.5;" x1="77.64" x2="224.64" y1="239" y2="239"/><line style="stroke: #A80036; stroke-width: 1.5;" x1="77.64" x2="224.64" y1="247" y2="247"/><text fill="#000000" font-family="sans-serif" font-size="11" lengthAdjust="spacingAndGlyphs" textLength="35" x="82.64" y="261.6348">reset()</text><text fill="#000000" font-family="sans-serif" font-size="11" lengthAdjust="spacingAndGlyphs" textLength="50" x="82.64" y="274.5898">get_rxd()</text><text fill="#000000" font-family="sans-serif" font-size="11" lengthAdjust="spacingAndGlyphs" textLength="48" x="82.64" y="287.5449">set_txd()</text><text fill="#000000" font-family="sans-serif" font-size="11" lengthAdjust="spacingAndGlyphs" textLength="34" x="82.64" y="300.5">write()</text><text fill="#000000" font-family="sans-serif" font-size="11" lengthAdjust="spacingAndGlyphs" textLength="32" x="82.64" y="313.4551">read()</text><text fill="#000000" font-family="sans-serif" font-size="11" lengthAdjust="spacingAndGlyphs" textLength="49" x="82.64" y="326.4102">is_busy()</text><text fill="#000000" font-family="sans-serif" font-size="11" lengthAdjust="spacingAndGlyphs" textLength="91" x="82.64" y="339.3652">clear_rx_buffer()</text><text fill="#000000" font-family="sans-serif" font-size="11" lengthAdjust="spacingAndGlyphs" textLength="90" x="82.64" y="352.3203">clear_tx_buffer()</text><text fill="#000000" font-family="sans-serif" font-size="11" lengthAdjust="spacingAndGlyphs" textLength="64" x="82.64" y="365.2754">enable_irq()</text><text fill="#000000" font-family="sans-serif" font-size="11" lengthAdjust="spacingAndGlyphs" textLength="67" x="82.64" y="378.2305">disable_irq()</text><text fill="#000000" font-family="sans-serif" font-size="11" lengthAdjust="spacingAndGlyphs" textLength="109" x="82.64" y="391.1855">enable_chip_select()</text><text fill="#000000" font-family="sans-serif" font-size="11" lengthAdjust="spacingAndGlyphs" textLength="112" x="82.64" y="404.1406">disable_chip_select()</text><text fill="#000000" font-family="sans-serif" font-size="11" lengthAdjust="spacingAndGlyphs" textLength="126" x="82.64" y="417.0957">set_chip_select_mode()</text><text fill="#000000" font-family="sans-serif" font-size="11" lengthAdjust="spacingAndGlyphs" textLength="120" x="82.64" y="430.0508">set_chip_select_level()</text><text fill="#000000" font-family="sans-serif" font-size="11" lengthAdjust="spacingAndGlyphs" textLength="137" x="82.64" y="443.0059">set_chip_select_polarity()</text><text fill="#000000" font-family="sans-serif" font-size="11" lengthAdjust="spacingAndGlyphs" textLength="79" x="82.64" y="455.9609">set_loopback()</text><text fill="#000000" font-family="sans-serif" font-size="11" lengthAdjust="spacingAndGlyphs" textLength="60" x="82.64" y="468.916">set_mode()</text><text fill="#000000" font-family="sans-serif" font-size="11" lengthAdjust="spacingAndGlyphs" textLength="33" x="82.64" y="481.8711">start()</text><text fill="#000000" font-family="sans-serif" font-size="11" lengthAdjust="spacingAndGlyphs" textLength="32" x="82.64" y="494.8262">stop()</text><text fill="#000000" font-family="sans-serif" font-size="11" lengthAdjust="spacingAndGlyphs" textLength="60" x="82.64" y="507.7813">get_event()</text><text fill="#000000" font-family="sans-serif" font-size="11" lengthAdjust="spacingAndGlyphs" textLength="69" x="82.64" y="520.7363">clear_event()</text><text fill="#000000" font-family="sans-serif" font-size="11" lengthAdjust="spacingAndGlyphs" textLength="96" x="82.64" y="533.6914">set_clock_phase()</text><text fill="#000000" font-family="sans-serif" font-size="11" lengthAdjust="spacingAndGlyphs" textLength="105" x="82.64" y="546.6465">set_clock_polarity()</text><text fill="#000000" font-family="sans-serif" font-size="11" lengthAdjust="spacingAndGlyphs" textLength="88" x="82.64" y="559.6016">set_data_width()</text><text fill="#000000" font-family="sans-serif" font-size="11" lengthAdjust="spacingAndGlyphs" textLength="74" x="82.64" y="572.5566">set_bitorder()</text><text fill="#000000" font-family="sans-serif" font-size="11" lengthAdjust="spacingAndGlyphs" textLength="84" x="82.64" y="585.5117">set_frequency()</text><text fill="#000000" font-family="sans-serif" font-size="11" lengthAdjust="spacingAndGlyphs" textLength="89" x="82.64" y="598.4668">set_start_delay()</text><text fill="#000000" font-family="sans-serif" font-size="11" lengthAdjust="spacingAndGlyphs" textLength="88" x="82.64" y="611.4219">set_stop_delay()</text><text fill="#000000" font-family="sans-serif" font-size="11" lengthAdjust="spacingAndGlyphs" textLength="93" x="82.64" y="624.377">set_burst_delay()</text><text fill="#000000" font-family="sans-serif" font-size="11" lengthAdjust="spacingAndGlyphs" textLength="66" x="82.64" y="637.332">enable_crc()</text><text fill="#000000" font-family="sans-serif" font-size="11" lengthAdjust="spacingAndGlyphs" textLength="69" x="82.64" y="650.2871">disable_crc()</text><!--MD5=[be3765a8ee426731c4981c30c0d20f09]
class HAL--><rect fill="#FEFECE" filter="url(#f1eeg0yenzatso)" height="138.6855" id="HAL" style="stroke: #A80036; stroke-width: 1.5;" width="76" x="266.14" y="8"/><ellipse cx="290.59" cy="24" fill="#ADD1B2" rx="11" ry="11" style="stroke: #A80036; stroke-width: 1.0;"/><path d="M293.0631,30.1431 Q292.4821,30.4419 291.8429,30.5913 Q291.2038,30.7407 290.4982,30.7407 Q287.9914,30.7407 286.6715,29.0889 Q285.3517,27.437 285.3517,24.3159 Q285.3517,21.1865 286.6715,19.5347 Q287.9914,17.8828 290.4982,17.8828 Q291.2038,17.8828 291.8512,18.0322 Q292.4987,18.1816 293.0631,18.4805 L293.0631,21.2031 Q292.4323,20.6221 291.8388,20.3523 Q291.2453,20.0825 290.6144,20.0825 Q289.2697,20.0825 288.5849,21.1492 Q287.9001,22.2158 287.9001,24.3159 Q287.9001,26.4077 288.5849,27.4744 Q289.2697,28.541 290.6144,28.541 Q291.2453,28.541 291.8388,28.2712 Q292.4323,28.0015 293.0631,27.4204 Z "/><text fill="#000000" font-family="sans-serif" font-size="12" lengthAdjust="spacingAndGlyphs" textLength="23" x="306.69" y="28.5352">HAL</text><line style="stroke: #A80036; stroke-width: 1.5;" x1="267.14" x2="341.14" y1="40" y2="40"/><line style="stroke: #A80036; stroke-width: 1.5;" x1="267.14" x2="341.14" y1="48" y2="48"/><text fill="#000000" font-family="sans-serif" font-size="11" lengthAdjust="spacingAndGlyphs" textLength="43" x="272.14" y="62.6348">enable()</text><text fill="#000000" font-family="sans-serif" font-size="11" lengthAdjust="spacingAndGlyphs" textLength="46" x="272.14" y="75.5898">disable()</text><text fill="#000000" font-family="sans-serif" font-size="11" lengthAdjust="spacingAndGlyphs" textLength="25" x="272.14" y="88.5449">init()</text><text fill="#000000" font-family="sans-serif" font-size="11" lengthAdjust="spacingAndGlyphs" textLength="38" x="272.14" y="101.5">deinit()</text><text fill="#000000" font-family="sans-serif" font-size="11" lengthAdjust="spacingAndGlyphs" textLength="34" x="272.14" y="114.4551">write()</text><text fill="#000000" font-family="sans-serif" font-size="11" lengthAdjust="spacingAndGlyphs" textLength="32" x="272.14" y="127.4102">read()</text><text fill="#000000" font-family="sans-serif" font-size="11" lengthAdjust="spacingAndGlyphs" textLength="64" x="272.14" y="140.3652">write_read()</text><!--MD5=[eb672f161971a32a28c99da6c0336b3d]
class LL_power--><rect fill="#FEFECE" filter="url(#f1eeg0yenzatso)" height="48" id="LL_power" style="stroke: #A80036; stroke-width: 1.5;" width="86" x="261.14" y="408"/><ellipse cx="276.14" cy="424" fill="#ADD1B2" rx="11" ry="11" style="stroke: #A80036; stroke-width: 1.0;"/><path d="M278.6131,430.1431 Q278.0321,430.4419 277.3929,430.5913 Q276.7538,430.7407 276.0482,430.7407 Q273.5414,430.7407 272.2215,429.0889 Q270.9017,427.437 270.9017,424.3159 Q270.9017,421.1865 272.2215,419.5347 Q273.5414,417.8828 276.0482,417.8828 Q276.7538,417.8828 277.4012,418.0322 Q278.0487,418.1816 278.6131,418.4805 L278.6131,421.2031 Q277.9823,420.6221 277.3888,420.3523 Q276.7953,420.0825 276.1644,420.0825 Q274.8197,420.0825 274.1349,421.1492 Q273.4501,422.2158 273.4501,424.3159 Q273.4501,426.4077 274.1349,427.4744 Q274.8197,428.541 276.1644,428.541 Q276.7953,428.541 277.3888,428.2712 Q277.9823,428.0015 278.6131,427.4204 Z "/><text fill="#000000" font-family="sans-serif" font-size="12" lengthAdjust="spacingAndGlyphs" textLength="54" x="290.14" y="428.5352">LL_power</text><line style="stroke: #A80036; stroke-width: 1.5;" x1="262.14" x2="346.14" y1="440" y2="440"/><line style="stroke: #A80036; stroke-width: 1.5;" x1="262.14" x2="346.14" y1="448" y2="448"/><!--MD5=[8b0caf15fab33df914d6885d5506f67f]
class LL_clock--><rect fill="#FEFECE" filter="url(#f1eeg0yenzatso)" height="48" id="LL_clock" style="stroke: #A80036; stroke-width: 1.5;" width="79" x="382.64" y="408"/><ellipse cx="397.64" cy="424" fill="#ADD1B2" rx="11" ry="11" style="stroke: #A80036; stroke-width: 1.0;"/><path d="M400.1131,430.1431 Q399.5321,430.4419 398.8929,430.5913 Q398.2538,430.7407 397.5482,430.7407 Q395.0414,430.7407 393.7215,429.0889 Q392.4017,427.437 392.4017,424.3159 Q392.4017,421.1865 393.7215,419.5347 Q395.0414,417.8828 397.5482,417.8828 Q398.2538,417.8828 398.9012,418.0322 Q399.5487,418.1816 400.1131,418.4805 L400.1131,421.2031 Q399.4823,420.6221 398.8888,420.3523 Q398.2953,420.0825 397.6644,420.0825 Q396.3197,420.0825 395.6349,421.1492 Q394.9501,422.2158 394.9501,424.3159 Q394.9501,426.4077 395.6349,427.4744 Q396.3197,428.541 397.6644,428.541 Q398.2953,428.541 398.8888,428.2712 Q399.4823,428.0015 400.1131,427.4204 Z "/><text fill="#000000" font-family="sans-serif" font-size="12" lengthAdjust="spacingAndGlyphs" textLength="47" x="411.64" y="428.5352">LL_clock</text><line style="stroke: #A80036; stroke-width: 1.5;" x1="383.64" x2="460.64" y1="440" y2="440"/><line style="stroke: #A80036; stroke-width: 1.5;" x1="383.64" x2="460.64" y1="448" y2="448"/><!--MD5=[831aefa9ebd008f9dae82517425faefb]
class IRQ--><rect fill="#FEFECE" filter="url(#f1eeg0yenzatso)" height="48" id="IRQ" style="stroke: #A80036; stroke-width: 1.5;" width="52" x="497.14" y="408"/><ellipse cx="512.14" cy="424" fill="#ADD1B2" rx="11" ry="11" style="stroke: #A80036; stroke-width: 1.0;"/><path d="M514.6131,430.1431 Q514.0321,430.4419 513.3929,430.5913 Q512.7538,430.7407 512.0482,430.7407 Q509.5414,430.7407 508.2215,429.0889 Q506.9017,427.437 506.9017,424.3159 Q506.9017,421.1865 508.2215,419.5347 Q509.5414,417.8828 512.0482,417.8828 Q512.7538,417.8828 513.4012,418.0322 Q514.0487,418.1816 514.6131,418.4805 L514.6131,421.2031 Q513.9823,420.6221 513.3888,420.3523 Q512.7953,420.0825 512.1644,420.0825 Q510.8197,420.0825 510.1349,421.1492 Q509.4501,422.2158 509.4501,424.3159 Q509.4501,426.4077 510.1349,427.4744 Q510.8197,428.541 512.1644,428.541 Q512.7953,428.541 513.3888,428.2712 Q513.9823,428.0015 514.6131,427.4204 Z "/><text fill="#000000" font-family="sans-serif" font-size="12" lengthAdjust="spacingAndGlyphs" textLength="20" x="526.14" y="428.5352">IRQ</text><line style="stroke: #A80036; stroke-width: 1.5;" x1="498.14" x2="548.14" y1="440" y2="440"/><line style="stroke: #A80036; stroke-width: 1.5;" x1="498.14" x2="548.14" y1="448" y2="448"/><!--MD5=[ef6fe0030ed491b80e0e5e83099699b4]
link HAL to SPI--><path d="M265.9,85.75 C209.12,98.81 104.37,132.2 59.14,207 C-32.9,359.21 15.63,577.3 54.41,697.54 " fill="none" id="HAL-&gt;SPI" style="stroke: #A80036; stroke-width: 1.0; stroke-dasharray: 7.0,7.0;"/><polygon fill="none" points="61.11,695.49,60.77,716.68,47.82,699.91,61.11,695.49" style="stroke: #A80036; stroke-width: 1.0;"/><!--MD5=[7c42b4011aa728296f409c876b3a9cd7]
link HAL to LL--><path d="M271.36,147.27 C262.36,166.52 252.73,187.51 244.14,207 C238.73,219.27 233.23,231.95 227.74,244.75 " fill="none" id="HAL-&gt;LL" style="stroke: #A80036; stroke-width: 1.0;"/><polygon fill="#A80036" points="225.72,249.47,232.9242,242.7544,227.6775,244.8691,225.5628,239.6224,225.72,249.47" style="stroke: #A80036; stroke-width: 1.0;"/><!--MD5=[f481892d08b88046121823827ef5b6c7]
link HAL to LL_power--><path d="M304.14,147.3 C304.14,224.94 304.14,347.56 304.14,402.61 " fill="none" id="HAL-&gt;LL_power" style="stroke: #A80036; stroke-width: 1.0; stroke-dasharray: 7.0,7.0;"/><polygon fill="#A80036" points="304.14,407.72,308.14,398.72,304.14,402.72,300.14,398.72,304.14,407.72" style="stroke: #A80036; stroke-width: 1.0;"/><!--MD5=[03027760a4a69a9b5b7ae20cb535c4e1]
link HAL to LL_clock--><path d="M339.74,147.14 C348.79,166.21 357.97,187.14 365.14,207 C389.93,275.74 408.3,360.02 416.83,402.96 " fill="none" id="HAL-&gt;LL_clock" style="stroke: #A80036; stroke-width: 1.0; stroke-dasharray: 7.0,7.0;"/><polygon fill="#A80036" points="417.82,407.99,419.9934,398.384,416.8477,403.0855,412.1462,399.9397,417.82,407.99" style="stroke: #A80036; stroke-width: 1.0;"/><!--MD5=[aa119ece880843938e062c5ac955c7c5]
link HAL to IRQ--><path d="M342.49,95.95 C383.12,116.52 445.9,154.65 479.14,207 C518.31,268.69 523.88,357.73 523.93,402.71 " fill="none" id="HAL-&gt;IRQ" style="stroke: #A80036; stroke-width: 1.0; stroke-dasharray: 7.0,7.0;"/><polygon fill="#A80036" points="523.91,407.71,527.9357,398.7215,523.9243,402.71,519.9357,398.6986,523.91,407.71" style="stroke: #A80036; stroke-width: 1.0;"/><!--MD5=[13bdc8eed54f11524445788d88c7500a]
link LL to SPI--><path d="M110.43,657.24 C106.92,676.56 103.56,695.05 100.54,711.67 " fill="none" id="LL-&gt;SPI" style="stroke: #A80036; stroke-width: 1.0;"/><polygon fill="#A80036" points="99.62,716.77,105.1529,708.6222,100.5069,711.8493,97.2798,707.2032,99.62,716.77" style="stroke: #A80036; stroke-width: 1.0;"/><!--MD5=[062a475cf6c23c8462b47abc39dfb5b5]
@startuml
interface SPI {
	spi_mode_t
	spi_irq_t
	spi_event_t

	start()
	stop()
	get_event()
	clear_event()
}

class LL {
	reset()
	get_rxd()
	set_txd()
	write()
	read()
	is_busy()
	clear_rx_buffer()
	clear_tx_buffer()
	enable_irq()
	disable_irq()
	enable_chip_select()
	disable_chip_select()
	set_chip_select_mode()
	set_chip_select_level()
	set_chip_select_polarity()
	set_loopback()
	set_mode()
	start()
	stop()
	get_event()
	clear_event()
	set_clock_phase()
	set_clock_polarity()
	set_data_width()
	set_bitorder()
	set_frequency()
	set_start_delay()
	set_stop_delay()
	set_burst_delay()
	enable_crc()
	disable_crc()
}

class HAL {
	enable()
	disable()
	init()
	deinit()
	write()
	read()
	write_read()
}

HAL ..|> SPI
HAL - -> LL
HAL ..> LL_power
HAL ..> LL_clock
HAL ..> IRQ
LL - -> SPI
@enduml

PlantUML version 1.2019.13(Wed Dec 11 02:18:29 KST 2019)
(GPL source distribution)
Java Runtime: Java(TM) SE Runtime Environment
JVM: Java HotSpot(TM) 64-Bit Server VM
Java Version: 15+36-1562
Operating System: Mac OS X
Default Encoding: UTF-8
Language: en
Country: KR
--></g></svg>