<?xml version="1.0" encoding="UTF-8" standalone="no"?><svg xmlns="http://www.w3.org/2000/svg" xmlns:xlink="http://www.w3.org/1999/xlink" contentScriptType="application/ecmascript" contentStyleType="text/css" height="736px" preserveAspectRatio="none" style="width:514px;height:736px;" version="1.1" viewBox="0 0 514 736" width="514px" zoomAndPan="magnify"><defs><filter height="300%" id="fnezt07j7d8sr" width="300%" x="-1" y="-1"><feGaussianBlur result="blurOut" stdDeviation="2.0"/><feColorMatrix in="blurOut" result="blurOut2" type="matrix" values="0 0 0 0 0 0 0 0 0 0 0 0 0 0 0 0 0 0 .4 0"/><feOffset dx="4.0" dy="4.0" in="blurOut2" result="blurOut3"/><feBlend in="SourceGraphic" in2="blurOut3" mode="normal"/></filter></defs><g><!--MD5=[1b844c90688aafb95cd8c95626c3b83a]
class Timer--><rect fill="#FEFECE" filter="url(#fnezt07j7d8sr)" height="216.416" id="Timer" style="stroke: #A80036; stroke-width: 1.5;" width="83" x="27.41" y="509"/><ellipse cx="50.06" cy="525" fill="#B4A7E5" rx="11" ry="11" style="stroke: #A80036; stroke-width: 1.0;"/><path d="M46.4877,521.2651 L46.4877,519.1069 L53.8671,519.1069 L53.8671,521.2651 L51.4018,521.2651 L51.4018,529.3418 L53.8671,529.3418 L53.8671,531.5 L46.4877,531.5 L46.4877,529.3418 L48.9531,529.3418 L48.9531,521.2651 Z "/><text fill="#000000" font-family="sans-serif" font-size="12" font-style="italic" lengthAdjust="spacingAndGlyphs" textLength="34" x="65.76" y="529.5352">Timer</text><line style="stroke: #A80036; stroke-width: 1.5;" x1="28.41" x2="109.41" y1="541" y2="541"/><text fill="#000000" font-family="sans-serif" font-size="11" lengthAdjust="spacingAndGlyphs" textLength="40" x="33.41" y="555.6348">mode_t</text><text fill="#000000" font-family="sans-serif" font-size="11" lengthAdjust="spacingAndGlyphs" textLength="39" x="33.41" y="568.5898">event_t</text><text fill="#000000" font-family="sans-serif" font-size="11" lengthAdjust="spacingAndGlyphs" textLength="36" x="33.41" y="581.5449">edge_t</text><line style="stroke: #A80036; stroke-width: 1.5;" x1="28.41" x2="109.41" y1="587.8652" y2="587.8652"/><text fill="#000000" font-family="sans-serif" font-size="11" lengthAdjust="spacingAndGlyphs" textLength="33" x="33.41" y="602.5">start()</text><text fill="#000000" font-family="sans-serif" font-size="11" lengthAdjust="spacingAndGlyphs" textLength="32" x="33.41" y="615.4551">stop()</text><text fill="#000000" font-family="sans-serif" font-size="11" lengthAdjust="spacingAndGlyphs" textLength="69" x="33.41" y="628.4102">clear_event()</text><text fill="#000000" font-family="sans-serif" font-size="11" lengthAdjust="spacingAndGlyphs" textLength="60" x="33.41" y="641.3652">get_event()</text><text fill="#000000" font-family="sans-serif" font-size="11" lengthAdjust="spacingAndGlyphs" textLength="42" x="33.41" y="654.3203">set_cc()</text><text fill="#000000" font-family="sans-serif" font-size="11" lengthAdjust="spacingAndGlyphs" textLength="43" x="33.41" y="667.2754">get_cc()</text><text fill="#000000" font-family="sans-serif" font-size="11" lengthAdjust="spacingAndGlyphs" textLength="64" x="33.41" y="680.2305">set_reload()</text><text fill="#000000" font-family="sans-serif" font-size="11" lengthAdjust="spacingAndGlyphs" textLength="65" x="33.41" y="693.1855">get_reload()</text><text fill="#000000" font-family="sans-serif" font-size="11" lengthAdjust="spacingAndGlyphs" textLength="56" x="33.41" y="706.1406">set_edge()</text><text fill="#000000" font-family="sans-serif" font-size="11" lengthAdjust="spacingAndGlyphs" textLength="71" x="33.41" y="719.0957">set_polarity()</text><!--MD5=[b3c4cffaebeb1ca91d3860615de3212f]
class LL--><rect fill="#FEFECE" filter="url(#fnezt07j7d8sr)" height="294.1465" id="LL" style="stroke: #A80036; stroke-width: 1.5;" width="113" x="67.41" y="155"/><ellipse cx="113.66" cy="171" fill="#ADD1B2" rx="11" ry="11" style="stroke: #A80036; stroke-width: 1.0;"/><path d="M116.1331,177.1431 Q115.5521,177.4419 114.9129,177.5913 Q114.2738,177.7407 113.5682,177.7407 Q111.0614,177.7407 109.7415,176.0889 Q108.4217,174.437 108.4217,171.3159 Q108.4217,168.1865 109.7415,166.5347 Q111.0614,164.8828 113.5682,164.8828 Q114.2738,164.8828 114.9212,165.0322 Q115.5687,165.1816 116.1331,165.4805 L116.1331,168.2031 Q115.5023,167.6221 114.9088,167.3523 Q114.3153,167.0825 113.6844,167.0825 Q112.3397,167.0825 111.6549,168.1492 Q110.9701,169.2158 110.9701,171.3159 Q110.9701,173.4077 111.6549,174.4744 Q112.3397,175.541 113.6844,175.541 Q114.3153,175.541 114.9088,175.2712 Q115.5023,175.0015 116.1331,174.4204 Z "/><text fill="#000000" font-family="sans-serif" font-size="12" lengthAdjust="spacingAndGlyphs" textLength="12" x="134.16" y="175.5352">LL</text><line style="stroke: #A80036; stroke-width: 1.5;" x1="68.41" x2="179.41" y1="187" y2="187"/><line style="stroke: #A80036; stroke-width: 1.5;" x1="68.41" x2="179.41" y1="195" y2="195"/><text fill="#000000" font-family="sans-serif" font-size="11" lengthAdjust="spacingAndGlyphs" textLength="35" x="73.41" y="209.6348">reset()</text><text fill="#000000" font-family="sans-serif" font-size="11" lengthAdjust="spacingAndGlyphs" textLength="60" x="73.41" y="222.5898">set_mode()</text><text fill="#000000" font-family="sans-serif" font-size="11" lengthAdjust="spacingAndGlyphs" textLength="80" x="73.41" y="235.5449">set_prescaler()</text><text fill="#000000" font-family="sans-serif" font-size="11" lengthAdjust="spacingAndGlyphs" textLength="64" x="73.41" y="248.5">enable_irq()</text><text fill="#000000" font-family="sans-serif" font-size="11" lengthAdjust="spacingAndGlyphs" textLength="67" x="73.41" y="261.4551">disable_irq()</text><text fill="#000000" font-family="sans-serif" font-size="11" lengthAdjust="spacingAndGlyphs" textLength="101" x="73.41" y="274.4102">set_clock_divider()</text><text fill="#000000" font-family="sans-serif" font-size="11" lengthAdjust="spacingAndGlyphs" textLength="72" x="73.41" y="287.3652">set_counter()</text><text fill="#000000" font-family="sans-serif" font-size="11" lengthAdjust="spacingAndGlyphs" textLength="73" x="73.41" y="300.3203">get_counter()</text><text fill="#000000" font-family="sans-serif" font-size="11" lengthAdjust="spacingAndGlyphs" textLength="64" x="73.41" y="313.2754">set_reload()</text><text fill="#000000" font-family="sans-serif" font-size="11" lengthAdjust="spacingAndGlyphs" textLength="65" x="73.41" y="326.2305">get_reload()</text><text fill="#000000" font-family="sans-serif" font-size="11" lengthAdjust="spacingAndGlyphs" textLength="69" x="73.41" y="339.1855">clear_event()</text><text fill="#000000" font-family="sans-serif" font-size="11" lengthAdjust="spacingAndGlyphs" textLength="60" x="73.41" y="352.1406">get_event()</text><text fill="#000000" font-family="sans-serif" font-size="11" lengthAdjust="spacingAndGlyphs" textLength="33" x="73.41" y="365.0957">start()</text><text fill="#000000" font-family="sans-serif" font-size="11" lengthAdjust="spacingAndGlyphs" textLength="32" x="73.41" y="378.0508">stop()</text><text fill="#000000" font-family="sans-serif" font-size="11" lengthAdjust="spacingAndGlyphs" textLength="42" x="73.41" y="391.0059">set_cc()</text><text fill="#000000" font-family="sans-serif" font-size="11" lengthAdjust="spacingAndGlyphs" textLength="43" x="73.41" y="403.9609">get_cc()</text><text fill="#000000" font-family="sans-serif" font-size="11" lengthAdjust="spacingAndGlyphs" textLength="85" x="73.41" y="416.916">get_frequency()</text><text fill="#000000" font-family="sans-serif" font-size="11" lengthAdjust="spacingAndGlyphs" textLength="56" x="73.41" y="429.8711">set_edge()</text><text fill="#000000" font-family="sans-serif" font-size="11" lengthAdjust="spacingAndGlyphs" textLength="71" x="73.41" y="442.8262">set_polarity()</text><!--MD5=[be3765a8ee426731c4981c30c0d20f09]
class HAL--><rect fill="#FEFECE" filter="url(#fnezt07j7d8sr)" height="86.8652" id="HAL" style="stroke: #A80036; stroke-width: 1.5;" width="63" x="227.41" y="8"/><ellipse cx="246.01" cy="24" fill="#ADD1B2" rx="11" ry="11" style="stroke: #A80036; stroke-width: 1.0;"/><path d="M248.4831,30.1431 Q247.9021,30.4419 247.2629,30.5913 Q246.6238,30.7407 245.9182,30.7407 Q243.4114,30.7407 242.0915,29.0889 Q240.7717,27.437 240.7717,24.3159 Q240.7717,21.1865 242.0915,19.5347 Q243.4114,17.8828 245.9182,17.8828 Q246.6238,17.8828 247.2712,18.0322 Q247.9187,18.1816 248.4831,18.4805 L248.4831,21.2031 Q247.8523,20.6221 247.2588,20.3523 Q246.6653,20.0825 246.0344,20.0825 Q244.6897,20.0825 244.0049,21.1492 Q243.3201,22.2158 243.3201,24.3159 Q243.3201,26.4077 244.0049,27.4744 Q244.6897,28.541 246.0344,28.541 Q246.6653,28.541 247.2588,28.2712 Q247.8523,28.0015 248.4831,27.4204 Z "/><text fill="#000000" font-family="sans-serif" font-size="12" lengthAdjust="spacingAndGlyphs" textLength="23" x="260.81" y="28.5352">HAL</text><line style="stroke: #A80036; stroke-width: 1.5;" x1="228.41" x2="289.41" y1="40" y2="40"/><text fill="#000000" font-family="sans-serif" font-size="11" lengthAdjust="spacingAndGlyphs" textLength="51" x="233.41" y="54.6348">timer_cfg</text><line style="stroke: #A80036; stroke-width: 1.5;" x1="228.41" x2="289.41" y1="60.9551" y2="60.9551"/><text fill="#000000" font-family="sans-serif" font-size="11" lengthAdjust="spacingAndGlyphs" textLength="25" x="233.41" y="75.5898">init()</text><text fill="#000000" font-family="sans-serif" font-size="11" lengthAdjust="spacingAndGlyphs" textLength="38" x="233.41" y="88.5449">deinit()</text><!--MD5=[eb672f161971a32a28c99da6c0336b3d]
class LL_power--><rect fill="#FEFECE" filter="url(#fnezt07j7d8sr)" height="48" id="LL_power" style="stroke: #A80036; stroke-width: 1.5;" width="86" x="215.91" y="278"/><ellipse cx="230.91" cy="294" fill="#ADD1B2" rx="11" ry="11" style="stroke: #A80036; stroke-width: 1.0;"/><path d="M233.3831,300.1431 Q232.8021,300.4419 232.1629,300.5913 Q231.5238,300.7407 230.8182,300.7407 Q228.3114,300.7407 226.9915,299.0889 Q225.6717,297.437 225.6717,294.3159 Q225.6717,291.1865 226.9915,289.5347 Q228.3114,287.8828 230.8182,287.8828 Q231.5238,287.8828 232.1712,288.0322 Q232.8187,288.1816 233.3831,288.4805 L233.3831,291.2031 Q232.7523,290.6221 232.1588,290.3523 Q231.5653,290.0825 230.9344,290.0825 Q229.5897,290.0825 228.9049,291.1492 Q228.2201,292.2158 228.2201,294.3159 Q228.2201,296.4077 228.9049,297.4744 Q229.5897,298.541 230.9344,298.541 Q231.5653,298.541 232.1588,298.2712 Q232.7523,298.0015 233.3831,297.4204 Z "/><text fill="#000000" font-family="sans-serif" font-size="12" lengthAdjust="spacingAndGlyphs" textLength="54" x="244.91" y="298.5352">LL_power</text><line style="stroke: #A80036; stroke-width: 1.5;" x1="216.91" x2="300.91" y1="310" y2="310"/><line style="stroke: #A80036; stroke-width: 1.5;" x1="216.91" x2="300.91" y1="318" y2="318"/><!--MD5=[8b0caf15fab33df914d6885d5506f67f]
class LL_clock--><rect fill="#FEFECE" filter="url(#fnezt07j7d8sr)" height="48" id="LL_clock" style="stroke: #A80036; stroke-width: 1.5;" width="79" x="337.41" y="278"/><ellipse cx="352.41" cy="294" fill="#ADD1B2" rx="11" ry="11" style="stroke: #A80036; stroke-width: 1.0;"/><path d="M354.8831,300.1431 Q354.3021,300.4419 353.6629,300.5913 Q353.0238,300.7407 352.3182,300.7407 Q349.8114,300.7407 348.4915,299.0889 Q347.1717,297.437 347.1717,294.3159 Q347.1717,291.1865 348.4915,289.5347 Q349.8114,287.8828 352.3182,287.8828 Q353.0238,287.8828 353.6712,288.0322 Q354.3187,288.1816 354.8831,288.4805 L354.8831,291.2031 Q354.2523,290.6221 353.6588,290.3523 Q353.0653,290.0825 352.4344,290.0825 Q351.0897,290.0825 350.4049,291.1492 Q349.7201,292.2158 349.7201,294.3159 Q349.7201,296.4077 350.4049,297.4744 Q351.0897,298.541 352.4344,298.541 Q353.0653,298.541 353.6588,298.2712 Q354.2523,298.0015 354.8831,297.4204 Z "/><text fill="#000000" font-family="sans-serif" font-size="12" lengthAdjust="spacingAndGlyphs" textLength="47" x="366.41" y="298.5352">LL_clock</text><line style="stroke: #A80036; stroke-width: 1.5;" x1="338.41" x2="415.41" y1="310" y2="310"/><line style="stroke: #A80036; stroke-width: 1.5;" x1="338.41" x2="415.41" y1="318" y2="318"/><!--MD5=[831aefa9ebd008f9dae82517425faefb]
class IRQ--><rect fill="#FEFECE" filter="url(#fnezt07j7d8sr)" height="48" id="IRQ" style="stroke: #A80036; stroke-width: 1.5;" width="52" x="451.91" y="278"/><ellipse cx="466.91" cy="294" fill="#ADD1B2" rx="11" ry="11" style="stroke: #A80036; stroke-width: 1.0;"/><path d="M469.3831,300.1431 Q468.8021,300.4419 468.1629,300.5913 Q467.5238,300.7407 466.8182,300.7407 Q464.3114,300.7407 462.9915,299.0889 Q461.6717,297.437 461.6717,294.3159 Q461.6717,291.1865 462.9915,289.5347 Q464.3114,287.8828 466.8182,287.8828 Q467.5238,287.8828 468.1712,288.0322 Q468.8187,288.1816 469.3831,288.4805 L469.3831,291.2031 Q468.7523,290.6221 468.1588,290.3523 Q467.5653,290.0825 466.9344,290.0825 Q465.5897,290.0825 464.9049,291.1492 Q464.2201,292.2158 464.2201,294.3159 Q464.2201,296.4077 464.9049,297.4744 Q465.5897,298.541 466.9344,298.541 Q467.5653,298.541 468.1588,298.2712 Q468.7523,298.0015 469.3831,297.4204 Z "/><text fill="#000000" font-family="sans-serif" font-size="12" lengthAdjust="spacingAndGlyphs" textLength="20" x="480.91" y="298.5352">IRQ</text><line style="stroke: #A80036; stroke-width: 1.5;" x1="452.91" x2="502.91" y1="310" y2="310"/><line style="stroke: #A80036; stroke-width: 1.5;" x1="452.91" x2="502.91" y1="318" y2="318"/><!--MD5=[67e08f33a693c3eb3ad8aa491d852591]
link HAL to Timer--><path d="M227.16,57.44 C179.02,66.83 89.03,92.24 49.91,155 C-12.1,254.47 2.99,390.85 27.3,489.44 " fill="none" id="HAL-&gt;Timer" style="stroke: #A80036; stroke-width: 1.0; stroke-dasharray: 7.0,7.0;"/><polygon fill="none" points="34.11,487.83,32.35,508.95,20.56,491.34,34.11,487.83" style="stroke: #A80036; stroke-width: 1.0;"/><!--MD5=[7c42b4011aa728296f409c876b3a9cd7]
link HAL to LL--><path d="M233.27,95.09 C222.44,113.4 209.82,135.12 198.91,155 C193.68,164.53 188.34,174.46 183.04,184.47 " fill="none" id="HAL-&gt;LL" style="stroke: #A80036; stroke-width: 1.0;"/><polygon fill="#A80036" points="180.61,189.07,188.3625,182.9955,182.954,184.6535,181.2961,179.2451,180.61,189.07" style="stroke: #A80036; stroke-width: 1.0;"/><!--MD5=[f481892d08b88046121823827ef5b6c7]
link HAL to LL_power--><path d="M258.91,95.22 C258.91,146.02 258.91,229.39 258.91,272.78 " fill="none" id="HAL-&gt;LL_power" style="stroke: #A80036; stroke-width: 1.0; stroke-dasharray: 7.0,7.0;"/><polygon fill="#A80036" points="258.91,277.86,262.91,268.86,258.91,272.86,254.91,268.86,258.91,277.86" style="stroke: #A80036; stroke-width: 1.0;"/><!--MD5=[03027760a4a69a9b5b7ae20cb535c4e1]
link HAL to LL_clock--><path d="M286.35,95.02 C297.47,113.13 310,134.72 319.91,155 C339.39,194.87 357.18,243.18 367.53,273.01 " fill="none" id="HAL-&gt;LL_clock" style="stroke: #A80036; stroke-width: 1.0; stroke-dasharray: 7.0,7.0;"/><polygon fill="#A80036" points="369.25,277.99,370.1012,268.178,367.6218,273.2625,362.5373,270.7831,369.25,277.99" style="stroke: #A80036; stroke-width: 1.0;"/><!--MD5=[aa119ece880843938e062c5ac955c7c5]
link HAL to IRQ--><path d="M290.63,62.87 C329.94,77.33 396.34,107.27 433.91,155 C461.15,189.61 471.57,240.9 475.52,272.57 " fill="none" id="HAL-&gt;IRQ" style="stroke: #A80036; stroke-width: 1.0; stroke-dasharray: 7.0,7.0;"/><polygon fill="#A80036" points="476.15,277.86,479.0695,268.4538,475.565,272.8943,471.1244,269.3898,476.15,277.86" style="stroke: #A80036; stroke-width: 1.0;"/><!--MD5=[5dd7d1716160dcfa14d2bbcb4b833c12]
link LL to Timer--><path d="M98.18,449.42 C94.96,467.74 91.71,486.25 88.6,503.94 " fill="none" id="LL-&gt;Timer" style="stroke: #A80036; stroke-width: 1.0;"/><polygon fill="#A80036" points="87.73,508.9,93.2359,500.7339,88.6006,503.9764,85.3581,499.341,87.73,508.9" style="stroke: #A80036; stroke-width: 1.0;"/><!--MD5=[9d5376b5eb47c65a2e95f12d66e23aae]
@startuml
interface Timer {
	mode_t
	event_t
	edge_t

	start()
	stop()
	clear_event()
	get_event()
	set_cc()
	get_cc()
	set_reload()
	get_reload()
	set_edge()
	set_polarity()
}

class LL {
	reset()
	set_mode()
	set_prescaler()
	enable_irq()
	disable_irq()
	set_clock_divider()
	set_counter()
	get_counter()
	set_reload()
	get_reload()
	clear_event()
	get_event()
	start()
	stop()
	set_cc()
	get_cc()
	get_frequency()
	set_edge()
	set_polarity()
}

class HAL {
	timer_cfg

	init()
	deinit()
}

HAL ..|> Timer
HAL - -> LL
HAL ..> LL_power
HAL ..> LL_clock
HAL ..> IRQ
LL - -> Timer
@enduml

PlantUML version 1.2019.13(Wed Dec 11 02:18:29 KST 2019)
(GPL source distribution)
Java Runtime: Java(TM) SE Runtime Environment
JVM: Java HotSpot(TM) 64-Bit Server VM
Java Version: 15+36-1562
Operating System: Mac OS X
Default Encoding: UTF-8
Language: en
Country: KR
--></g></svg>