<?xml version="1.0" encoding="UTF-8" standalone="no"?><svg xmlns="http://www.w3.org/2000/svg" xmlns:xlink="http://www.w3.org/1999/xlink" contentScriptType="application/ecmascript" contentStyleType="text/css" height="918px" preserveAspectRatio="none" style="width:597px;height:918px;" version="1.1" viewBox="0 0 597 918" width="597px" zoomAndPan="magnify"><defs><filter height="300%" id="fdys2ilr7ak1r" width="300%" x="-1" y="-1"><feGaussianBlur result="blurOut" stdDeviation="2.0"/><feColorMatrix in="blurOut" result="blurOut2" type="matrix" values="0 0 0 0 0 0 0 0 0 0 0 0 0 0 0 0 0 0 .4 0"/><feOffset dx="4.0" dy="4.0" in="blurOut2" result="blurOut3"/><feBlend in="SourceGraphic" in2="blurOut3" mode="normal"/></filter></defs><g><!--MD5=[1b844c90688aafb95cd8c95626c3b83a]
class Timer--><rect fill="#FEFECE" filter="url(#fdys2ilr7ak1r)" height="281.1914" id="Timer" style="stroke: #A80036; stroke-width: 1.5;" width="113" x="45.47" y="626"/><ellipse cx="81.62" cy="642" fill="#B4A7E5" rx="11" ry="11" style="stroke: #A80036; stroke-width: 1.0;"/><path d="M78.0477,638.2651 L78.0477,636.1069 L85.4271,636.1069 L85.4271,638.2651 L82.9618,638.2651 L82.9618,646.3418 L85.4271,646.3418 L85.4271,648.5 L78.0477,648.5 L78.0477,646.3418 L80.5131,646.3418 L80.5131,638.2651 Z "/><text fill="#000000" font-family="sans-serif" font-size="12" font-style="italic" lengthAdjust="spacingAndGlyphs" textLength="34" x="100.32" y="646.5352">Timer</text><line style="stroke: #A80036; stroke-width: 1.5;" x1="46.47" x2="157.47" y1="658" y2="658"/><text fill="#000000" font-family="sans-serif" font-size="11" lengthAdjust="spacingAndGlyphs" textLength="40" x="51.47" y="672.6348">mode_t</text><text fill="#000000" font-family="sans-serif" font-size="11" lengthAdjust="spacingAndGlyphs" textLength="22" x="51.47" y="685.5898">cc_t</text><text fill="#000000" font-family="sans-serif" font-size="11" lengthAdjust="spacingAndGlyphs" textLength="58" x="51.47" y="698.5449">cc_mode_t</text><text fill="#000000" font-family="sans-serif" font-size="11" lengthAdjust="spacingAndGlyphs" textLength="39" x="51.47" y="711.5">event_t</text><text fill="#000000" font-family="sans-serif" font-size="11" lengthAdjust="spacingAndGlyphs" textLength="36" x="51.47" y="724.4551">edge_t</text><line style="stroke: #A80036; stroke-width: 1.5;" x1="46.47" x2="157.47" y1="730.7754" y2="730.7754"/><text fill="#000000" font-family="sans-serif" font-size="11" lengthAdjust="spacingAndGlyphs" textLength="33" x="51.47" y="745.4102">start()</text><text fill="#000000" font-family="sans-serif" font-size="11" lengthAdjust="spacingAndGlyphs" textLength="32" x="51.47" y="758.3652">stop()</text><text fill="#000000" font-family="sans-serif" font-size="11" lengthAdjust="spacingAndGlyphs" textLength="69" x="51.47" y="771.3203">clear_event()</text><text fill="#000000" font-family="sans-serif" font-size="11" lengthAdjust="spacingAndGlyphs" textLength="60" x="51.47" y="784.2754">get_event()</text><text fill="#000000" font-family="sans-serif" font-size="11" lengthAdjust="spacingAndGlyphs" textLength="64" x="51.47" y="797.2305">set_reload()</text><text fill="#000000" font-family="sans-serif" font-size="11" lengthAdjust="spacingAndGlyphs" textLength="65" x="51.47" y="810.1855">get_reload()</text><text fill="#000000" font-family="sans-serif" font-size="11" lengthAdjust="spacingAndGlyphs" textLength="42" x="51.47" y="823.1406">set_cc()</text><text fill="#000000" font-family="sans-serif" font-size="11" lengthAdjust="spacingAndGlyphs" textLength="43" x="51.47" y="836.0957">get_cc()</text><text fill="#000000" font-family="sans-serif" font-size="11" lengthAdjust="spacingAndGlyphs" textLength="84" x="51.47" y="849.0508">enable_cc_pin()</text><text fill="#000000" font-family="sans-serif" font-size="11" lengthAdjust="spacingAndGlyphs" textLength="87" x="51.47" y="862.0059">disable_cc_pin()</text><text fill="#000000" font-family="sans-serif" font-size="11" lengthAdjust="spacingAndGlyphs" textLength="65" x="51.47" y="874.9609">set_cc_pin()</text><text fill="#000000" font-family="sans-serif" font-size="11" lengthAdjust="spacingAndGlyphs" textLength="101" x="51.47" y="887.916">set_cc_pin_mode()</text><text fill="#000000" font-family="sans-serif" font-size="11" lengthAdjust="spacingAndGlyphs" textLength="89" x="51.47" y="900.8711">set_cc_polarity()</text><!--MD5=[b3c4cffaebeb1ca91d3860615de3212f]
class LL--><rect fill="#FEFECE" filter="url(#fdys2ilr7ak1r)" height="410.7422" id="LL" style="stroke: #A80036; stroke-width: 1.5;" width="179" x="84.47" y="155"/><ellipse cx="163.72" cy="171" fill="#ADD1B2" rx="11" ry="11" style="stroke: #A80036; stroke-width: 1.0;"/><path d="M166.1931,177.1431 Q165.6121,177.4419 164.9729,177.5913 Q164.3338,177.7407 163.6282,177.7407 Q161.1214,177.7407 159.8015,176.0889 Q158.4817,174.437 158.4817,171.3159 Q158.4817,168.1865 159.8015,166.5347 Q161.1214,164.8828 163.6282,164.8828 Q164.3338,164.8828 164.9812,165.0322 Q165.6287,165.1816 166.1931,165.4805 L166.1931,168.2031 Q165.5623,167.6221 164.9688,167.3523 Q164.3753,167.0825 163.7444,167.0825 Q162.3997,167.0825 161.7149,168.1492 Q161.0301,169.2158 161.0301,171.3159 Q161.0301,173.4077 161.7149,174.4744 Q162.3997,175.541 163.7444,175.541 Q164.3753,175.541 164.9688,175.2712 Q165.5623,175.0015 166.1931,174.4204 Z "/><text fill="#000000" font-family="sans-serif" font-size="12" lengthAdjust="spacingAndGlyphs" textLength="12" x="184.22" y="175.5352">LL</text><line style="stroke: #A80036; stroke-width: 1.5;" x1="85.47" x2="262.47" y1="187" y2="187"/><line style="stroke: #A80036; stroke-width: 1.5;" x1="85.47" x2="262.47" y1="195" y2="195"/><text fill="#000000" font-family="sans-serif" font-size="11" lengthAdjust="spacingAndGlyphs" textLength="35" x="90.47" y="209.6348">reset()</text><text fill="#000000" font-family="sans-serif" font-size="11" lengthAdjust="spacingAndGlyphs" textLength="60" x="90.47" y="222.5898">set_mode()</text><text fill="#000000" font-family="sans-serif" font-size="11" lengthAdjust="spacingAndGlyphs" textLength="80" x="90.47" y="235.5449">set_prescaler()</text><text fill="#000000" font-family="sans-serif" font-size="11" lengthAdjust="spacingAndGlyphs" textLength="64" x="90.47" y="248.5">enable_irq()</text><text fill="#000000" font-family="sans-serif" font-size="11" lengthAdjust="spacingAndGlyphs" textLength="67" x="90.47" y="261.4551">disable_irq()</text><text fill="#000000" font-family="sans-serif" font-size="11" lengthAdjust="spacingAndGlyphs" textLength="85" x="90.47" y="274.4102">get_frequency()</text><text fill="#000000" font-family="sans-serif" font-size="11" lengthAdjust="spacingAndGlyphs" textLength="101" x="90.47" y="287.3652">set_clock_divider()</text><text fill="#000000" font-family="sans-serif" font-size="11" lengthAdjust="spacingAndGlyphs" textLength="72" x="90.47" y="300.3203">set_counter()</text><text fill="#000000" font-family="sans-serif" font-size="11" lengthAdjust="spacingAndGlyphs" textLength="73" x="90.47" y="313.2754">get_counter()</text><text fill="#000000" font-family="sans-serif" font-size="11" lengthAdjust="spacingAndGlyphs" textLength="64" x="90.47" y="326.2305">set_reload()</text><text fill="#000000" font-family="sans-serif" font-size="11" lengthAdjust="spacingAndGlyphs" textLength="65" x="90.47" y="339.1855">get_reload()</text><text fill="#000000" font-family="sans-serif" font-size="11" lengthAdjust="spacingAndGlyphs" textLength="69" x="90.47" y="352.1406">clear_event()</text><text fill="#000000" font-family="sans-serif" font-size="11" lengthAdjust="spacingAndGlyphs" textLength="60" x="90.47" y="365.0957">get_event()</text><text fill="#000000" font-family="sans-serif" font-size="11" lengthAdjust="spacingAndGlyphs" textLength="33" x="90.47" y="378.0508">start()</text><text fill="#000000" font-family="sans-serif" font-size="11" lengthAdjust="spacingAndGlyphs" textLength="32" x="90.47" y="391.0059">stop()</text><text fill="#000000" font-family="sans-serif" font-size="11" lengthAdjust="spacingAndGlyphs" textLength="42" x="90.47" y="403.9609">set_cc()</text><text fill="#000000" font-family="sans-serif" font-size="11" lengthAdjust="spacingAndGlyphs" textLength="43" x="90.47" y="416.916">get_cc()</text><text fill="#000000" font-family="sans-serif" font-size="11" lengthAdjust="spacingAndGlyphs" textLength="84" x="90.47" y="429.8711">enable_cc_pin()</text><text fill="#000000" font-family="sans-serif" font-size="11" lengthAdjust="spacingAndGlyphs" textLength="87" x="90.47" y="442.8262">disable_cc_pin()</text><text fill="#000000" font-family="sans-serif" font-size="11" lengthAdjust="spacingAndGlyphs" textLength="65" x="90.47" y="455.7813">set_cc_pin()</text><text fill="#000000" font-family="sans-serif" font-size="11" lengthAdjust="spacingAndGlyphs" textLength="101" x="90.47" y="468.7363">set_cc_pin_mode()</text><text fill="#000000" font-family="sans-serif" font-size="11" lengthAdjust="spacingAndGlyphs" textLength="89" x="90.47" y="481.6914">set_cc_polarity()</text><text fill="#000000" font-family="sans-serif" font-size="11" lengthAdjust="spacingAndGlyphs" textLength="108" x="90.47" y="494.6465">enable_cc_preload()</text><text fill="#000000" font-family="sans-serif" font-size="11" lengthAdjust="spacingAndGlyphs" textLength="111" x="90.47" y="507.6016">disable_cc_preload()</text><text fill="#000000" font-family="sans-serif" font-size="11" lengthAdjust="spacingAndGlyphs" textLength="117" x="90.47" y="520.5566">enable_cc_fastmode()</text><text fill="#000000" font-family="sans-serif" font-size="11" lengthAdjust="spacingAndGlyphs" textLength="120" x="90.47" y="533.5117">disable_cc_fastmode()</text><text fill="#000000" font-family="sans-serif" font-size="11" lengthAdjust="spacingAndGlyphs" textLength="126" x="90.47" y="546.4668">set_counter_direction()</text><text fill="#000000" font-family="sans-serif" font-size="11" lengthAdjust="spacingAndGlyphs" textLength="167" x="90.47" y="559.4219">set_counter_alignment_mode()</text><!--MD5=[be3765a8ee426731c4981c30c0d20f09]
class HAL--><rect fill="#FEFECE" filter="url(#fdys2ilr7ak1r)" height="86.8652" id="HAL" style="stroke: #A80036; stroke-width: 1.5;" width="63" x="310.47" y="8"/><ellipse cx="329.07" cy="24" fill="#ADD1B2" rx="11" ry="11" style="stroke: #A80036; stroke-width: 1.0;"/><path d="M331.5431,30.1431 Q330.9621,30.4419 330.3229,30.5913 Q329.6838,30.7407 328.9782,30.7407 Q326.4714,30.7407 325.1515,29.0889 Q323.8317,27.437 323.8317,24.3159 Q323.8317,21.1865 325.1515,19.5347 Q326.4714,17.8828 328.9782,17.8828 Q329.6838,17.8828 330.3312,18.0322 Q330.9787,18.1816 331.5431,18.4805 L331.5431,21.2031 Q330.9123,20.6221 330.3188,20.3523 Q329.7253,20.0825 329.0944,20.0825 Q327.7497,20.0825 327.0649,21.1492 Q326.3801,22.2158 326.3801,24.3159 Q326.3801,26.4077 327.0649,27.4744 Q327.7497,28.541 329.0944,28.541 Q329.7253,28.541 330.3188,28.2712 Q330.9123,28.0015 331.5431,27.4204 Z "/><text fill="#000000" font-family="sans-serif" font-size="12" lengthAdjust="spacingAndGlyphs" textLength="23" x="343.87" y="28.5352">HAL</text><line style="stroke: #A80036; stroke-width: 1.5;" x1="311.47" x2="372.47" y1="40" y2="40"/><text fill="#000000" font-family="sans-serif" font-size="11" lengthAdjust="spacingAndGlyphs" textLength="51" x="316.47" y="54.6348">timer_cfg</text><line style="stroke: #A80036; stroke-width: 1.5;" x1="311.47" x2="372.47" y1="60.9551" y2="60.9551"/><text fill="#000000" font-family="sans-serif" font-size="11" lengthAdjust="spacingAndGlyphs" textLength="25" x="316.47" y="75.5898">init()</text><text fill="#000000" font-family="sans-serif" font-size="11" lengthAdjust="spacingAndGlyphs" textLength="38" x="316.47" y="88.5449">deinit()</text><!--MD5=[eb672f161971a32a28c99da6c0336b3d]
class LL_power--><rect fill="#FEFECE" filter="url(#fdys2ilr7ak1r)" height="48" id="LL_power" style="stroke: #A80036; stroke-width: 1.5;" width="86" x="298.97" y="336.5"/><ellipse cx="313.97" cy="352.5" fill="#ADD1B2" rx="11" ry="11" style="stroke: #A80036; stroke-width: 1.0;"/><path d="M316.4431,358.6431 Q315.8621,358.9419 315.2229,359.0913 Q314.5838,359.2407 313.8782,359.2407 Q311.3714,359.2407 310.0515,357.5889 Q308.7317,355.937 308.7317,352.8159 Q308.7317,349.6865 310.0515,348.0347 Q311.3714,346.3828 313.8782,346.3828 Q314.5838,346.3828 315.2312,346.5322 Q315.8787,346.6816 316.4431,346.9805 L316.4431,349.7031 Q315.8123,349.1221 315.2188,348.8523 Q314.6253,348.5825 313.9944,348.5825 Q312.6497,348.5825 311.9649,349.6492 Q311.2801,350.7158 311.2801,352.8159 Q311.2801,354.9077 311.9649,355.9744 Q312.6497,357.041 313.9944,357.041 Q314.6253,357.041 315.2188,356.7712 Q315.8123,356.5015 316.4431,355.9204 Z "/><text fill="#000000" font-family="sans-serif" font-size="12" lengthAdjust="spacingAndGlyphs" textLength="54" x="327.97" y="357.0352">LL_power</text><line style="stroke: #A80036; stroke-width: 1.5;" x1="299.97" x2="383.97" y1="368.5" y2="368.5"/><line style="stroke: #A80036; stroke-width: 1.5;" x1="299.97" x2="383.97" y1="376.5" y2="376.5"/><!--MD5=[8b0caf15fab33df914d6885d5506f67f]
class LL_clock--><rect fill="#FEFECE" filter="url(#fdys2ilr7ak1r)" height="48" id="LL_clock" style="stroke: #A80036; stroke-width: 1.5;" width="79" x="420.47" y="336.5"/><ellipse cx="435.47" cy="352.5" fill="#ADD1B2" rx="11" ry="11" style="stroke: #A80036; stroke-width: 1.0;"/><path d="M437.9431,358.6431 Q437.3621,358.9419 436.7229,359.0913 Q436.0838,359.2407 435.3782,359.2407 Q432.8714,359.2407 431.5515,357.5889 Q430.2317,355.937 430.2317,352.8159 Q430.2317,349.6865 431.5515,348.0347 Q432.8714,346.3828 435.3782,346.3828 Q436.0838,346.3828 436.7312,346.5322 Q437.3787,346.6816 437.9431,346.9805 L437.9431,349.7031 Q437.3123,349.1221 436.7188,348.8523 Q436.1253,348.5825 435.4944,348.5825 Q434.1497,348.5825 433.4649,349.6492 Q432.7801,350.7158 432.7801,352.8159 Q432.7801,354.9077 433.4649,355.9744 Q434.1497,357.041 435.4944,357.041 Q436.1253,357.041 436.7188,356.7712 Q437.3123,356.5015 437.9431,355.9204 Z "/><text fill="#000000" font-family="sans-serif" font-size="12" lengthAdjust="spacingAndGlyphs" textLength="47" x="449.47" y="357.0352">LL_clock</text><line style="stroke: #A80036; stroke-width: 1.5;" x1="421.47" x2="498.47" y1="368.5" y2="368.5"/><line style="stroke: #A80036; stroke-width: 1.5;" x1="421.47" x2="498.47" y1="376.5" y2="376.5"/><!--MD5=[831aefa9ebd008f9dae82517425faefb]
class IRQ--><rect fill="#FEFECE" filter="url(#fdys2ilr7ak1r)" height="48" id="IRQ" style="stroke: #A80036; stroke-width: 1.5;" width="52" x="534.97" y="336.5"/><ellipse cx="549.97" cy="352.5" fill="#ADD1B2" rx="11" ry="11" style="stroke: #A80036; stroke-width: 1.0;"/><path d="M552.4431,358.6431 Q551.8621,358.9419 551.2229,359.0913 Q550.5838,359.2407 549.8782,359.2407 Q547.3714,359.2407 546.0515,357.5889 Q544.7317,355.937 544.7317,352.8159 Q544.7317,349.6865 546.0515,348.0347 Q547.3714,346.3828 549.8782,346.3828 Q550.5838,346.3828 551.2312,346.5322 Q551.8787,346.6816 552.4431,346.9805 L552.4431,349.7031 Q551.8123,349.1221 551.2188,348.8523 Q550.6253,348.5825 549.9944,348.5825 Q548.6497,348.5825 547.9649,349.6492 Q547.2801,350.7158 547.2801,352.8159 Q547.2801,354.9077 547.9649,355.9744 Q548.6497,357.041 549.9944,357.041 Q550.6253,357.041 551.2188,356.7712 Q551.8123,356.5015 552.4431,355.9204 Z "/><text fill="#000000" font-family="sans-serif" font-size="12" lengthAdjust="spacingAndGlyphs" textLength="20" x="563.97" y="357.0352">IRQ</text><line style="stroke: #A80036; stroke-width: 1.5;" x1="535.97" x2="585.97" y1="368.5" y2="368.5"/><line style="stroke: #A80036; stroke-width: 1.5;" x1="535.97" x2="585.97" y1="376.5" y2="376.5"/><!--MD5=[67e08f33a693c3eb3ad8aa491d852591]
link HAL to Timer--><path d="M310.39,53.39 C250.88,56.99 123.06,74.23 66.97,155 C-24.06,286.08 3.88,473.71 42.46,606.3 " fill="none" id="HAL-&gt;Timer" style="stroke: #A80036; stroke-width: 1.0; stroke-dasharray: 7.0,7.0;"/><polygon fill="none" points="49.28,604.68,48.34,625.85,35.88,608.72,49.28,604.68" style="stroke: #A80036; stroke-width: 1.0;"/><!--MD5=[7c42b4011aa728296f409c876b3a9cd7]
link HAL to LL--><path d="M316.44,95.15 C305.62,113.47 292.99,135.18 281.97,155 C276.72,164.43 271.38,174.14 266.03,183.96 " fill="none" id="HAL-&gt;LL" style="stroke: #A80036; stroke-width: 1.0;"/><polygon fill="#A80036" points="263.57,188.48,271.3844,182.4854,265.9592,184.0878,264.3569,178.6626,263.57,188.48" style="stroke: #A80036; stroke-width: 1.0;"/><!--MD5=[f481892d08b88046121823827ef5b6c7]
link HAL to LL_power--><path d="M341.97,95.19 C341.97,158.87 341.97,277.04 341.97,331.13 " fill="none" id="HAL-&gt;LL_power" style="stroke: #A80036; stroke-width: 1.0; stroke-dasharray: 7.0,7.0;"/><polygon fill="#A80036" points="341.97,336.17,345.97,327.17,341.97,331.17,337.97,327.17,341.97,336.17" style="stroke: #A80036; stroke-width: 1.0;"/><!--MD5=[03027760a4a69a9b5b7ae20cb535c4e1]
link HAL to LL_clock--><path d="M370.73,95.05 C381.94,112.98 394.17,134.44 402.97,155 C428.84,215.48 446.35,291.03 454.57,331.24 " fill="none" id="HAL-&gt;LL_clock" style="stroke: #A80036; stroke-width: 1.0; stroke-dasharray: 7.0,7.0;"/><polygon fill="#A80036" points="455.62,336.44,457.7396,326.8219,454.6202,331.541,449.9011,328.4216,455.62,336.44" style="stroke: #A80036; stroke-width: 1.0;"/><!--MD5=[aa119ece880843938e062c5ac955c7c5]
link HAL to IRQ--><path d="M373.62,62.16 C413.5,76.02 481.15,105.51 516.97,155 C555.55,208.32 561.56,288.65 561.77,331.01 " fill="none" id="HAL-&gt;IRQ" style="stroke: #A80036; stroke-width: 1.0; stroke-dasharray: 7.0,7.0;"/><polygon fill="#A80036" points="561.77,336.24,565.7957,327.2515,561.7843,331.24,557.7957,327.2286,561.77,336.24" style="stroke: #A80036; stroke-width: 1.0;"/><!--MD5=[5dd7d1716160dcfa14d2bbcb4b833c12]
link LL to Timer--><path d="M137.49,566.16 C134.19,584.66 130.9,603.13 127.73,620.94 " fill="none" id="LL-&gt;Timer" style="stroke: #A80036; stroke-width: 1.0;"/><polygon fill="#A80036" points="126.84,625.95,132.3688,617.7994,127.7244,621.0288,124.495,616.3844,126.84,625.95" style="stroke: #A80036; stroke-width: 1.0;"/><!--MD5=[1947f4a7e444e8271d7d19a3b93a39f7]
@startuml
interface Timer {
	mode_t
	cc_t
	cc_mode_t
	event_t
	edge_t

	start()
	stop()
	clear_event()
	get_event()
	set_reload()
	get_reload()
	set_cc()
	get_cc()
	enable_cc_pin()
	disable_cc_pin()
	set_cc_pin()
	set_cc_pin_mode()
	set_cc_polarity()
}

class LL {
	reset()
	set_mode()
	set_prescaler()
	enable_irq()
	disable_irq()
	get_frequency()
	set_clock_divider()
	set_counter()
	get_counter()
	set_reload()
	get_reload()
	clear_event()
	get_event()
	start()
	stop()
	set_cc()
	get_cc()
	enable_cc_pin()
	disable_cc_pin()
	set_cc_pin()
	set_cc_pin_mode()
	set_cc_polarity()
	enable_cc_preload()
	disable_cc_preload()
	enable_cc_fastmode()
	disable_cc_fastmode()
	set_counter_direction()
	set_counter_alignment_mode()
}

class HAL {
	timer_cfg

	init()
	deinit()
}

HAL ..|> Timer
HAL - -> LL
HAL ..> LL_power
HAL ..> LL_clock
HAL ..> IRQ
LL - -> Timer
@enduml

PlantUML version 1.2019.13(Wed Dec 11 02:18:29 KST 2019)
(GPL source distribution)
Java Runtime: Java(TM) SE Runtime Environment
JVM: Java HotSpot(TM) 64-Bit Server VM
Java Version: 15+36-1562
Operating System: Mac OS X
Default Encoding: UTF-8
Language: en
Country: KR
--></g></svg>