<?xml version="1.0" encoding="UTF-8" standalone="no"?><svg xmlns="http://www.w3.org/2000/svg" xmlns:xlink="http://www.w3.org/1999/xlink" contentScriptType="application/ecmascript" contentStyleType="text/css" height="628px" preserveAspectRatio="none" style="width:519px;height:628px;" version="1.1" viewBox="0 0 519 628" width="519px" zoomAndPan="magnify"><defs><filter height="300%" id="f7zzvldodqzuq" width="300%" x="-1" y="-1"><feGaussianBlur result="blurOut" stdDeviation="2.0"/><feColorMatrix in="blurOut" result="blurOut2" type="matrix" values="0 0 0 0 0 0 0 0 0 0 0 0 0 0 0 0 0 0 .4 0"/><feOffset dx="4.0" dy="4.0" in="blurOut2" result="blurOut3"/><feBlend in="SourceGraphic" in2="blurOut3" mode="normal"/></filter></defs><g><!--MD5=[1b844c90688aafb95cd8c95626c3b83a]
class Timer--><rect fill="#FEFECE" filter="url(#f7zzvldodqzuq)" height="462.5625" id="Timer" style="stroke: #A80036; stroke-width: 1.5;" width="179" x="6" y="155"/><ellipse cx="74.25" cy="171" fill="#B4A7E5" rx="11" ry="11" style="stroke: #A80036; stroke-width: 1.0;"/><path d="M70.6777,167.2651 L70.6777,165.1069 L78.0571,165.1069 L78.0571,167.2651 L75.5918,167.2651 L75.5918,175.3418 L78.0571,175.3418 L78.0571,177.5 L70.6777,177.5 L70.6777,175.3418 L73.1431,175.3418 L73.1431,167.2651 Z "/><text fill="#000000" font-family="sans-serif" font-size="12" font-style="italic" lengthAdjust="spacingAndGlyphs" textLength="34" x="94.75" y="175.5352">Timer</text><line style="stroke: #A80036; stroke-width: 1.5;" x1="7" x2="184" y1="187" y2="187"/><line style="stroke: #A80036; stroke-width: 1.5;" x1="7" x2="184" y1="195" y2="195"/><text fill="#000000" font-family="sans-serif" font-size="11" lengthAdjust="spacingAndGlyphs" textLength="35" x="12" y="209.6348">reset()</text><text fill="#000000" font-family="sans-serif" font-size="11" lengthAdjust="spacingAndGlyphs" textLength="60" x="12" y="222.5898">set_mode()</text><text fill="#000000" font-family="sans-serif" font-size="11" lengthAdjust="spacingAndGlyphs" textLength="80" x="12" y="235.5449">set_prescaler()</text><text fill="#000000" font-family="sans-serif" font-size="11" lengthAdjust="spacingAndGlyphs" textLength="81" x="12" y="248.5">get_prescaler()</text><text fill="#000000" font-family="sans-serif" font-size="11" lengthAdjust="spacingAndGlyphs" textLength="64" x="12" y="261.4551">enable_irq()</text><text fill="#000000" font-family="sans-serif" font-size="11" lengthAdjust="spacingAndGlyphs" textLength="67" x="12" y="274.4102">disable_irq()</text><text fill="#000000" font-family="sans-serif" font-size="11" lengthAdjust="spacingAndGlyphs" textLength="85" x="12" y="287.3652">get_frequency()</text><text fill="#000000" font-family="sans-serif" font-size="11" lengthAdjust="spacingAndGlyphs" textLength="101" x="12" y="300.3203">set_clock_divider()</text><text fill="#000000" font-family="sans-serif" font-size="11" lengthAdjust="spacingAndGlyphs" textLength="72" x="12" y="313.2754">set_counter()</text><text fill="#000000" font-family="sans-serif" font-size="11" lengthAdjust="spacingAndGlyphs" textLength="73" x="12" y="326.2305">get_counter()</text><text fill="#000000" font-family="sans-serif" font-size="11" lengthAdjust="spacingAndGlyphs" textLength="64" x="12" y="339.1855">set_reload()</text><text fill="#000000" font-family="sans-serif" font-size="11" lengthAdjust="spacingAndGlyphs" textLength="65" x="12" y="352.1406">get_reload()</text><text fill="#000000" font-family="sans-serif" font-size="11" lengthAdjust="spacingAndGlyphs" textLength="69" x="12" y="365.0957">clear_event()</text><text fill="#000000" font-family="sans-serif" font-size="11" lengthAdjust="spacingAndGlyphs" textLength="60" x="12" y="378.0508">get_event()</text><text fill="#000000" font-family="sans-serif" font-size="11" lengthAdjust="spacingAndGlyphs" textLength="33" x="12" y="391.0059">start()</text><text fill="#000000" font-family="sans-serif" font-size="11" lengthAdjust="spacingAndGlyphs" textLength="32" x="12" y="403.9609">stop()</text><text fill="#000000" font-family="sans-serif" font-size="11" lengthAdjust="spacingAndGlyphs" textLength="42" x="12" y="416.916">set_cc()</text><text fill="#000000" font-family="sans-serif" font-size="11" lengthAdjust="spacingAndGlyphs" textLength="43" x="12" y="429.8711">get_cc()</text><text fill="#000000" font-family="sans-serif" font-size="11" lengthAdjust="spacingAndGlyphs" textLength="84" x="12" y="442.8262">enable_cc_pin()</text><text fill="#000000" font-family="sans-serif" font-size="11" lengthAdjust="spacingAndGlyphs" textLength="87" x="12" y="455.7813">disable_cc_pin()</text><text fill="#000000" font-family="sans-serif" font-size="11" lengthAdjust="spacingAndGlyphs" textLength="65" x="12" y="468.7363">set_cc_pin()</text><text fill="#000000" font-family="sans-serif" font-size="11" lengthAdjust="spacingAndGlyphs" textLength="101" x="12" y="481.6914">set_cc_pin_mode()</text><text fill="#000000" font-family="sans-serif" font-size="11" lengthAdjust="spacingAndGlyphs" textLength="89" x="12" y="494.6465">set_cc_polarity()</text><text fill="#000000" font-family="sans-serif" font-size="11" lengthAdjust="spacingAndGlyphs" textLength="108" x="12" y="507.6016">enable_cc_preload()</text><text fill="#000000" font-family="sans-serif" font-size="11" lengthAdjust="spacingAndGlyphs" textLength="111" x="12" y="520.5566">disable_cc_preload()</text><text fill="#000000" font-family="sans-serif" font-size="11" lengthAdjust="spacingAndGlyphs" textLength="117" x="12" y="533.5117">enable_cc_fastmode()</text><text fill="#000000" font-family="sans-serif" font-size="11" lengthAdjust="spacingAndGlyphs" textLength="120" x="12" y="546.4668">disable_cc_fastmode()</text><text fill="#000000" font-family="sans-serif" font-size="11" lengthAdjust="spacingAndGlyphs" textLength="98" x="12" y="559.4219">set_cc_prescaler()</text><text fill="#000000" font-family="sans-serif" font-size="11" lengthAdjust="spacingAndGlyphs" textLength="73" x="12" y="572.377">set_cc_filter()</text><text fill="#000000" font-family="sans-serif" font-size="11" lengthAdjust="spacingAndGlyphs" textLength="126" x="12" y="585.332">set_counter_direction()</text><text fill="#000000" font-family="sans-serif" font-size="11" lengthAdjust="spacingAndGlyphs" textLength="167" x="12" y="598.2871">set_counter_alignment_mode()</text><text fill="#000000" font-family="sans-serif" font-size="11" lengthAdjust="spacingAndGlyphs" textLength="93" x="12" y="611.2422">set_slave_mode()</text><!--MD5=[be3765a8ee426731c4981c30c0d20f09]
class HAL--><rect fill="#FEFECE" filter="url(#f7zzvldodqzuq)" height="86.8652" id="HAL" style="stroke: #A80036; stroke-width: 1.5;" width="63" x="291" y="8"/><ellipse cx="309.6" cy="24" fill="#ADD1B2" rx="11" ry="11" style="stroke: #A80036; stroke-width: 1.0;"/><path d="M312.0731,30.1431 Q311.4921,30.4419 310.8529,30.5913 Q310.2138,30.7407 309.5082,30.7407 Q307.0014,30.7407 305.6815,29.0889 Q304.3617,27.437 304.3617,24.3159 Q304.3617,21.1865 305.6815,19.5347 Q307.0014,17.8828 309.5082,17.8828 Q310.2138,17.8828 310.8612,18.0322 Q311.5087,18.1816 312.0731,18.4805 L312.0731,21.2031 Q311.4423,20.6221 310.8488,20.3523 Q310.2553,20.0825 309.6244,20.0825 Q308.2797,20.0825 307.5949,21.1492 Q306.9101,22.2158 306.9101,24.3159 Q306.9101,26.4077 307.5949,27.4744 Q308.2797,28.541 309.6244,28.541 Q310.2553,28.541 310.8488,28.2712 Q311.4423,28.0015 312.0731,27.4204 Z "/><text fill="#000000" font-family="sans-serif" font-size="12" lengthAdjust="spacingAndGlyphs" textLength="23" x="324.4" y="28.5352">HAL</text><line style="stroke: #A80036; stroke-width: 1.5;" x1="292" x2="353" y1="40" y2="40"/><text fill="#000000" font-family="sans-serif" font-size="11" lengthAdjust="spacingAndGlyphs" textLength="51" x="297" y="54.6348">timer_cfg</text><line style="stroke: #A80036; stroke-width: 1.5;" x1="292" x2="353" y1="60.9551" y2="60.9551"/><text fill="#000000" font-family="sans-serif" font-size="11" lengthAdjust="spacingAndGlyphs" textLength="25" x="297" y="75.5898">init()</text><text fill="#000000" font-family="sans-serif" font-size="11" lengthAdjust="spacingAndGlyphs" textLength="38" x="297" y="88.5449">deinit()</text><!--MD5=[b3c4cffaebeb1ca91d3860615de3212f]
class LL--><rect fill="#FEFECE" filter="url(#f7zzvldodqzuq)" height="48" id="LL" style="stroke: #A80036; stroke-width: 1.5;" width="44" x="73.5" y="27.5"/><ellipse cx="88.5" cy="43.5" fill="#ADD1B2" rx="11" ry="11" style="stroke: #A80036; stroke-width: 1.0;"/><path d="M90.9731,49.6431 Q90.3921,49.9419 89.7529,50.0913 Q89.1138,50.2407 88.4082,50.2407 Q85.9014,50.2407 84.5815,48.5889 Q83.2617,46.937 83.2617,43.8159 Q83.2617,40.6865 84.5815,39.0347 Q85.9014,37.3828 88.4082,37.3828 Q89.1138,37.3828 89.7612,37.5322 Q90.4087,37.6816 90.9731,37.9805 L90.9731,40.7031 Q90.3423,40.1221 89.7488,39.8523 Q89.1553,39.5825 88.5244,39.5825 Q87.1797,39.5825 86.4949,40.6492 Q85.8101,41.7158 85.8101,43.8159 Q85.8101,45.9077 86.4949,46.9744 Q87.1797,48.041 88.5244,48.041 Q89.1553,48.041 89.7488,47.7712 Q90.3423,47.5015 90.9731,46.9204 Z "/><text fill="#000000" font-family="sans-serif" font-size="12" lengthAdjust="spacingAndGlyphs" textLength="12" x="102.5" y="48.0352">LL</text><line style="stroke: #A80036; stroke-width: 1.5;" x1="74.5" x2="116.5" y1="59.5" y2="59.5"/><line style="stroke: #A80036; stroke-width: 1.5;" x1="74.5" x2="116.5" y1="67.5" y2="67.5"/><!--MD5=[eb672f161971a32a28c99da6c0336b3d]
class LL_power--><rect fill="#FEFECE" filter="url(#f7zzvldodqzuq)" height="48" id="LL_power" style="stroke: #A80036; stroke-width: 1.5;" width="86" x="220.5" y="362.5"/><ellipse cx="235.5" cy="378.5" fill="#ADD1B2" rx="11" ry="11" style="stroke: #A80036; stroke-width: 1.0;"/><path d="M237.9731,384.6431 Q237.3921,384.9419 236.7529,385.0913 Q236.1138,385.2407 235.4082,385.2407 Q232.9014,385.2407 231.5815,383.5889 Q230.2617,381.937 230.2617,378.8159 Q230.2617,375.6865 231.5815,374.0347 Q232.9014,372.3828 235.4082,372.3828 Q236.1138,372.3828 236.7612,372.5322 Q237.4087,372.6816 237.9731,372.9805 L237.9731,375.7031 Q237.3423,375.1221 236.7488,374.8523 Q236.1553,374.5825 235.5244,374.5825 Q234.1797,374.5825 233.4949,375.6492 Q232.8101,376.7158 232.8101,378.8159 Q232.8101,380.9077 233.4949,381.9744 Q234.1797,383.041 235.5244,383.041 Q236.1553,383.041 236.7488,382.7712 Q237.3423,382.5015 237.9731,381.9204 Z "/><text fill="#000000" font-family="sans-serif" font-size="12" lengthAdjust="spacingAndGlyphs" textLength="54" x="249.5" y="383.0352">LL_power</text><line style="stroke: #A80036; stroke-width: 1.5;" x1="221.5" x2="305.5" y1="394.5" y2="394.5"/><line style="stroke: #A80036; stroke-width: 1.5;" x1="221.5" x2="305.5" y1="402.5" y2="402.5"/><!--MD5=[8b0caf15fab33df914d6885d5506f67f]
class LL_clock--><rect fill="#FEFECE" filter="url(#f7zzvldodqzuq)" height="48" id="LL_clock" style="stroke: #A80036; stroke-width: 1.5;" width="79" x="342" y="362.5"/><ellipse cx="357" cy="378.5" fill="#ADD1B2" rx="11" ry="11" style="stroke: #A80036; stroke-width: 1.0;"/><path d="M359.4731,384.6431 Q358.8921,384.9419 358.2529,385.0913 Q357.6138,385.2407 356.9082,385.2407 Q354.4014,385.2407 353.0815,383.5889 Q351.7617,381.937 351.7617,378.8159 Q351.7617,375.6865 353.0815,374.0347 Q354.4014,372.3828 356.9082,372.3828 Q357.6138,372.3828 358.2612,372.5322 Q358.9087,372.6816 359.4731,372.9805 L359.4731,375.7031 Q358.8423,375.1221 358.2488,374.8523 Q357.6553,374.5825 357.0244,374.5825 Q355.6797,374.5825 354.9949,375.6492 Q354.3101,376.7158 354.3101,378.8159 Q354.3101,380.9077 354.9949,381.9744 Q355.6797,383.041 357.0244,383.041 Q357.6553,383.041 358.2488,382.7712 Q358.8423,382.5015 359.4731,381.9204 Z "/><text fill="#000000" font-family="sans-serif" font-size="12" lengthAdjust="spacingAndGlyphs" textLength="47" x="371" y="383.0352">LL_clock</text><line style="stroke: #A80036; stroke-width: 1.5;" x1="343" x2="420" y1="394.5" y2="394.5"/><line style="stroke: #A80036; stroke-width: 1.5;" x1="343" x2="420" y1="402.5" y2="402.5"/><!--MD5=[831aefa9ebd008f9dae82517425faefb]
class IRQ--><rect fill="#FEFECE" filter="url(#f7zzvldodqzuq)" height="48" id="IRQ" style="stroke: #A80036; stroke-width: 1.5;" width="52" x="456.5" y="362.5"/><ellipse cx="471.5" cy="378.5" fill="#ADD1B2" rx="11" ry="11" style="stroke: #A80036; stroke-width: 1.0;"/><path d="M473.9731,384.6431 Q473.3921,384.9419 472.7529,385.0913 Q472.1138,385.2407 471.4082,385.2407 Q468.9014,385.2407 467.5815,383.5889 Q466.2617,381.937 466.2617,378.8159 Q466.2617,375.6865 467.5815,374.0347 Q468.9014,372.3828 471.4082,372.3828 Q472.1138,372.3828 472.7612,372.5322 Q473.4087,372.6816 473.9731,372.9805 L473.9731,375.7031 Q473.3423,375.1221 472.7488,374.8523 Q472.1553,374.5825 471.5244,374.5825 Q470.1797,374.5825 469.4949,375.6492 Q468.8101,376.7158 468.8101,378.8159 Q468.8101,380.9077 469.4949,381.9744 Q470.1797,383.041 471.5244,383.041 Q472.1553,383.041 472.7488,382.7712 Q473.3423,382.5015 473.9731,381.9204 Z "/><text fill="#000000" font-family="sans-serif" font-size="12" lengthAdjust="spacingAndGlyphs" textLength="20" x="485.5" y="383.0352">IRQ</text><line style="stroke: #A80036; stroke-width: 1.5;" x1="457.5" x2="507.5" y1="394.5" y2="394.5"/><line style="stroke: #A80036; stroke-width: 1.5;" x1="457.5" x2="507.5" y1="402.5" y2="402.5"/><!--MD5=[5dd7d1716160dcfa14d2bbcb4b833c12]
link LL to Timer--><path d="M95.5,75.65 C95.5,90.3 95.5,110.93 95.5,134.66 " fill="none" id="LL-&gt;Timer" style="stroke: #A80036; stroke-width: 1.0; stroke-dasharray: 7.0,7.0;"/><polygon fill="none" points="102.5,134.78,95.5,154.78,88.5,134.78,102.5,134.78" style="stroke: #A80036; stroke-width: 1.0;"/><!--MD5=[67e08f33a693c3eb3ad8aa491d852591]
link HAL to Timer--><path d="M290.9,73.91 C264.83,92.82 228.22,122.41 203.5,155 C198.09,162.13 192.86,169.57 187.82,177.24 " fill="none" id="HAL-&gt;Timer" style="stroke: #A80036; stroke-width: 1.0;"/><polygon fill="#A80036" points="185.04,181.52,193.3057,176.1649,187.7705,177.3314,186.6039,171.7961,185.04,181.52" style="stroke: #A80036; stroke-width: 1.0;"/><!--MD5=[f481892d08b88046121823827ef5b6c7]
link HAL to LL_power--><path d="M314.97,95.01 C302.72,164.11 278.84,298.95 268.48,357.38 " fill="none" id="HAL-&gt;LL_power" style="stroke: #A80036; stroke-width: 1.0;"/><polygon fill="#A80036" points="267.58,362.46,273.0859,354.2939,268.4506,357.5364,265.2081,352.901,267.58,362.46" style="stroke: #A80036; stroke-width: 1.0;"/><!--MD5=[03027760a4a69a9b5b7ae20cb535c4e1]
link HAL to LL_clock--><path d="M330.03,95.01 C342.28,164.11 366.16,298.95 376.52,357.38 " fill="none" id="HAL-&gt;LL_clock" style="stroke: #A80036; stroke-width: 1.0;"/><polygon fill="#A80036" points="377.42,362.46,379.7919,352.901,376.5494,357.5364,371.9141,354.2939,377.42,362.46" style="stroke: #A80036; stroke-width: 1.0;"/><!--MD5=[aa119ece880843938e062c5ac955c7c5]
link HAL to IRQ--><path d="M354.1,71.75 C380.93,89.83 418.21,119.39 438.5,155 C475.78,220.44 482.16,311.58 482.83,357.16 " fill="none" id="HAL-&gt;IRQ" style="stroke: #A80036; stroke-width: 1.0;"/><polygon fill="#A80036" points="482.89,362.23,486.7869,353.1849,482.8329,357.2303,478.7874,353.2763,482.89,362.23" style="stroke: #A80036; stroke-width: 1.0;"/><!--MD5=[f45e34dd4d1571a6287f776f2a7d29ca]
@startuml
interface Timer {
	reset()
	set_mode()
	set_prescaler()
	get_prescaler()
	enable_irq()
	disable_irq()
	get_frequency()
	set_clock_divider()
	set_counter()
	get_counter()
	set_reload()
	get_reload()
	clear_event()
	get_event()
	start()
	stop()
	set_cc()
	get_cc()
	enable_cc_pin()
	disable_cc_pin()
	set_cc_pin()
	set_cc_pin_mode()
	set_cc_polarity()
	enable_cc_preload()
	disable_cc_preload()
	enable_cc_fastmode()
	disable_cc_fastmode()
	set_cc_prescaler()
	set_cc_filter()
	set_counter_direction()
	set_counter_alignment_mode()
	set_slave_mode()
}

class HAL {
	timer_cfg

	init()
	deinit()
}

LL ..|> Timer
HAL - -> Timer
HAL - -> LL_power
HAL - -> LL_clock
HAL - -> IRQ
@enduml

PlantUML version 1.2019.13(Wed Dec 11 02:18:29 KST 2019)
(GPL source distribution)
Java Runtime: Java(TM) SE Runtime Environment
JVM: Java HotSpot(TM) 64-Bit Server VM
Java Version: 15+36-1562
Operating System: Mac OS X
Default Encoding: UTF-8
Language: en
Country: KR
--></g></svg>