<?xml version="1.0" encoding="UTF-8" standalone="no"?><svg xmlns="http://www.w3.org/2000/svg" xmlns:xlink="http://www.w3.org/1999/xlink" contentScriptType="application/ecmascript" contentStyleType="text/css" height="996px" preserveAspectRatio="none" style="width:605px;height:996px;" version="1.1" viewBox="0 0 605 996" width="605px" zoomAndPan="magnify"><defs><filter height="300%" id="f178rd4ctgf4q" width="300%" x="-1" y="-1"><feGaussianBlur result="blurOut" stdDeviation="2.0"/><feColorMatrix in="blurOut" result="blurOut2" type="matrix" values="0 0 0 0 0 0 0 0 0 0 0 0 0 0 0 0 0 0 .4 0"/><feOffset dx="4.0" dy="4.0" in="blurOut2" result="blurOut3"/><feBlend in="SourceGraphic" in2="blurOut3" mode="normal"/></filter></defs><g><!--MD5=[1b844c90688aafb95cd8c95626c3b83a]
class Timer--><rect fill="#FEFECE" filter="url(#f178rd4ctgf4q)" height="307.1016" id="Timer" style="stroke: #A80036; stroke-width: 1.5;" width="113" x="52.73" y="678"/><ellipse cx="88.88" cy="694" fill="#B4A7E5" rx="11" ry="11" style="stroke: #A80036; stroke-width: 1.0;"/><path d="M85.3077,690.2651 L85.3077,688.1069 L92.6871,688.1069 L92.6871,690.2651 L90.2218,690.2651 L90.2218,698.3418 L92.6871,698.3418 L92.6871,700.5 L85.3077,700.5 L85.3077,698.3418 L87.7731,698.3418 L87.7731,690.2651 Z "/><text fill="#000000" font-family="sans-serif" font-size="12" font-style="italic" lengthAdjust="spacingAndGlyphs" textLength="34" x="107.58" y="698.5352">Timer</text><line style="stroke: #A80036; stroke-width: 1.5;" x1="53.73" x2="164.73" y1="710" y2="710"/><text fill="#000000" font-family="sans-serif" font-size="11" lengthAdjust="spacingAndGlyphs" textLength="40" x="58.73" y="724.6348">mode_t</text><text fill="#000000" font-family="sans-serif" font-size="11" lengthAdjust="spacingAndGlyphs" textLength="22" x="58.73" y="737.5898">cc_t</text><text fill="#000000" font-family="sans-serif" font-size="11" lengthAdjust="spacingAndGlyphs" textLength="58" x="58.73" y="750.5449">cc_mode_t</text><text fill="#000000" font-family="sans-serif" font-size="11" lengthAdjust="spacingAndGlyphs" textLength="39" x="58.73" y="763.5">event_t</text><text fill="#000000" font-family="sans-serif" font-size="11" lengthAdjust="spacingAndGlyphs" textLength="36" x="58.73" y="776.4551">edge_t</text><line style="stroke: #A80036; stroke-width: 1.5;" x1="53.73" x2="164.73" y1="782.7754" y2="782.7754"/><text fill="#000000" font-family="sans-serif" font-size="11" lengthAdjust="spacingAndGlyphs" textLength="33" x="58.73" y="797.4102">start()</text><text fill="#000000" font-family="sans-serif" font-size="11" lengthAdjust="spacingAndGlyphs" textLength="32" x="58.73" y="810.3652">stop()</text><text fill="#000000" font-family="sans-serif" font-size="11" lengthAdjust="spacingAndGlyphs" textLength="69" x="58.73" y="823.3203">clear_event()</text><text fill="#000000" font-family="sans-serif" font-size="11" lengthAdjust="spacingAndGlyphs" textLength="60" x="58.73" y="836.2754">get_event()</text><text fill="#000000" font-family="sans-serif" font-size="11" lengthAdjust="spacingAndGlyphs" textLength="80" x="58.73" y="849.2305">set_prescaler()</text><text fill="#000000" font-family="sans-serif" font-size="11" lengthAdjust="spacingAndGlyphs" textLength="81" x="58.73" y="862.1855">get_prescaler()</text><text fill="#000000" font-family="sans-serif" font-size="11" lengthAdjust="spacingAndGlyphs" textLength="64" x="58.73" y="875.1406">set_reload()</text><text fill="#000000" font-family="sans-serif" font-size="11" lengthAdjust="spacingAndGlyphs" textLength="65" x="58.73" y="888.0957">get_reload()</text><text fill="#000000" font-family="sans-serif" font-size="11" lengthAdjust="spacingAndGlyphs" textLength="42" x="58.73" y="901.0508">set_cc()</text><text fill="#000000" font-family="sans-serif" font-size="11" lengthAdjust="spacingAndGlyphs" textLength="43" x="58.73" y="914.0059">get_cc()</text><text fill="#000000" font-family="sans-serif" font-size="11" lengthAdjust="spacingAndGlyphs" textLength="84" x="58.73" y="926.9609">enable_cc_pin()</text><text fill="#000000" font-family="sans-serif" font-size="11" lengthAdjust="spacingAndGlyphs" textLength="87" x="58.73" y="939.916">disable_cc_pin()</text><text fill="#000000" font-family="sans-serif" font-size="11" lengthAdjust="spacingAndGlyphs" textLength="65" x="58.73" y="952.8711">set_cc_pin()</text><text fill="#000000" font-family="sans-serif" font-size="11" lengthAdjust="spacingAndGlyphs" textLength="101" x="58.73" y="965.8262">set_cc_pin_mode()</text><text fill="#000000" font-family="sans-serif" font-size="11" lengthAdjust="spacingAndGlyphs" textLength="89" x="58.73" y="978.7813">set_cc_polarity()</text><!--MD5=[b3c4cffaebeb1ca91d3860615de3212f]
class LL--><rect fill="#FEFECE" filter="url(#f178rd4ctgf4q)" height="462.5625" id="LL" style="stroke: #A80036; stroke-width: 1.5;" width="179" x="91.73" y="155"/><ellipse cx="170.98" cy="171" fill="#ADD1B2" rx="11" ry="11" style="stroke: #A80036; stroke-width: 1.0;"/><path d="M173.4531,177.1431 Q172.8721,177.4419 172.2329,177.5913 Q171.5938,177.7407 170.8882,177.7407 Q168.3814,177.7407 167.0615,176.0889 Q165.7417,174.437 165.7417,171.3159 Q165.7417,168.1865 167.0615,166.5347 Q168.3814,164.8828 170.8882,164.8828 Q171.5938,164.8828 172.2412,165.0322 Q172.8887,165.1816 173.4531,165.4805 L173.4531,168.2031 Q172.8223,167.6221 172.2288,167.3523 Q171.6353,167.0825 171.0044,167.0825 Q169.6597,167.0825 168.9749,168.1492 Q168.2901,169.2158 168.2901,171.3159 Q168.2901,173.4077 168.9749,174.4744 Q169.6597,175.541 171.0044,175.541 Q171.6353,175.541 172.2288,175.2712 Q172.8223,175.0015 173.4531,174.4204 Z "/><text fill="#000000" font-family="sans-serif" font-size="12" lengthAdjust="spacingAndGlyphs" textLength="12" x="191.48" y="175.5352">LL</text><line style="stroke: #A80036; stroke-width: 1.5;" x1="92.73" x2="269.73" y1="187" y2="187"/><line style="stroke: #A80036; stroke-width: 1.5;" x1="92.73" x2="269.73" y1="195" y2="195"/><text fill="#000000" font-family="sans-serif" font-size="11" lengthAdjust="spacingAndGlyphs" textLength="35" x="97.73" y="209.6348">reset()</text><text fill="#000000" font-family="sans-serif" font-size="11" lengthAdjust="spacingAndGlyphs" textLength="60" x="97.73" y="222.5898">set_mode()</text><text fill="#000000" font-family="sans-serif" font-size="11" lengthAdjust="spacingAndGlyphs" textLength="80" x="97.73" y="235.5449">set_prescaler()</text><text fill="#000000" font-family="sans-serif" font-size="11" lengthAdjust="spacingAndGlyphs" textLength="81" x="97.73" y="248.5">get_prescaler()</text><text fill="#000000" font-family="sans-serif" font-size="11" lengthAdjust="spacingAndGlyphs" textLength="64" x="97.73" y="261.4551">enable_irq()</text><text fill="#000000" font-family="sans-serif" font-size="11" lengthAdjust="spacingAndGlyphs" textLength="67" x="97.73" y="274.4102">disable_irq()</text><text fill="#000000" font-family="sans-serif" font-size="11" lengthAdjust="spacingAndGlyphs" textLength="85" x="97.73" y="287.3652">get_frequency()</text><text fill="#000000" font-family="sans-serif" font-size="11" lengthAdjust="spacingAndGlyphs" textLength="101" x="97.73" y="300.3203">set_clock_divider()</text><text fill="#000000" font-family="sans-serif" font-size="11" lengthAdjust="spacingAndGlyphs" textLength="72" x="97.73" y="313.2754">set_counter()</text><text fill="#000000" font-family="sans-serif" font-size="11" lengthAdjust="spacingAndGlyphs" textLength="73" x="97.73" y="326.2305">get_counter()</text><text fill="#000000" font-family="sans-serif" font-size="11" lengthAdjust="spacingAndGlyphs" textLength="64" x="97.73" y="339.1855">set_reload()</text><text fill="#000000" font-family="sans-serif" font-size="11" lengthAdjust="spacingAndGlyphs" textLength="65" x="97.73" y="352.1406">get_reload()</text><text fill="#000000" font-family="sans-serif" font-size="11" lengthAdjust="spacingAndGlyphs" textLength="69" x="97.73" y="365.0957">clear_event()</text><text fill="#000000" font-family="sans-serif" font-size="11" lengthAdjust="spacingAndGlyphs" textLength="60" x="97.73" y="378.0508">get_event()</text><text fill="#000000" font-family="sans-serif" font-size="11" lengthAdjust="spacingAndGlyphs" textLength="33" x="97.73" y="391.0059">start()</text><text fill="#000000" font-family="sans-serif" font-size="11" lengthAdjust="spacingAndGlyphs" textLength="32" x="97.73" y="403.9609">stop()</text><text fill="#000000" font-family="sans-serif" font-size="11" lengthAdjust="spacingAndGlyphs" textLength="42" x="97.73" y="416.916">set_cc()</text><text fill="#000000" font-family="sans-serif" font-size="11" lengthAdjust="spacingAndGlyphs" textLength="43" x="97.73" y="429.8711">get_cc()</text><text fill="#000000" font-family="sans-serif" font-size="11" lengthAdjust="spacingAndGlyphs" textLength="84" x="97.73" y="442.8262">enable_cc_pin()</text><text fill="#000000" font-family="sans-serif" font-size="11" lengthAdjust="spacingAndGlyphs" textLength="87" x="97.73" y="455.7813">disable_cc_pin()</text><text fill="#000000" font-family="sans-serif" font-size="11" lengthAdjust="spacingAndGlyphs" textLength="65" x="97.73" y="468.7363">set_cc_pin()</text><text fill="#000000" font-family="sans-serif" font-size="11" lengthAdjust="spacingAndGlyphs" textLength="101" x="97.73" y="481.6914">set_cc_pin_mode()</text><text fill="#000000" font-family="sans-serif" font-size="11" lengthAdjust="spacingAndGlyphs" textLength="89" x="97.73" y="494.6465">set_cc_polarity()</text><text fill="#000000" font-family="sans-serif" font-size="11" lengthAdjust="spacingAndGlyphs" textLength="108" x="97.73" y="507.6016">enable_cc_preload()</text><text fill="#000000" font-family="sans-serif" font-size="11" lengthAdjust="spacingAndGlyphs" textLength="111" x="97.73" y="520.5566">disable_cc_preload()</text><text fill="#000000" font-family="sans-serif" font-size="11" lengthAdjust="spacingAndGlyphs" textLength="117" x="97.73" y="533.5117">enable_cc_fastmode()</text><text fill="#000000" font-family="sans-serif" font-size="11" lengthAdjust="spacingAndGlyphs" textLength="120" x="97.73" y="546.4668">disable_cc_fastmode()</text><text fill="#000000" font-family="sans-serif" font-size="11" lengthAdjust="spacingAndGlyphs" textLength="98" x="97.73" y="559.4219">set_cc_prescaler()</text><text fill="#000000" font-family="sans-serif" font-size="11" lengthAdjust="spacingAndGlyphs" textLength="73" x="97.73" y="572.377">set_cc_filter()</text><text fill="#000000" font-family="sans-serif" font-size="11" lengthAdjust="spacingAndGlyphs" textLength="126" x="97.73" y="585.332">set_counter_direction()</text><text fill="#000000" font-family="sans-serif" font-size="11" lengthAdjust="spacingAndGlyphs" textLength="167" x="97.73" y="598.2871">set_counter_alignment_mode()</text><text fill="#000000" font-family="sans-serif" font-size="11" lengthAdjust="spacingAndGlyphs" textLength="93" x="97.73" y="611.2422">set_slave_mode()</text><!--MD5=[be3765a8ee426731c4981c30c0d20f09]
class HAL--><rect fill="#FEFECE" filter="url(#f178rd4ctgf4q)" height="86.8652" id="HAL" style="stroke: #A80036; stroke-width: 1.5;" width="63" x="317.73" y="8"/><ellipse cx="336.33" cy="24" fill="#ADD1B2" rx="11" ry="11" style="stroke: #A80036; stroke-width: 1.0;"/><path d="M338.8031,30.1431 Q338.2221,30.4419 337.5829,30.5913 Q336.9438,30.7407 336.2382,30.7407 Q333.7314,30.7407 332.4115,29.0889 Q331.0917,27.437 331.0917,24.3159 Q331.0917,21.1865 332.4115,19.5347 Q333.7314,17.8828 336.2382,17.8828 Q336.9438,17.8828 337.5912,18.0322 Q338.2387,18.1816 338.8031,18.4805 L338.8031,21.2031 Q338.1723,20.6221 337.5788,20.3523 Q336.9853,20.0825 336.3544,20.0825 Q335.0097,20.0825 334.3249,21.1492 Q333.6401,22.2158 333.6401,24.3159 Q333.6401,26.4077 334.3249,27.4744 Q335.0097,28.541 336.3544,28.541 Q336.9853,28.541 337.5788,28.2712 Q338.1723,28.0015 338.8031,27.4204 Z "/><text fill="#000000" font-family="sans-serif" font-size="12" lengthAdjust="spacingAndGlyphs" textLength="23" x="351.13" y="28.5352">HAL</text><line style="stroke: #A80036; stroke-width: 1.5;" x1="318.73" x2="379.73" y1="40" y2="40"/><text fill="#000000" font-family="sans-serif" font-size="11" lengthAdjust="spacingAndGlyphs" textLength="51" x="323.73" y="54.6348">timer_cfg</text><line style="stroke: #A80036; stroke-width: 1.5;" x1="318.73" x2="379.73" y1="60.9551" y2="60.9551"/><text fill="#000000" font-family="sans-serif" font-size="11" lengthAdjust="spacingAndGlyphs" textLength="25" x="323.73" y="75.5898">init()</text><text fill="#000000" font-family="sans-serif" font-size="11" lengthAdjust="spacingAndGlyphs" textLength="38" x="323.73" y="88.5449">deinit()</text><!--MD5=[eb672f161971a32a28c99da6c0336b3d]
class LL_power--><rect fill="#FEFECE" filter="url(#f178rd4ctgf4q)" height="48" id="LL_power" style="stroke: #A80036; stroke-width: 1.5;" width="86" x="306.23" y="362.5"/><ellipse cx="321.23" cy="378.5" fill="#ADD1B2" rx="11" ry="11" style="stroke: #A80036; stroke-width: 1.0;"/><path d="M323.7031,384.6431 Q323.1221,384.9419 322.4829,385.0913 Q321.8438,385.2407 321.1382,385.2407 Q318.6314,385.2407 317.3115,383.5889 Q315.9917,381.937 315.9917,378.8159 Q315.9917,375.6865 317.3115,374.0347 Q318.6314,372.3828 321.1382,372.3828 Q321.8438,372.3828 322.4912,372.5322 Q323.1387,372.6816 323.7031,372.9805 L323.7031,375.7031 Q323.0723,375.1221 322.4788,374.8523 Q321.8853,374.5825 321.2544,374.5825 Q319.9097,374.5825 319.2249,375.6492 Q318.5401,376.7158 318.5401,378.8159 Q318.5401,380.9077 319.2249,381.9744 Q319.9097,383.041 321.2544,383.041 Q321.8853,383.041 322.4788,382.7712 Q323.0723,382.5015 323.7031,381.9204 Z "/><text fill="#000000" font-family="sans-serif" font-size="12" lengthAdjust="spacingAndGlyphs" textLength="54" x="335.23" y="383.0352">LL_power</text><line style="stroke: #A80036; stroke-width: 1.5;" x1="307.23" x2="391.23" y1="394.5" y2="394.5"/><line style="stroke: #A80036; stroke-width: 1.5;" x1="307.23" x2="391.23" y1="402.5" y2="402.5"/><!--MD5=[8b0caf15fab33df914d6885d5506f67f]
class LL_clock--><rect fill="#FEFECE" filter="url(#f178rd4ctgf4q)" height="48" id="LL_clock" style="stroke: #A80036; stroke-width: 1.5;" width="79" x="427.73" y="362.5"/><ellipse cx="442.73" cy="378.5" fill="#ADD1B2" rx="11" ry="11" style="stroke: #A80036; stroke-width: 1.0;"/><path d="M445.2031,384.6431 Q444.6221,384.9419 443.9829,385.0913 Q443.3438,385.2407 442.6382,385.2407 Q440.1314,385.2407 438.8115,383.5889 Q437.4917,381.937 437.4917,378.8159 Q437.4917,375.6865 438.8115,374.0347 Q440.1314,372.3828 442.6382,372.3828 Q443.3438,372.3828 443.9912,372.5322 Q444.6387,372.6816 445.2031,372.9805 L445.2031,375.7031 Q444.5723,375.1221 443.9788,374.8523 Q443.3853,374.5825 442.7544,374.5825 Q441.4097,374.5825 440.7249,375.6492 Q440.0401,376.7158 440.0401,378.8159 Q440.0401,380.9077 440.7249,381.9744 Q441.4097,383.041 442.7544,383.041 Q443.3853,383.041 443.9788,382.7712 Q444.5723,382.5015 445.2031,381.9204 Z "/><text fill="#000000" font-family="sans-serif" font-size="12" lengthAdjust="spacingAndGlyphs" textLength="47" x="456.73" y="383.0352">LL_clock</text><line style="stroke: #A80036; stroke-width: 1.5;" x1="428.73" x2="505.73" y1="394.5" y2="394.5"/><line style="stroke: #A80036; stroke-width: 1.5;" x1="428.73" x2="505.73" y1="402.5" y2="402.5"/><!--MD5=[831aefa9ebd008f9dae82517425faefb]
class IRQ--><rect fill="#FEFECE" filter="url(#f178rd4ctgf4q)" height="48" id="IRQ" style="stroke: #A80036; stroke-width: 1.5;" width="52" x="542.23" y="362.5"/><ellipse cx="557.23" cy="378.5" fill="#ADD1B2" rx="11" ry="11" style="stroke: #A80036; stroke-width: 1.0;"/><path d="M559.7031,384.6431 Q559.1221,384.9419 558.4829,385.0913 Q557.8438,385.2407 557.1382,385.2407 Q554.6314,385.2407 553.3115,383.5889 Q551.9917,381.937 551.9917,378.8159 Q551.9917,375.6865 553.3115,374.0347 Q554.6314,372.3828 557.1382,372.3828 Q557.8438,372.3828 558.4912,372.5322 Q559.1387,372.6816 559.7031,372.9805 L559.7031,375.7031 Q559.0723,375.1221 558.4788,374.8523 Q557.8853,374.5825 557.2544,374.5825 Q555.9097,374.5825 555.2249,375.6492 Q554.5401,376.7158 554.5401,378.8159 Q554.5401,380.9077 555.2249,381.9744 Q555.9097,383.041 557.2544,383.041 Q557.8853,383.041 558.4788,382.7712 Q559.0723,382.5015 559.7031,381.9204 Z "/><text fill="#000000" font-family="sans-serif" font-size="12" lengthAdjust="spacingAndGlyphs" textLength="20" x="571.23" y="383.0352">IRQ</text><line style="stroke: #A80036; stroke-width: 1.5;" x1="543.23" x2="593.23" y1="394.5" y2="394.5"/><line style="stroke: #A80036; stroke-width: 1.5;" x1="543.23" x2="593.23" y1="402.5" y2="402.5"/><!--MD5=[67e08f33a693c3eb3ad8aa491d852591]
link HAL to Timer--><path d="M317.66,53.39 C258.14,56.99 130.32,74.23 74.23,155 C-28.18,302.46 4.22,514.72 46.93,661.78 " fill="none" id="HAL-&gt;Timer" style="stroke: #A80036; stroke-width: 1.0; stroke-dasharray: 7.0,7.0;"/><polygon fill="none" points="53.7,660.02,52.73,681.18,40.29,664.03,53.7,660.02" style="stroke: #A80036; stroke-width: 1.0;"/><!--MD5=[7c42b4011aa728296f409c876b3a9cd7]
link HAL to LL--><path d="M322.94,95.4 C312.12,113.57 299.69,135.1 289.23,155 C283.88,165.18 278.5,175.68 273.15,186.32 " fill="none" id="HAL-&gt;LL" style="stroke: #A80036; stroke-width: 1.0;"/><polygon fill="#A80036" points="270.86,190.89,278.4706,184.6387,273.1018,186.4207,271.3198,181.0519,270.86,190.89" style="stroke: #A80036; stroke-width: 1.0;"/><!--MD5=[f481892d08b88046121823827ef5b6c7]
link HAL to LL_power--><path d="M349.23,95.01 C349.23,164.11 349.23,298.95 349.23,357.38 " fill="none" id="HAL-&gt;LL_power" style="stroke: #A80036; stroke-width: 1.0; stroke-dasharray: 7.0,7.0;"/><polygon fill="#A80036" points="349.23,362.46,353.23,353.46,349.23,357.46,345.23,353.46,349.23,362.46" style="stroke: #A80036; stroke-width: 1.0;"/><!--MD5=[03027760a4a69a9b5b7ae20cb535c4e1]
link HAL to LL_clock--><path d="M378.46,95.17 C389.67,113.04 401.78,134.41 410.23,155 C438.9,224.81 455.71,312.64 462.97,357.03 " fill="none" id="HAL-&gt;LL_clock" style="stroke: #A80036; stroke-width: 1.0; stroke-dasharray: 7.0,7.0;"/><polygon fill="#A80036" points="463.81,362.22,466.3207,352.6965,463.0111,357.2842,458.4234,353.9747,463.81,362.22" style="stroke: #A80036; stroke-width: 1.0;"/><!--MD5=[aa119ece880843938e062c5ac955c7c5]
link HAL to IRQ--><path d="M381.06,62.03 C421.14,75.75 489,105.1 524.23,155 C567.9,216.85 571.36,310.37 569.97,356.99 " fill="none" id="HAL-&gt;IRQ" style="stroke: #A80036; stroke-width: 1.0; stroke-dasharray: 7.0,7.0;"/><polygon fill="#A80036" points="569.79,362.16,574.1213,353.3147,569.9756,357.1634,566.1268,353.0177,569.79,362.16" style="stroke: #A80036; stroke-width: 1.0;"/><!--MD5=[5dd7d1716160dcfa14d2bbcb4b833c12]
link LL to Timer--><path d="M143.76,618.08 C140.74,636.63 137.74,655.09 134.84,672.94 " fill="none" id="LL-&gt;Timer" style="stroke: #A80036; stroke-width: 1.0;"/><polygon fill="#A80036" points="134.02,677.96,139.4103,669.7172,134.8211,673.0246,131.5137,668.4354,134.02,677.96" style="stroke: #A80036; stroke-width: 1.0;"/><!--MD5=[471334a101aec3b70f2fbbd656700eb4]
@startuml
interface Timer {
	mode_t
	cc_t
	cc_mode_t
	event_t
	edge_t

	start()
	stop()
	clear_event()
	get_event()
	set_prescaler()
	get_prescaler()
	set_reload()
	get_reload()
	set_cc()
	get_cc()
	enable_cc_pin()
	disable_cc_pin()
	set_cc_pin()
	set_cc_pin_mode()
	set_cc_polarity()
}

class LL {
	reset()
	set_mode()
	set_prescaler()
	get_prescaler()
	enable_irq()
	disable_irq()
	get_frequency()
	set_clock_divider()
	set_counter()
	get_counter()
	set_reload()
	get_reload()
	clear_event()
	get_event()
	start()
	stop()
	set_cc()
	get_cc()
	enable_cc_pin()
	disable_cc_pin()
	set_cc_pin()
	set_cc_pin_mode()
	set_cc_polarity()
	enable_cc_preload()
	disable_cc_preload()
	enable_cc_fastmode()
	disable_cc_fastmode()
	set_cc_prescaler()
	set_cc_filter()
	set_counter_direction()
	set_counter_alignment_mode()
	set_slave_mode()
}

class HAL {
	timer_cfg

	init()
	deinit()
}

HAL ..|> Timer
HAL - -> LL
HAL ..> LL_power
HAL ..> LL_clock
HAL ..> IRQ
LL - -> Timer
@enduml

PlantUML version 1.2019.13(Wed Dec 11 02:18:29 KST 2019)
(GPL source distribution)
Java Runtime: Java(TM) SE Runtime Environment
JVM: Java HotSpot(TM) 64-Bit Server VM
Java Version: 15+36-1562
Operating System: Mac OS X
Default Encoding: UTF-8
Language: en
Country: KR
--></g></svg>