<?xml version="1.0" encoding="UTF-8" standalone="no"?><svg xmlns="http://www.w3.org/2000/svg" xmlns:xlink="http://www.w3.org/1999/xlink" contentScriptType="application/ecmascript" contentStyleType="text/css" height="447px" preserveAspectRatio="none" style="width:453px;height:447px;" version="1.1" viewBox="0 0 453 447" width="453px" zoomAndPan="magnify"><defs><filter height="300%" id="flugjmvo07yqc" width="300%" x="-1" y="-1"><feGaussianBlur result="blurOut" stdDeviation="2.0"/><feColorMatrix in="blurOut" result="blurOut2" type="matrix" values="0 0 0 0 0 0 0 0 0 0 0 0 0 0 0 0 0 0 .4 0"/><feOffset dx="4.0" dy="4.0" in="blurOut2" result="blurOut3"/><feBlend in="SourceGraphic" in2="blurOut3" mode="normal"/></filter></defs><g><!--MD5=[dd257be917a85f09b50ecf13e2dae19b]
class HAL_timer--><rect fill="#FEFECE" filter="url(#flugjmvo07yqc)" height="125.7305" id="HAL_timer" style="stroke: #A80036; stroke-width: 1.5;" width="91" x="211" y="8"/><ellipse cx="226" cy="24" fill="#ADD1B2" rx="11" ry="11" style="stroke: #A80036; stroke-width: 1.0;"/><path d="M228.4731,30.1431 Q227.8921,30.4419 227.2529,30.5913 Q226.6138,30.7407 225.9082,30.7407 Q223.4014,30.7407 222.0815,29.0889 Q220.7617,27.437 220.7617,24.3159 Q220.7617,21.1865 222.0815,19.5347 Q223.4014,17.8828 225.9082,17.8828 Q226.6138,17.8828 227.2612,18.0322 Q227.9087,18.1816 228.4731,18.4805 L228.4731,21.2031 Q227.8423,20.6221 227.2488,20.3523 Q226.6553,20.0825 226.0244,20.0825 Q224.6797,20.0825 223.9949,21.1492 Q223.3101,22.2158 223.3101,24.3159 Q223.3101,26.4077 223.9949,27.4744 Q224.6797,28.541 226.0244,28.541 Q226.6553,28.541 227.2488,28.2712 Q227.8423,28.0015 228.4731,27.4204 Z "/><text fill="#000000" font-family="sans-serif" font-size="12" lengthAdjust="spacingAndGlyphs" textLength="59" x="240" y="28.5352">HAL_timer</text><line style="stroke: #A80036; stroke-width: 1.5;" x1="212" x2="301" y1="40" y2="40"/><line style="stroke: #A80036; stroke-width: 1.5;" x1="212" x2="301" y1="48" y2="48"/><text fill="#000000" font-family="sans-serif" font-size="11" lengthAdjust="spacingAndGlyphs" textLength="25" x="217" y="62.6348">init()</text><text fill="#000000" font-family="sans-serif" font-size="11" lengthAdjust="spacingAndGlyphs" textLength="38" x="217" y="75.5898">deinit()</text><text fill="#000000" font-family="sans-serif" font-size="11" lengthAdjust="spacingAndGlyphs" textLength="33" x="217" y="88.5449">start()</text><text fill="#000000" font-family="sans-serif" font-size="11" lengthAdjust="spacingAndGlyphs" textLength="32" x="217" y="101.5">stop()</text><text fill="#000000" font-family="sans-serif" font-size="11" lengthAdjust="spacingAndGlyphs" textLength="42" x="217" y="114.4551">set_cc()</text><text fill="#000000" font-family="sans-serif" font-size="11" lengthAdjust="spacingAndGlyphs" textLength="43" x="217" y="127.4102">get_cc()</text><!--MD5=[c56c1b7bed7f907556f62c6e35c85dff]
class LL_timer--><rect fill="#FEFECE" filter="url(#flugjmvo07yqc)" height="242.3262" id="LL_timer" style="stroke: #A80036; stroke-width: 1.5;" width="113" x="6" y="194"/><ellipse cx="35.85" cy="210" fill="#ADD1B2" rx="11" ry="11" style="stroke: #A80036; stroke-width: 1.0;"/><path d="M38.3231,216.1431 Q37.7421,216.4419 37.1029,216.5913 Q36.4638,216.7407 35.7582,216.7407 Q33.2514,216.7407 31.9315,215.0889 Q30.6117,213.437 30.6117,210.3159 Q30.6117,207.1865 31.9315,205.5347 Q33.2514,203.8828 35.7582,203.8828 Q36.4638,203.8828 37.1112,204.0322 Q37.7587,204.1816 38.3231,204.4805 L38.3231,207.2031 Q37.6923,206.6221 37.0988,206.3523 Q36.5053,206.0825 35.8744,206.0825 Q34.5297,206.0825 33.8449,207.1492 Q33.1601,208.2158 33.1601,210.3159 Q33.1601,212.4077 33.8449,213.4744 Q34.5297,214.541 35.8744,214.541 Q36.5053,214.541 37.0988,214.2712 Q37.6923,214.0015 38.3231,213.4204 Z "/><text fill="#000000" font-family="sans-serif" font-size="12" lengthAdjust="spacingAndGlyphs" textLength="48" x="53.15" y="214.5352">LL_timer</text><line style="stroke: #A80036; stroke-width: 1.5;" x1="7" x2="118" y1="226" y2="226"/><line style="stroke: #A80036; stroke-width: 1.5;" x1="7" x2="118" y1="234" y2="234"/><text fill="#000000" font-family="sans-serif" font-size="11" lengthAdjust="spacingAndGlyphs" textLength="35" x="12" y="248.6348">reset()</text><text fill="#000000" font-family="sans-serif" font-size="11" lengthAdjust="spacingAndGlyphs" textLength="60" x="12" y="261.5898">set_mode()</text><text fill="#000000" font-family="sans-serif" font-size="11" lengthAdjust="spacingAndGlyphs" textLength="80" x="12" y="274.5449">set_prescaler()</text><text fill="#000000" font-family="sans-serif" font-size="11" lengthAdjust="spacingAndGlyphs" textLength="101" x="12" y="287.5">set_clock_divider()</text><text fill="#000000" font-family="sans-serif" font-size="11" lengthAdjust="spacingAndGlyphs" textLength="64" x="12" y="300.4551">enable_irq()</text><text fill="#000000" font-family="sans-serif" font-size="11" lengthAdjust="spacingAndGlyphs" textLength="67" x="12" y="313.4102">disable_irq()</text><text fill="#000000" font-family="sans-serif" font-size="11" lengthAdjust="spacingAndGlyphs" textLength="72" x="12" y="326.3652">set_counter()</text><text fill="#000000" font-family="sans-serif" font-size="11" lengthAdjust="spacingAndGlyphs" textLength="73" x="12" y="339.3203">get_counter()</text><text fill="#000000" font-family="sans-serif" font-size="11" lengthAdjust="spacingAndGlyphs" textLength="64" x="12" y="352.2754">set_reload()</text><text fill="#000000" font-family="sans-serif" font-size="11" lengthAdjust="spacingAndGlyphs" textLength="65" x="12" y="365.2305">get_reload()</text><text fill="#000000" font-family="sans-serif" font-size="11" lengthAdjust="spacingAndGlyphs" textLength="71" x="12" y="378.1855">set_polarity()</text><text fill="#000000" font-family="sans-serif" font-size="11" lengthAdjust="spacingAndGlyphs" textLength="56" x="12" y="391.1406">set_edge()</text><text fill="#000000" font-family="sans-serif" font-size="11" lengthAdjust="spacingAndGlyphs" textLength="85" x="12" y="404.0957">get_frequency()</text><text fill="#000000" font-family="sans-serif" font-size="11" lengthAdjust="spacingAndGlyphs" textLength="60" x="12" y="417.0508">get_event()</text><text fill="#000000" font-family="sans-serif" font-size="11" lengthAdjust="spacingAndGlyphs" textLength="69" x="12" y="430.0059">clear_event()</text><!--MD5=[eb672f161971a32a28c99da6c0336b3d]
class LL_power--><rect fill="#FEFECE" filter="url(#flugjmvo07yqc)" height="48" id="LL_power" style="stroke: #A80036; stroke-width: 1.5;" width="86" x="154.5" y="291"/><ellipse cx="169.5" cy="307" fill="#ADD1B2" rx="11" ry="11" style="stroke: #A80036; stroke-width: 1.0;"/><path d="M171.9731,313.1431 Q171.3921,313.4419 170.7529,313.5913 Q170.1138,313.7407 169.4082,313.7407 Q166.9014,313.7407 165.5815,312.0889 Q164.2617,310.437 164.2617,307.3159 Q164.2617,304.1865 165.5815,302.5347 Q166.9014,300.8828 169.4082,300.8828 Q170.1138,300.8828 170.7612,301.0322 Q171.4087,301.1816 171.9731,301.4805 L171.9731,304.2031 Q171.3423,303.6221 170.7488,303.3523 Q170.1553,303.0825 169.5244,303.0825 Q168.1797,303.0825 167.4949,304.1492 Q166.8101,305.2158 166.8101,307.3159 Q166.8101,309.4077 167.4949,310.4744 Q168.1797,311.541 169.5244,311.541 Q170.1553,311.541 170.7488,311.2712 Q171.3423,311.0015 171.9731,310.4204 Z "/><text fill="#000000" font-family="sans-serif" font-size="12" lengthAdjust="spacingAndGlyphs" textLength="54" x="183.5" y="311.5352">LL_power</text><line style="stroke: #A80036; stroke-width: 1.5;" x1="155.5" x2="239.5" y1="323" y2="323"/><line style="stroke: #A80036; stroke-width: 1.5;" x1="155.5" x2="239.5" y1="331" y2="331"/><!--MD5=[8b0caf15fab33df914d6885d5506f67f]
class LL_clock--><rect fill="#FEFECE" filter="url(#flugjmvo07yqc)" height="48" id="LL_clock" style="stroke: #A80036; stroke-width: 1.5;" width="79" x="276" y="291"/><ellipse cx="291" cy="307" fill="#ADD1B2" rx="11" ry="11" style="stroke: #A80036; stroke-width: 1.0;"/><path d="M293.4731,313.1431 Q292.8921,313.4419 292.2529,313.5913 Q291.6138,313.7407 290.9082,313.7407 Q288.4014,313.7407 287.0815,312.0889 Q285.7617,310.437 285.7617,307.3159 Q285.7617,304.1865 287.0815,302.5347 Q288.4014,300.8828 290.9082,300.8828 Q291.6138,300.8828 292.2612,301.0322 Q292.9087,301.1816 293.4731,301.4805 L293.4731,304.2031 Q292.8423,303.6221 292.2488,303.3523 Q291.6553,303.0825 291.0244,303.0825 Q289.6797,303.0825 288.9949,304.1492 Q288.3101,305.2158 288.3101,307.3159 Q288.3101,309.4077 288.9949,310.4744 Q289.6797,311.541 291.0244,311.541 Q291.6553,311.541 292.2488,311.2712 Q292.8423,311.0015 293.4731,310.4204 Z "/><text fill="#000000" font-family="sans-serif" font-size="12" lengthAdjust="spacingAndGlyphs" textLength="47" x="305" y="311.5352">LL_clock</text><line style="stroke: #A80036; stroke-width: 1.5;" x1="277" x2="354" y1="323" y2="323"/><line style="stroke: #A80036; stroke-width: 1.5;" x1="277" x2="354" y1="331" y2="331"/><!--MD5=[831aefa9ebd008f9dae82517425faefb]
class IRQ--><rect fill="#FEFECE" filter="url(#flugjmvo07yqc)" height="48" id="IRQ" style="stroke: #A80036; stroke-width: 1.5;" width="52" x="390.5" y="291"/><ellipse cx="405.5" cy="307" fill="#ADD1B2" rx="11" ry="11" style="stroke: #A80036; stroke-width: 1.0;"/><path d="M407.9731,313.1431 Q407.3921,313.4419 406.7529,313.5913 Q406.1138,313.7407 405.4082,313.7407 Q402.9014,313.7407 401.5815,312.0889 Q400.2617,310.437 400.2617,307.3159 Q400.2617,304.1865 401.5815,302.5347 Q402.9014,300.8828 405.4082,300.8828 Q406.1138,300.8828 406.7612,301.0322 Q407.4087,301.1816 407.9731,301.4805 L407.9731,304.2031 Q407.3423,303.6221 406.7488,303.3523 Q406.1553,303.0825 405.5244,303.0825 Q404.1797,303.0825 403.4949,304.1492 Q402.8101,305.2158 402.8101,307.3159 Q402.8101,309.4077 403.4949,310.4744 Q404.1797,311.541 405.5244,311.541 Q406.1553,311.541 406.7488,311.2712 Q407.3423,311.0015 407.9731,310.4204 Z "/><text fill="#000000" font-family="sans-serif" font-size="12" lengthAdjust="spacingAndGlyphs" textLength="20" x="419.5" y="311.5352">IRQ</text><line style="stroke: #A80036; stroke-width: 1.5;" x1="391.5" x2="441.5" y1="323" y2="323"/><line style="stroke: #A80036; stroke-width: 1.5;" x1="391.5" x2="441.5" y1="331" y2="331"/><!--MD5=[e3e9031c553289bf5d8a96d6bcb40ba8]
link HAL_timer to LL_timer--><path d="M210.95,113.56 C187.4,136.19 158.95,165.36 136.5,194 C131.62,200.22 126.8,206.78 122.09,213.5 " fill="none" id="HAL_timer-&gt;LL_timer" style="stroke: #A80036; stroke-width: 1.0;"/><polygon fill="#A80036" points="119.18,217.7,127.6074,212.603,122.0387,213.5978,121.0439,208.0291,119.18,217.7" style="stroke: #A80036; stroke-width: 1.0;"/><!--MD5=[86e0a391047b2fa064e3ecbb571b83dc]
link HAL_timer to LL_power--><path d="M241.38,134.01 C229.47,182.86 213.42,248.7 204.4,285.7 " fill="none" id="HAL_timer-&gt;LL_power" style="stroke: #A80036; stroke-width: 1.0; stroke-dasharray: 7.0,7.0;"/><polygon fill="#A80036" points="203.12,290.94,209.1403,283.1454,204.3058,286.0826,201.3685,281.2481,203.12,290.94" style="stroke: #A80036; stroke-width: 1.0;"/><!--MD5=[7701dd8d08a3f693f7631e193a047976]
link HAL_timer to LL_clock--><path d="M271.62,134.01 C283.53,182.86 299.58,248.7 308.6,285.7 " fill="none" id="HAL_timer-&gt;LL_clock" style="stroke: #A80036; stroke-width: 1.0; stroke-dasharray: 7.0,7.0;"/><polygon fill="#A80036" points="309.88,290.94,311.6315,281.2481,308.6942,286.0826,303.8597,283.1454,309.88,290.94" style="stroke: #A80036; stroke-width: 1.0;"/><!--MD5=[15d692ee16b011ba2c577d1dabf6a8bd]
link HAL_timer to IRQ--><path d="M302.25,111.57 C325.79,133.87 353.45,163.34 372.5,194 C390.5,222.98 402.75,260.44 409.66,285.73 " fill="none" id="HAL_timer-&gt;IRQ" style="stroke: #A80036; stroke-width: 1.0; stroke-dasharray: 7.0,7.0;"/><polygon fill="#A80036" points="410.98,290.62,412.5027,280.8896,409.6801,285.7919,404.7778,282.9694,410.98,290.62" style="stroke: #A80036; stroke-width: 1.0;"/><!--MD5=[6c6d9b8e5e40e7ac15e581b0ff3cab8d]
@startuml
class HAL_timer {
	init()
	deinit()
	start()
	stop()
	set_cc()
	get_cc()
}

class LL_timer {
	reset()
	set_mode()
	set_prescaler()
	set_clock_divider()
	enable_irq()
	disable_irq()
	set_counter()
	get_counter()
	set_reload()
	get_reload()
	set_polarity()
	set_edge()
	get_frequency()
	get_event()
	clear_event()
}

HAL_timer - -> LL_timer
HAL_timer ..> LL_power
HAL_timer ..> LL_clock
HAL_timer ..> IRQ
@enduml

PlantUML version 1.2019.13(Wed Dec 11 02:18:29 KST 2019)
(GPL source distribution)
Java Runtime: Java(TM) SE Runtime Environment
JVM: Java HotSpot(TM) 64-Bit Server VM
Java Version: 15+36-1562
Operating System: Mac OS X
Default Encoding: UTF-8
Language: en
Country: KR
--></g></svg>