<?xml version="1.0" encoding="UTF-8" standalone="no"?><svg xmlns="http://www.w3.org/2000/svg" xmlns:xlink="http://www.w3.org/1999/xlink" contentScriptType="application/ecmascript" contentStyleType="text/css" height="637px" preserveAspectRatio="none" style="width:305px;height:637px;" version="1.1" viewBox="0 0 305 637" width="305px" zoomAndPan="magnify"><defs><filter height="300%" id="f3o8yys25ny20" width="300%" x="-1" y="-1"><feGaussianBlur result="blurOut" stdDeviation="2.0"/><feColorMatrix in="blurOut" result="blurOut2" type="matrix" values="0 0 0 0 0 0 0 0 0 0 0 0 0 0 0 0 0 0 .4 0"/><feOffset dx="4.0" dy="4.0" in="blurOut2" result="blurOut3"/><feBlend in="SourceGraphic" in2="blurOut3" mode="normal"/></filter></defs><g><!--MD5=[7d358960fb3bdf1b099558b22ce97d57]
class uart--><rect fill="#FEFECE" filter="url(#f3o8yys25ny20)" height="203.4609" id="uart" style="stroke: #A80036; stroke-width: 1.5;" width="129" x="102.5" y="8"/><ellipse cx="151.25" cy="24" fill="#B4A7E5" rx="11" ry="11" style="stroke: #A80036; stroke-width: 1.0;"/><path d="M147.6777,20.2651 L147.6777,18.1069 L155.0571,18.1069 L155.0571,20.2651 L152.5918,20.2651 L152.5918,28.3418 L155.0571,28.3418 L155.0571,30.5 L147.6777,30.5 L147.6777,28.3418 L150.1431,28.3418 L150.1431,20.2651 Z "/><text fill="#000000" font-family="sans-serif" font-size="12" font-style="italic" lengthAdjust="spacingAndGlyphs" textLength="23" x="171.75" y="28.5352">uart</text><line style="stroke: #A80036; stroke-width: 1.5;" x1="103.5" x2="230.5" y1="40" y2="40"/><line style="stroke: #A80036; stroke-width: 1.5;" x1="103.5" x2="230.5" y1="48" y2="48"/><text fill="#000000" font-family="sans-serif" font-size="11" lengthAdjust="spacingAndGlyphs" textLength="35" x="108.5" y="62.6348">reset()</text><text fill="#000000" font-family="sans-serif" font-size="11" lengthAdjust="spacingAndGlyphs" textLength="61" x="108.5" y="75.5898">read_byte()</text><text fill="#000000" font-family="sans-serif" font-size="11" lengthAdjust="spacingAndGlyphs" textLength="117" x="108.5" y="88.5449">read_byte_nonblock()</text><text fill="#000000" font-family="sans-serif" font-size="11" lengthAdjust="spacingAndGlyphs" textLength="63" x="108.5" y="101.5">write_byte()</text><text fill="#000000" font-family="sans-serif" font-size="11" lengthAdjust="spacingAndGlyphs" textLength="78" x="108.5" y="114.4551">set_baudrate()</text><text fill="#000000" font-family="sans-serif" font-size="11" lengthAdjust="spacingAndGlyphs" textLength="64" x="108.5" y="127.4102">enable_irq()</text><text fill="#000000" font-family="sans-serif" font-size="11" lengthAdjust="spacingAndGlyphs" textLength="67" x="108.5" y="140.3652">disable_irq()</text><text fill="#000000" font-family="sans-serif" font-size="11" lengthAdjust="spacingAndGlyphs" textLength="60" x="108.5" y="153.3203">get_event()</text><text fill="#000000" font-family="sans-serif" font-size="11" lengthAdjust="spacingAndGlyphs" textLength="69" x="108.5" y="166.2754">clear_event()</text><text fill="#000000" font-family="sans-serif" font-size="11" lengthAdjust="spacingAndGlyphs" textLength="61" x="108.5" y="179.2305">set_parity()</text><text fill="#000000" font-family="sans-serif" font-size="11" lengthAdjust="spacingAndGlyphs" textLength="74" x="108.5" y="192.1855">set_stopbits()</text><text fill="#000000" font-family="sans-serif" font-size="11" lengthAdjust="spacingAndGlyphs" textLength="78" x="108.5" y="205.1406">set_wordsize()</text><!--MD5=[60334ee68e120b419987230cce1bee09]
class LL_uart--><rect fill="#FEFECE" filter="url(#f3o8yys25ny20)" height="48" id="LL_uart" style="stroke: #A80036; stroke-width: 1.5;" width="73" x="130.5" y="271"/><ellipse cx="145.5" cy="287" fill="#ADD1B2" rx="11" ry="11" style="stroke: #A80036; stroke-width: 1.0;"/><path d="M147.9731,293.1431 Q147.3921,293.4419 146.7529,293.5913 Q146.1138,293.7407 145.4082,293.7407 Q142.9014,293.7407 141.5815,292.0889 Q140.2617,290.437 140.2617,287.3159 Q140.2617,284.1865 141.5815,282.5347 Q142.9014,280.8828 145.4082,280.8828 Q146.1138,280.8828 146.7612,281.0322 Q147.4087,281.1816 147.9731,281.4805 L147.9731,284.2031 Q147.3423,283.6221 146.7488,283.3523 Q146.1553,283.0825 145.5244,283.0825 Q144.1797,283.0825 143.4949,284.1492 Q142.8101,285.2158 142.8101,287.3159 Q142.8101,289.4077 143.4949,290.4744 Q144.1797,291.541 145.5244,291.541 Q146.1553,291.541 146.7488,291.2712 Q147.3423,291.0015 147.9731,290.4204 Z "/><text fill="#000000" font-family="sans-serif" font-size="12" lengthAdjust="spacingAndGlyphs" textLength="41" x="159.5" y="291.5352">LL_uart</text><line style="stroke: #A80036; stroke-width: 1.5;" x1="131.5" x2="202.5" y1="303" y2="303"/><line style="stroke: #A80036; stroke-width: 1.5;" x1="131.5" x2="202.5" y1="311" y2="311"/><!--MD5=[1712c144217d035a2da6f5ae8c9ac8a6]
class HAL_uart--><rect fill="#FEFECE" filter="url(#f3o8yys25ny20)" height="138.6855" id="HAL_uart" style="stroke: #A80036; stroke-width: 1.5;" width="143" x="95.5" y="379"/><ellipse cx="137.05" cy="395" fill="#ADD1B2" rx="11" ry="11" style="stroke: #A80036; stroke-width: 1.0;"/><path d="M139.5231,401.1431 Q138.9421,401.4419 138.3029,401.5913 Q137.6638,401.7407 136.9582,401.7407 Q134.4514,401.7407 133.1315,400.0889 Q131.8117,398.437 131.8117,395.3159 Q131.8117,392.1865 133.1315,390.5347 Q134.4514,388.8828 136.9582,388.8828 Q137.6638,388.8828 138.3112,389.0322 Q138.9587,389.1816 139.5231,389.4805 L139.5231,392.2031 Q138.8923,391.6221 138.2988,391.3523 Q137.7053,391.0825 137.0744,391.0825 Q135.7297,391.0825 135.0449,392.1492 Q134.3601,393.2158 134.3601,395.3159 Q134.3601,397.4077 135.0449,398.4744 Q135.7297,399.541 137.0744,399.541 Q137.7053,399.541 138.2988,399.2712 Q138.8923,399.0015 139.5231,398.4204 Z "/><text fill="#000000" font-family="sans-serif" font-size="12" lengthAdjust="spacingAndGlyphs" textLength="52" x="156.95" y="399.5352">HAL_uart</text><line style="stroke: #A80036; stroke-width: 1.5;" x1="96.5" x2="237.5" y1="411" y2="411"/><line style="stroke: #A80036; stroke-width: 1.5;" x1="96.5" x2="237.5" y1="419" y2="419"/><text fill="#000000" font-family="sans-serif" font-size="11" lengthAdjust="spacingAndGlyphs" textLength="25" x="101.5" y="433.6348">init()</text><text fill="#000000" font-family="sans-serif" font-size="11" lengthAdjust="spacingAndGlyphs" textLength="38" x="101.5" y="446.5898">deinit()</text><text fill="#000000" font-family="sans-serif" font-size="11" lengthAdjust="spacingAndGlyphs" textLength="32" x="101.5" y="459.5449">read()</text><text fill="#000000" font-family="sans-serif" font-size="11" lengthAdjust="spacingAndGlyphs" textLength="34" x="101.5" y="472.5">write()</text><text fill="#000000" font-family="sans-serif" font-size="11" lengthAdjust="spacingAndGlyphs" textLength="115" x="101.5" y="485.4551">register_rx_handler()</text><text fill="#000000" font-family="sans-serif" font-size="11" lengthAdjust="spacingAndGlyphs" textLength="114" x="101.5" y="498.4102">register_tx_handler()</text><text fill="#000000" font-family="sans-serif" font-size="11" lengthAdjust="spacingAndGlyphs" textLength="131" x="101.5" y="511.3652">register_error_handler()</text><!--MD5=[eb672f161971a32a28c99da6c0336b3d]
class LL_power--><rect fill="#FEFECE" filter="url(#f3o8yys25ny20)" height="48" id="LL_power" style="stroke: #A80036; stroke-width: 1.5;" width="86" x="6" y="578"/><ellipse cx="21" cy="594" fill="#ADD1B2" rx="11" ry="11" style="stroke: #A80036; stroke-width: 1.0;"/><path d="M23.4731,600.1431 Q22.8921,600.4419 22.2529,600.5913 Q21.6138,600.7407 20.9082,600.7407 Q18.4014,600.7407 17.0815,599.0889 Q15.7617,597.437 15.7617,594.3159 Q15.7617,591.1865 17.0815,589.5347 Q18.4014,587.8828 20.9082,587.8828 Q21.6138,587.8828 22.2612,588.0322 Q22.9087,588.1816 23.4731,588.4805 L23.4731,591.2031 Q22.8423,590.6221 22.2488,590.3523 Q21.6553,590.0825 21.0244,590.0825 Q19.6797,590.0825 18.9949,591.1492 Q18.3101,592.2158 18.3101,594.3159 Q18.3101,596.4077 18.9949,597.4744 Q19.6797,598.541 21.0244,598.541 Q21.6553,598.541 22.2488,598.2712 Q22.8423,598.0015 23.4731,597.4204 Z "/><text fill="#000000" font-family="sans-serif" font-size="12" lengthAdjust="spacingAndGlyphs" textLength="54" x="35" y="598.5352">LL_power</text><line style="stroke: #A80036; stroke-width: 1.5;" x1="7" x2="91" y1="610" y2="610"/><line style="stroke: #A80036; stroke-width: 1.5;" x1="7" x2="91" y1="618" y2="618"/><!--MD5=[8b0caf15fab33df914d6885d5506f67f]
class LL_clock--><rect fill="#FEFECE" filter="url(#f3o8yys25ny20)" height="48" id="LL_clock" style="stroke: #A80036; stroke-width: 1.5;" width="79" x="127.5" y="578"/><ellipse cx="142.5" cy="594" fill="#ADD1B2" rx="11" ry="11" style="stroke: #A80036; stroke-width: 1.0;"/><path d="M144.9731,600.1431 Q144.3921,600.4419 143.7529,600.5913 Q143.1138,600.7407 142.4082,600.7407 Q139.9014,600.7407 138.5815,599.0889 Q137.2617,597.437 137.2617,594.3159 Q137.2617,591.1865 138.5815,589.5347 Q139.9014,587.8828 142.4082,587.8828 Q143.1138,587.8828 143.7612,588.0322 Q144.4087,588.1816 144.9731,588.4805 L144.9731,591.2031 Q144.3423,590.6221 143.7488,590.3523 Q143.1553,590.0825 142.5244,590.0825 Q141.1797,590.0825 140.4949,591.1492 Q139.8101,592.2158 139.8101,594.3159 Q139.8101,596.4077 140.4949,597.4744 Q141.1797,598.541 142.5244,598.541 Q143.1553,598.541 143.7488,598.2712 Q144.3423,598.0015 144.9731,597.4204 Z "/><text fill="#000000" font-family="sans-serif" font-size="12" lengthAdjust="spacingAndGlyphs" textLength="47" x="156.5" y="598.5352">LL_clock</text><line style="stroke: #A80036; stroke-width: 1.5;" x1="128.5" x2="205.5" y1="610" y2="610"/><line style="stroke: #A80036; stroke-width: 1.5;" x1="128.5" x2="205.5" y1="618" y2="618"/><!--MD5=[831aefa9ebd008f9dae82517425faefb]
class IRQ--><rect fill="#FEFECE" filter="url(#f3o8yys25ny20)" height="48" id="IRQ" style="stroke: #A80036; stroke-width: 1.5;" width="52" x="242" y="578"/><ellipse cx="257" cy="594" fill="#ADD1B2" rx="11" ry="11" style="stroke: #A80036; stroke-width: 1.0;"/><path d="M259.4731,600.1431 Q258.8921,600.4419 258.2529,600.5913 Q257.6138,600.7407 256.9082,600.7407 Q254.4014,600.7407 253.0815,599.0889 Q251.7617,597.437 251.7617,594.3159 Q251.7617,591.1865 253.0815,589.5347 Q254.4014,587.8828 256.9082,587.8828 Q257.6138,587.8828 258.2612,588.0322 Q258.9087,588.1816 259.4731,588.4805 L259.4731,591.2031 Q258.8423,590.6221 258.2488,590.3523 Q257.6553,590.0825 257.0244,590.0825 Q255.6797,590.0825 254.9949,591.1492 Q254.3101,592.2158 254.3101,594.3159 Q254.3101,596.4077 254.9949,597.4744 Q255.6797,598.541 257.0244,598.541 Q257.6553,598.541 258.2488,598.2712 Q258.8423,598.0015 259.4731,597.4204 Z "/><text fill="#000000" font-family="sans-serif" font-size="12" lengthAdjust="spacingAndGlyphs" textLength="20" x="271" y="598.5352">IRQ</text><line style="stroke: #A80036; stroke-width: 1.5;" x1="243" x2="293" y1="610" y2="610"/><line style="stroke: #A80036; stroke-width: 1.5;" x1="243" x2="293" y1="618" y2="618"/><!--MD5=[0bf3469bbc0654d8b49162781ae19fa2]
reverse link uart to LL_uart--><path d="M167,231.21 C167,246.11 167,259.89 167,270.71 " fill="none" id="uart&lt;-LL_uart" style="stroke: #A80036; stroke-width: 1.0; stroke-dasharray: 7.0,7.0;"/><polygon fill="none" points="160,231.11,167,211.11,174,231.11,160,231.11" style="stroke: #A80036; stroke-width: 1.0;"/><!--MD5=[544b3e32eef71c3bc53997f8aa47c121]
reverse link LL_uart to HAL_uart--><path d="M167,324.09 C167,339.6 167,359.59 167,378.96 " fill="none" id="LL_uart&lt;-HAL_uart" style="stroke: #A80036; stroke-width: 1.0;"/><polygon fill="#A80036" points="167,319.01,163,328.01,167,324.01,171,328.01,167,319.01" style="stroke: #A80036; stroke-width: 1.0;"/><!--MD5=[3051ac779fae05f98e7bd8a044e5e4dc]
link HAL_uart to LL_power--><path d="M113.52,518.16 C98.25,537.77 82.48,558.01 70.35,573.58 " fill="none" id="HAL_uart-&gt;LL_power" style="stroke: #A80036; stroke-width: 1.0; stroke-dasharray: 7.0,7.0;"/><polygon fill="#A80036" points="67.03,577.85,75.7164,573.2081,70.1027,573.9055,69.4052,568.2919,67.03,577.85" style="stroke: #A80036; stroke-width: 1.0;"/><!--MD5=[d36ed029dfee2da96fda69b60efe2318]
link HAL_uart to LL_clock--><path d="M167,518.16 C167,537.43 167,557.32 167,572.78 " fill="none" id="HAL_uart-&gt;LL_clock" style="stroke: #A80036; stroke-width: 1.0; stroke-dasharray: 7.0,7.0;"/><polygon fill="#A80036" points="167,577.85,171,568.85,167,572.85,163,568.85,167,577.85" style="stroke: #A80036; stroke-width: 1.0;"/><!--MD5=[016ce4674204538627dadf91eeaf3f55]
link HAL_uart to IRQ--><path d="M212.77,518.16 C225.84,537.77 239.34,558.01 249.72,573.58 " fill="none" id="HAL_uart-&gt;IRQ" style="stroke: #A80036; stroke-width: 1.0; stroke-dasharray: 7.0,7.0;"/><polygon fill="#A80036" points="252.56,577.85,250.9113,568.1401,249.7931,573.6854,244.2478,572.5672,252.56,577.85" style="stroke: #A80036; stroke-width: 1.0;"/><!--MD5=[a4b99c942a407f43debf93175ececf70]
@startuml
interface uart {
	reset()
	read_byte()
	read_byte_nonblock()
	write_byte()
	set_baudrate()
	enable_irq()
	disable_irq()
	get_event()
	clear_event()
	set_parity()
	set_stopbits()
	set_wordsize()
}

class LL_uart {
}

class HAL_uart {
	init()
	deinit()
	read()
	write()
	register_rx_handler()
	register_tx_handler()
	register_error_handler()
}

uart <|.. LL_uart
LL_uart <- - HAL_uart

HAL_uart ..> LL_power
HAL_uart ..> LL_clock
HAL_uart ..> IRQ
@enduml

PlantUML version 1.2019.13(Wed Dec 11 02:18:29 KST 2019)
(GPL source distribution)
Java Runtime: Java(TM) SE Runtime Environment
JVM: Java HotSpot(TM) 64-Bit Server VM
Java Version: 15+36-1562
Operating System: Mac OS X
Default Encoding: UTF-8
Language: en
Country: KR
--></g></svg>