<?xml version="1.0" encoding="UTF-8" standalone="no"?><svg xmlns="http://www.w3.org/2000/svg" xmlns:xlink="http://www.w3.org/1999/xlink" contentScriptType="application/ecmascript" contentStyleType="text/css" height="460px" preserveAspectRatio="none" style="width:489px;height:460px;" version="1.1" viewBox="0 0 489 460" width="489px" zoomAndPan="magnify"><defs><filter height="300%" id="feol12ftgt2yt" width="300%" x="-1" y="-1"><feGaussianBlur result="blurOut" stdDeviation="2.0"/><feColorMatrix in="blurOut" result="blurOut2" type="matrix" values="0 0 0 0 0 0 0 0 0 0 0 0 0 0 0 0 0 0 .4 0"/><feOffset dx="4.0" dy="4.0" in="blurOut2" result="blurOut3"/><feBlend in="SourceGraphic" in2="blurOut3" mode="normal"/></filter></defs><g><!--MD5=[1712c144217d035a2da6f5ae8c9ac8a6]
class HAL_uart--><rect fill="#FEFECE" filter="url(#feol12ftgt2yt)" height="164.5957" id="HAL_uart" style="stroke: #A80036; stroke-width: 1.5;" width="143" x="201" y="8"/><ellipse cx="242.55" cy="24" fill="#ADD1B2" rx="11" ry="11" style="stroke: #A80036; stroke-width: 1.0;"/><path d="M245.0231,30.1431 Q244.4421,30.4419 243.8029,30.5913 Q243.1638,30.7407 242.4582,30.7407 Q239.9514,30.7407 238.6315,29.0889 Q237.3117,27.437 237.3117,24.3159 Q237.3117,21.1865 238.6315,19.5347 Q239.9514,17.8828 242.4582,17.8828 Q243.1638,17.8828 243.8112,18.0322 Q244.4587,18.1816 245.0231,18.4805 L245.0231,21.2031 Q244.3923,20.6221 243.7988,20.3523 Q243.2053,20.0825 242.5744,20.0825 Q241.2297,20.0825 240.5449,21.1492 Q239.8601,22.2158 239.8601,24.3159 Q239.8601,26.4077 240.5449,27.4744 Q241.2297,28.541 242.5744,28.541 Q243.2053,28.541 243.7988,28.2712 Q244.3923,28.0015 245.0231,27.4204 Z "/><text fill="#000000" font-family="sans-serif" font-size="12" lengthAdjust="spacingAndGlyphs" textLength="52" x="262.45" y="28.5352">HAL_uart</text><line style="stroke: #A80036; stroke-width: 1.5;" x1="202" x2="343" y1="40" y2="40"/><line style="stroke: #A80036; stroke-width: 1.5;" x1="202" x2="343" y1="48" y2="48"/><text fill="#000000" font-family="sans-serif" font-size="11" lengthAdjust="spacingAndGlyphs" textLength="25" x="207" y="62.6348">init()</text><text fill="#000000" font-family="sans-serif" font-size="11" lengthAdjust="spacingAndGlyphs" textLength="38" x="207" y="75.5898">deinit()</text><text fill="#000000" font-family="sans-serif" font-size="11" lengthAdjust="spacingAndGlyphs" textLength="43" x="207" y="88.5449">enable()</text><text fill="#000000" font-family="sans-serif" font-size="11" lengthAdjust="spacingAndGlyphs" textLength="46" x="207" y="101.5">disable()</text><text fill="#000000" font-family="sans-serif" font-size="11" lengthAdjust="spacingAndGlyphs" textLength="115" x="207" y="114.4551">register_rx_handler()</text><text fill="#000000" font-family="sans-serif" font-size="11" lengthAdjust="spacingAndGlyphs" textLength="114" x="207" y="127.4102">register_tx_handler()</text><text fill="#000000" font-family="sans-serif" font-size="11" lengthAdjust="spacingAndGlyphs" textLength="131" x="207" y="140.3652">register_error_handler()</text><text fill="#000000" font-family="sans-serif" font-size="11" lengthAdjust="spacingAndGlyphs" textLength="32" x="207" y="153.3203">read()</text><text fill="#000000" font-family="sans-serif" font-size="11" lengthAdjust="spacingAndGlyphs" textLength="34" x="207" y="166.2754">write()</text><!--MD5=[60334ee68e120b419987230cce1bee09]
class LL_uart--><rect fill="#FEFECE" filter="url(#feol12ftgt2yt)" height="216.416" id="LL_uart" style="stroke: #A80036; stroke-width: 1.5;" width="129" x="6" y="233"/><ellipse cx="46.2" cy="249" fill="#ADD1B2" rx="11" ry="11" style="stroke: #A80036; stroke-width: 1.0;"/><path d="M48.6731,255.1431 Q48.0921,255.4419 47.4529,255.5913 Q46.8138,255.7407 46.1082,255.7407 Q43.6014,255.7407 42.2815,254.0889 Q40.9617,252.437 40.9617,249.3159 Q40.9617,246.1865 42.2815,244.5347 Q43.6014,242.8828 46.1082,242.8828 Q46.8138,242.8828 47.4612,243.0322 Q48.1087,243.1816 48.6731,243.4805 L48.6731,246.2031 Q48.0423,245.6221 47.4488,245.3523 Q46.8553,245.0825 46.2244,245.0825 Q44.8797,245.0825 44.1949,246.1492 Q43.5101,247.2158 43.5101,249.3159 Q43.5101,251.4077 44.1949,252.4744 Q44.8797,253.541 46.2244,253.541 Q46.8553,253.541 47.4488,253.2712 Q48.0423,253.0015 48.6731,252.4204 Z "/><text fill="#000000" font-family="sans-serif" font-size="12" lengthAdjust="spacingAndGlyphs" textLength="41" x="65.8" y="253.5352">LL_uart</text><line style="stroke: #A80036; stroke-width: 1.5;" x1="7" x2="134" y1="265" y2="265"/><line style="stroke: #A80036; stroke-width: 1.5;" x1="7" x2="134" y1="273" y2="273"/><text fill="#000000" font-family="sans-serif" font-size="11" lengthAdjust="spacingAndGlyphs" textLength="35" x="12" y="287.6348">reset()</text><text fill="#000000" font-family="sans-serif" font-size="11" lengthAdjust="spacingAndGlyphs" textLength="61" x="12" y="300.5898">read_byte()</text><text fill="#000000" font-family="sans-serif" font-size="11" lengthAdjust="spacingAndGlyphs" textLength="117" x="12" y="313.5449">read_byte_nonblock()</text><text fill="#000000" font-family="sans-serif" font-size="11" lengthAdjust="spacingAndGlyphs" textLength="63" x="12" y="326.5">write_byte()</text><text fill="#000000" font-family="sans-serif" font-size="11" lengthAdjust="spacingAndGlyphs" textLength="78" x="12" y="339.4551">set_baudrate()</text><text fill="#000000" font-family="sans-serif" font-size="11" lengthAdjust="spacingAndGlyphs" textLength="86" x="12" y="352.4102">enable_rx_intr()</text><text fill="#000000" font-family="sans-serif" font-size="11" lengthAdjust="spacingAndGlyphs" textLength="89" x="12" y="365.3652">disable_rx_intr()</text><text fill="#000000" font-family="sans-serif" font-size="11" lengthAdjust="spacingAndGlyphs" textLength="85" x="12" y="378.3203">enable_tx_intr()</text><text fill="#000000" font-family="sans-serif" font-size="11" lengthAdjust="spacingAndGlyphs" textLength="88" x="12" y="391.2754">disable_tx_intr()</text><text fill="#000000" font-family="sans-serif" font-size="11" lengthAdjust="spacingAndGlyphs" textLength="64" x="12" y="404.2305">get_status()</text><text fill="#000000" font-family="sans-serif" font-size="11" lengthAdjust="spacingAndGlyphs" textLength="61" x="12" y="417.1855">set_parity()</text><text fill="#000000" font-family="sans-serif" font-size="11" lengthAdjust="spacingAndGlyphs" textLength="74" x="12" y="430.1406">set_stopbits()</text><text fill="#000000" font-family="sans-serif" font-size="11" lengthAdjust="spacingAndGlyphs" textLength="78" x="12" y="443.0957">set_wordsize()</text><!--MD5=[eb672f161971a32a28c99da6c0336b3d]
class LL_power--><rect fill="#FEFECE" filter="url(#feol12ftgt2yt)" height="48" id="LL_power" style="stroke: #A80036; stroke-width: 1.5;" width="86" x="170.5" y="317"/><ellipse cx="185.5" cy="333" fill="#ADD1B2" rx="11" ry="11" style="stroke: #A80036; stroke-width: 1.0;"/><path d="M187.9731,339.1431 Q187.3921,339.4419 186.7529,339.5913 Q186.1138,339.7407 185.4082,339.7407 Q182.9014,339.7407 181.5815,338.0889 Q180.2617,336.437 180.2617,333.3159 Q180.2617,330.1865 181.5815,328.5347 Q182.9014,326.8828 185.4082,326.8828 Q186.1138,326.8828 186.7612,327.0322 Q187.4087,327.1816 187.9731,327.4805 L187.9731,330.2031 Q187.3423,329.6221 186.7488,329.3523 Q186.1553,329.0825 185.5244,329.0825 Q184.1797,329.0825 183.4949,330.1492 Q182.8101,331.2158 182.8101,333.3159 Q182.8101,335.4077 183.4949,336.4744 Q184.1797,337.541 185.5244,337.541 Q186.1553,337.541 186.7488,337.2712 Q187.3423,337.0015 187.9731,336.4204 Z "/><text fill="#000000" font-family="sans-serif" font-size="12" lengthAdjust="spacingAndGlyphs" textLength="54" x="199.5" y="337.5352">LL_power</text><line style="stroke: #A80036; stroke-width: 1.5;" x1="171.5" x2="255.5" y1="349" y2="349"/><line style="stroke: #A80036; stroke-width: 1.5;" x1="171.5" x2="255.5" y1="357" y2="357"/><!--MD5=[8b0caf15fab33df914d6885d5506f67f]
class LL_clock--><rect fill="#FEFECE" filter="url(#feol12ftgt2yt)" height="48" id="LL_clock" style="stroke: #A80036; stroke-width: 1.5;" width="79" x="292" y="317"/><ellipse cx="307" cy="333" fill="#ADD1B2" rx="11" ry="11" style="stroke: #A80036; stroke-width: 1.0;"/><path d="M309.4731,339.1431 Q308.8921,339.4419 308.2529,339.5913 Q307.6138,339.7407 306.9082,339.7407 Q304.4014,339.7407 303.0815,338.0889 Q301.7617,336.437 301.7617,333.3159 Q301.7617,330.1865 303.0815,328.5347 Q304.4014,326.8828 306.9082,326.8828 Q307.6138,326.8828 308.2612,327.0322 Q308.9087,327.1816 309.4731,327.4805 L309.4731,330.2031 Q308.8423,329.6221 308.2488,329.3523 Q307.6553,329.0825 307.0244,329.0825 Q305.6797,329.0825 304.9949,330.1492 Q304.3101,331.2158 304.3101,333.3159 Q304.3101,335.4077 304.9949,336.4744 Q305.6797,337.541 307.0244,337.541 Q307.6553,337.541 308.2488,337.2712 Q308.8423,337.0015 309.4731,336.4204 Z "/><text fill="#000000" font-family="sans-serif" font-size="12" lengthAdjust="spacingAndGlyphs" textLength="47" x="321" y="337.5352">LL_clock</text><line style="stroke: #A80036; stroke-width: 1.5;" x1="293" x2="370" y1="349" y2="349"/><line style="stroke: #A80036; stroke-width: 1.5;" x1="293" x2="370" y1="357" y2="357"/><!--MD5=[52652f3840a7b4a1493281a11ba0ff57]
class LL_nvic--><rect fill="#FEFECE" filter="url(#feol12ftgt2yt)" height="48" id="LL_nvic" style="stroke: #A80036; stroke-width: 1.5;" width="72" x="406.5" y="317"/><ellipse cx="421.5" cy="333" fill="#ADD1B2" rx="11" ry="11" style="stroke: #A80036; stroke-width: 1.0;"/><path d="M423.9731,339.1431 Q423.3921,339.4419 422.7529,339.5913 Q422.1138,339.7407 421.4082,339.7407 Q418.9014,339.7407 417.5815,338.0889 Q416.2617,336.437 416.2617,333.3159 Q416.2617,330.1865 417.5815,328.5347 Q418.9014,326.8828 421.4082,326.8828 Q422.1138,326.8828 422.7612,327.0322 Q423.4087,327.1816 423.9731,327.4805 L423.9731,330.2031 Q423.3423,329.6221 422.7488,329.3523 Q422.1553,329.0825 421.5244,329.0825 Q420.1797,329.0825 419.4949,330.1492 Q418.8101,331.2158 418.8101,333.3159 Q418.8101,335.4077 419.4949,336.4744 Q420.1797,337.541 421.5244,337.541 Q422.1553,337.541 422.7488,337.2712 Q423.3423,337.0015 423.9731,336.4204 Z "/><text fill="#000000" font-family="sans-serif" font-size="12" lengthAdjust="spacingAndGlyphs" textLength="40" x="435.5" y="337.5352">LL_nvic</text><line style="stroke: #A80036; stroke-width: 1.5;" x1="407.5" x2="477.5" y1="349" y2="349"/><line style="stroke: #A80036; stroke-width: 1.5;" x1="407.5" x2="477.5" y1="357" y2="357"/><!--MD5=[8de562a3aee8c07bd9630047363cbc2a]
link HAL_uart to LL_uart--><path d="M202.01,173.23 C185.57,192.67 168.27,213.44 152.5,233 C147.84,238.77 143.09,244.76 138.32,250.81 " fill="none" id="HAL_uart-&gt;LL_uart" style="stroke: #A80036; stroke-width: 1.0;"/><polygon fill="#A80036" points="135.02,255.01,143.7168,250.3877,138.1015,251.0725,137.4168,245.4572,135.02,255.01" style="stroke: #A80036; stroke-width: 1.0;"/><!--MD5=[3051ac779fae05f98e7bd8a044e5e4dc]
link HAL_uart to LL_power--><path d="M253.1,173.21 C241.78,220.88 228.21,278.05 220.25,311.56 " fill="none" id="HAL_uart-&gt;LL_power" style="stroke: #A80036; stroke-width: 1.0; stroke-dasharray: 7.0,7.0;"/><polygon fill="#A80036" points="219.02,316.74,224.9968,308.912,220.1787,311.8761,217.2146,307.058,219.02,316.74" style="stroke: #A80036; stroke-width: 1.0;"/><!--MD5=[d36ed029dfee2da96fda69b60efe2318]
link HAL_uart to LL_clock--><path d="M291.9,173.21 C303.22,220.88 316.79,278.05 324.75,311.56 " fill="none" id="HAL_uart-&gt;LL_clock" style="stroke: #A80036; stroke-width: 1.0; stroke-dasharray: 7.0,7.0;"/><polygon fill="#A80036" points="325.98,316.74,327.7854,307.058,324.8213,311.8761,320.0032,308.912,325.98,316.74" style="stroke: #A80036; stroke-width: 1.0;"/><!--MD5=[65cfaad3eff18a2abba2e2b5e79e5af1]
link HAL_uart to LL_nvic--><path d="M344.06,172.61 C359.55,191.8 375.24,212.63 388.5,233 C405.14,258.56 420.43,289.93 430.46,312.07 " fill="none" id="HAL_uart-&gt;LL_nvic" style="stroke: #A80036; stroke-width: 1.0; stroke-dasharray: 7.0,7.0;"/><polygon fill="#A80036" points="432.51,316.65,432.4785,306.8012,430.4647,312.0875,425.1785,310.0736,432.51,316.65" style="stroke: #A80036; stroke-width: 1.0;"/><!--MD5=[b4a660671a068fed7b723435198e4f92]
@startuml
class HAL_uart {
	init()
	deinit()
	enable()
	disable()
	register_rx_handler()
	register_tx_handler()
	register_error_handler()
	read()
	write()
}

class LL_uart {
	reset()
	read_byte()
	read_byte_nonblock()
	write_byte()
	set_baudrate()
	enable_rx_intr()
	disable_rx_intr()
	enable_tx_intr()
	disable_tx_intr()
	get_status()
	set_parity()
	set_stopbits()
	set_wordsize()
}

HAL_uart - -> LL_uart
HAL_uart ..> LL_power
HAL_uart ..> LL_clock
HAL_uart ..> LL_nvic
@enduml

PlantUML version 1.2019.13(Wed Dec 11 02:18:29 KST 2019)
(GPL source distribution)
Java Runtime: Java(TM) SE Runtime Environment
JVM: Java HotSpot(TM) 64-Bit Server VM
Java Version: 15+36-1562
Operating System: Mac OS X
Default Encoding: UTF-8
Language: en
Country: KR
--></g></svg>