<?xml version="1.0" encoding="UTF-8" standalone="no"?><svg xmlns="http://www.w3.org/2000/svg" xmlns:xlink="http://www.w3.org/1999/xlink" contentScriptType="application/ecmascript" contentStyleType="text/css" height="684px" preserveAspectRatio="none" style="width:479px;height:684px;" version="1.1" viewBox="0 0 479 684" width="479px" zoomAndPan="magnify"><defs><filter height="300%" id="f1d5gawgevauqo" width="300%" x="-1" y="-1"><feGaussianBlur result="blurOut" stdDeviation="2.0"/><feColorMatrix in="blurOut" result="blurOut2" type="matrix" values="0 0 0 0 0 0 0 0 0 0 0 0 0 0 0 0 0 0 .4 0"/><feOffset dx="4.0" dy="4.0" in="blurOut2" result="blurOut3"/><feBlend in="SourceGraphic" in2="blurOut3" mode="normal"/></filter></defs><g><!--MD5=[edef5880dcd2a344f10f67ea406b4a81]
class UART--><rect fill="#FEFECE" filter="url(#f1d5gawgevauqo)" height="125.7305" id="UART" style="stroke: #A80036; stroke-width: 1.5;" width="90" x="6" y="548"/><ellipse cx="32.7" cy="564" fill="#B4A7E5" rx="11" ry="11" style="stroke: #A80036; stroke-width: 1.0;"/><path d="M29.1277,560.2651 L29.1277,558.1069 L36.5071,558.1069 L36.5071,560.2651 L34.0418,560.2651 L34.0418,568.3418 L36.5071,568.3418 L36.5071,570.5 L29.1277,570.5 L29.1277,568.3418 L31.5931,568.3418 L31.5931,560.2651 Z "/><text fill="#000000" font-family="sans-serif" font-size="12" font-style="italic" lengthAdjust="spacingAndGlyphs" textLength="32" x="49.3" y="568.5352">UART</text><line style="stroke: #A80036; stroke-width: 1.5;" x1="7" x2="95" y1="580" y2="580"/><line style="stroke: #A80036; stroke-width: 1.5;" x1="7" x2="95" y1="588" y2="588"/><text fill="#000000" font-family="sans-serif" font-size="11" lengthAdjust="spacingAndGlyphs" textLength="78" x="12" y="602.6348">set_baudrate()</text><text fill="#000000" font-family="sans-serif" font-size="11" lengthAdjust="spacingAndGlyphs" textLength="60" x="12" y="615.5898">get_event()</text><text fill="#000000" font-family="sans-serif" font-size="11" lengthAdjust="spacingAndGlyphs" textLength="69" x="12" y="628.5449">clear_event()</text><text fill="#000000" font-family="sans-serif" font-size="11" lengthAdjust="spacingAndGlyphs" textLength="61" x="12" y="641.5">set_parity()</text><text fill="#000000" font-family="sans-serif" font-size="11" lengthAdjust="spacingAndGlyphs" textLength="74" x="12" y="654.4551">set_stopbits()</text><text fill="#000000" font-family="sans-serif" font-size="11" lengthAdjust="spacingAndGlyphs" textLength="78" x="12" y="667.4102">set_wordsize()</text><!--MD5=[b3c4cffaebeb1ca91d3860615de3212f]
class LL--><rect fill="#FEFECE" filter="url(#f1d5gawgevauqo)" height="242.3262" id="LL" style="stroke: #A80036; stroke-width: 1.5;" width="90" x="55" y="246"/><ellipse cx="90.7" cy="262" fill="#ADD1B2" rx="11" ry="11" style="stroke: #A80036; stroke-width: 1.0;"/><path d="M93.1731,268.1431 Q92.5921,268.4419 91.9529,268.5913 Q91.3138,268.7407 90.6082,268.7407 Q88.1014,268.7407 86.7815,267.0889 Q85.4617,265.437 85.4617,262.3159 Q85.4617,259.1865 86.7815,257.5347 Q88.1014,255.8828 90.6082,255.8828 Q91.3138,255.8828 91.9612,256.0322 Q92.6087,256.1816 93.1731,256.4805 L93.1731,259.2031 Q92.5423,258.6221 91.9488,258.3523 Q91.3553,258.0825 90.7244,258.0825 Q89.3797,258.0825 88.6949,259.1492 Q88.0101,260.2158 88.0101,262.3159 Q88.0101,264.4077 88.6949,265.4744 Q89.3797,266.541 90.7244,266.541 Q91.3553,266.541 91.9488,266.2712 Q92.5423,266.0015 93.1731,265.4204 Z "/><text fill="#000000" font-family="sans-serif" font-size="12" lengthAdjust="spacingAndGlyphs" textLength="12" x="109.3" y="266.5352">LL</text><line style="stroke: #A80036; stroke-width: 1.5;" x1="56" x2="144" y1="278" y2="278"/><line style="stroke: #A80036; stroke-width: 1.5;" x1="56" x2="144" y1="286" y2="286"/><text fill="#000000" font-family="sans-serif" font-size="11" lengthAdjust="spacingAndGlyphs" textLength="35" x="61" y="300.6348">reset()</text><text fill="#000000" font-family="sans-serif" font-size="11" lengthAdjust="spacingAndGlyphs" textLength="45" x="61" y="313.5898">has_rx()</text><text fill="#000000" font-family="sans-serif" font-size="11" lengthAdjust="spacingAndGlyphs" textLength="70" x="61" y="326.5449">is_tx_ready()</text><text fill="#000000" font-family="sans-serif" font-size="11" lengthAdjust="spacingAndGlyphs" textLength="50" x="61" y="339.5">get_rxd()</text><text fill="#000000" font-family="sans-serif" font-size="11" lengthAdjust="spacingAndGlyphs" textLength="48" x="61" y="352.4551">set_txd()</text><text fill="#000000" font-family="sans-serif" font-size="11" lengthAdjust="spacingAndGlyphs" textLength="78" x="61" y="365.4102">set_baudrate()</text><text fill="#000000" font-family="sans-serif" font-size="11" lengthAdjust="spacingAndGlyphs" textLength="64" x="61" y="378.3652">enable_irq()</text><text fill="#000000" font-family="sans-serif" font-size="11" lengthAdjust="spacingAndGlyphs" textLength="67" x="61" y="391.3203">disable_irq()</text><text fill="#000000" font-family="sans-serif" font-size="11" lengthAdjust="spacingAndGlyphs" textLength="60" x="61" y="404.2754">get_event()</text><text fill="#000000" font-family="sans-serif" font-size="11" lengthAdjust="spacingAndGlyphs" textLength="69" x="61" y="417.2305">clear_event()</text><text fill="#000000" font-family="sans-serif" font-size="11" lengthAdjust="spacingAndGlyphs" textLength="61" x="61" y="430.1855">set_parity()</text><text fill="#000000" font-family="sans-serif" font-size="11" lengthAdjust="spacingAndGlyphs" textLength="74" x="61" y="443.1406">set_stopbits()</text><text fill="#000000" font-family="sans-serif" font-size="11" lengthAdjust="spacingAndGlyphs" textLength="78" x="61" y="456.0957">set_wordsize()</text><text fill="#000000" font-family="sans-serif" font-size="11" lengthAdjust="spacingAndGlyphs" textLength="33" x="61" y="469.0508">start()</text><text fill="#000000" font-family="sans-serif" font-size="11" lengthAdjust="spacingAndGlyphs" textLength="32" x="61" y="482.0059">stop()</text><!--MD5=[be3765a8ee426731c4981c30c0d20f09]
class HAL--><rect fill="#FEFECE" filter="url(#f1d5gawgevauqo)" height="177.5508" id="HAL" style="stroke: #A80036; stroke-width: 1.5;" width="143" x="151.5" y="8"/><ellipse cx="207.25" cy="24" fill="#ADD1B2" rx="11" ry="11" style="stroke: #A80036; stroke-width: 1.0;"/><path d="M209.7231,30.1431 Q209.1421,30.4419 208.5029,30.5913 Q207.8638,30.7407 207.1582,30.7407 Q204.6514,30.7407 203.3315,29.0889 Q202.0117,27.437 202.0117,24.3159 Q202.0117,21.1865 203.3315,19.5347 Q204.6514,17.8828 207.1582,17.8828 Q207.8638,17.8828 208.5112,18.0322 Q209.1587,18.1816 209.7231,18.4805 L209.7231,21.2031 Q209.0923,20.6221 208.4988,20.3523 Q207.9053,20.0825 207.2744,20.0825 Q205.9297,20.0825 205.2449,21.1492 Q204.5601,22.2158 204.5601,24.3159 Q204.5601,26.4077 205.2449,27.4744 Q205.9297,28.541 207.2744,28.541 Q207.9053,28.541 208.4988,28.2712 Q209.0923,28.0015 209.7231,27.4204 Z "/><text fill="#000000" font-family="sans-serif" font-size="12" lengthAdjust="spacingAndGlyphs" textLength="23" x="227.75" y="28.5352">HAL</text><line style="stroke: #A80036; stroke-width: 1.5;" x1="152.5" x2="293.5" y1="40" y2="40"/><line style="stroke: #A80036; stroke-width: 1.5;" x1="152.5" x2="293.5" y1="48" y2="48"/><text fill="#000000" font-family="sans-serif" font-size="11" lengthAdjust="spacingAndGlyphs" textLength="25" x="157.5" y="62.6348">init()</text><text fill="#000000" font-family="sans-serif" font-size="11" lengthAdjust="spacingAndGlyphs" textLength="38" x="157.5" y="75.5898">deinit()</text><text fill="#000000" font-family="sans-serif" font-size="11" lengthAdjust="spacingAndGlyphs" textLength="32" x="157.5" y="88.5449">read()</text><text fill="#000000" font-family="sans-serif" font-size="11" lengthAdjust="spacingAndGlyphs" textLength="34" x="157.5" y="101.5">write()</text><text fill="#000000" font-family="sans-serif" font-size="11" lengthAdjust="spacingAndGlyphs" textLength="61" x="157.5" y="114.4551">read_byte()</text><text fill="#000000" font-family="sans-serif" font-size="11" lengthAdjust="spacingAndGlyphs" textLength="117" x="157.5" y="127.4102">read_byte_nonblock()</text><text fill="#000000" font-family="sans-serif" font-size="11" lengthAdjust="spacingAndGlyphs" textLength="63" x="157.5" y="140.3652">write_byte()</text><text fill="#000000" font-family="sans-serif" font-size="11" lengthAdjust="spacingAndGlyphs" textLength="115" x="157.5" y="153.3203">register_rx_handler()</text><text fill="#000000" font-family="sans-serif" font-size="11" lengthAdjust="spacingAndGlyphs" textLength="114" x="157.5" y="166.2754">register_tx_handler()</text><text fill="#000000" font-family="sans-serif" font-size="11" lengthAdjust="spacingAndGlyphs" textLength="131" x="157.5" y="179.2305">register_error_handler()</text><!--MD5=[eb672f161971a32a28c99da6c0336b3d]
class LL_power--><rect fill="#FEFECE" filter="url(#f1d5gawgevauqo)" height="48" id="LL_power" style="stroke: #A80036; stroke-width: 1.5;" width="86" x="180" y="343"/><ellipse cx="195" cy="359" fill="#ADD1B2" rx="11" ry="11" style="stroke: #A80036; stroke-width: 1.0;"/><path d="M197.4731,365.1431 Q196.8921,365.4419 196.2529,365.5913 Q195.6138,365.7407 194.9082,365.7407 Q192.4014,365.7407 191.0815,364.0889 Q189.7617,362.437 189.7617,359.3159 Q189.7617,356.1865 191.0815,354.5347 Q192.4014,352.8828 194.9082,352.8828 Q195.6138,352.8828 196.2612,353.0322 Q196.9087,353.1816 197.4731,353.4805 L197.4731,356.2031 Q196.8423,355.6221 196.2488,355.3523 Q195.6553,355.0825 195.0244,355.0825 Q193.6797,355.0825 192.9949,356.1492 Q192.3101,357.2158 192.3101,359.3159 Q192.3101,361.4077 192.9949,362.4744 Q193.6797,363.541 195.0244,363.541 Q195.6553,363.541 196.2488,363.2712 Q196.8423,363.0015 197.4731,362.4204 Z "/><text fill="#000000" font-family="sans-serif" font-size="12" lengthAdjust="spacingAndGlyphs" textLength="54" x="209" y="363.5352">LL_power</text><line style="stroke: #A80036; stroke-width: 1.5;" x1="181" x2="265" y1="375" y2="375"/><line style="stroke: #A80036; stroke-width: 1.5;" x1="181" x2="265" y1="383" y2="383"/><!--MD5=[8b0caf15fab33df914d6885d5506f67f]
class LL_clock--><rect fill="#FEFECE" filter="url(#f1d5gawgevauqo)" height="48" id="LL_clock" style="stroke: #A80036; stroke-width: 1.5;" width="79" x="301.5" y="343"/><ellipse cx="316.5" cy="359" fill="#ADD1B2" rx="11" ry="11" style="stroke: #A80036; stroke-width: 1.0;"/><path d="M318.9731,365.1431 Q318.3921,365.4419 317.7529,365.5913 Q317.1138,365.7407 316.4082,365.7407 Q313.9014,365.7407 312.5815,364.0889 Q311.2617,362.437 311.2617,359.3159 Q311.2617,356.1865 312.5815,354.5347 Q313.9014,352.8828 316.4082,352.8828 Q317.1138,352.8828 317.7612,353.0322 Q318.4087,353.1816 318.9731,353.4805 L318.9731,356.2031 Q318.3423,355.6221 317.7488,355.3523 Q317.1553,355.0825 316.5244,355.0825 Q315.1797,355.0825 314.4949,356.1492 Q313.8101,357.2158 313.8101,359.3159 Q313.8101,361.4077 314.4949,362.4744 Q315.1797,363.541 316.5244,363.541 Q317.1553,363.541 317.7488,363.2712 Q318.3423,363.0015 318.9731,362.4204 Z "/><text fill="#000000" font-family="sans-serif" font-size="12" lengthAdjust="spacingAndGlyphs" textLength="47" x="330.5" y="363.5352">LL_clock</text><line style="stroke: #A80036; stroke-width: 1.5;" x1="302.5" x2="379.5" y1="375" y2="375"/><line style="stroke: #A80036; stroke-width: 1.5;" x1="302.5" x2="379.5" y1="383" y2="383"/><!--MD5=[831aefa9ebd008f9dae82517425faefb]
class IRQ--><rect fill="#FEFECE" filter="url(#f1d5gawgevauqo)" height="48" id="IRQ" style="stroke: #A80036; stroke-width: 1.5;" width="52" x="416" y="343"/><ellipse cx="431" cy="359" fill="#ADD1B2" rx="11" ry="11" style="stroke: #A80036; stroke-width: 1.0;"/><path d="M433.4731,365.1431 Q432.8921,365.4419 432.2529,365.5913 Q431.6138,365.7407 430.9082,365.7407 Q428.4014,365.7407 427.0815,364.0889 Q425.7617,362.437 425.7617,359.3159 Q425.7617,356.1865 427.0815,354.5347 Q428.4014,352.8828 430.9082,352.8828 Q431.6138,352.8828 432.2612,353.0322 Q432.9087,353.1816 433.4731,353.4805 L433.4731,356.2031 Q432.8423,355.6221 432.2488,355.3523 Q431.6553,355.0825 431.0244,355.0825 Q429.6797,355.0825 428.9949,356.1492 Q428.3101,357.2158 428.3101,359.3159 Q428.3101,361.4077 428.9949,362.4744 Q429.6797,363.541 431.0244,363.541 Q431.6553,363.541 432.2488,363.2712 Q432.8423,363.0015 433.4731,362.4204 Z "/><text fill="#000000" font-family="sans-serif" font-size="12" lengthAdjust="spacingAndGlyphs" textLength="20" x="445" y="363.5352">IRQ</text><line style="stroke: #A80036; stroke-width: 1.5;" x1="417" x2="467" y1="375" y2="375"/><line style="stroke: #A80036; stroke-width: 1.5;" x1="417" x2="467" y1="383" y2="383"/><!--MD5=[7376957825046c77d81728dbe509c10b]
link HAL to UART--><path d="M151.39,134.09 C109.97,159.25 61.52,197.07 38,246 C-4.87,335.2 9.54,451.39 27.21,528.22 " fill="none" id="HAL-&gt;UART" style="stroke: #A80036; stroke-width: 1.0; stroke-dasharray: 7.0,7.0;"/><polygon fill="none" points="34.06,526.74,31.99,547.83,20.45,530.06,34.06,526.74" style="stroke: #A80036; stroke-width: 1.0;"/><!--MD5=[7c42b4011aa728296f409c876b3a9cd7]
link HAL to LL--><path d="M182.55,186.12 C171.28,210.68 158.94,237.58 147.31,262.92 " fill="none" id="HAL-&gt;LL" style="stroke: #A80036; stroke-width: 1.0;"/><polygon fill="#A80036" points="145.15,267.63,152.5404,261.1198,147.2362,263.086,145.27,257.7819,145.15,267.63" style="stroke: #A80036; stroke-width: 1.0;"/><!--MD5=[f481892d08b88046121823827ef5b6c7]
link HAL to LL_power--><path d="M223,186.12 C223,238.76 223,302.14 223,337.88 " fill="none" id="HAL-&gt;LL_power" style="stroke: #A80036; stroke-width: 1.0; stroke-dasharray: 7.0,7.0;"/><polygon fill="#A80036" points="223,342.95,227,333.95,223,337.95,219,333.95,223,342.95" style="stroke: #A80036; stroke-width: 1.0;"/><!--MD5=[03027760a4a69a9b5b7ae20cb535c4e1]
link HAL to LL_clock--><path d="M261.8,186.12 C285.07,238.98 313.11,302.66 328.81,338.32 " fill="none" id="HAL-&gt;LL_clock" style="stroke: #A80036; stroke-width: 1.0; stroke-dasharray: 7.0,7.0;"/><polygon fill="#A80036" points="330.85,342.95,330.8928,333.1012,328.8392,338.3722,323.5682,336.3186,330.85,342.95" style="stroke: #A80036; stroke-width: 1.0;"/><!--MD5=[aa119ece880843938e062c5ac955c7c5]
link HAL to IRQ--><path d="M294.66,145.14 C329.81,171.32 370.41,206.54 398,246 C417.67,274.13 429.63,312.08 436.02,337.71 " fill="none" id="HAL-&gt;IRQ" style="stroke: #A80036; stroke-width: 1.0; stroke-dasharray: 7.0,7.0;"/><polygon fill="#A80036" points="437.23,342.67,438.9881,332.9793,436.0475,337.8118,431.215,334.8713,437.23,342.67" style="stroke: #A80036; stroke-width: 1.0;"/><!--MD5=[b3455b2c35870c3b78c34e8bcc3cf578]
link LL to UART--><path d="M75.64,488.29 C71.86,507 68.06,525.72 64.63,542.69 " fill="none" id="LL-&gt;UART" style="stroke: #A80036; stroke-width: 1.0;"/><polygon fill="#A80036" points="63.58,547.89,69.2989,539.8716,64.5798,542.991,61.4604,538.2719,63.58,547.89" style="stroke: #A80036; stroke-width: 1.0;"/><!--MD5=[6815015770a3f82f5748eab65b1973af]
@startuml
interface UART {
	set_baudrate()
	get_event()
	clear_event()
	set_parity()
	set_stopbits()
	set_wordsize()
}

class LL {
	reset()
	has_rx()
	is_tx_ready()
	get_rxd()
	set_txd()
	set_baudrate()
	enable_irq()
	disable_irq()
	get_event()
	clear_event()
	set_parity()
	set_stopbits()
	set_wordsize()
	start()
	stop()
}

class HAL {
	init()
	deinit()
	read()
	write()
	read_byte()
	read_byte_nonblock()
	write_byte()
	register_rx_handler()
	register_tx_handler()
	register_error_handler()
}

HAL ..|> UART
HAL - -> LL
HAL ..> LL_power
HAL ..> LL_clock
HAL ..> IRQ
LL - -> UART
@enduml

PlantUML version 1.2019.13(Wed Dec 11 02:18:29 KST 2019)
(GPL source distribution)
Java Runtime: Java(TM) SE Runtime Environment
JVM: Java HotSpot(TM) 64-Bit Server VM
Java Version: 15+36-1562
Operating System: Mac OS X
Default Encoding: UTF-8
Language: en
Country: KR
--></g></svg>