<?xml version="1.0" encoding="UTF-8" standalone="no"?><svg xmlns="http://www.w3.org/2000/svg" xmlns:xlink="http://www.w3.org/1999/xlink" contentScriptType="application/ecmascript" contentStyleType="text/css" height="421px" preserveAspectRatio="none" style="width:469px;height:421px;" version="1.1" viewBox="0 0 469 421" width="469px" zoomAndPan="magnify"><defs><filter height="300%" id="f5gtrwnwm4fuh" width="300%" x="-1" y="-1"><feGaussianBlur result="blurOut" stdDeviation="2.0"/><feColorMatrix in="blurOut" result="blurOut2" type="matrix" values="0 0 0 0 0 0 0 0 0 0 0 0 0 0 0 0 0 0 .4 0"/><feOffset dx="4.0" dy="4.0" in="blurOut2" result="blurOut3"/><feBlend in="SourceGraphic" in2="blurOut3" mode="normal"/></filter></defs><g><!--MD5=[1712c144217d035a2da6f5ae8c9ac8a6]
class HAL_uart--><rect fill="#FEFECE" filter="url(#f5gtrwnwm4fuh)" height="138.6855" id="HAL_uart" style="stroke: #A80036; stroke-width: 1.5;" width="143" x="201" y="8"/><ellipse cx="242.55" cy="24" fill="#ADD1B2" rx="11" ry="11" style="stroke: #A80036; stroke-width: 1.0;"/><path d="M245.0231,30.1431 Q244.4421,30.4419 243.8029,30.5913 Q243.1638,30.7407 242.4582,30.7407 Q239.9514,30.7407 238.6315,29.0889 Q237.3117,27.437 237.3117,24.3159 Q237.3117,21.1865 238.6315,19.5347 Q239.9514,17.8828 242.4582,17.8828 Q243.1638,17.8828 243.8112,18.0322 Q244.4587,18.1816 245.0231,18.4805 L245.0231,21.2031 Q244.3923,20.6221 243.7988,20.3523 Q243.2053,20.0825 242.5744,20.0825 Q241.2297,20.0825 240.5449,21.1492 Q239.8601,22.2158 239.8601,24.3159 Q239.8601,26.4077 240.5449,27.4744 Q241.2297,28.541 242.5744,28.541 Q243.2053,28.541 243.7988,28.2712 Q244.3923,28.0015 245.0231,27.4204 Z "/><text fill="#000000" font-family="sans-serif" font-size="12" lengthAdjust="spacingAndGlyphs" textLength="52" x="262.45" y="28.5352">HAL_uart</text><line style="stroke: #A80036; stroke-width: 1.5;" x1="202" x2="343" y1="40" y2="40"/><line style="stroke: #A80036; stroke-width: 1.5;" x1="202" x2="343" y1="48" y2="48"/><text fill="#000000" font-family="sans-serif" font-size="11" lengthAdjust="spacingAndGlyphs" textLength="25" x="207" y="62.6348">init()</text><text fill="#000000" font-family="sans-serif" font-size="11" lengthAdjust="spacingAndGlyphs" textLength="38" x="207" y="75.5898">deinit()</text><text fill="#000000" font-family="sans-serif" font-size="11" lengthAdjust="spacingAndGlyphs" textLength="32" x="207" y="88.5449">read()</text><text fill="#000000" font-family="sans-serif" font-size="11" lengthAdjust="spacingAndGlyphs" textLength="34" x="207" y="101.5">write()</text><text fill="#000000" font-family="sans-serif" font-size="11" lengthAdjust="spacingAndGlyphs" textLength="115" x="207" y="114.4551">register_rx_handler()</text><text fill="#000000" font-family="sans-serif" font-size="11" lengthAdjust="spacingAndGlyphs" textLength="114" x="207" y="127.4102">register_tx_handler()</text><text fill="#000000" font-family="sans-serif" font-size="11" lengthAdjust="spacingAndGlyphs" textLength="131" x="207" y="140.3652">register_error_handler()</text><!--MD5=[60334ee68e120b419987230cce1bee09]
class LL_uart--><rect fill="#FEFECE" filter="url(#f5gtrwnwm4fuh)" height="203.4609" id="LL_uart" style="stroke: #A80036; stroke-width: 1.5;" width="129" x="6" y="207"/><ellipse cx="46.2" cy="223" fill="#ADD1B2" rx="11" ry="11" style="stroke: #A80036; stroke-width: 1.0;"/><path d="M48.6731,229.1431 Q48.0921,229.4419 47.4529,229.5913 Q46.8138,229.7407 46.1082,229.7407 Q43.6014,229.7407 42.2815,228.0889 Q40.9617,226.437 40.9617,223.3159 Q40.9617,220.1865 42.2815,218.5347 Q43.6014,216.8828 46.1082,216.8828 Q46.8138,216.8828 47.4612,217.0322 Q48.1087,217.1816 48.6731,217.4805 L48.6731,220.2031 Q48.0423,219.6221 47.4488,219.3523 Q46.8553,219.0825 46.2244,219.0825 Q44.8797,219.0825 44.1949,220.1492 Q43.5101,221.2158 43.5101,223.3159 Q43.5101,225.4077 44.1949,226.4744 Q44.8797,227.541 46.2244,227.541 Q46.8553,227.541 47.4488,227.2712 Q48.0423,227.0015 48.6731,226.4204 Z "/><text fill="#000000" font-family="sans-serif" font-size="12" lengthAdjust="spacingAndGlyphs" textLength="41" x="65.8" y="227.5352">LL_uart</text><line style="stroke: #A80036; stroke-width: 1.5;" x1="7" x2="134" y1="239" y2="239"/><line style="stroke: #A80036; stroke-width: 1.5;" x1="7" x2="134" y1="247" y2="247"/><text fill="#000000" font-family="sans-serif" font-size="11" lengthAdjust="spacingAndGlyphs" textLength="35" x="12" y="261.6348">reset()</text><text fill="#000000" font-family="sans-serif" font-size="11" lengthAdjust="spacingAndGlyphs" textLength="61" x="12" y="274.5898">read_byte()</text><text fill="#000000" font-family="sans-serif" font-size="11" lengthAdjust="spacingAndGlyphs" textLength="117" x="12" y="287.5449">read_byte_nonblock()</text><text fill="#000000" font-family="sans-serif" font-size="11" lengthAdjust="spacingAndGlyphs" textLength="63" x="12" y="300.5">write_byte()</text><text fill="#000000" font-family="sans-serif" font-size="11" lengthAdjust="spacingAndGlyphs" textLength="78" x="12" y="313.4551">set_baudrate()</text><text fill="#000000" font-family="sans-serif" font-size="11" lengthAdjust="spacingAndGlyphs" textLength="64" x="12" y="326.4102">enable_irq()</text><text fill="#000000" font-family="sans-serif" font-size="11" lengthAdjust="spacingAndGlyphs" textLength="67" x="12" y="339.3652">disable_irq()</text><text fill="#000000" font-family="sans-serif" font-size="11" lengthAdjust="spacingAndGlyphs" textLength="60" x="12" y="352.3203">get_event()</text><text fill="#000000" font-family="sans-serif" font-size="11" lengthAdjust="spacingAndGlyphs" textLength="69" x="12" y="365.2754">clear_event()</text><text fill="#000000" font-family="sans-serif" font-size="11" lengthAdjust="spacingAndGlyphs" textLength="61" x="12" y="378.2305">set_parity()</text><text fill="#000000" font-family="sans-serif" font-size="11" lengthAdjust="spacingAndGlyphs" textLength="74" x="12" y="391.1855">set_stopbits()</text><text fill="#000000" font-family="sans-serif" font-size="11" lengthAdjust="spacingAndGlyphs" textLength="78" x="12" y="404.1406">set_wordsize()</text><!--MD5=[eb672f161971a32a28c99da6c0336b3d]
class LL_power--><rect fill="#FEFECE" filter="url(#f5gtrwnwm4fuh)" height="48" id="LL_power" style="stroke: #A80036; stroke-width: 1.5;" width="86" x="170.5" y="284.5"/><ellipse cx="185.5" cy="300.5" fill="#ADD1B2" rx="11" ry="11" style="stroke: #A80036; stroke-width: 1.0;"/><path d="M187.9731,306.6431 Q187.3921,306.9419 186.7529,307.0913 Q186.1138,307.2407 185.4082,307.2407 Q182.9014,307.2407 181.5815,305.5889 Q180.2617,303.937 180.2617,300.8159 Q180.2617,297.6865 181.5815,296.0347 Q182.9014,294.3828 185.4082,294.3828 Q186.1138,294.3828 186.7612,294.5322 Q187.4087,294.6816 187.9731,294.9805 L187.9731,297.7031 Q187.3423,297.1221 186.7488,296.8523 Q186.1553,296.5825 185.5244,296.5825 Q184.1797,296.5825 183.4949,297.6492 Q182.8101,298.7158 182.8101,300.8159 Q182.8101,302.9077 183.4949,303.9744 Q184.1797,305.041 185.5244,305.041 Q186.1553,305.041 186.7488,304.7712 Q187.3423,304.5015 187.9731,303.9204 Z "/><text fill="#000000" font-family="sans-serif" font-size="12" lengthAdjust="spacingAndGlyphs" textLength="54" x="199.5" y="305.0352">LL_power</text><line style="stroke: #A80036; stroke-width: 1.5;" x1="171.5" x2="255.5" y1="316.5" y2="316.5"/><line style="stroke: #A80036; stroke-width: 1.5;" x1="171.5" x2="255.5" y1="324.5" y2="324.5"/><!--MD5=[8b0caf15fab33df914d6885d5506f67f]
class LL_clock--><rect fill="#FEFECE" filter="url(#f5gtrwnwm4fuh)" height="48" id="LL_clock" style="stroke: #A80036; stroke-width: 1.5;" width="79" x="292" y="284.5"/><ellipse cx="307" cy="300.5" fill="#ADD1B2" rx="11" ry="11" style="stroke: #A80036; stroke-width: 1.0;"/><path d="M309.4731,306.6431 Q308.8921,306.9419 308.2529,307.0913 Q307.6138,307.2407 306.9082,307.2407 Q304.4014,307.2407 303.0815,305.5889 Q301.7617,303.937 301.7617,300.8159 Q301.7617,297.6865 303.0815,296.0347 Q304.4014,294.3828 306.9082,294.3828 Q307.6138,294.3828 308.2612,294.5322 Q308.9087,294.6816 309.4731,294.9805 L309.4731,297.7031 Q308.8423,297.1221 308.2488,296.8523 Q307.6553,296.5825 307.0244,296.5825 Q305.6797,296.5825 304.9949,297.6492 Q304.3101,298.7158 304.3101,300.8159 Q304.3101,302.9077 304.9949,303.9744 Q305.6797,305.041 307.0244,305.041 Q307.6553,305.041 308.2488,304.7712 Q308.8423,304.5015 309.4731,303.9204 Z "/><text fill="#000000" font-family="sans-serif" font-size="12" lengthAdjust="spacingAndGlyphs" textLength="47" x="321" y="305.0352">LL_clock</text><line style="stroke: #A80036; stroke-width: 1.5;" x1="293" x2="370" y1="316.5" y2="316.5"/><line style="stroke: #A80036; stroke-width: 1.5;" x1="293" x2="370" y1="324.5" y2="324.5"/><!--MD5=[831aefa9ebd008f9dae82517425faefb]
class IRQ--><rect fill="#FEFECE" filter="url(#f5gtrwnwm4fuh)" height="48" id="IRQ" style="stroke: #A80036; stroke-width: 1.5;" width="52" x="406.5" y="284.5"/><ellipse cx="421.5" cy="300.5" fill="#ADD1B2" rx="11" ry="11" style="stroke: #A80036; stroke-width: 1.0;"/><path d="M423.9731,306.6431 Q423.3921,306.9419 422.7529,307.0913 Q422.1138,307.2407 421.4082,307.2407 Q418.9014,307.2407 417.5815,305.5889 Q416.2617,303.937 416.2617,300.8159 Q416.2617,297.6865 417.5815,296.0347 Q418.9014,294.3828 421.4082,294.3828 Q422.1138,294.3828 422.7612,294.5322 Q423.4087,294.6816 423.9731,294.9805 L423.9731,297.7031 Q423.3423,297.1221 422.7488,296.8523 Q422.1553,296.5825 421.5244,296.5825 Q420.1797,296.5825 419.4949,297.6492 Q418.8101,298.7158 418.8101,300.8159 Q418.8101,302.9077 419.4949,303.9744 Q420.1797,305.041 421.5244,305.041 Q422.1553,305.041 422.7488,304.7712 Q423.3423,304.5015 423.9731,303.9204 Z "/><text fill="#000000" font-family="sans-serif" font-size="12" lengthAdjust="spacingAndGlyphs" textLength="20" x="435.5" y="305.0352">IRQ</text><line style="stroke: #A80036; stroke-width: 1.5;" x1="407.5" x2="457.5" y1="316.5" y2="316.5"/><line style="stroke: #A80036; stroke-width: 1.5;" x1="407.5" x2="457.5" y1="324.5" y2="324.5"/><!--MD5=[8de562a3aee8c07bd9630047363cbc2a]
link HAL_uart to LL_uart--><path d="M206.87,147.08 C188.97,166.24 169.77,187.23 152.5,207 C147.87,212.31 143.14,217.82 138.42,223.4 " fill="none" id="HAL_uart-&gt;LL_uart" style="stroke: #A80036; stroke-width: 1.0;"/><polygon fill="#A80036" points="135.15,227.28,144.0004,222.9591,138.365,223.4506,137.8734,217.8152,135.15,227.28" style="stroke: #A80036; stroke-width: 1.0;"/><!--MD5=[3051ac779fae05f98e7bd8a044e5e4dc]
link HAL_uart to LL_power--><path d="M254.8,147.21 C243.39,191.48 229.17,246.68 220.74,279.4 " fill="none" id="HAL_uart-&gt;LL_power" style="stroke: #A80036; stroke-width: 1.0; stroke-dasharray: 7.0,7.0;"/><polygon fill="#A80036" points="219.44,284.45,225.573,276.7438,220.6963,279.6104,217.8297,274.7337,219.44,284.45" style="stroke: #A80036; stroke-width: 1.0;"/><!--MD5=[d36ed029dfee2da96fda69b60efe2318]
link HAL_uart to LL_clock--><path d="M290.2,147.21 C301.61,191.48 315.83,246.68 324.26,279.4 " fill="none" id="HAL_uart-&gt;LL_clock" style="stroke: #A80036; stroke-width: 1.0; stroke-dasharray: 7.0,7.0;"/><polygon fill="#A80036" points="325.56,284.45,327.1703,274.7337,324.3037,279.6104,319.427,276.7438,325.56,284.45" style="stroke: #A80036; stroke-width: 1.0;"/><!--MD5=[016ce4674204538627dadf91eeaf3f55]
link HAL_uart to IRQ--><path d="M341.89,147.2 C358.42,165.67 375.13,186.3 388.5,207 C403.33,229.96 415.36,258.76 423.07,279.63 " fill="none" id="HAL_uart-&gt;IRQ" style="stroke: #A80036; stroke-width: 1.0; stroke-dasharray: 7.0,7.0;"/><polygon fill="#A80036" points="424.84,284.49,425.5403,274.6661,423.1393,279.7881,418.0173,277.3872,424.84,284.49" style="stroke: #A80036; stroke-width: 1.0;"/><!--MD5=[f7b348e1d237b77d513570d3af8883bd]
@startuml
class HAL_uart {
	init()
	deinit()
	read()
	write()
	register_rx_handler()
	register_tx_handler()
	register_error_handler()
}

class LL_uart {
	reset()
	read_byte()
	read_byte_nonblock()
	write_byte()
	set_baudrate()
	enable_irq()
	disable_irq()
	get_event()
	clear_event()
	set_parity()
	set_stopbits()
	set_wordsize()
}

HAL_uart - -> LL_uart
HAL_uart ..> LL_power
HAL_uart ..> LL_clock
HAL_uart ..> IRQ
@enduml

PlantUML version 1.2019.13(Wed Dec 11 02:18:29 KST 2019)
(GPL source distribution)
Java Runtime: Java(TM) SE Runtime Environment
JVM: Java HotSpot(TM) 64-Bit Server VM
Java Version: 15+36-1562
Operating System: Mac OS X
Default Encoding: UTF-8
Language: en
Country: KR
--></g></svg>