<?xml version="1.0" encoding="UTF-8" standalone="no"?><svg xmlns="http://www.w3.org/2000/svg" xmlns:xlink="http://www.w3.org/1999/xlink" contentScriptType="application/ecmascript" contentStyleType="text/css" height="465px" preserveAspectRatio="none" style="width:424px;height:465px;" version="1.1" viewBox="0 0 424 465" width="424px" zoomAndPan="magnify"><defs><filter height="300%" id="fk0iwfsujv6cd" width="300%" x="-1" y="-1"><feGaussianBlur result="blurOut" stdDeviation="2.0"/><feColorMatrix in="blurOut" result="blurOut2" type="matrix" values="0 0 0 0 0 0 0 0 0 0 0 0 0 0 0 0 0 0 .4 0"/><feOffset dx="4.0" dy="4.0" in="blurOut2" result="blurOut3"/><feBlend in="SourceGraphic" in2="blurOut3" mode="normal"/></filter></defs><g><!--MD5=[7fadd388692a9f7eb2816a65254f637e]
class wdt--><rect fill="#FEFECE" filter="url(#fk0iwfsujv6cd)" height="151.6406" id="wdt" style="stroke: #A80036; stroke-width: 1.5;" width="142" x="6" y="8"/><ellipse cx="62.25" cy="24" fill="#B4A7E5" rx="11" ry="11" style="stroke: #A80036; stroke-width: 1.0;"/><path d="M58.6777,20.2651 L58.6777,18.1069 L66.0571,18.1069 L66.0571,20.2651 L63.5918,20.2651 L63.5918,28.3418 L66.0571,28.3418 L66.0571,30.5 L58.6777,30.5 L58.6777,28.3418 L61.1431,28.3418 L61.1431,20.2651 Z "/><text fill="#000000" font-family="sans-serif" font-size="12" font-style="italic" lengthAdjust="spacingAndGlyphs" textLength="21" x="82.75" y="28.5352">wdt</text><line style="stroke: #A80036; stroke-width: 1.5;" x1="7" x2="147" y1="40" y2="40"/><line style="stroke: #A80036; stroke-width: 1.5;" x1="7" x2="147" y1="48" y2="48"/><text fill="#000000" font-family="sans-serif" font-size="11" lengthAdjust="spacingAndGlyphs" textLength="80" x="12" y="62.6348">set_prescaler()</text><text fill="#000000" font-family="sans-serif" font-size="11" lengthAdjust="spacingAndGlyphs" textLength="81" x="12" y="75.5898">get_prescaler()</text><text fill="#000000" font-family="sans-serif" font-size="11" lengthAdjust="spacingAndGlyphs" textLength="64" x="12" y="88.5449">set_reload()</text><text fill="#000000" font-family="sans-serif" font-size="11" lengthAdjust="spacingAndGlyphs" textLength="65" x="12" y="101.5">get_reload()</text><text fill="#000000" font-family="sans-serif" font-size="11" lengthAdjust="spacingAndGlyphs" textLength="31" x="12" y="114.4551">feed()</text><text fill="#000000" font-family="sans-serif" font-size="11" lengthAdjust="spacingAndGlyphs" textLength="33" x="12" y="127.4102">start()</text><text fill="#000000" font-family="sans-serif" font-size="11" lengthAdjust="spacingAndGlyphs" textLength="32" x="12" y="140.3652">stop()</text><text fill="#000000" font-family="sans-serif" font-size="11" lengthAdjust="spacingAndGlyphs" textLength="130" x="12" y="153.3203">set_debug_stop_mode()</text><!--MD5=[137996ab58f952a7d9351c689764c193]
class LL_wdt--><rect fill="#FEFECE" filter="url(#fk0iwfsujv6cd)" height="125.7305" id="LL_wdt" style="stroke: #A80036; stroke-width: 1.5;" width="114" x="20" y="220"/><ellipse cx="54.35" cy="236" fill="#ADD1B2" rx="11" ry="11" style="stroke: #A80036; stroke-width: 1.0;"/><path d="M56.8231,242.1431 Q56.2421,242.4419 55.6029,242.5913 Q54.9638,242.7407 54.2582,242.7407 Q51.7514,242.7407 50.4315,241.0889 Q49.1117,239.437 49.1117,236.3159 Q49.1117,233.1865 50.4315,231.5347 Q51.7514,229.8828 54.2582,229.8828 Q54.9638,229.8828 55.6112,230.0322 Q56.2587,230.1816 56.8231,230.4805 L56.8231,233.2031 Q56.1923,232.6221 55.5988,232.3523 Q55.0053,232.0825 54.3744,232.0825 Q53.0297,232.0825 52.3449,233.1492 Q51.6601,234.2158 51.6601,236.3159 Q51.6601,238.4077 52.3449,239.4744 Q53.0297,240.541 54.3744,240.541 Q55.0053,240.541 55.5988,240.2712 Q56.1923,240.0015 56.8231,239.4204 Z "/><text fill="#000000" font-family="sans-serif" font-size="12" lengthAdjust="spacingAndGlyphs" textLength="39" x="72.65" y="240.5352">LL_wdt</text><line style="stroke: #A80036; stroke-width: 1.5;" x1="21" x2="133" y1="252" y2="252"/><line style="stroke: #A80036; stroke-width: 1.5;" x1="21" x2="133" y1="260" y2="260"/><text fill="#000000" font-family="sans-serif" font-size="11" lengthAdjust="spacingAndGlyphs" textLength="35" x="26" y="274.6348">reset()</text><text fill="#000000" font-family="sans-serif" font-size="11" lengthAdjust="spacingAndGlyphs" textLength="62" x="26" y="287.5898">get_count()</text><text fill="#000000" font-family="sans-serif" font-size="11" lengthAdjust="spacingAndGlyphs" textLength="78" x="26" y="300.5449">set_interrupt()</text><text fill="#000000" font-family="sans-serif" font-size="11" lengthAdjust="spacingAndGlyphs" textLength="91" x="26" y="313.5">is_event_raised()</text><text fill="#000000" font-family="sans-serif" font-size="11" lengthAdjust="spacingAndGlyphs" textLength="101" x="26" y="326.4551">set_clock_source()</text><text fill="#000000" font-family="sans-serif" font-size="11" lengthAdjust="spacingAndGlyphs" textLength="102" x="26" y="339.4102">get_clock_source()</text><!--MD5=[84054890ac86f02f98412b4ee469f4d3]
class HAL_wdt--><rect fill="#FEFECE" filter="url(#fk0iwfsujv6cd)" height="99.8203" id="HAL_wdt" style="stroke: #A80036; stroke-width: 1.5;" width="131" x="200.5" y="34"/><ellipse cx="237.55" cy="50" fill="#ADD1B2" rx="11" ry="11" style="stroke: #A80036; stroke-width: 1.0;"/><path d="M240.0231,56.1431 Q239.4421,56.4419 238.8029,56.5913 Q238.1638,56.7407 237.4582,56.7407 Q234.9514,56.7407 233.6315,55.0889 Q232.3117,53.437 232.3117,50.3159 Q232.3117,47.1865 233.6315,45.5347 Q234.9514,43.8828 237.4582,43.8828 Q238.1638,43.8828 238.8112,44.0322 Q239.4587,44.1816 240.0231,44.4805 L240.0231,47.2031 Q239.3923,46.6221 238.7988,46.3523 Q238.2053,46.0825 237.5744,46.0825 Q236.2297,46.0825 235.5449,47.1492 Q234.8601,48.2158 234.8601,50.3159 Q234.8601,52.4077 235.5449,53.4744 Q236.2297,54.541 237.5744,54.541 Q238.2053,54.541 238.7988,54.2712 Q239.3923,54.0015 240.0231,53.4204 Z "/><text fill="#000000" font-family="sans-serif" font-size="12" lengthAdjust="spacingAndGlyphs" textLength="50" x="256.45" y="54.5352">HAL_wdt</text><line style="stroke: #A80036; stroke-width: 1.5;" x1="201.5" x2="330.5" y1="66" y2="66"/><line style="stroke: #A80036; stroke-width: 1.5;" x1="201.5" x2="330.5" y1="74" y2="74"/><text fill="#000000" font-family="sans-serif" font-size="11" lengthAdjust="spacingAndGlyphs" textLength="43" x="206.5" y="88.6348">enable()</text><text fill="#000000" font-family="sans-serif" font-size="11" lengthAdjust="spacingAndGlyphs" textLength="46" x="206.5" y="101.5898">disable()</text><text fill="#000000" font-family="sans-serif" font-size="11" lengthAdjust="spacingAndGlyphs" textLength="86" x="206.5" y="114.5449">set_reload_ms()</text><text fill="#000000" font-family="sans-serif" font-size="11" lengthAdjust="spacingAndGlyphs" textLength="119" x="206.5" y="127.5">get_clock_freqeuncy()</text><!--MD5=[8b0caf15fab33df914d6885d5506f67f]
class LL_clock--><rect fill="#FEFECE" filter="url(#fk0iwfsujv6cd)" height="48" id="LL_clock" style="stroke: #A80036; stroke-width: 1.5;" width="79" x="92.5" y="406"/><ellipse cx="107.5" cy="422" fill="#ADD1B2" rx="11" ry="11" style="stroke: #A80036; stroke-width: 1.0;"/><path d="M109.9731,428.1431 Q109.3921,428.4419 108.7529,428.5913 Q108.1138,428.7407 107.4082,428.7407 Q104.9014,428.7407 103.5815,427.0889 Q102.2617,425.437 102.2617,422.3159 Q102.2617,419.1865 103.5815,417.5347 Q104.9014,415.8828 107.4082,415.8828 Q108.1138,415.8828 108.7612,416.0322 Q109.4087,416.1816 109.9731,416.4805 L109.9731,419.2031 Q109.3423,418.6221 108.7488,418.3523 Q108.1553,418.0825 107.5244,418.0825 Q106.1797,418.0825 105.4949,419.1492 Q104.8101,420.2158 104.8101,422.3159 Q104.8101,424.4077 105.4949,425.4744 Q106.1797,426.541 107.5244,426.541 Q108.1553,426.541 108.7488,426.2712 Q109.3423,426.0015 109.9731,425.4204 Z "/><text fill="#000000" font-family="sans-serif" font-size="12" lengthAdjust="spacingAndGlyphs" textLength="47" x="121.5" y="426.5352">LL_clock</text><line style="stroke: #A80036; stroke-width: 1.5;" x1="93.5" x2="170.5" y1="438" y2="438"/><line style="stroke: #A80036; stroke-width: 1.5;" x1="93.5" x2="170.5" y1="446" y2="446"/><!--MD5=[eb672f161971a32a28c99da6c0336b3d]
class LL_power--><rect fill="#FEFECE" filter="url(#fk0iwfsujv6cd)" height="48" id="LL_power" style="stroke: #A80036; stroke-width: 1.5;" width="86" x="240" y="259"/><ellipse cx="255" cy="275" fill="#ADD1B2" rx="11" ry="11" style="stroke: #A80036; stroke-width: 1.0;"/><path d="M257.4731,281.1431 Q256.8921,281.4419 256.2529,281.5913 Q255.6138,281.7407 254.9082,281.7407 Q252.4014,281.7407 251.0815,280.0889 Q249.7617,278.437 249.7617,275.3159 Q249.7617,272.1865 251.0815,270.5347 Q252.4014,268.8828 254.9082,268.8828 Q255.6138,268.8828 256.2612,269.0322 Q256.9087,269.1816 257.4731,269.4805 L257.4731,272.2031 Q256.8423,271.6221 256.2488,271.3523 Q255.6553,271.0825 255.0244,271.0825 Q253.6797,271.0825 252.9949,272.1492 Q252.3101,273.2158 252.3101,275.3159 Q252.3101,277.4077 252.9949,278.4744 Q253.6797,279.541 255.0244,279.541 Q255.6553,279.541 256.2488,279.2712 Q256.8423,279.0015 257.4731,278.4204 Z "/><text fill="#000000" font-family="sans-serif" font-size="12" lengthAdjust="spacingAndGlyphs" textLength="54" x="269" y="279.5352">LL_power</text><line style="stroke: #A80036; stroke-width: 1.5;" x1="241" x2="325" y1="291" y2="291"/><line style="stroke: #A80036; stroke-width: 1.5;" x1="241" x2="325" y1="299" y2="299"/><!--MD5=[831aefa9ebd008f9dae82517425faefb]
class IRQ--><rect fill="#FEFECE" filter="url(#fk0iwfsujv6cd)" height="48" id="IRQ" style="stroke: #A80036; stroke-width: 1.5;" width="52" x="361" y="259"/><ellipse cx="376" cy="275" fill="#ADD1B2" rx="11" ry="11" style="stroke: #A80036; stroke-width: 1.0;"/><path d="M378.4731,281.1431 Q377.8921,281.4419 377.2529,281.5913 Q376.6138,281.7407 375.9082,281.7407 Q373.4014,281.7407 372.0815,280.0889 Q370.7617,278.437 370.7617,275.3159 Q370.7617,272.1865 372.0815,270.5347 Q373.4014,268.8828 375.9082,268.8828 Q376.6138,268.8828 377.2612,269.0322 Q377.9087,269.1816 378.4731,269.4805 L378.4731,272.2031 Q377.8423,271.6221 377.2488,271.3523 Q376.6553,271.0825 376.0244,271.0825 Q374.6797,271.0825 373.9949,272.1492 Q373.3101,273.2158 373.3101,275.3159 Q373.3101,277.4077 373.9949,278.4744 Q374.6797,279.541 376.0244,279.541 Q376.6553,279.541 377.2488,279.2712 Q377.8423,279.0015 378.4731,278.4204 Z "/><text fill="#000000" font-family="sans-serif" font-size="12" lengthAdjust="spacingAndGlyphs" textLength="20" x="390" y="279.5352">IRQ</text><line style="stroke: #A80036; stroke-width: 1.5;" x1="362" x2="412" y1="291" y2="291"/><line style="stroke: #A80036; stroke-width: 1.5;" x1="362" x2="412" y1="299" y2="299"/><!--MD5=[9630e8191887e60822948830893d5bc0]
reverse link wdt to LL_wdt--><path d="M77,180.31 C77,193.79 77,207.35 77,219.98 " fill="none" id="wdt&lt;-LL_wdt" style="stroke: #A80036; stroke-width: 1.0; stroke-dasharray: 7.0,7.0;"/><polygon fill="none" points="70,180.04,77,160.04,84,180.04,70,180.04" style="stroke: #A80036; stroke-width: 1.0;"/><!--MD5=[556173f5998dd64609a473dcd470c31f]
link LL_wdt to LL_clock--><path d="M100.64,346.33 C107.87,365.39 115.47,385.41 121.37,400.97 " fill="none" id="LL_wdt-&gt;LL_clock" style="stroke: #A80036; stroke-width: 1.0; stroke-dasharray: 7.0,7.0;"/><polygon fill="#A80036" points="123.14,405.65,123.699,395.817,121.3719,400.9731,116.2158,398.646,123.14,405.65" style="stroke: #A80036; stroke-width: 1.0;"/><!--MD5=[00371fe1a4ae6414d4373665c1b2ca56]
link HAL_wdt to LL_wdt--><path d="M218.79,134.2 C194.2,159.83 163.86,191.47 137.56,218.88 " fill="none" id="HAL_wdt-&gt;LL_wdt" style="stroke: #A80036; stroke-width: 1.0;"/><polygon fill="#A80036" points="134.04,222.55,143.159,218.8291,137.5033,218.9436,137.3888,213.2879,134.04,222.55" style="stroke: #A80036; stroke-width: 1.0;"/><!--MD5=[fe58d0cbf5bcb0a955d51f29d1bcce88]
link HAL_wdt to LL_power--><path d="M270.25,134.2 C273.5,171.91 277.87,222.6 280.56,253.75 " fill="none" id="HAL_wdt-&gt;LL_power" style="stroke: #A80036; stroke-width: 1.0; stroke-dasharray: 7.0,7.0;"/><polygon fill="#A80036" points="281.01,258.95,284.2222,249.6397,280.5806,253.9685,276.2518,250.3268,281.01,258.95" style="stroke: #A80036; stroke-width: 1.0;"/><!--MD5=[018885ccede9f71d144db991f0fffd09]
link HAL_wdt to LL_clock--><path d="M246.8,134.29 C218.29,207.47 165.7,342.5 142.95,400.88 " fill="none" id="HAL_wdt-&gt;LL_clock" style="stroke: #A80036; stroke-width: 1.0; stroke-dasharray: 7.0,7.0;"/><polygon fill="#A80036" points="141.11,405.62,148.1041,398.6859,142.925,400.9611,140.6498,395.7819,141.11,405.62" style="stroke: #A80036; stroke-width: 1.0;"/><!--MD5=[8c0c2df7762aa969e993a6da865df206]
link HAL_wdt to IRQ--><path d="M296.22,134.2 C319.57,172.22 351.03,223.44 370.12,254.52 " fill="none" id="HAL_wdt-&gt;IRQ" style="stroke: #A80036; stroke-width: 1.0; stroke-dasharray: 7.0,7.0;"/><polygon fill="#A80036" points="372.84,258.95,371.5389,249.1875,370.2235,254.6893,364.7217,253.3739,372.84,258.95" style="stroke: #A80036; stroke-width: 1.0;"/><!--MD5=[bb2ac9055171035a3d89390943618982]
@startuml
interface wdt {
	set_prescaler()
	get_prescaler()
	set_reload()
	get_reload()
	feed()
	start()
	stop()
	set_debug_stop_mode()
}

class LL_wdt {
	reset()
	get_count()
	set_interrupt()
	is_event_raised()
	set_clock_source()
	get_clock_source()
}

class HAL_wdt {
	enable()
	disable()
	set_reload_ms()
	get_clock_freqeuncy()
}

wdt <|.. LL_wdt
LL_wdt ..> LL_clock
HAL_wdt - -> LL_wdt
HAL_wdt ..> LL_power
HAL_wdt ..> LL_clock
HAL_wdt ..> IRQ
@enduml

PlantUML version 1.2019.13(Wed Dec 11 02:18:29 KST 2019)
(GPL source distribution)
Java Runtime: Java(TM) SE Runtime Environment
JVM: Java HotSpot(TM) 64-Bit Server VM
Java Version: 15+36-1562
Operating System: Mac OS X
Default Encoding: UTF-8
Language: en
Country: KR
--></g></svg>