<?xml version="1.0" encoding="UTF-8" standalone="no"?><svg xmlns="http://www.w3.org/2000/svg" xmlns:xlink="http://www.w3.org/1999/xlink" contentScriptType="application/ecmascript" contentStyleType="text/css" height="516px" preserveAspectRatio="none" style="width:523px;height:516px;" version="1.1" viewBox="0 0 523 516" width="523px" zoomAndPan="magnify"><defs><filter height="300%" id="f13zoges48tqkq" width="300%" x="-1" y="-1"><feGaussianBlur result="blurOut" stdDeviation="2.0"/><feColorMatrix in="blurOut" result="blurOut2" type="matrix" values="0 0 0 0 0 0 0 0 0 0 0 0 0 0 0 0 0 0 .4 0"/><feOffset dx="4.0" dy="4.0" in="blurOut2" result="blurOut3"/><feBlend in="SourceGraphic" in2="blurOut3" mode="normal"/></filter></defs><g><!--MD5=[7fadd388692a9f7eb2816a65254f637e]
class wdt--><rect fill="#FEFECE" filter="url(#f13zoges48tqkq)" height="151.6406" id="wdt" style="stroke: #A80036; stroke-width: 1.5;" width="142" x="6" y="354"/><ellipse cx="62.25" cy="370" fill="#B4A7E5" rx="11" ry="11" style="stroke: #A80036; stroke-width: 1.0;"/><path d="M58.6777,366.2651 L58.6777,364.1069 L66.0571,364.1069 L66.0571,366.2651 L63.5918,366.2651 L63.5918,374.3418 L66.0571,374.3418 L66.0571,376.5 L58.6777,376.5 L58.6777,374.3418 L61.1431,374.3418 L61.1431,366.2651 Z "/><text fill="#000000" font-family="sans-serif" font-size="12" font-style="italic" lengthAdjust="spacingAndGlyphs" textLength="21" x="82.75" y="374.5352">wdt</text><line style="stroke: #A80036; stroke-width: 1.5;" x1="7" x2="147" y1="386" y2="386"/><line style="stroke: #A80036; stroke-width: 1.5;" x1="7" x2="147" y1="394" y2="394"/><text fill="#000000" font-family="sans-serif" font-size="11" lengthAdjust="spacingAndGlyphs" textLength="80" x="12" y="408.6348">set_prescaler()</text><text fill="#000000" font-family="sans-serif" font-size="11" lengthAdjust="spacingAndGlyphs" textLength="81" x="12" y="421.5898">get_prescaler()</text><text fill="#000000" font-family="sans-serif" font-size="11" lengthAdjust="spacingAndGlyphs" textLength="64" x="12" y="434.5449">set_reload()</text><text fill="#000000" font-family="sans-serif" font-size="11" lengthAdjust="spacingAndGlyphs" textLength="65" x="12" y="447.5">get_reload()</text><text fill="#000000" font-family="sans-serif" font-size="11" lengthAdjust="spacingAndGlyphs" textLength="31" x="12" y="460.4551">feed()</text><text fill="#000000" font-family="sans-serif" font-size="11" lengthAdjust="spacingAndGlyphs" textLength="33" x="12" y="473.4102">start()</text><text fill="#000000" font-family="sans-serif" font-size="11" lengthAdjust="spacingAndGlyphs" textLength="32" x="12" y="486.3652">stop()</text><text fill="#000000" font-family="sans-serif" font-size="11" lengthAdjust="spacingAndGlyphs" textLength="130" x="12" y="499.3203">set_debug_stop_mode()</text><!--MD5=[b3c4cffaebeb1ca91d3860615de3212f]
class LL--><rect fill="#FEFECE" filter="url(#f13zoges48tqkq)" height="138.6855" id="LL" style="stroke: #A80036; stroke-width: 1.5;" width="114" x="75" y="155"/><ellipse cx="121.75" cy="171" fill="#ADD1B2" rx="11" ry="11" style="stroke: #A80036; stroke-width: 1.0;"/><path d="M124.2231,177.1431 Q123.6421,177.4419 123.0029,177.5913 Q122.3638,177.7407 121.6582,177.7407 Q119.1514,177.7407 117.8315,176.0889 Q116.5117,174.437 116.5117,171.3159 Q116.5117,168.1865 117.8315,166.5347 Q119.1514,164.8828 121.6582,164.8828 Q122.3638,164.8828 123.0112,165.0322 Q123.6587,165.1816 124.2231,165.4805 L124.2231,168.2031 Q123.5923,167.6221 122.9988,167.3523 Q122.4053,167.0825 121.7744,167.0825 Q120.4297,167.0825 119.7449,168.1492 Q119.0601,169.2158 119.0601,171.3159 Q119.0601,173.4077 119.7449,174.4744 Q120.4297,175.541 121.7744,175.541 Q122.4053,175.541 122.9988,175.2712 Q123.5923,175.0015 124.2231,174.4204 Z "/><text fill="#000000" font-family="sans-serif" font-size="12" lengthAdjust="spacingAndGlyphs" textLength="12" x="142.25" y="175.5352">LL</text><line style="stroke: #A80036; stroke-width: 1.5;" x1="76" x2="188" y1="187" y2="187"/><line style="stroke: #A80036; stroke-width: 1.5;" x1="76" x2="188" y1="195" y2="195"/><text fill="#000000" font-family="sans-serif" font-size="11" lengthAdjust="spacingAndGlyphs" textLength="35" x="81" y="209.6348">reset()</text><text fill="#000000" font-family="sans-serif" font-size="11" lengthAdjust="spacingAndGlyphs" textLength="62" x="81" y="222.5898">get_count()</text><text fill="#000000" font-family="sans-serif" font-size="11" lengthAdjust="spacingAndGlyphs" textLength="86" x="81" y="235.5449">set_reload_ms()</text><text fill="#000000" font-family="sans-serif" font-size="11" lengthAdjust="spacingAndGlyphs" textLength="78" x="81" y="248.5">set_interrupt()</text><text fill="#000000" font-family="sans-serif" font-size="11" lengthAdjust="spacingAndGlyphs" textLength="91" x="81" y="261.4551">is_event_raised()</text><text fill="#000000" font-family="sans-serif" font-size="11" lengthAdjust="spacingAndGlyphs" textLength="101" x="81" y="274.4102">set_clock_source()</text><text fill="#000000" font-family="sans-serif" font-size="11" lengthAdjust="spacingAndGlyphs" textLength="102" x="81" y="287.3652">get_clock_source()</text><!--MD5=[be3765a8ee426731c4981c30c0d20f09]
class HAL--><rect fill="#FEFECE" filter="url(#f13zoges48tqkq)" height="86.8652" id="HAL" style="stroke: #A80036; stroke-width: 1.5;" width="131" x="201.5" y="8"/><ellipse cx="251.25" cy="24" fill="#ADD1B2" rx="11" ry="11" style="stroke: #A80036; stroke-width: 1.0;"/><path d="M253.7231,30.1431 Q253.1421,30.4419 252.5029,30.5913 Q251.8638,30.7407 251.1582,30.7407 Q248.6514,30.7407 247.3315,29.0889 Q246.0117,27.437 246.0117,24.3159 Q246.0117,21.1865 247.3315,19.5347 Q248.6514,17.8828 251.1582,17.8828 Q251.8638,17.8828 252.5112,18.0322 Q253.1587,18.1816 253.7231,18.4805 L253.7231,21.2031 Q253.0923,20.6221 252.4988,20.3523 Q251.9053,20.0825 251.2744,20.0825 Q249.9297,20.0825 249.2449,21.1492 Q248.5601,22.2158 248.5601,24.3159 Q248.5601,26.4077 249.2449,27.4744 Q249.9297,28.541 251.2744,28.541 Q251.9053,28.541 252.4988,28.2712 Q253.0923,28.0015 253.7231,27.4204 Z "/><text fill="#000000" font-family="sans-serif" font-size="12" lengthAdjust="spacingAndGlyphs" textLength="23" x="271.75" y="28.5352">HAL</text><line style="stroke: #A80036; stroke-width: 1.5;" x1="202.5" x2="331.5" y1="40" y2="40"/><line style="stroke: #A80036; stroke-width: 1.5;" x1="202.5" x2="331.5" y1="48" y2="48"/><text fill="#000000" font-family="sans-serif" font-size="11" lengthAdjust="spacingAndGlyphs" textLength="43" x="207.5" y="62.6348">enable()</text><text fill="#000000" font-family="sans-serif" font-size="11" lengthAdjust="spacingAndGlyphs" textLength="46" x="207.5" y="75.5898">disable()</text><text fill="#000000" font-family="sans-serif" font-size="11" lengthAdjust="spacingAndGlyphs" textLength="119" x="207.5" y="88.5449">get_clock_freqeuncy()</text><!--MD5=[eb672f161971a32a28c99da6c0336b3d]
class LL_power--><rect fill="#FEFECE" filter="url(#f13zoges48tqkq)" height="48" id="LL_power" style="stroke: #A80036; stroke-width: 1.5;" width="86" x="224" y="200.5"/><ellipse cx="239" cy="216.5" fill="#ADD1B2" rx="11" ry="11" style="stroke: #A80036; stroke-width: 1.0;"/><path d="M241.4731,222.6431 Q240.8921,222.9419 240.2529,223.0913 Q239.6138,223.2407 238.9082,223.2407 Q236.4014,223.2407 235.0815,221.5889 Q233.7617,219.937 233.7617,216.8159 Q233.7617,213.6865 235.0815,212.0347 Q236.4014,210.3828 238.9082,210.3828 Q239.6138,210.3828 240.2612,210.5322 Q240.9087,210.6816 241.4731,210.9805 L241.4731,213.7031 Q240.8423,213.1221 240.2488,212.8523 Q239.6553,212.5825 239.0244,212.5825 Q237.6797,212.5825 236.9949,213.6492 Q236.3101,214.7158 236.3101,216.8159 Q236.3101,218.9077 236.9949,219.9744 Q237.6797,221.041 239.0244,221.041 Q239.6553,221.041 240.2488,220.7712 Q240.8423,220.5015 241.4731,219.9204 Z "/><text fill="#000000" font-family="sans-serif" font-size="12" lengthAdjust="spacingAndGlyphs" textLength="54" x="253" y="221.0352">LL_power</text><line style="stroke: #A80036; stroke-width: 1.5;" x1="225" x2="309" y1="232.5" y2="232.5"/><line style="stroke: #A80036; stroke-width: 1.5;" x1="225" x2="309" y1="240.5" y2="240.5"/><!--MD5=[8b0caf15fab33df914d6885d5506f67f]
class LL_clock--><rect fill="#FEFECE" filter="url(#f13zoges48tqkq)" height="48" id="LL_clock" style="stroke: #A80036; stroke-width: 1.5;" width="79" x="345.5" y="200.5"/><ellipse cx="360.5" cy="216.5" fill="#ADD1B2" rx="11" ry="11" style="stroke: #A80036; stroke-width: 1.0;"/><path d="M362.9731,222.6431 Q362.3921,222.9419 361.7529,223.0913 Q361.1138,223.2407 360.4082,223.2407 Q357.9014,223.2407 356.5815,221.5889 Q355.2617,219.937 355.2617,216.8159 Q355.2617,213.6865 356.5815,212.0347 Q357.9014,210.3828 360.4082,210.3828 Q361.1138,210.3828 361.7612,210.5322 Q362.4087,210.6816 362.9731,210.9805 L362.9731,213.7031 Q362.3423,213.1221 361.7488,212.8523 Q361.1553,212.5825 360.5244,212.5825 Q359.1797,212.5825 358.4949,213.6492 Q357.8101,214.7158 357.8101,216.8159 Q357.8101,218.9077 358.4949,219.9744 Q359.1797,221.041 360.5244,221.041 Q361.1553,221.041 361.7488,220.7712 Q362.3423,220.5015 362.9731,219.9204 Z "/><text fill="#000000" font-family="sans-serif" font-size="12" lengthAdjust="spacingAndGlyphs" textLength="47" x="374.5" y="221.0352">LL_clock</text><line style="stroke: #A80036; stroke-width: 1.5;" x1="346.5" x2="423.5" y1="232.5" y2="232.5"/><line style="stroke: #A80036; stroke-width: 1.5;" x1="346.5" x2="423.5" y1="240.5" y2="240.5"/><!--MD5=[831aefa9ebd008f9dae82517425faefb]
class IRQ--><rect fill="#FEFECE" filter="url(#f13zoges48tqkq)" height="48" id="IRQ" style="stroke: #A80036; stroke-width: 1.5;" width="52" x="460" y="200.5"/><ellipse cx="475" cy="216.5" fill="#ADD1B2" rx="11" ry="11" style="stroke: #A80036; stroke-width: 1.0;"/><path d="M477.4731,222.6431 Q476.8921,222.9419 476.2529,223.0913 Q475.6138,223.2407 474.9082,223.2407 Q472.4014,223.2407 471.0815,221.5889 Q469.7617,219.937 469.7617,216.8159 Q469.7617,213.6865 471.0815,212.0347 Q472.4014,210.3828 474.9082,210.3828 Q475.6138,210.3828 476.2612,210.5322 Q476.9087,210.6816 477.4731,210.9805 L477.4731,213.7031 Q476.8423,213.1221 476.2488,212.8523 Q475.6553,212.5825 475.0244,212.5825 Q473.6797,212.5825 472.9949,213.6492 Q472.3101,214.7158 472.3101,216.8159 Q472.3101,218.9077 472.9949,219.9744 Q473.6797,221.041 475.0244,221.041 Q475.6553,221.041 476.2488,220.7712 Q476.8423,220.5015 477.4731,219.9204 Z "/><text fill="#000000" font-family="sans-serif" font-size="12" lengthAdjust="spacingAndGlyphs" textLength="20" x="489" y="221.0352">IRQ</text><line style="stroke: #A80036; stroke-width: 1.5;" x1="461" x2="511" y1="232.5" y2="232.5"/><line style="stroke: #A80036; stroke-width: 1.5;" x1="461" x2="511" y1="240.5" y2="240.5"/><!--MD5=[38e7388c516eb7e1eab231890dec2fbe]
link HAL to wdt--><path d="M201.43,65.34 C152.58,78.72 89.16,105.01 58,155 C25.07,207.82 30.67,278.02 44.06,334.14 " fill="none" id="HAL-&gt;wdt" style="stroke: #A80036; stroke-width: 1.0; stroke-dasharray: 7.0,7.0;"/><polygon fill="none" points="50.89,332.61,49.18,353.73,37.35,336.15,50.89,332.61" style="stroke: #A80036; stroke-width: 1.0;"/><!--MD5=[7c42b4011aa728296f409c876b3a9cd7]
link HAL to LL--><path d="M233.28,95.21 C220.07,111.95 204.53,131.63 189.64,150.49 " fill="none" id="HAL-&gt;LL" style="stroke: #A80036; stroke-width: 1.0;"/><polygon fill="#A80036" points="186.27,154.75,194.9831,150.1584,189.3654,150.8234,188.7005,145.2057,186.27,154.75" style="stroke: #A80036; stroke-width: 1.0;"/><!--MD5=[f481892d08b88046121823827ef5b6c7]
link HAL to LL_power--><path d="M267,95.21 C267,126.37 267,167.75 267,194.98 " fill="none" id="HAL-&gt;LL_power" style="stroke: #A80036; stroke-width: 1.0; stroke-dasharray: 7.0,7.0;"/><polygon fill="#A80036" points="267,200.23,271,191.23,267,195.23,263,191.23,267,200.23" style="stroke: #A80036; stroke-width: 1.0;"/><!--MD5=[03027760a4a69a9b5b7ae20cb535c4e1]
link HAL to LL_clock--><path d="M296.47,95.21 C318.24,126.76 347.24,168.78 366.02,195.99 " fill="none" id="HAL-&gt;LL_clock" style="stroke: #A80036; stroke-width: 1.0; stroke-dasharray: 7.0,7.0;"/><polygon fill="#A80036" points="368.94,200.23,367.1146,190.5518,366.0977,196.1165,360.533,195.0995,368.94,200.23" style="stroke: #A80036; stroke-width: 1.0;"/><!--MD5=[aa119ece880843938e062c5ac955c7c5]
link HAL to IRQ--><path d="M332.63,81.61 C367.78,99.37 410.25,124.53 442,155 C454.19,166.69 464.58,182.4 472.2,195.82 " fill="none" id="HAL-&gt;IRQ" style="stroke: #A80036; stroke-width: 1.0; stroke-dasharray: 7.0,7.0;"/><polygon fill="#A80036" points="474.68,200.27,473.8058,190.46,472.2518,195.8992,466.8126,194.3452,474.68,200.27" style="stroke: #A80036; stroke-width: 1.0;"/><!--MD5=[4ab8997221edd4cf93c88e431340d4cb]
link LL to wdt--><path d="M113.46,294.11 C108.72,311.62 103.6,330.6 98.72,348.64 " fill="none" id="LL-&gt;wdt" style="stroke: #A80036; stroke-width: 1.0;"/><polygon fill="#A80036" points="97.35,353.7,103.5733,346.0665,98.6632,348.8755,95.8541,343.9654,97.35,353.7" style="stroke: #A80036; stroke-width: 1.0;"/><!--MD5=[22b1e385df7549dc7282821e0cd41e3e]
@startuml
interface wdt {
	set_prescaler()
	get_prescaler()
	set_reload()
	get_reload()
	feed()
	start()
	stop()
	set_debug_stop_mode()
}

class LL {
	reset()
	get_count()
	set_reload_ms()
	set_interrupt()
	is_event_raised()
	set_clock_source()
	get_clock_source()
}

class HAL {
	enable()
	disable()
	get_clock_freqeuncy()
}

HAL ..|> wdt
HAL - -> LL
HAL ..> LL_power
HAL ..> LL_clock
HAL ..> IRQ
LL - -> wdt
@enduml

PlantUML version 1.2019.13(Wed Dec 11 02:18:29 KST 2019)
(GPL source distribution)
Java Runtime: Java(TM) SE Runtime Environment
JVM: Java HotSpot(TM) 64-Bit Server VM
Java Version: 15+36-1562
Operating System: Mac OS X
Default Encoding: UTF-8
Language: en
Country: KR
--></g></svg>