<?xml version="1.0" encoding="UTF-8" standalone="no"?><svg xmlns="http://www.w3.org/2000/svg" xmlns:xlink="http://www.w3.org/1999/xlink" contentScriptType="application/ecmascript" contentStyleType="text/css" height="408px" preserveAspectRatio="none" style="width:502px;height:408px;" version="1.1" viewBox="0 0 502 408" width="502px" zoomAndPan="magnify"><defs><filter height="300%" id="f2mzflxbfgrvz" width="300%" x="-1" y="-1"><feGaussianBlur result="blurOut" stdDeviation="2.0"/><feColorMatrix in="blurOut" result="blurOut2" type="matrix" values="0 0 0 0 0 0 0 0 0 0 0 0 0 0 0 0 0 0 .4 0"/><feOffset dx="4.0" dy="4.0" in="blurOut2" result="blurOut3"/><feBlend in="SourceGraphic" in2="blurOut3" mode="normal"/></filter></defs><g><!--MD5=[fe553a6389d9843fdc0b2d82518e30c1]
class HAL_watchdog--><rect fill="#FEFECE" filter="url(#f2mzflxbfgrvz)" height="138.6855" id="HAL_watchdog" style="stroke: #A80036; stroke-width: 1.5;" width="131" x="219.5" y="8"/><ellipse cx="241.25" cy="24" fill="#ADD1B2" rx="11" ry="11" style="stroke: #A80036; stroke-width: 1.0;"/><path d="M243.7231,30.1431 Q243.1421,30.4419 242.5029,30.5913 Q241.8638,30.7407 241.1582,30.7407 Q238.6514,30.7407 237.3315,29.0889 Q236.0117,27.437 236.0117,24.3159 Q236.0117,21.1865 237.3315,19.5347 Q238.6514,17.8828 241.1582,17.8828 Q241.8638,17.8828 242.5112,18.0322 Q243.1587,18.1816 243.7231,18.4805 L243.7231,21.2031 Q243.0923,20.6221 242.4988,20.3523 Q241.9053,20.0825 241.2744,20.0825 Q239.9297,20.0825 239.2449,21.1492 Q238.5601,22.2158 238.5601,24.3159 Q238.5601,26.4077 239.2449,27.4744 Q239.9297,28.541 241.2744,28.541 Q241.9053,28.541 242.4988,28.2712 Q243.0923,28.0015 243.7231,27.4204 Z "/><text fill="#000000" font-family="sans-serif" font-size="12" lengthAdjust="spacingAndGlyphs" textLength="84" x="256.75" y="28.5352">HAL_watchdog</text><line style="stroke: #A80036; stroke-width: 1.5;" x1="220.5" x2="349.5" y1="40" y2="40"/><line style="stroke: #A80036; stroke-width: 1.5;" x1="220.5" x2="349.5" y1="48" y2="48"/><text fill="#000000" font-family="sans-serif" font-size="11" lengthAdjust="spacingAndGlyphs" textLength="43" x="225.5" y="62.6348">enable()</text><text fill="#000000" font-family="sans-serif" font-size="11" lengthAdjust="spacingAndGlyphs" textLength="46" x="225.5" y="75.5898">disable()</text><text fill="#000000" font-family="sans-serif" font-size="11" lengthAdjust="spacingAndGlyphs" textLength="46" x="225.5" y="88.5449">set_ms()</text><text fill="#000000" font-family="sans-serif" font-size="11" lengthAdjust="spacingAndGlyphs" textLength="31" x="225.5" y="101.5">feed()</text><text fill="#000000" font-family="sans-serif" font-size="11" lengthAdjust="spacingAndGlyphs" textLength="101" x="225.5" y="114.4551">set_clock_source()</text><text fill="#000000" font-family="sans-serif" font-size="11" lengthAdjust="spacingAndGlyphs" textLength="102" x="225.5" y="127.4102">get_clock_source()</text><text fill="#000000" font-family="sans-serif" font-size="11" lengthAdjust="spacingAndGlyphs" textLength="119" x="225.5" y="140.3652">get_clock_frequency()</text><!--MD5=[c5d66a4c8a7adb4bb88bf7ea40338188]
class LL_watchdog--><rect fill="#FEFECE" filter="url(#f2mzflxbfgrvz)" height="190.5059" id="LL_watchdog" style="stroke: #A80036; stroke-width: 1.5;" width="142" x="6" y="207"/><ellipse cx="37.65" cy="223" fill="#ADD1B2" rx="11" ry="11" style="stroke: #A80036; stroke-width: 1.0;"/><path d="M40.1231,229.1431 Q39.5421,229.4419 38.9029,229.5913 Q38.2638,229.7407 37.5582,229.7407 Q35.0514,229.7407 33.7315,228.0889 Q32.4117,226.437 32.4117,223.3159 Q32.4117,220.1865 33.7315,218.5347 Q35.0514,216.8828 37.5582,216.8828 Q38.2638,216.8828 38.9112,217.0322 Q39.5587,217.1816 40.1231,217.4805 L40.1231,220.2031 Q39.4923,219.6221 38.8988,219.3523 Q38.3053,219.0825 37.6744,219.0825 Q36.3297,219.0825 35.6449,220.1492 Q34.9601,221.2158 34.9601,223.3159 Q34.9601,225.4077 35.6449,226.4744 Q36.3297,227.541 37.6744,227.541 Q38.3053,227.541 38.8988,227.2712 Q39.4923,227.0015 40.1231,226.4204 Z "/><text fill="#000000" font-family="sans-serif" font-size="12" lengthAdjust="spacingAndGlyphs" textLength="73" x="55.35" y="227.5352">LL_watchdog</text><line style="stroke: #A80036; stroke-width: 1.5;" x1="7" x2="147" y1="239" y2="239"/><line style="stroke: #A80036; stroke-width: 1.5;" x1="7" x2="147" y1="247" y2="247"/><text fill="#000000" font-family="sans-serif" font-size="11" lengthAdjust="spacingAndGlyphs" textLength="35" x="12" y="261.6348">reset()</text><text fill="#000000" font-family="sans-serif" font-size="11" lengthAdjust="spacingAndGlyphs" textLength="80" x="12" y="274.5898">set_prescaler()</text><text fill="#000000" font-family="sans-serif" font-size="11" lengthAdjust="spacingAndGlyphs" textLength="81" x="12" y="287.5449">get_prescaler()</text><text fill="#000000" font-family="sans-serif" font-size="11" lengthAdjust="spacingAndGlyphs" textLength="42" x="12" y="300.5">reload()</text><text fill="#000000" font-family="sans-serif" font-size="11" lengthAdjust="spacingAndGlyphs" textLength="65" x="12" y="313.4551">get_reload()</text><text fill="#000000" font-family="sans-serif" font-size="11" lengthAdjust="spacingAndGlyphs" textLength="33" x="12" y="326.4102">start()</text><text fill="#000000" font-family="sans-serif" font-size="11" lengthAdjust="spacingAndGlyphs" textLength="32" x="12" y="339.3652">stop()</text><text fill="#000000" font-family="sans-serif" font-size="11" lengthAdjust="spacingAndGlyphs" textLength="130" x="12" y="352.3203">set_debug_hold_mode()</text><text fill="#000000" font-family="sans-serif" font-size="11" lengthAdjust="spacingAndGlyphs" textLength="91" x="12" y="365.2754">is_event_raised()</text><text fill="#000000" font-family="sans-serif" font-size="11" lengthAdjust="spacingAndGlyphs" textLength="78" x="12" y="378.2305">set_interrupt()</text><text fill="#000000" font-family="sans-serif" font-size="11" lengthAdjust="spacingAndGlyphs" textLength="62" x="12" y="391.1855">get_count()</text><!--MD5=[eb672f161971a32a28c99da6c0336b3d]
class LL_power--><rect fill="#FEFECE" filter="url(#f2mzflxbfgrvz)" height="48" id="LL_power" style="stroke: #A80036; stroke-width: 1.5;" width="86" x="183" y="278.5"/><ellipse cx="198" cy="294.5" fill="#ADD1B2" rx="11" ry="11" style="stroke: #A80036; stroke-width: 1.0;"/><path d="M200.4731,300.6431 Q199.8921,300.9419 199.2529,301.0913 Q198.6138,301.2407 197.9082,301.2407 Q195.4014,301.2407 194.0815,299.5889 Q192.7617,297.937 192.7617,294.8159 Q192.7617,291.6865 194.0815,290.0347 Q195.4014,288.3828 197.9082,288.3828 Q198.6138,288.3828 199.2612,288.5322 Q199.9087,288.6816 200.4731,288.9805 L200.4731,291.7031 Q199.8423,291.1221 199.2488,290.8523 Q198.6553,290.5825 198.0244,290.5825 Q196.6797,290.5825 195.9949,291.6492 Q195.3101,292.7158 195.3101,294.8159 Q195.3101,296.9077 195.9949,297.9744 Q196.6797,299.041 198.0244,299.041 Q198.6553,299.041 199.2488,298.7712 Q199.8423,298.5015 200.4731,297.9204 Z "/><text fill="#000000" font-family="sans-serif" font-size="12" lengthAdjust="spacingAndGlyphs" textLength="54" x="212" y="299.0352">LL_power</text><line style="stroke: #A80036; stroke-width: 1.5;" x1="184" x2="268" y1="310.5" y2="310.5"/><line style="stroke: #A80036; stroke-width: 1.5;" x1="184" x2="268" y1="318.5" y2="318.5"/><!--MD5=[8b0caf15fab33df914d6885d5506f67f]
class LL_clock--><rect fill="#FEFECE" filter="url(#f2mzflxbfgrvz)" height="48" id="LL_clock" style="stroke: #A80036; stroke-width: 1.5;" width="79" x="304.5" y="278.5"/><ellipse cx="319.5" cy="294.5" fill="#ADD1B2" rx="11" ry="11" style="stroke: #A80036; stroke-width: 1.0;"/><path d="M321.9731,300.6431 Q321.3921,300.9419 320.7529,301.0913 Q320.1138,301.2407 319.4082,301.2407 Q316.9014,301.2407 315.5815,299.5889 Q314.2617,297.937 314.2617,294.8159 Q314.2617,291.6865 315.5815,290.0347 Q316.9014,288.3828 319.4082,288.3828 Q320.1138,288.3828 320.7612,288.5322 Q321.4087,288.6816 321.9731,288.9805 L321.9731,291.7031 Q321.3423,291.1221 320.7488,290.8523 Q320.1553,290.5825 319.5244,290.5825 Q318.1797,290.5825 317.4949,291.6492 Q316.8101,292.7158 316.8101,294.8159 Q316.8101,296.9077 317.4949,297.9744 Q318.1797,299.041 319.5244,299.041 Q320.1553,299.041 320.7488,298.7712 Q321.3423,298.5015 321.9731,297.9204 Z "/><text fill="#000000" font-family="sans-serif" font-size="12" lengthAdjust="spacingAndGlyphs" textLength="47" x="333.5" y="299.0352">LL_clock</text><line style="stroke: #A80036; stroke-width: 1.5;" x1="305.5" x2="382.5" y1="310.5" y2="310.5"/><line style="stroke: #A80036; stroke-width: 1.5;" x1="305.5" x2="382.5" y1="318.5" y2="318.5"/><!--MD5=[52652f3840a7b4a1493281a11ba0ff57]
class LL_nvic--><rect fill="#FEFECE" filter="url(#f2mzflxbfgrvz)" height="48" id="LL_nvic" style="stroke: #A80036; stroke-width: 1.5;" width="72" x="419" y="278.5"/><ellipse cx="434" cy="294.5" fill="#ADD1B2" rx="11" ry="11" style="stroke: #A80036; stroke-width: 1.0;"/><path d="M436.4731,300.6431 Q435.8921,300.9419 435.2529,301.0913 Q434.6138,301.2407 433.9082,301.2407 Q431.4014,301.2407 430.0815,299.5889 Q428.7617,297.937 428.7617,294.8159 Q428.7617,291.6865 430.0815,290.0347 Q431.4014,288.3828 433.9082,288.3828 Q434.6138,288.3828 435.2612,288.5322 Q435.9087,288.6816 436.4731,288.9805 L436.4731,291.7031 Q435.8423,291.1221 435.2488,290.8523 Q434.6553,290.5825 434.0244,290.5825 Q432.6797,290.5825 431.9949,291.6492 Q431.3101,292.7158 431.3101,294.8159 Q431.3101,296.9077 431.9949,297.9744 Q432.6797,299.041 434.0244,299.041 Q434.6553,299.041 435.2488,298.7712 Q435.8423,298.5015 436.4731,297.9204 Z "/><text fill="#000000" font-family="sans-serif" font-size="12" lengthAdjust="spacingAndGlyphs" textLength="40" x="448" y="299.0352">LL_nvic</text><line style="stroke: #A80036; stroke-width: 1.5;" x1="420" x2="490" y1="310.5" y2="310.5"/><line style="stroke: #A80036; stroke-width: 1.5;" x1="420" x2="490" y1="318.5" y2="318.5"/><!--MD5=[48d3e510fe4bb0678bb2efb04bfb56fb]
link HAL_watchdog to LL_watchdog--><path d="M220.84,147.17 C202.77,166.52 183.11,187.58 165,207 C160.61,211.7 156.11,216.54 151.56,221.42 " fill="none" id="HAL_watchdog-&gt;LL_watchdog" style="stroke: #A80036; stroke-width: 1.0;"/><polygon fill="#A80036" points="148.07,225.16,157.1276,221.2921,151.4744,221.4981,151.2685,215.845,148.07,225.16" style="stroke: #A80036; stroke-width: 1.0;"/><!--MD5=[5a764759ecaedc2e21b06ee7e0772817]
link HAL_watchdog to LL_power--><path d="M266.82,147.23 C255.57,189.74 241.73,242.04 233.4,273.52 " fill="none" id="HAL_watchdog-&gt;LL_power" style="stroke: #A80036; stroke-width: 1.0; stroke-dasharray: 7.0,7.0;"/><polygon fill="#A80036" points="232.11,278.39,238.2911,270.7223,233.3965,273.5584,230.5604,268.6638,232.11,278.39" style="stroke: #A80036; stroke-width: 1.0;"/><!--MD5=[f7386a2dfa345d274c7313720920100c]
link HAL_watchdog to LL_clock--><path d="M303.18,147.23 C314.43,189.74 328.27,242.04 336.6,273.52 " fill="none" id="HAL_watchdog-&gt;LL_clock" style="stroke: #A80036; stroke-width: 1.0; stroke-dasharray: 7.0,7.0;"/><polygon fill="#A80036" points="337.89,278.39,339.4396,268.6638,336.6035,273.5584,331.7089,270.7223,337.89,278.39" style="stroke: #A80036; stroke-width: 1.0;"/><!--MD5=[8dbba1574e6143a1660e9e6aafb4b02e]
link HAL_watchdog to LL_nvic--><path d="M350.77,145.88 C367.99,164.94 385.93,186.19 401,207 C416.32,228.16 430.85,254.04 440.97,273.36 " fill="none" id="HAL_watchdog-&gt;LL_nvic" style="stroke: #A80036; stroke-width: 1.0; stroke-dasharray: 7.0,7.0;"/><polygon fill="#A80036" points="443.44,278.12,442.8546,268.2886,441.1413,273.6797,435.7502,271.9664,443.44,278.12" style="stroke: #A80036; stroke-width: 1.0;"/><!--MD5=[09be1c88934471da73bedfeba3ab2b0b]
@startuml
class HAL_watchdog {
	enable()
	disable()
	set_ms()
	feed()
	set_clock_source()
	get_clock_source()
	get_clock_frequency()
}

class LL_watchdog {
	reset()
	set_prescaler()
	get_prescaler()
	reload()
	get_reload()
	start()
	stop()
	set_debug_hold_mode()
	is_event_raised()
	set_interrupt()
	get_count()
}

HAL_watchdog - -> LL_watchdog
HAL_watchdog ..> LL_power
HAL_watchdog ..> LL_clock
HAL_watchdog ..> LL_nvic
@enduml

PlantUML version 1.2019.13(Wed Dec 11 02:18:29 KST 2019)
(GPL source distribution)
Java Runtime: Java(TM) SE Runtime Environment
JVM: Java HotSpot(TM) 64-Bit Server VM
Java Version: 15+36-1562
Operating System: Mac OS X
Default Encoding: UTF-8
Language: en
Country: KR
--></g></svg>