<?xml version="1.0" encoding="UTF-8" standalone="no"?><svg xmlns="http://www.w3.org/2000/svg" xmlns:xlink="http://www.w3.org/1999/xlink" contentScriptType="application/ecmascript" contentStyleType="text/css" height="408px" preserveAspectRatio="none" style="width:482px;height:408px;" version="1.1" viewBox="0 0 482 408" width="482px" zoomAndPan="magnify"><defs><filter height="300%" id="f1dy5dz1iuwo4f" width="300%" x="-1" y="-1"><feGaussianBlur result="blurOut" stdDeviation="2.0"/><feColorMatrix in="blurOut" result="blurOut2" type="matrix" values="0 0 0 0 0 0 0 0 0 0 0 0 0 0 0 0 0 0 .4 0"/><feOffset dx="4.0" dy="4.0" in="blurOut2" result="blurOut3"/><feBlend in="SourceGraphic" in2="blurOut3" mode="normal"/></filter></defs><g><!--MD5=[7fadd388692a9f7eb2816a65254f637e]
class wdt--><rect fill="#FEFECE" filter="url(#f1dy5dz1iuwo4f)" height="242.3262" id="wdt" style="stroke: #A80036; stroke-width: 1.5;" width="142" x="6" y="155"/><ellipse cx="62.25" cy="171" fill="#B4A7E5" rx="11" ry="11" style="stroke: #A80036; stroke-width: 1.0;"/><path d="M58.6777,167.2651 L58.6777,165.1069 L66.0571,165.1069 L66.0571,167.2651 L63.5918,167.2651 L63.5918,175.3418 L66.0571,175.3418 L66.0571,177.5 L58.6777,177.5 L58.6777,175.3418 L61.1431,175.3418 L61.1431,167.2651 Z "/><text fill="#000000" font-family="sans-serif" font-size="12" font-style="italic" lengthAdjust="spacingAndGlyphs" textLength="21" x="82.75" y="175.5352">wdt</text><line style="stroke: #A80036; stroke-width: 1.5;" x1="7" x2="147" y1="187" y2="187"/><line style="stroke: #A80036; stroke-width: 1.5;" x1="7" x2="147" y1="195" y2="195"/><text fill="#000000" font-family="sans-serif" font-size="11" lengthAdjust="spacingAndGlyphs" textLength="35" x="12" y="209.6348">reset()</text><text fill="#000000" font-family="sans-serif" font-size="11" lengthAdjust="spacingAndGlyphs" textLength="62" x="12" y="222.5898">get_count()</text><text fill="#000000" font-family="sans-serif" font-size="11" lengthAdjust="spacingAndGlyphs" textLength="78" x="12" y="235.5449">set_interrupt()</text><text fill="#000000" font-family="sans-serif" font-size="11" lengthAdjust="spacingAndGlyphs" textLength="91" x="12" y="248.5">is_event_raised()</text><text fill="#000000" font-family="sans-serif" font-size="11" lengthAdjust="spacingAndGlyphs" textLength="101" x="12" y="261.4551">set_clock_source()</text><text fill="#000000" font-family="sans-serif" font-size="11" lengthAdjust="spacingAndGlyphs" textLength="102" x="12" y="274.4102">get_clock_source()</text><text fill="#000000" font-family="sans-serif" font-size="11" lengthAdjust="spacingAndGlyphs" textLength="80" x="12" y="287.3652">set_prescaler()</text><text fill="#000000" font-family="sans-serif" font-size="11" lengthAdjust="spacingAndGlyphs" textLength="81" x="12" y="300.3203">get_prescaler()</text><text fill="#000000" font-family="sans-serif" font-size="11" lengthAdjust="spacingAndGlyphs" textLength="86" x="12" y="313.2754">set_reload_ms()</text><text fill="#000000" font-family="sans-serif" font-size="11" lengthAdjust="spacingAndGlyphs" textLength="64" x="12" y="326.2305">set_reload()</text><text fill="#000000" font-family="sans-serif" font-size="11" lengthAdjust="spacingAndGlyphs" textLength="65" x="12" y="339.1855">get_reload()</text><text fill="#000000" font-family="sans-serif" font-size="11" lengthAdjust="spacingAndGlyphs" textLength="31" x="12" y="352.1406">feed()</text><text fill="#000000" font-family="sans-serif" font-size="11" lengthAdjust="spacingAndGlyphs" textLength="33" x="12" y="365.0957">start()</text><text fill="#000000" font-family="sans-serif" font-size="11" lengthAdjust="spacingAndGlyphs" textLength="32" x="12" y="378.0508">stop()</text><text fill="#000000" font-family="sans-serif" font-size="11" lengthAdjust="spacingAndGlyphs" textLength="130" x="12" y="391.0059">set_debug_stop_mode()</text><!--MD5=[be3765a8ee426731c4981c30c0d20f09]
class HAL--><rect fill="#FEFECE" filter="url(#f1dy5dz1iuwo4f)" height="86.8652" id="HAL" style="stroke: #A80036; stroke-width: 1.5;" width="131" x="219.5" y="8"/><ellipse cx="269.25" cy="24" fill="#ADD1B2" rx="11" ry="11" style="stroke: #A80036; stroke-width: 1.0;"/><path d="M271.7231,30.1431 Q271.1421,30.4419 270.5029,30.5913 Q269.8638,30.7407 269.1582,30.7407 Q266.6514,30.7407 265.3315,29.0889 Q264.0117,27.437 264.0117,24.3159 Q264.0117,21.1865 265.3315,19.5347 Q266.6514,17.8828 269.1582,17.8828 Q269.8638,17.8828 270.5112,18.0322 Q271.1587,18.1816 271.7231,18.4805 L271.7231,21.2031 Q271.0923,20.6221 270.4988,20.3523 Q269.9053,20.0825 269.2744,20.0825 Q267.9297,20.0825 267.2449,21.1492 Q266.5601,22.2158 266.5601,24.3159 Q266.5601,26.4077 267.2449,27.4744 Q267.9297,28.541 269.2744,28.541 Q269.9053,28.541 270.4988,28.2712 Q271.0923,28.0015 271.7231,27.4204 Z "/><text fill="#000000" font-family="sans-serif" font-size="12" lengthAdjust="spacingAndGlyphs" textLength="23" x="289.75" y="28.5352">HAL</text><line style="stroke: #A80036; stroke-width: 1.5;" x1="220.5" x2="349.5" y1="40" y2="40"/><line style="stroke: #A80036; stroke-width: 1.5;" x1="220.5" x2="349.5" y1="48" y2="48"/><text fill="#000000" font-family="sans-serif" font-size="11" lengthAdjust="spacingAndGlyphs" textLength="43" x="225.5" y="62.6348">enable()</text><text fill="#000000" font-family="sans-serif" font-size="11" lengthAdjust="spacingAndGlyphs" textLength="46" x="225.5" y="75.5898">disable()</text><text fill="#000000" font-family="sans-serif" font-size="11" lengthAdjust="spacingAndGlyphs" textLength="119" x="225.5" y="88.5449">get_clock_freqeuncy()</text><!--MD5=[b3c4cffaebeb1ca91d3860615de3212f]
class LL--><rect fill="#FEFECE" filter="url(#f1dy5dz1iuwo4f)" height="48" id="LL" style="stroke: #A80036; stroke-width: 1.5;" width="44" x="55" y="27.5"/><ellipse cx="70" cy="43.5" fill="#ADD1B2" rx="11" ry="11" style="stroke: #A80036; stroke-width: 1.0;"/><path d="M72.4731,49.6431 Q71.8921,49.9419 71.2529,50.0913 Q70.6138,50.2407 69.9082,50.2407 Q67.4014,50.2407 66.0815,48.5889 Q64.7617,46.937 64.7617,43.8159 Q64.7617,40.6865 66.0815,39.0347 Q67.4014,37.3828 69.9082,37.3828 Q70.6138,37.3828 71.2612,37.5322 Q71.9087,37.6816 72.4731,37.9805 L72.4731,40.7031 Q71.8423,40.1221 71.2488,39.8523 Q70.6553,39.5825 70.0244,39.5825 Q68.6797,39.5825 67.9949,40.6492 Q67.3101,41.7158 67.3101,43.8159 Q67.3101,45.9077 67.9949,46.9744 Q68.6797,48.041 70.0244,48.041 Q70.6553,48.041 71.2488,47.7712 Q71.8423,47.5015 72.4731,46.9204 Z "/><text fill="#000000" font-family="sans-serif" font-size="12" lengthAdjust="spacingAndGlyphs" textLength="12" x="84" y="48.0352">LL</text><line style="stroke: #A80036; stroke-width: 1.5;" x1="56" x2="98" y1="59.5" y2="59.5"/><line style="stroke: #A80036; stroke-width: 1.5;" x1="56" x2="98" y1="67.5" y2="67.5"/><!--MD5=[eb672f161971a32a28c99da6c0336b3d]
class LL_power--><rect fill="#FEFECE" filter="url(#f1dy5dz1iuwo4f)" height="48" id="LL_power" style="stroke: #A80036; stroke-width: 1.5;" width="86" x="183" y="252"/><ellipse cx="198" cy="268" fill="#ADD1B2" rx="11" ry="11" style="stroke: #A80036; stroke-width: 1.0;"/><path d="M200.4731,274.1431 Q199.8921,274.4419 199.2529,274.5913 Q198.6138,274.7407 197.9082,274.7407 Q195.4014,274.7407 194.0815,273.0889 Q192.7617,271.437 192.7617,268.3159 Q192.7617,265.1865 194.0815,263.5347 Q195.4014,261.8828 197.9082,261.8828 Q198.6138,261.8828 199.2612,262.0322 Q199.9087,262.1816 200.4731,262.4805 L200.4731,265.2031 Q199.8423,264.6221 199.2488,264.3523 Q198.6553,264.0825 198.0244,264.0825 Q196.6797,264.0825 195.9949,265.1492 Q195.3101,266.2158 195.3101,268.3159 Q195.3101,270.4077 195.9949,271.4744 Q196.6797,272.541 198.0244,272.541 Q198.6553,272.541 199.2488,272.2712 Q199.8423,272.0015 200.4731,271.4204 Z "/><text fill="#000000" font-family="sans-serif" font-size="12" lengthAdjust="spacingAndGlyphs" textLength="54" x="212" y="272.5352">LL_power</text><line style="stroke: #A80036; stroke-width: 1.5;" x1="184" x2="268" y1="284" y2="284"/><line style="stroke: #A80036; stroke-width: 1.5;" x1="184" x2="268" y1="292" y2="292"/><!--MD5=[8b0caf15fab33df914d6885d5506f67f]
class LL_clock--><rect fill="#FEFECE" filter="url(#f1dy5dz1iuwo4f)" height="48" id="LL_clock" style="stroke: #A80036; stroke-width: 1.5;" width="79" x="304.5" y="252"/><ellipse cx="319.5" cy="268" fill="#ADD1B2" rx="11" ry="11" style="stroke: #A80036; stroke-width: 1.0;"/><path d="M321.9731,274.1431 Q321.3921,274.4419 320.7529,274.5913 Q320.1138,274.7407 319.4082,274.7407 Q316.9014,274.7407 315.5815,273.0889 Q314.2617,271.437 314.2617,268.3159 Q314.2617,265.1865 315.5815,263.5347 Q316.9014,261.8828 319.4082,261.8828 Q320.1138,261.8828 320.7612,262.0322 Q321.4087,262.1816 321.9731,262.4805 L321.9731,265.2031 Q321.3423,264.6221 320.7488,264.3523 Q320.1553,264.0825 319.5244,264.0825 Q318.1797,264.0825 317.4949,265.1492 Q316.8101,266.2158 316.8101,268.3159 Q316.8101,270.4077 317.4949,271.4744 Q318.1797,272.541 319.5244,272.541 Q320.1553,272.541 320.7488,272.2712 Q321.3423,272.0015 321.9731,271.4204 Z "/><text fill="#000000" font-family="sans-serif" font-size="12" lengthAdjust="spacingAndGlyphs" textLength="47" x="333.5" y="272.5352">LL_clock</text><line style="stroke: #A80036; stroke-width: 1.5;" x1="305.5" x2="382.5" y1="284" y2="284"/><line style="stroke: #A80036; stroke-width: 1.5;" x1="305.5" x2="382.5" y1="292" y2="292"/><!--MD5=[831aefa9ebd008f9dae82517425faefb]
class IRQ--><rect fill="#FEFECE" filter="url(#f1dy5dz1iuwo4f)" height="48" id="IRQ" style="stroke: #A80036; stroke-width: 1.5;" width="52" x="419" y="252"/><ellipse cx="434" cy="268" fill="#ADD1B2" rx="11" ry="11" style="stroke: #A80036; stroke-width: 1.0;"/><path d="M436.4731,274.1431 Q435.8921,274.4419 435.2529,274.5913 Q434.6138,274.7407 433.9082,274.7407 Q431.4014,274.7407 430.0815,273.0889 Q428.7617,271.437 428.7617,268.3159 Q428.7617,265.1865 430.0815,263.5347 Q431.4014,261.8828 433.9082,261.8828 Q434.6138,261.8828 435.2612,262.0322 Q435.9087,262.1816 436.4731,262.4805 L436.4731,265.2031 Q435.8423,264.6221 435.2488,264.3523 Q434.6553,264.0825 434.0244,264.0825 Q432.6797,264.0825 431.9949,265.1492 Q431.3101,266.2158 431.3101,268.3159 Q431.3101,270.4077 431.9949,271.4744 Q432.6797,272.541 434.0244,272.541 Q434.6553,272.541 435.2488,272.2712 Q435.8423,272.0015 436.4731,271.4204 Z "/><text fill="#000000" font-family="sans-serif" font-size="12" lengthAdjust="spacingAndGlyphs" textLength="20" x="448" y="272.5352">IRQ</text><line style="stroke: #A80036; stroke-width: 1.5;" x1="420" x2="470" y1="284" y2="284"/><line style="stroke: #A80036; stroke-width: 1.5;" x1="420" x2="470" y1="292" y2="292"/><!--MD5=[4ab8997221edd4cf93c88e431340d4cb]
link LL to wdt--><path d="M77,75.89 C77,90.95 77,111.9 77,134.6 " fill="none" id="LL-&gt;wdt" style="stroke: #A80036; stroke-width: 1.0; stroke-dasharray: 7.0,7.0;"/><polygon fill="none" points="84,134.89,77,154.89,70,134.89,84,134.89" style="stroke: #A80036; stroke-width: 1.0;"/><!--MD5=[38e7388c516eb7e1eab231890dec2fbe]
link HAL to wdt--><path d="M229.73,95.16 C208.5,112.69 184.67,133.82 165,155 C160.45,159.9 155.92,165.04 151.45,170.32 " fill="none" id="HAL-&gt;wdt" style="stroke: #A80036; stroke-width: 1.0;"/><polygon fill="#A80036" points="148.04,174.38,156.873,170.0235,151.2395,170.5377,150.7253,164.9043,148.04,174.38" style="stroke: #A80036; stroke-width: 1.0;"/><!--MD5=[f481892d08b88046121823827ef5b6c7]
link HAL to LL_power--><path d="M273.69,95.14 C261.85,139.82 243.57,208.73 233.43,246.98 " fill="none" id="HAL-&gt;LL_power" style="stroke: #A80036; stroke-width: 1.0;"/><polygon fill="#A80036" points="232.11,251.94,238.2855,244.2677,233.393,247.1074,230.5533,242.2149,232.11,251.94" style="stroke: #A80036; stroke-width: 1.0;"/><!--MD5=[03027760a4a69a9b5b7ae20cb535c4e1]
link HAL to LL_clock--><path d="M296.31,95.14 C308.15,139.82 326.43,208.73 336.57,246.98 " fill="none" id="HAL-&gt;LL_clock" style="stroke: #A80036; stroke-width: 1.0;"/><polygon fill="#A80036" points="337.89,251.94,339.4467,242.2149,336.607,247.1074,331.7145,244.2677,337.89,251.94" style="stroke: #A80036; stroke-width: 1.0;"/><!--MD5=[aa119ece880843938e062c5ac955c7c5]
link HAL to IRQ--><path d="M344.24,95.08 C364.4,111.9 385.69,132.59 401,155 C420.36,183.34 432.39,221.25 438.88,246.81 " fill="none" id="HAL-&gt;IRQ" style="stroke: #A80036; stroke-width: 1.0;"/><polygon fill="#A80036" points="440.1,251.75,441.8246,242.0533,438.9008,246.8959,434.0581,243.9721,440.1,251.75" style="stroke: #A80036; stroke-width: 1.0;"/><!--MD5=[1da5e6632137a57c5d216532d17b4431]
@startuml
interface wdt {
	reset()
	get_count()
	set_interrupt()
	is_event_raised()
	set_clock_source()
	get_clock_source()
	set_prescaler()
	get_prescaler()
	set_reload_ms()
	set_reload()
	get_reload()
	feed()
	start()
	stop()
	set_debug_stop_mode()
}

class HAL {
	enable()
	disable()
	get_clock_freqeuncy()
}

LL ..|> wdt
HAL - -> wdt
HAL - -> LL_power
HAL - -> LL_clock
HAL - -> IRQ
@enduml

PlantUML version 1.2019.13(Wed Dec 11 02:18:29 KST 2019)
(GPL source distribution)
Java Runtime: Java(TM) SE Runtime Environment
JVM: Java HotSpot(TM) 64-Bit Server VM
Java Version: 15+36-1562
Operating System: Mac OS X
Default Encoding: UTF-8
Language: en
Country: KR
--></g></svg>